M48
;DRILL file {KiCad 4.0.4-stable} date 01/16/17 16:34:10
;FORMAT={-:-/ absolute / metric / decimal}
FMAT,2
METRIC,TZ
T1C0.500
T2C0.700
T3C0.762
T4C0.800
T5C0.813
T6C0.900
T7C1.000
T8C1.016
%
G90
G05
M71
T1
X59.46Y-93.4
X63.1Y-110.4
X65.42Y-94.64
X67.1Y-119.
X83.59Y-69.84
X91.59Y-104.05
X92.4Y-116.2
X92.54Y-98.98
X92.66Y-114.49
X93.99Y-96.13
X94.37Y-114.49
X94.83Y-95.21
X94.86Y-113.1
X101.2Y-110.59
X102.04Y-107.9
X103.4Y-83.2
X110.3Y-86.1
T2
X51.74Y-58.75
X51.85Y-69.84
X52.04Y-87.59
X52.2Y-125.04
X52.5Y-79.2
X53.93Y-118.72
X54.29Y-108.32
X54.29Y-112.2
X56.5Y-79.17
X58.06Y-116.4
X58.1Y-87.33
X58.52Y-51.82
X58.56Y-58.75
X58.9Y-125.39
X58.93Y-118.72
X58.98Y-131.98
X60.12Y-112.36
X60.16Y-80.54
X60.72Y-99.83
X62.71Y-78.03
X63.38Y-102.51
X63.74Y-118.87
X64.39Y-69.57
X65.53Y-98.56
X65.9Y-116.9
X65.96Y-57.
X65.96Y-61.
X65.96Y-65.
X65.96Y-72.6
X65.96Y-76.5
X65.96Y-80.4
X65.96Y-84.4
X65.96Y-88.4
X65.96Y-92.5
X65.96Y-96.4
X65.96Y-100.4
X65.96Y-104.4
X65.96Y-108.4
X65.96Y-112.3
X67.Y-86.5
X68.4Y-116.9
X68.5Y-57.
X68.5Y-61.
X68.5Y-65.
X68.5Y-72.6
X68.5Y-76.5
X68.5Y-80.4
X68.5Y-84.4
X68.5Y-88.4
X68.5Y-92.5
X68.5Y-96.4
X68.5Y-100.4
X68.5Y-104.4
X68.5Y-108.4
X68.5Y-112.3
X70.26Y-51.85
X70.41Y-132.13
X71.82Y-69.04
X73.1Y-120.8
X75.17Y-124.24
X75.82Y-90.41
X76.2Y-107.5
X76.7Y-112.3
X76.8Y-68.
X76.85Y-86.64
X77.Y-80.62
X78.Y-89.
X78.Y-91.5
X78.33Y-127.03
X78.37Y-132.05
X78.5Y-103.5
X78.5Y-110.6
X78.71Y-59.82
X78.79Y-69.68
X78.79Y-72.43
X78.8Y-107.5
X79.7Y-56.4
X80.12Y-51.97
X84.48Y-125.85
X84.7Y-109.4
X85.28Y-127.05
X86.08Y-125.85
X86.26Y-91.44
X86.33Y-61.87
X86.33Y-77.95
X86.33Y-83.97
X86.88Y-127.05
X87.Y-101.6
X87.68Y-125.85
X89.37Y-123.04
X89.4Y-101.5
X89.6Y-108.3
X90.34Y-71.74
X92.01Y-61.99
X92.25Y-120.29
X92.39Y-67.89
X94.22Y-132.08
X96.23Y-57.
X96.26Y-124.4
X98.1Y-118.8
X98.29Y-123.67
X98.68Y-59.32
X98.77Y-57.
X99.35Y-53.49
X99.7Y-82.
X100.1Y-125.9
X100.163Y-130.71
X100.53Y-83.82
X100.53Y-86.32
X101.32Y-123.83
X102.1Y-72.2
X102.686Y-117.192
X102.88Y-62.75
X103.3Y-74.7
X103.47Y-56.845
X103.69Y-127.41
X104.5Y-65.4
X104.907Y-117.996
X105.87Y-129.5
X106.6Y-86.3
X108.4Y-89.
X108.51Y-132.18
X110.66Y-132.2
X110.86Y-58.4
X110.96Y-54.5
X110.96Y-62.5
X110.96Y-66.5
X110.96Y-70.5
X111.06Y-74.5
X111.06Y-78.5
X111.06Y-82.5
X111.06Y-89.
X111.06Y-93.
X111.06Y-97.1
X111.06Y-101.
X111.06Y-105.1
X111.06Y-109.1
X111.06Y-113.1
X111.06Y-117.1
X113.4Y-58.4
X113.5Y-54.5
X113.5Y-62.5
X113.5Y-66.5
X113.5Y-70.5
X113.6Y-74.5
X113.6Y-78.5
X113.6Y-82.5
X113.6Y-89.
X113.6Y-93.
X113.6Y-97.1
X113.6Y-101.
X113.6Y-105.1
X113.6Y-109.1
X113.6Y-113.1
X113.6Y-117.1
X114.8Y-120.2
X115.64Y-76.61
X116.3Y-64.6
X116.76Y-81.
X117.16Y-121.7
X117.4Y-87.
X118.Y-68.1
X118.Y-72.2
X119.7Y-121.7
X120.8Y-52.2
X120.84Y-81.78
X121.Y-59.1
X122.Y-125.5
X122.7Y-113.
X123.5Y-86.2
X124.5Y-116.23
X124.5Y-118.77
X125.31Y-78.96
X125.34Y-81.75
X125.7Y-63.4
X125.8Y-92.4
X126.Y-86.2
X127.1Y-122.9
X127.4Y-116.7
X127.9Y-59.7
T3
X73.Y-97.7
T4
X63.Y-123.
X63.Y-128.
X78.8Y-118.4
X78.8Y-123.4
X81.28Y-63.5
X81.28Y-66.04
X81.28Y-68.58
X81.28Y-71.12
X81.28Y-73.66
X81.28Y-76.2
X81.28Y-78.74
X81.28Y-81.28
X81.28Y-83.82
X81.28Y-86.36
X81.28Y-88.9
X81.28Y-91.44
X81.28Y-93.98
X81.28Y-96.52
X81.28Y-99.06
X81.28Y-101.6
X81.28Y-104.14
X81.28Y-106.68
X81.28Y-109.22
X81.28Y-111.76
X88.Y-57.
X93.Y-57.
X96.52Y-63.5
X96.52Y-66.04
X96.52Y-68.58
X96.52Y-71.12
X96.52Y-73.66
X96.52Y-76.2
X96.52Y-78.74
X96.52Y-81.28
X96.52Y-83.82
X96.52Y-86.36
X96.52Y-88.9
X96.52Y-91.44
X96.52Y-93.98
X96.52Y-96.52
X96.52Y-99.06
X96.52Y-101.6
X96.52Y-104.14
X96.52Y-106.68
X96.52Y-109.22
X96.52Y-111.76
X108.5Y-124.3
X108.5Y-129.3
T5
X67.86Y-127.5
X70.4Y-127.5
X72.94Y-127.5
X73.Y-55.34
X73.Y-57.88
X73.Y-60.42
X73.Y-62.96
X73.Y-65.5
X73.Y-74.84
X73.Y-77.38
X73.Y-79.92
X73.Y-82.46
X73.Y-85.
X73.Y-87.54
X73.Y-90.08
X73.Y-92.62
X73.Y-95.16
X73.Y-103.34
X73.Y-105.88
X73.Y-108.42
X73.Y-110.96
X73.Y-113.5
X73.Y-116.04
X106.7Y-93.24
X106.7Y-95.78
X106.7Y-98.32
X106.7Y-100.86
X106.7Y-103.4
X106.7Y-105.94
X106.7Y-108.48
X106.7Y-111.02
X106.7Y-113.56
X106.9Y-60.44
X106.9Y-62.98
X106.9Y-65.52
X106.9Y-68.06
X106.9Y-70.6
X106.9Y-73.14
X106.9Y-75.68
X106.9Y-78.22
X106.9Y-80.76
T6
X55.Y-64.
X55.Y-66.5
X55.Y-69.
X55.Y-71.5
X55.Y-74.
T7
X112.75Y-126.75
X113.Y-131.
X119.Y-127.
X119.Y-131.
T8
X54.1Y-89.6
X54.1Y-92.14
X54.1Y-94.68
X54.1Y-97.22
X54.1Y-99.76
X54.1Y-102.3
X54.1Y-104.84
X56.64Y-89.6
X56.64Y-92.14
X56.64Y-94.68
X56.64Y-97.22
X56.64Y-99.76
X56.64Y-102.3
X56.64Y-104.84
X82.8Y-53.
X85.34Y-53.
X87.88Y-53.
X90.42Y-53.
X92.96Y-53.
X95.5Y-53.
X123.46Y-65.84
X123.46Y-68.38
X123.46Y-70.92
X123.46Y-73.46
X123.46Y-76.
X123.46Y-96.84
X123.46Y-99.38
X123.46Y-101.92
X123.46Y-104.46
X123.46Y-107.
X126.Y-65.84
X126.Y-68.38
X126.Y-70.92
X126.Y-73.46
X126.Y-76.
X126.Y-96.84
X126.Y-99.38
X126.Y-101.92
X126.Y-104.46
X126.Y-107.
T4
X82.38Y-127.7G85X82.38Y-125.8
G05
X82.38Y-132.45G85X82.38Y-130.55
G05
X89.78Y-127.7G85X89.78Y-125.8
G05
X89.78Y-132.45G85X89.78Y-130.55
G05
T0
M30
