G04 #@! TF.FileFunction,Legend,Top*
%FSLAX46Y46*%
G04 Gerber Fmt 4.6, Leading zero omitted, Abs format (unit mm)*
G04 Created by KiCad (PCBNEW 4.0.4-stable) date 01/16/17 16:34:01*
%MOMM*%
%LPD*%
G01*
G04 APERTURE LIST*
%ADD10C,0.100000*%
%ADD11C,0.150000*%
%ADD12C,0.300000*%
%ADD13C,0.400000*%
%ADD14C,0.200000*%
%ADD15R,2.250000X2.250000*%
%ADD16C,2.250000*%
%ADD17R,1.900000X1.900000*%
%ADD18C,1.900000*%
%ADD19O,0.750000X1.600000*%
%ADD20C,1.700000*%
%ADD21R,1.797000X1.797000*%
%ADD22C,1.797000*%
%ADD23C,3.900000*%
%ADD24C,1.924000*%
%ADD25R,2.127200X2.127200*%
%ADD26O,2.127200X2.127200*%
%ADD27O,1.400000X1.600000*%
%ADD28O,1.700000X3.600000*%
%ADD29R,2.127200X2.432000*%
%ADD30O,2.127200X2.432000*%
%ADD31C,2.100000*%
%ADD32R,1.700000X1.700000*%
%ADD33R,1.600000X1.600000*%
%ADD34C,1.600000*%
%ADD35O,2.700000X2.000000*%
%ADD36R,1.600000X1.150000*%
%ADD37R,1.300000X1.600000*%
G04 APERTURE END LIST*
D10*
D11*
X177002200Y-166007200D02*
X177002200Y-198007200D01*
X285002200Y-198007200D01*
X285002200Y-166007200D01*
X177002200Y-166007200D01*
D10*
D11*
X10000000Y-10000000D02*
X10000000Y-200007200D01*
X287002200Y-200007200D01*
X287002200Y-10000000D01*
X10000000Y-10000000D01*
D10*
D11*
X12000000Y-12000000D02*
X12000000Y-198007200D01*
X285002200Y-198007200D01*
X285002200Y-12000000D01*
X12000000Y-12000000D01*
D10*
D11*
X60000000Y-12000000D02*
X60000000Y-10000000D01*
D10*
D11*
X110000000Y-12000000D02*
X110000000Y-10000000D01*
D10*
D11*
X160000000Y-12000000D02*
X160000000Y-10000000D01*
D10*
D11*
X210000000Y-12000000D02*
X210000000Y-10000000D01*
D10*
D11*
X260000000Y-12000000D02*
X260000000Y-10000000D01*
D10*
D11*
X35990476Y-11588095D02*
X35247619Y-11588095D01*
X35619048Y-11588095D02*
X35619048Y-10288095D01*
X35495238Y-10473810D01*
X35371429Y-10597619D01*
X35247619Y-10659524D01*
D10*
D11*
X85247619Y-10411905D02*
X85309524Y-10350000D01*
X85433333Y-10288095D01*
X85742857Y-10288095D01*
X85866667Y-10350000D01*
X85928571Y-10411905D01*
X85990476Y-10535714D01*
X85990476Y-10659524D01*
X85928571Y-10845238D01*
X85185714Y-11588095D01*
X85990476Y-11588095D01*
D10*
D11*
X135185714Y-10288095D02*
X135990476Y-10288095D01*
X135557143Y-10783333D01*
X135742857Y-10783333D01*
X135866667Y-10845238D01*
X135928571Y-10907143D01*
X135990476Y-11030952D01*
X135990476Y-11340476D01*
X135928571Y-11464286D01*
X135866667Y-11526190D01*
X135742857Y-11588095D01*
X135371429Y-11588095D01*
X135247619Y-11526190D01*
X135185714Y-11464286D01*
D10*
D11*
X185866667Y-10721429D02*
X185866667Y-11588095D01*
X185557143Y-10226190D02*
X185247619Y-11154762D01*
X186052381Y-11154762D01*
D10*
D11*
X235928571Y-10288095D02*
X235309524Y-10288095D01*
X235247619Y-10907143D01*
X235309524Y-10845238D01*
X235433333Y-10783333D01*
X235742857Y-10783333D01*
X235866667Y-10845238D01*
X235928571Y-10907143D01*
X235990476Y-11030952D01*
X235990476Y-11340476D01*
X235928571Y-11464286D01*
X235866667Y-11526190D01*
X235742857Y-11588095D01*
X235433333Y-11588095D01*
X235309524Y-11526190D01*
X235247619Y-11464286D01*
D10*
D11*
X285866667Y-10288095D02*
X285619048Y-10288095D01*
X285495238Y-10350000D01*
X285433333Y-10411905D01*
X285309524Y-10597619D01*
X285247619Y-10845238D01*
X285247619Y-11340476D01*
X285309524Y-11464286D01*
X285371429Y-11526190D01*
X285495238Y-11588095D01*
X285742857Y-11588095D01*
X285866667Y-11526190D01*
X285928571Y-11464286D01*
X285990476Y-11340476D01*
X285990476Y-11030952D01*
X285928571Y-10907143D01*
X285866667Y-10845238D01*
X285742857Y-10783333D01*
X285495238Y-10783333D01*
X285371429Y-10845238D01*
X285309524Y-10907143D01*
X285247619Y-11030952D01*
D10*
D11*
X60000000Y-198007200D02*
X60000000Y-200007200D01*
D10*
D11*
X110000000Y-198007200D02*
X110000000Y-200007200D01*
D10*
D11*
X160000000Y-198007200D02*
X160000000Y-200007200D01*
D10*
D11*
X210000000Y-198007200D02*
X210000000Y-200007200D01*
D10*
D11*
X260000000Y-198007200D02*
X260000000Y-200007200D01*
D10*
D11*
X35990476Y-199595295D02*
X35247619Y-199595295D01*
X35619048Y-199595295D02*
X35619048Y-198295295D01*
X35495238Y-198481010D01*
X35371429Y-198604819D01*
X35247619Y-198666724D01*
D10*
D11*
X85247619Y-198419105D02*
X85309524Y-198357200D01*
X85433333Y-198295295D01*
X85742857Y-198295295D01*
X85866667Y-198357200D01*
X85928571Y-198419105D01*
X85990476Y-198542914D01*
X85990476Y-198666724D01*
X85928571Y-198852438D01*
X85185714Y-199595295D01*
X85990476Y-199595295D01*
D10*
D11*
X135185714Y-198295295D02*
X135990476Y-198295295D01*
X135557143Y-198790533D01*
X135742857Y-198790533D01*
X135866667Y-198852438D01*
X135928571Y-198914343D01*
X135990476Y-199038152D01*
X135990476Y-199347676D01*
X135928571Y-199471486D01*
X135866667Y-199533390D01*
X135742857Y-199595295D01*
X135371429Y-199595295D01*
X135247619Y-199533390D01*
X135185714Y-199471486D01*
D10*
D11*
X185866667Y-198728629D02*
X185866667Y-199595295D01*
X185557143Y-198233390D02*
X185247619Y-199161962D01*
X186052381Y-199161962D01*
D10*
D11*
X235928571Y-198295295D02*
X235309524Y-198295295D01*
X235247619Y-198914343D01*
X235309524Y-198852438D01*
X235433333Y-198790533D01*
X235742857Y-198790533D01*
X235866667Y-198852438D01*
X235928571Y-198914343D01*
X235990476Y-199038152D01*
X235990476Y-199347676D01*
X235928571Y-199471486D01*
X235866667Y-199533390D01*
X235742857Y-199595295D01*
X235433333Y-199595295D01*
X235309524Y-199533390D01*
X235247619Y-199471486D01*
D10*
D11*
X285866667Y-198295295D02*
X285619048Y-198295295D01*
X285495238Y-198357200D01*
X285433333Y-198419105D01*
X285309524Y-198604819D01*
X285247619Y-198852438D01*
X285247619Y-199347676D01*
X285309524Y-199471486D01*
X285371429Y-199533390D01*
X285495238Y-199595295D01*
X285742857Y-199595295D01*
X285866667Y-199533390D01*
X285928571Y-199471486D01*
X285990476Y-199347676D01*
X285990476Y-199038152D01*
X285928571Y-198914343D01*
X285866667Y-198852438D01*
X285742857Y-198790533D01*
X285495238Y-198790533D01*
X285371429Y-198852438D01*
X285309524Y-198914343D01*
X285247619Y-199038152D01*
D10*
D11*
X10000000Y-60000000D02*
X12000000Y-60000000D01*
D10*
D11*
X10000000Y-110000000D02*
X12000000Y-110000000D01*
D10*
D11*
X10000000Y-160000000D02*
X12000000Y-160000000D01*
D10*
D11*
X10690476Y-35216667D02*
X11309524Y-35216667D01*
X10566667Y-35588095D02*
X11000000Y-34288095D01*
X11433333Y-35588095D01*
D10*
D11*
X11092857Y-84907143D02*
X11278571Y-84969048D01*
X11340476Y-85030952D01*
X11402381Y-85154762D01*
X11402381Y-85340476D01*
X11340476Y-85464286D01*
X11278571Y-85526190D01*
X11154762Y-85588095D01*
X10659524Y-85588095D01*
X10659524Y-84288095D01*
X11092857Y-84288095D01*
X11216667Y-84350000D01*
X11278571Y-84411905D01*
X11340476Y-84535714D01*
X11340476Y-84659524D01*
X11278571Y-84783333D01*
X11216667Y-84845238D01*
X11092857Y-84907143D01*
X10659524Y-84907143D01*
D10*
D11*
X11402381Y-135464286D02*
X11340476Y-135526190D01*
X11154762Y-135588095D01*
X11030952Y-135588095D01*
X10845238Y-135526190D01*
X10721429Y-135402381D01*
X10659524Y-135278571D01*
X10597619Y-135030952D01*
X10597619Y-134845238D01*
X10659524Y-134597619D01*
X10721429Y-134473810D01*
X10845238Y-134350000D01*
X11030952Y-134288095D01*
X11154762Y-134288095D01*
X11340476Y-134350000D01*
X11402381Y-134411905D01*
D10*
D11*
X10659524Y-185588095D02*
X10659524Y-184288095D01*
X10969048Y-184288095D01*
X11154762Y-184350000D01*
X11278571Y-184473810D01*
X11340476Y-184597619D01*
X11402381Y-184845238D01*
X11402381Y-185030952D01*
X11340476Y-185278571D01*
X11278571Y-185402381D01*
X11154762Y-185526190D01*
X10969048Y-185588095D01*
X10659524Y-185588095D01*
D10*
D11*
X287002200Y-60000000D02*
X285002200Y-60000000D01*
D10*
D11*
X287002200Y-110000000D02*
X285002200Y-110000000D01*
D10*
D11*
X287002200Y-160000000D02*
X285002200Y-160000000D01*
D10*
D11*
X285692676Y-35216667D02*
X286311724Y-35216667D01*
X285568867Y-35588095D02*
X286002200Y-34288095D01*
X286435533Y-35588095D01*
D10*
D11*
X286095057Y-84907143D02*
X286280771Y-84969048D01*
X286342676Y-85030952D01*
X286404581Y-85154762D01*
X286404581Y-85340476D01*
X286342676Y-85464286D01*
X286280771Y-85526190D01*
X286156962Y-85588095D01*
X285661724Y-85588095D01*
X285661724Y-84288095D01*
X286095057Y-84288095D01*
X286218867Y-84350000D01*
X286280771Y-84411905D01*
X286342676Y-84535714D01*
X286342676Y-84659524D01*
X286280771Y-84783333D01*
X286218867Y-84845238D01*
X286095057Y-84907143D01*
X285661724Y-84907143D01*
D10*
D11*
X286404581Y-135464286D02*
X286342676Y-135526190D01*
X286156962Y-135588095D01*
X286033152Y-135588095D01*
X285847438Y-135526190D01*
X285723629Y-135402381D01*
X285661724Y-135278571D01*
X285599819Y-135030952D01*
X285599819Y-134845238D01*
X285661724Y-134597619D01*
X285723629Y-134473810D01*
X285847438Y-134350000D01*
X286033152Y-134288095D01*
X286156962Y-134288095D01*
X286342676Y-134350000D01*
X286404581Y-134411905D01*
D10*
D11*
X285661724Y-185588095D02*
X285661724Y-184288095D01*
X285971248Y-184288095D01*
X286156962Y-184350000D01*
X286280771Y-184473810D01*
X286342676Y-184597619D01*
X286404581Y-184845238D01*
X286404581Y-185030952D01*
X286342676Y-185278571D01*
X286280771Y-185402381D01*
X286156962Y-185526190D01*
X285971248Y-185588095D01*
X285661724Y-185588095D01*
D10*
D11*
X200359343Y-193785771D02*
X200359343Y-192285771D01*
X200716486Y-192285771D01*
X200930771Y-192357200D01*
X201073629Y-192500057D01*
X201145057Y-192642914D01*
X201216486Y-192928629D01*
X201216486Y-193142914D01*
X201145057Y-193428629D01*
X201073629Y-193571486D01*
X200930771Y-193714343D01*
X200716486Y-193785771D01*
X200359343Y-193785771D01*
X202502200Y-193785771D02*
X202502200Y-193000057D01*
X202430771Y-192857200D01*
X202287914Y-192785771D01*
X202002200Y-192785771D01*
X201859343Y-192857200D01*
X202502200Y-193714343D02*
X202359343Y-193785771D01*
X202002200Y-193785771D01*
X201859343Y-193714343D01*
X201787914Y-193571486D01*
X201787914Y-193428629D01*
X201859343Y-193285771D01*
X202002200Y-193214343D01*
X202359343Y-193214343D01*
X202502200Y-193142914D01*
X203002200Y-192785771D02*
X203573629Y-192785771D01*
X203216486Y-192285771D02*
X203216486Y-193571486D01*
X203287914Y-193714343D01*
X203430772Y-193785771D01*
X203573629Y-193785771D01*
X204645057Y-193714343D02*
X204502200Y-193785771D01*
X204216486Y-193785771D01*
X204073629Y-193714343D01*
X204002200Y-193571486D01*
X204002200Y-193000057D01*
X204073629Y-192857200D01*
X204216486Y-192785771D01*
X204502200Y-192785771D01*
X204645057Y-192857200D01*
X204716486Y-193000057D01*
X204716486Y-193142914D01*
X204002200Y-193285771D01*
X205359343Y-193642914D02*
X205430771Y-193714343D01*
X205359343Y-193785771D01*
X205287914Y-193714343D01*
X205359343Y-193642914D01*
X205359343Y-193785771D01*
X205359343Y-192857200D02*
X205430771Y-192928629D01*
X205359343Y-193000057D01*
X205287914Y-192928629D01*
X205359343Y-192857200D01*
X205359343Y-193000057D01*
D10*
D11*
X177002200Y-194507200D02*
X285002200Y-194507200D01*
D10*
D11*
X178359343Y-196585771D02*
X178359343Y-195085771D01*
X179216486Y-196585771D02*
X178573629Y-195728629D01*
X179216486Y-195085771D02*
X178359343Y-195942914D01*
X179859343Y-196585771D02*
X179859343Y-195585771D01*
X179859343Y-195085771D02*
X179787914Y-195157200D01*
X179859343Y-195228629D01*
X179930771Y-195157200D01*
X179859343Y-195085771D01*
X179859343Y-195228629D01*
X181430772Y-196442914D02*
X181359343Y-196514343D01*
X181145057Y-196585771D01*
X181002200Y-196585771D01*
X180787915Y-196514343D01*
X180645057Y-196371486D01*
X180573629Y-196228629D01*
X180502200Y-195942914D01*
X180502200Y-195728629D01*
X180573629Y-195442914D01*
X180645057Y-195300057D01*
X180787915Y-195157200D01*
X181002200Y-195085771D01*
X181145057Y-195085771D01*
X181359343Y-195157200D01*
X181430772Y-195228629D01*
X182716486Y-196585771D02*
X182716486Y-195800057D01*
X182645057Y-195657200D01*
X182502200Y-195585771D01*
X182216486Y-195585771D01*
X182073629Y-195657200D01*
X182716486Y-196514343D02*
X182573629Y-196585771D01*
X182216486Y-196585771D01*
X182073629Y-196514343D01*
X182002200Y-196371486D01*
X182002200Y-196228629D01*
X182073629Y-196085771D01*
X182216486Y-196014343D01*
X182573629Y-196014343D01*
X182716486Y-195942914D01*
X184073629Y-196585771D02*
X184073629Y-195085771D01*
X184073629Y-196514343D02*
X183930772Y-196585771D01*
X183645058Y-196585771D01*
X183502200Y-196514343D01*
X183430772Y-196442914D01*
X183359343Y-196300057D01*
X183359343Y-195871486D01*
X183430772Y-195728629D01*
X183502200Y-195657200D01*
X183645058Y-195585771D01*
X183930772Y-195585771D01*
X184073629Y-195657200D01*
X185930772Y-195800057D02*
X186430772Y-195800057D01*
X186645058Y-196585771D02*
X185930772Y-196585771D01*
X185930772Y-195085771D01*
X186645058Y-195085771D01*
X187287915Y-196442914D02*
X187359343Y-196514343D01*
X187287915Y-196585771D01*
X187216486Y-196514343D01*
X187287915Y-196442914D01*
X187287915Y-196585771D01*
X188002201Y-196585771D02*
X188002201Y-195085771D01*
X188359344Y-195085771D01*
X188573629Y-195157200D01*
X188716487Y-195300057D01*
X188787915Y-195442914D01*
X188859344Y-195728629D01*
X188859344Y-195942914D01*
X188787915Y-196228629D01*
X188716487Y-196371486D01*
X188573629Y-196514343D01*
X188359344Y-196585771D01*
X188002201Y-196585771D01*
X189502201Y-196442914D02*
X189573629Y-196514343D01*
X189502201Y-196585771D01*
X189430772Y-196514343D01*
X189502201Y-196442914D01*
X189502201Y-196585771D01*
X190145058Y-196157200D02*
X190859344Y-196157200D01*
X190002201Y-196585771D02*
X190502201Y-195085771D01*
X191002201Y-196585771D01*
X191502201Y-196442914D02*
X191573629Y-196514343D01*
X191502201Y-196585771D01*
X191430772Y-196514343D01*
X191502201Y-196442914D01*
X191502201Y-196585771D01*
X194502201Y-196585771D02*
X194502201Y-195085771D01*
X194645058Y-196014343D02*
X195073629Y-196585771D01*
X195073629Y-195585771D02*
X194502201Y-196157200D01*
X195716487Y-196585771D02*
X195716487Y-195585771D01*
X195716487Y-195085771D02*
X195645058Y-195157200D01*
X195716487Y-195228629D01*
X195787915Y-195157200D01*
X195716487Y-195085771D01*
X195716487Y-195228629D01*
X197073630Y-196514343D02*
X196930773Y-196585771D01*
X196645059Y-196585771D01*
X196502201Y-196514343D01*
X196430773Y-196442914D01*
X196359344Y-196300057D01*
X196359344Y-195871486D01*
X196430773Y-195728629D01*
X196502201Y-195657200D01*
X196645059Y-195585771D01*
X196930773Y-195585771D01*
X197073630Y-195657200D01*
X198359344Y-196585771D02*
X198359344Y-195800057D01*
X198287915Y-195657200D01*
X198145058Y-195585771D01*
X197859344Y-195585771D01*
X197716487Y-195657200D01*
X198359344Y-196514343D02*
X198216487Y-196585771D01*
X197859344Y-196585771D01*
X197716487Y-196514343D01*
X197645058Y-196371486D01*
X197645058Y-196228629D01*
X197716487Y-196085771D01*
X197859344Y-196014343D01*
X198216487Y-196014343D01*
X198359344Y-195942914D01*
X199716487Y-196585771D02*
X199716487Y-195085771D01*
X199716487Y-196514343D02*
X199573630Y-196585771D01*
X199287916Y-196585771D01*
X199145058Y-196514343D01*
X199073630Y-196442914D01*
X199002201Y-196300057D01*
X199002201Y-195871486D01*
X199073630Y-195728629D01*
X199145058Y-195657200D01*
X199287916Y-195585771D01*
X199573630Y-195585771D01*
X199716487Y-195657200D01*
X202216487Y-195585771D02*
X202216487Y-196585771D01*
X201859344Y-195014343D02*
X201502201Y-196085771D01*
X202430773Y-196085771D01*
X203002201Y-196442914D02*
X203073629Y-196514343D01*
X203002201Y-196585771D01*
X202930772Y-196514343D01*
X203002201Y-196442914D01*
X203002201Y-196585771D01*
X204002201Y-195085771D02*
X204145058Y-195085771D01*
X204287915Y-195157200D01*
X204359344Y-195228629D01*
X204430773Y-195371486D01*
X204502201Y-195657200D01*
X204502201Y-196014343D01*
X204430773Y-196300057D01*
X204359344Y-196442914D01*
X204287915Y-196514343D01*
X204145058Y-196585771D01*
X204002201Y-196585771D01*
X203859344Y-196514343D01*
X203787915Y-196442914D01*
X203716487Y-196300057D01*
X203645058Y-196014343D01*
X203645058Y-195657200D01*
X203716487Y-195371486D01*
X203787915Y-195228629D01*
X203859344Y-195157200D01*
X204002201Y-195085771D01*
X205145058Y-196442914D02*
X205216486Y-196514343D01*
X205145058Y-196585771D01*
X205073629Y-196514343D01*
X205145058Y-196442914D01*
X205145058Y-196585771D01*
X206502201Y-195585771D02*
X206502201Y-196585771D01*
X206145058Y-195014343D02*
X205787915Y-196085771D01*
X206716487Y-196085771D01*
X207287915Y-196014343D02*
X208430772Y-196014343D01*
X209073629Y-196514343D02*
X209216486Y-196585771D01*
X209502201Y-196585771D01*
X209645058Y-196514343D01*
X209716486Y-196371486D01*
X209716486Y-196300057D01*
X209645058Y-196157200D01*
X209502201Y-196085771D01*
X209287915Y-196085771D01*
X209145058Y-196014343D01*
X209073629Y-195871486D01*
X209073629Y-195800057D01*
X209145058Y-195657200D01*
X209287915Y-195585771D01*
X209502201Y-195585771D01*
X209645058Y-195657200D01*
X210145058Y-195585771D02*
X210716487Y-195585771D01*
X210359344Y-195085771D02*
X210359344Y-196371486D01*
X210430772Y-196514343D01*
X210573630Y-196585771D01*
X210716487Y-196585771D01*
X211859344Y-196585771D02*
X211859344Y-195800057D01*
X211787915Y-195657200D01*
X211645058Y-195585771D01*
X211359344Y-195585771D01*
X211216487Y-195657200D01*
X211859344Y-196514343D02*
X211716487Y-196585771D01*
X211359344Y-196585771D01*
X211216487Y-196514343D01*
X211145058Y-196371486D01*
X211145058Y-196228629D01*
X211216487Y-196085771D01*
X211359344Y-196014343D01*
X211716487Y-196014343D01*
X211859344Y-195942914D01*
X212573630Y-196585771D02*
X212573630Y-195085771D01*
X212573630Y-195657200D02*
X212716487Y-195585771D01*
X213002201Y-195585771D01*
X213145058Y-195657200D01*
X213216487Y-195728629D01*
X213287916Y-195871486D01*
X213287916Y-196300057D01*
X213216487Y-196442914D01*
X213145058Y-196514343D01*
X213002201Y-196585771D01*
X212716487Y-196585771D01*
X212573630Y-196514343D01*
X214145059Y-196585771D02*
X214002201Y-196514343D01*
X213930773Y-196371486D01*
X213930773Y-195085771D01*
X215287915Y-196514343D02*
X215145058Y-196585771D01*
X214859344Y-196585771D01*
X214716487Y-196514343D01*
X214645058Y-196371486D01*
X214645058Y-195800057D01*
X214716487Y-195657200D01*
X214859344Y-195585771D01*
X215145058Y-195585771D01*
X215287915Y-195657200D01*
X215359344Y-195800057D01*
X215359344Y-195942914D01*
X214645058Y-196085771D01*
D10*
D11*
X177002200Y-191507200D02*
X285002200Y-191507200D01*
D10*
D12*
X264216486Y-193785771D02*
X263716486Y-193071486D01*
X263359343Y-193785771D02*
X263359343Y-192285771D01*
X263930771Y-192285771D01*
X264073629Y-192357200D01*
X264145057Y-192428629D01*
X264216486Y-192571486D01*
X264216486Y-192785771D01*
X264145057Y-192928629D01*
X264073629Y-193000057D01*
X263930771Y-193071486D01*
X263359343Y-193071486D01*
X265430771Y-193714343D02*
X265287914Y-193785771D01*
X265002200Y-193785771D01*
X264859343Y-193714343D01*
X264787914Y-193571486D01*
X264787914Y-193000057D01*
X264859343Y-192857200D01*
X265002200Y-192785771D01*
X265287914Y-192785771D01*
X265430771Y-192857200D01*
X265502200Y-193000057D01*
X265502200Y-193142914D01*
X264787914Y-193285771D01*
X266002200Y-192785771D02*
X266359343Y-193785771D01*
X266716485Y-192785771D01*
X267287914Y-193642914D02*
X267359342Y-193714343D01*
X267287914Y-193785771D01*
X267216485Y-193714343D01*
X267287914Y-193642914D01*
X267287914Y-193785771D01*
X267287914Y-192857200D02*
X267359342Y-192928629D01*
X267287914Y-193000057D01*
X267216485Y-192928629D01*
X267287914Y-192857200D01*
X267287914Y-193000057D01*
D10*
D11*
X178287914Y-193714343D02*
X178502200Y-193785771D01*
X178859343Y-193785771D01*
X179002200Y-193714343D01*
X179073629Y-193642914D01*
X179145057Y-193500057D01*
X179145057Y-193357200D01*
X179073629Y-193214343D01*
X179002200Y-193142914D01*
X178859343Y-193071486D01*
X178573629Y-193000057D01*
X178430771Y-192928629D01*
X178359343Y-192857200D01*
X178287914Y-192714343D01*
X178287914Y-192571486D01*
X178359343Y-192428629D01*
X178430771Y-192357200D01*
X178573629Y-192285771D01*
X178930771Y-192285771D01*
X179145057Y-192357200D01*
X179787914Y-193785771D02*
X179787914Y-192785771D01*
X179787914Y-192285771D02*
X179716485Y-192357200D01*
X179787914Y-192428629D01*
X179859342Y-192357200D01*
X179787914Y-192285771D01*
X179787914Y-192428629D01*
X180359343Y-192785771D02*
X181145057Y-192785771D01*
X180359343Y-193785771D01*
X181145057Y-193785771D01*
X182287914Y-193714343D02*
X182145057Y-193785771D01*
X181859343Y-193785771D01*
X181716486Y-193714343D01*
X181645057Y-193571486D01*
X181645057Y-193000057D01*
X181716486Y-192857200D01*
X181859343Y-192785771D01*
X182145057Y-192785771D01*
X182287914Y-192857200D01*
X182359343Y-193000057D01*
X182359343Y-193142914D01*
X181645057Y-193285771D01*
X183002200Y-193642914D02*
X183073628Y-193714343D01*
X183002200Y-193785771D01*
X182930771Y-193714343D01*
X183002200Y-193642914D01*
X183002200Y-193785771D01*
X183002200Y-192857200D02*
X183073628Y-192928629D01*
X183002200Y-193000057D01*
X182930771Y-192928629D01*
X183002200Y-192857200D01*
X183002200Y-193000057D01*
X184787914Y-193357200D02*
X185502200Y-193357200D01*
X184645057Y-193785771D02*
X185145057Y-192285771D01*
X185645057Y-193785771D01*
X186787914Y-192785771D02*
X186787914Y-193785771D01*
X186430771Y-192214343D02*
X186073628Y-193285771D01*
X187002200Y-193285771D01*
D10*
D11*
X263359343Y-196585771D02*
X263359343Y-195085771D01*
X264716486Y-196585771D02*
X264716486Y-195085771D01*
X264716486Y-196514343D02*
X264573629Y-196585771D01*
X264287915Y-196585771D01*
X264145057Y-196514343D01*
X264073629Y-196442914D01*
X264002200Y-196300057D01*
X264002200Y-195871486D01*
X264073629Y-195728629D01*
X264145057Y-195657200D01*
X264287915Y-195585771D01*
X264573629Y-195585771D01*
X264716486Y-195657200D01*
X265430772Y-196442914D02*
X265502200Y-196514343D01*
X265430772Y-196585771D01*
X265359343Y-196514343D01*
X265430772Y-196442914D01*
X265430772Y-196585771D01*
X265430772Y-195657200D02*
X265502200Y-195728629D01*
X265430772Y-195800057D01*
X265359343Y-195728629D01*
X265430772Y-195657200D01*
X265430772Y-195800057D01*
X268073629Y-196585771D02*
X267216486Y-196585771D01*
X267645058Y-196585771D02*
X267645058Y-195085771D01*
X267502201Y-195300057D01*
X267359343Y-195442914D01*
X267216486Y-195514343D01*
X269787914Y-195014343D02*
X268502200Y-196942914D01*
X271073629Y-196585771D02*
X270216486Y-196585771D01*
X270645058Y-196585771D02*
X270645058Y-195085771D01*
X270502201Y-195300057D01*
X270359343Y-195442914D01*
X270216486Y-195514343D01*
D10*
D11*
X177002200Y-187507200D02*
X285002200Y-187507200D01*
D10*
D13*
X178454581Y-188211962D02*
X179597438Y-188211962D01*
X178776010Y-190211962D02*
X179026010Y-188211962D01*
X180014105Y-190211962D02*
X180180771Y-188878629D01*
X180264105Y-188211962D02*
X180156962Y-188307200D01*
X180240295Y-188402438D01*
X180347439Y-188307200D01*
X180264105Y-188211962D01*
X180240295Y-188402438D01*
X180847438Y-188878629D02*
X181609343Y-188878629D01*
X181216486Y-188211962D02*
X181002200Y-189926248D01*
X181073630Y-190116724D01*
X181252201Y-190211962D01*
X181442677Y-190211962D01*
X182395058Y-190211962D02*
X182216487Y-190116724D01*
X182145057Y-189926248D01*
X182359343Y-188211962D01*
X183930772Y-190116724D02*
X183728391Y-190211962D01*
X183347439Y-190211962D01*
X183168867Y-190116724D01*
X183097438Y-189926248D01*
X183192676Y-189164343D01*
X183311724Y-188973867D01*
X183514105Y-188878629D01*
X183895057Y-188878629D01*
X184073629Y-188973867D01*
X184145057Y-189164343D01*
X184121248Y-189354819D01*
X183145057Y-189545295D01*
X184895057Y-190021486D02*
X184978392Y-190116724D01*
X184871248Y-190211962D01*
X184787915Y-190116724D01*
X184895057Y-190021486D01*
X184871248Y-190211962D01*
X185026010Y-188973867D02*
X185109344Y-189069105D01*
X185002200Y-189164343D01*
X184918867Y-189069105D01*
X185026010Y-188973867D01*
X185002200Y-189164343D01*
D10*
D11*
X178859343Y-185600057D02*
X178359343Y-185600057D01*
X178359343Y-186385771D02*
X178359343Y-184885771D01*
X179073629Y-184885771D01*
X179645057Y-186385771D02*
X179645057Y-185385771D01*
X179645057Y-184885771D02*
X179573628Y-184957200D01*
X179645057Y-185028629D01*
X179716485Y-184957200D01*
X179645057Y-184885771D01*
X179645057Y-185028629D01*
X180573629Y-186385771D02*
X180430771Y-186314343D01*
X180359343Y-186171486D01*
X180359343Y-184885771D01*
X181716485Y-186314343D02*
X181573628Y-186385771D01*
X181287914Y-186385771D01*
X181145057Y-186314343D01*
X181073628Y-186171486D01*
X181073628Y-185600057D01*
X181145057Y-185457200D01*
X181287914Y-185385771D01*
X181573628Y-185385771D01*
X181716485Y-185457200D01*
X181787914Y-185600057D01*
X181787914Y-185742914D01*
X181073628Y-185885771D01*
X182430771Y-186242914D02*
X182502199Y-186314343D01*
X182430771Y-186385771D01*
X182359342Y-186314343D01*
X182430771Y-186242914D01*
X182430771Y-186385771D01*
X182430771Y-185457200D02*
X182502199Y-185528629D01*
X182430771Y-185600057D01*
X182359342Y-185528629D01*
X182430771Y-185457200D01*
X182430771Y-185600057D01*
X184287914Y-186385771D02*
X184287914Y-184885771D01*
X184859342Y-184885771D01*
X185002200Y-184957200D01*
X185073628Y-185028629D01*
X185145057Y-185171486D01*
X185145057Y-185385771D01*
X185073628Y-185528629D01*
X185002200Y-185600057D01*
X184859342Y-185671486D01*
X184287914Y-185671486D01*
X185787914Y-186385771D02*
X185787914Y-184885771D01*
X187359343Y-186242914D02*
X187287914Y-186314343D01*
X187073628Y-186385771D01*
X186930771Y-186385771D01*
X186716486Y-186314343D01*
X186573628Y-186171486D01*
X186502200Y-186028629D01*
X186430771Y-185742914D01*
X186430771Y-185528629D01*
X186502200Y-185242914D01*
X186573628Y-185100057D01*
X186716486Y-184957200D01*
X186930771Y-184885771D01*
X187073628Y-184885771D01*
X187287914Y-184957200D01*
X187359343Y-185028629D01*
X188787914Y-186385771D02*
X187930771Y-186385771D01*
X188359343Y-186385771D02*
X188359343Y-184885771D01*
X188216486Y-185100057D01*
X188073628Y-185242914D01*
X187930771Y-185314343D01*
X189645057Y-185528629D02*
X189502199Y-185457200D01*
X189430771Y-185385771D01*
X189359342Y-185242914D01*
X189359342Y-185171486D01*
X189430771Y-185028629D01*
X189502199Y-184957200D01*
X189645057Y-184885771D01*
X189930771Y-184885771D01*
X190073628Y-184957200D01*
X190145057Y-185028629D01*
X190216485Y-185171486D01*
X190216485Y-185242914D01*
X190145057Y-185385771D01*
X190073628Y-185457200D01*
X189930771Y-185528629D01*
X189645057Y-185528629D01*
X189502199Y-185600057D01*
X189430771Y-185671486D01*
X189359342Y-185814343D01*
X189359342Y-186100057D01*
X189430771Y-186242914D01*
X189502199Y-186314343D01*
X189645057Y-186385771D01*
X189930771Y-186385771D01*
X190073628Y-186314343D01*
X190145057Y-186242914D01*
X190216485Y-186100057D01*
X190216485Y-185814343D01*
X190145057Y-185671486D01*
X190073628Y-185600057D01*
X189930771Y-185528629D01*
X191359342Y-185600057D02*
X190859342Y-185600057D01*
X190859342Y-186385771D02*
X190859342Y-184885771D01*
X191573628Y-184885771D01*
X192787913Y-185385771D02*
X192787913Y-186385771D01*
X192430770Y-184814343D02*
X192073627Y-185885771D01*
X193002199Y-185885771D01*
X194287913Y-184885771D02*
X193573627Y-184885771D01*
X193502198Y-185600057D01*
X193573627Y-185528629D01*
X193716484Y-185457200D01*
X194073627Y-185457200D01*
X194216484Y-185528629D01*
X194287913Y-185600057D01*
X194359341Y-185742914D01*
X194359341Y-186100057D01*
X194287913Y-186242914D01*
X194216484Y-186314343D01*
X194073627Y-186385771D01*
X193716484Y-186385771D01*
X193573627Y-186314343D01*
X193502198Y-186242914D01*
X195002198Y-186385771D02*
X195002198Y-184885771D01*
X195859341Y-186385771D02*
X195216484Y-185528629D01*
X195859341Y-184885771D02*
X195002198Y-185742914D01*
X196430769Y-185028629D02*
X196502198Y-184957200D01*
X196645055Y-184885771D01*
X197002198Y-184885771D01*
X197145055Y-184957200D01*
X197216484Y-185028629D01*
X197287912Y-185171486D01*
X197287912Y-185314343D01*
X197216484Y-185528629D01*
X196359341Y-186385771D01*
X197287912Y-186385771D01*
X197859340Y-185028629D02*
X197930769Y-184957200D01*
X198073626Y-184885771D01*
X198430769Y-184885771D01*
X198573626Y-184957200D01*
X198645055Y-185028629D01*
X198716483Y-185171486D01*
X198716483Y-185314343D01*
X198645055Y-185528629D01*
X197787912Y-186385771D01*
X198716483Y-186385771D01*
X199002197Y-186528629D02*
X200145054Y-186528629D01*
X201359340Y-186242914D02*
X201287911Y-186314343D01*
X201073625Y-186385771D01*
X200930768Y-186385771D01*
X200716483Y-186314343D01*
X200573625Y-186171486D01*
X200502197Y-186028629D01*
X200430768Y-185742914D01*
X200430768Y-185528629D01*
X200502197Y-185242914D01*
X200573625Y-185100057D01*
X200716483Y-184957200D01*
X200930768Y-184885771D01*
X201073625Y-184885771D01*
X201287911Y-184957200D01*
X201359340Y-185028629D01*
X202002197Y-186385771D02*
X202002197Y-184885771D01*
X202573625Y-184885771D01*
X202716483Y-184957200D01*
X202787911Y-185028629D01*
X202859340Y-185171486D01*
X202859340Y-185385771D01*
X202787911Y-185528629D01*
X202716483Y-185600057D01*
X202573625Y-185671486D01*
X202002197Y-185671486D01*
X203502197Y-184885771D02*
X203502197Y-186100057D01*
X203573625Y-186242914D01*
X203645054Y-186314343D01*
X203787911Y-186385771D01*
X204073625Y-186385771D01*
X204216483Y-186314343D01*
X204287911Y-186242914D01*
X204359340Y-186100057D01*
X204359340Y-184885771D01*
X205573626Y-185600057D02*
X205787912Y-185671486D01*
X205859340Y-185742914D01*
X205930769Y-185885771D01*
X205930769Y-186100057D01*
X205859340Y-186242914D01*
X205787912Y-186314343D01*
X205645054Y-186385771D01*
X205073626Y-186385771D01*
X205073626Y-184885771D01*
X205573626Y-184885771D01*
X205716483Y-184957200D01*
X205787912Y-185028629D01*
X205859340Y-185171486D01*
X205859340Y-185314343D01*
X205787912Y-185457200D01*
X205716483Y-185528629D01*
X205573626Y-185600057D01*
X205073626Y-185600057D01*
X206859340Y-184885771D02*
X207145054Y-184885771D01*
X207287912Y-184957200D01*
X207430769Y-185100057D01*
X207502197Y-185385771D01*
X207502197Y-185885771D01*
X207430769Y-186171486D01*
X207287912Y-186314343D01*
X207145054Y-186385771D01*
X206859340Y-186385771D01*
X206716483Y-186314343D01*
X206573626Y-186171486D01*
X206502197Y-185885771D01*
X206502197Y-185385771D01*
X206573626Y-185100057D01*
X206716483Y-184957200D01*
X206859340Y-184885771D01*
X208073626Y-185957200D02*
X208787912Y-185957200D01*
X207930769Y-186385771D02*
X208430769Y-184885771D01*
X208930769Y-186385771D01*
X210287912Y-186385771D02*
X209787912Y-185671486D01*
X209430769Y-186385771D02*
X209430769Y-184885771D01*
X210002197Y-184885771D01*
X210145055Y-184957200D01*
X210216483Y-185028629D01*
X210287912Y-185171486D01*
X210287912Y-185385771D01*
X210216483Y-185528629D01*
X210145055Y-185600057D01*
X210002197Y-185671486D01*
X209430769Y-185671486D01*
X210930769Y-186385771D02*
X210930769Y-184885771D01*
X211287912Y-184885771D01*
X211502197Y-184957200D01*
X211645055Y-185100057D01*
X211716483Y-185242914D01*
X211787912Y-185528629D01*
X211787912Y-185742914D01*
X211716483Y-186028629D01*
X211645055Y-186171486D01*
X211502197Y-186314343D01*
X211287912Y-186385771D01*
X210930769Y-186385771D01*
X212073626Y-186528629D02*
X213216483Y-186528629D01*
X213359340Y-184885771D02*
X213859340Y-186385771D01*
X214359340Y-184885771D01*
X214787911Y-185028629D02*
X214859340Y-184957200D01*
X215002197Y-184885771D01*
X215359340Y-184885771D01*
X215502197Y-184957200D01*
X215573626Y-185028629D01*
X215645054Y-185171486D01*
X215645054Y-185314343D01*
X215573626Y-185528629D01*
X214716483Y-186385771D01*
X215645054Y-186385771D01*
X217073625Y-186385771D02*
X216216482Y-186385771D01*
X216645054Y-186385771D02*
X216645054Y-184885771D01*
X216502197Y-185100057D01*
X216359339Y-185242914D01*
X216216482Y-185314343D01*
X217716482Y-186242914D02*
X217787910Y-186314343D01*
X217716482Y-186385771D01*
X217645053Y-186314343D01*
X217716482Y-186242914D01*
X217716482Y-186385771D01*
X218430768Y-186385771D02*
X218430768Y-184885771D01*
X218573625Y-185814343D02*
X219002196Y-186385771D01*
X219002196Y-185385771D02*
X218430768Y-185957200D01*
X219645054Y-186385771D02*
X219645054Y-185385771D01*
X219645054Y-184885771D02*
X219573625Y-184957200D01*
X219645054Y-185028629D01*
X219716482Y-184957200D01*
X219645054Y-184885771D01*
X219645054Y-185028629D01*
X221002197Y-186314343D02*
X220859340Y-186385771D01*
X220573626Y-186385771D01*
X220430768Y-186314343D01*
X220359340Y-186242914D01*
X220287911Y-186100057D01*
X220287911Y-185671486D01*
X220359340Y-185528629D01*
X220430768Y-185457200D01*
X220573626Y-185385771D01*
X220859340Y-185385771D01*
X221002197Y-185457200D01*
X222287911Y-186385771D02*
X222287911Y-185600057D01*
X222216482Y-185457200D01*
X222073625Y-185385771D01*
X221787911Y-185385771D01*
X221645054Y-185457200D01*
X222287911Y-186314343D02*
X222145054Y-186385771D01*
X221787911Y-186385771D01*
X221645054Y-186314343D01*
X221573625Y-186171486D01*
X221573625Y-186028629D01*
X221645054Y-185885771D01*
X221787911Y-185814343D01*
X222145054Y-185814343D01*
X222287911Y-185742914D01*
X223645054Y-186385771D02*
X223645054Y-184885771D01*
X223645054Y-186314343D02*
X223502197Y-186385771D01*
X223216483Y-186385771D01*
X223073625Y-186314343D01*
X223002197Y-186242914D01*
X222930768Y-186100057D01*
X222930768Y-185671486D01*
X223002197Y-185528629D01*
X223073625Y-185457200D01*
X223216483Y-185385771D01*
X223502197Y-185385771D01*
X223645054Y-185457200D01*
X224002197Y-186528629D02*
X225145054Y-186528629D01*
X225502197Y-185385771D02*
X225502197Y-186885771D01*
X225502197Y-185457200D02*
X225645054Y-185385771D01*
X225930768Y-185385771D01*
X226073625Y-185457200D01*
X226145054Y-185528629D01*
X226216483Y-185671486D01*
X226216483Y-186100057D01*
X226145054Y-186242914D01*
X226073625Y-186314343D01*
X225930768Y-186385771D01*
X225645054Y-186385771D01*
X225502197Y-186314343D01*
X227502197Y-186314343D02*
X227359340Y-186385771D01*
X227073626Y-186385771D01*
X226930768Y-186314343D01*
X226859340Y-186242914D01*
X226787911Y-186100057D01*
X226787911Y-185671486D01*
X226859340Y-185528629D01*
X226930768Y-185457200D01*
X227073626Y-185385771D01*
X227359340Y-185385771D01*
X227502197Y-185457200D01*
X228145054Y-186385771D02*
X228145054Y-184885771D01*
X228145054Y-185457200D02*
X228287911Y-185385771D01*
X228573625Y-185385771D01*
X228716482Y-185457200D01*
X228787911Y-185528629D01*
X228859340Y-185671486D01*
X228859340Y-186100057D01*
X228787911Y-186242914D01*
X228716482Y-186314343D01*
X228573625Y-186385771D01*
X228287911Y-186385771D01*
X228145054Y-186314343D01*
D10*
D11*
X177002200Y-181507200D02*
X285002200Y-181507200D01*
D10*
D11*
X178287914Y-183614343D02*
X178502200Y-183685771D01*
X178859343Y-183685771D01*
X179002200Y-183614343D01*
X179073629Y-183542914D01*
X179145057Y-183400057D01*
X179145057Y-183257200D01*
X179073629Y-183114343D01*
X179002200Y-183042914D01*
X178859343Y-182971486D01*
X178573629Y-182900057D01*
X178430771Y-182828629D01*
X178359343Y-182757200D01*
X178287914Y-182614343D01*
X178287914Y-182471486D01*
X178359343Y-182328629D01*
X178430771Y-182257200D01*
X178573629Y-182185771D01*
X178930771Y-182185771D01*
X179145057Y-182257200D01*
X179787914Y-183685771D02*
X179787914Y-182185771D01*
X180430771Y-183685771D02*
X180430771Y-182900057D01*
X180359342Y-182757200D01*
X180216485Y-182685771D01*
X180002200Y-182685771D01*
X179859342Y-182757200D01*
X179787914Y-182828629D01*
X181716485Y-183614343D02*
X181573628Y-183685771D01*
X181287914Y-183685771D01*
X181145057Y-183614343D01*
X181073628Y-183471486D01*
X181073628Y-182900057D01*
X181145057Y-182757200D01*
X181287914Y-182685771D01*
X181573628Y-182685771D01*
X181716485Y-182757200D01*
X181787914Y-182900057D01*
X181787914Y-183042914D01*
X181073628Y-183185771D01*
X183002199Y-183614343D02*
X182859342Y-183685771D01*
X182573628Y-183685771D01*
X182430771Y-183614343D01*
X182359342Y-183471486D01*
X182359342Y-182900057D01*
X182430771Y-182757200D01*
X182573628Y-182685771D01*
X182859342Y-182685771D01*
X183002199Y-182757200D01*
X183073628Y-182900057D01*
X183073628Y-183042914D01*
X182359342Y-183185771D01*
X183502199Y-182685771D02*
X184073628Y-182685771D01*
X183716485Y-182185771D02*
X183716485Y-183471486D01*
X183787913Y-183614343D01*
X183930771Y-183685771D01*
X184073628Y-183685771D01*
X184573628Y-183542914D02*
X184645056Y-183614343D01*
X184573628Y-183685771D01*
X184502199Y-183614343D01*
X184573628Y-183542914D01*
X184573628Y-183685771D01*
X184573628Y-182757200D02*
X184645056Y-182828629D01*
X184573628Y-182900057D01*
X184502199Y-182828629D01*
X184573628Y-182757200D01*
X184573628Y-182900057D01*
D10*
D11*
X197002200Y-191507200D02*
X197002200Y-194507200D01*
D10*
D11*
X261002200Y-191507200D02*
X261002200Y-198007200D01*
D12*
X97477143Y-113471429D02*
X97548572Y-113400000D01*
X97691429Y-113328571D01*
X98048572Y-113328571D01*
X98191429Y-113400000D01*
X98262858Y-113471429D01*
X98334286Y-113614286D01*
X98334286Y-113757143D01*
X98262858Y-113971429D01*
X97405715Y-114828571D01*
X98334286Y-114828571D01*
X99762857Y-114828571D02*
X98905714Y-114828571D01*
X99334286Y-114828571D02*
X99334286Y-113328571D01*
X99191429Y-113542857D01*
X99048571Y-113685714D01*
X98905714Y-113757143D01*
X78117143Y-113391429D02*
X78188572Y-113320000D01*
X78331429Y-113248571D01*
X78688572Y-113248571D01*
X78831429Y-113320000D01*
X78902858Y-113391429D01*
X78974286Y-113534286D01*
X78974286Y-113677143D01*
X78902858Y-113891429D01*
X78045715Y-114748571D01*
X78974286Y-114748571D01*
X79902857Y-113248571D02*
X80045714Y-113248571D01*
X80188571Y-113320000D01*
X80260000Y-113391429D01*
X80331429Y-113534286D01*
X80402857Y-113820000D01*
X80402857Y-114177143D01*
X80331429Y-114462857D01*
X80260000Y-114605714D01*
X80188571Y-114677143D01*
X80045714Y-114748571D01*
X79902857Y-114748571D01*
X79760000Y-114677143D01*
X79688571Y-114605714D01*
X79617143Y-114462857D01*
X79545714Y-114177143D01*
X79545714Y-113820000D01*
X79617143Y-113534286D01*
X79688571Y-113391429D01*
X79760000Y-113320000D01*
X79902857Y-113248571D01*
X98131429Y-61128571D02*
X98131429Y-62128571D01*
X97774286Y-60557143D02*
X97417143Y-61628571D01*
X98345715Y-61628571D01*
X99202857Y-60628571D02*
X99345714Y-60628571D01*
X99488571Y-60700000D01*
X99560000Y-60771429D01*
X99631429Y-60914286D01*
X99702857Y-61200000D01*
X99702857Y-61557143D01*
X99631429Y-61842857D01*
X99560000Y-61985714D01*
X99488571Y-62057143D01*
X99345714Y-62128571D01*
X99202857Y-62128571D01*
X99060000Y-62057143D01*
X98988571Y-61985714D01*
X98917143Y-61842857D01*
X98845714Y-61557143D01*
X98845714Y-61200000D01*
X98917143Y-60914286D01*
X98988571Y-60771429D01*
X99060000Y-60700000D01*
X99202857Y-60628571D01*
X79188572Y-62808571D02*
X78331429Y-62808571D01*
X78760001Y-62808571D02*
X78760001Y-61308571D01*
X78617144Y-61522857D01*
X78474286Y-61665714D01*
X78331429Y-61737143D01*
D14*
X98042857Y-53804762D02*
X98042857Y-51804762D01*
X98804762Y-51804762D01*
X98995238Y-51900000D01*
X99090477Y-51995238D01*
X99185715Y-52185714D01*
X99185715Y-52471429D01*
X99090477Y-52661905D01*
X98995238Y-52757143D01*
X98804762Y-52852381D01*
X98042857Y-52852381D01*
X100042857Y-53804762D02*
X100042857Y-52471429D01*
X100042857Y-51804762D02*
X99947619Y-51900000D01*
X100042857Y-51995238D01*
X100138096Y-51900000D01*
X100042857Y-51804762D01*
X100042857Y-51995238D01*
X101852381Y-53709524D02*
X101661905Y-53804762D01*
X101280953Y-53804762D01*
X101090477Y-53709524D01*
X100995238Y-53614286D01*
X100900000Y-53423810D01*
X100900000Y-52852381D01*
X100995238Y-52661905D01*
X101090477Y-52566667D01*
X101280953Y-52471429D01*
X101661905Y-52471429D01*
X101852381Y-52566667D01*
X102709524Y-53804762D02*
X102709524Y-51804762D01*
X103852382Y-53804762D02*
X102995239Y-52661905D01*
X103852382Y-51804762D02*
X102709524Y-52947619D01*
X104709524Y-53804762D02*
X104709524Y-52471429D01*
X104709524Y-51804762D02*
X104614286Y-51900000D01*
X104709524Y-51995238D01*
X104804763Y-51900000D01*
X104709524Y-51804762D01*
X104709524Y-51995238D01*
X105376191Y-52471429D02*
X106138096Y-52471429D01*
X105661905Y-51804762D02*
X105661905Y-53519048D01*
X105757144Y-53709524D01*
X105947620Y-53804762D01*
X106138096Y-53804762D01*
X106614286Y-51804762D02*
X107852382Y-51804762D01*
X107185715Y-52566667D01*
X107471429Y-52566667D01*
X107661905Y-52661905D01*
X107757143Y-52757143D01*
X107852382Y-52947619D01*
X107852382Y-53423810D01*
X107757143Y-53614286D01*
X107661905Y-53709524D01*
X107471429Y-53804762D01*
X106900001Y-53804762D01*
X106709524Y-53709524D01*
X106614286Y-53614286D01*
D12*
X65871429Y-130678571D02*
X66157143Y-130678571D01*
X66300001Y-130750000D01*
X66442858Y-130892857D01*
X66514286Y-131178571D01*
X66514286Y-131678571D01*
X66442858Y-131964286D01*
X66300001Y-132107143D01*
X66157143Y-132178571D01*
X65871429Y-132178571D01*
X65728572Y-132107143D01*
X65585715Y-131964286D01*
X65514286Y-131678571D01*
X65514286Y-131178571D01*
X65585715Y-130892857D01*
X65728572Y-130750000D01*
X65871429Y-130678571D01*
X67657144Y-131392857D02*
X67157144Y-131392857D01*
X67157144Y-132178571D02*
X67157144Y-130678571D01*
X67871430Y-130678571D01*
X68942858Y-131392857D02*
X68442858Y-131392857D01*
X68442858Y-132178571D02*
X68442858Y-130678571D01*
X69157144Y-130678571D01*
X72071428Y-130778571D02*
X72357142Y-130778571D01*
X72500000Y-130850000D01*
X72642857Y-130992857D01*
X72714285Y-131278571D01*
X72714285Y-131778571D01*
X72642857Y-132064286D01*
X72500000Y-132207143D01*
X72357142Y-132278571D01*
X72071428Y-132278571D01*
X71928571Y-132207143D01*
X71785714Y-132064286D01*
X71714285Y-131778571D01*
X71714285Y-131278571D01*
X71785714Y-130992857D01*
X71928571Y-130850000D01*
X72071428Y-130778571D01*
X73357143Y-132278571D02*
X73357143Y-130778571D01*
X74214286Y-132278571D01*
X74214286Y-130778571D01*
D14*
X103513333Y-102389048D02*
X103465714Y-102436668D01*
X103322857Y-102531906D01*
X103227619Y-102579525D01*
X103084762Y-102627144D01*
X102846667Y-102674763D01*
X102656190Y-102674763D01*
X102418095Y-102627144D01*
X102275238Y-102579525D01*
X102180000Y-102531906D01*
X102037143Y-102436668D01*
X101989524Y-102389048D01*
X103084762Y-101579524D02*
X103132381Y-101674762D01*
X103132381Y-101865239D01*
X103084762Y-101960477D01*
X103037143Y-102008096D01*
X102941905Y-102055715D01*
X102656190Y-102055715D01*
X102560952Y-102008096D01*
X102513333Y-101960477D01*
X102465714Y-101865239D01*
X102465714Y-101674762D01*
X102513333Y-101579524D01*
X103513333Y-101246191D02*
X103465714Y-101198572D01*
X103322857Y-101103334D01*
X103227619Y-101055715D01*
X103084762Y-101008096D01*
X102846667Y-100960477D01*
X102656190Y-100960477D01*
X102418095Y-101008096D01*
X102275238Y-101055715D01*
X102180000Y-101103334D01*
X102037143Y-101198572D01*
X101989524Y-101246191D01*
X102132381Y-99436666D02*
X102846667Y-99436666D01*
X102989524Y-99484286D01*
X103084762Y-99579524D01*
X103132381Y-99722381D01*
X103132381Y-99817619D01*
X103084762Y-99008095D02*
X103132381Y-98865238D01*
X103132381Y-98627142D01*
X103084762Y-98531904D01*
X103037143Y-98484285D01*
X102941905Y-98436666D01*
X102846667Y-98436666D01*
X102751429Y-98484285D01*
X102703810Y-98531904D01*
X102656190Y-98627142D01*
X102608571Y-98817619D01*
X102560952Y-98912857D01*
X102513333Y-98960476D01*
X102418095Y-99008095D01*
X102322857Y-99008095D01*
X102227619Y-98960476D01*
X102180000Y-98912857D01*
X102132381Y-98817619D01*
X102132381Y-98579523D01*
X102180000Y-98436666D01*
X103132381Y-98008095D02*
X102132381Y-98008095D01*
X102132381Y-97770000D01*
X102180000Y-97627142D01*
X102275238Y-97531904D01*
X102370476Y-97484285D01*
X102560952Y-97436666D01*
X102703810Y-97436666D01*
X102894286Y-97484285D01*
X102989524Y-97531904D01*
X103084762Y-97627142D01*
X103132381Y-97770000D01*
X103132381Y-98008095D01*
X102227619Y-96293809D02*
X102180000Y-96246190D01*
X102132381Y-96150952D01*
X102132381Y-95912856D01*
X102180000Y-95817618D01*
X102227619Y-95769999D01*
X102322857Y-95722380D01*
X102418095Y-95722380D01*
X102560952Y-95769999D01*
X103132381Y-96341428D01*
X103132381Y-95722380D01*
X102132381Y-95103333D02*
X102132381Y-95008094D01*
X102180000Y-94912856D01*
X102227619Y-94865237D01*
X102322857Y-94817618D01*
X102513333Y-94769999D01*
X102751429Y-94769999D01*
X102941905Y-94817618D01*
X103037143Y-94865237D01*
X103084762Y-94912856D01*
X103132381Y-95008094D01*
X103132381Y-95103333D01*
X103084762Y-95198571D01*
X103037143Y-95246190D01*
X102941905Y-95293809D01*
X102751429Y-95341428D01*
X102513333Y-95341428D01*
X102322857Y-95293809D01*
X102227619Y-95246190D01*
X102180000Y-95198571D01*
X102132381Y-95103333D01*
X103132381Y-93817618D02*
X103132381Y-94389047D01*
X103132381Y-94103333D02*
X102132381Y-94103333D01*
X102275238Y-94198571D01*
X102370476Y-94293809D01*
X102418095Y-94389047D01*
X102132381Y-92960475D02*
X102132381Y-93150952D01*
X102180000Y-93246190D01*
X102227619Y-93293809D01*
X102370476Y-93389047D01*
X102560952Y-93436666D01*
X102941905Y-93436666D01*
X103037143Y-93389047D01*
X103084762Y-93341428D01*
X103132381Y-93246190D01*
X103132381Y-93055713D01*
X103084762Y-92960475D01*
X103037143Y-92912856D01*
X102941905Y-92865237D01*
X102703810Y-92865237D01*
X102608571Y-92912856D01*
X102560952Y-92960475D01*
X102513333Y-93055713D01*
X102513333Y-93246190D01*
X102560952Y-93341428D01*
X102608571Y-93389047D01*
X102703810Y-93436666D01*
X102751429Y-92436666D02*
X102751429Y-91674761D01*
X102227619Y-91246190D02*
X102180000Y-91198571D01*
X102132381Y-91103333D01*
X102132381Y-90865237D01*
X102180000Y-90769999D01*
X102227619Y-90722380D01*
X102322857Y-90674761D01*
X102418095Y-90674761D01*
X102560952Y-90722380D01*
X103132381Y-91293809D01*
X103132381Y-90674761D01*
X102132381Y-90055714D02*
X102132381Y-89960475D01*
X102180000Y-89865237D01*
X102227619Y-89817618D01*
X102322857Y-89769999D01*
X102513333Y-89722380D01*
X102751429Y-89722380D01*
X102941905Y-89769999D01*
X103037143Y-89817618D01*
X103084762Y-89865237D01*
X103132381Y-89960475D01*
X103132381Y-90055714D01*
X103084762Y-90150952D01*
X103037143Y-90198571D01*
X102941905Y-90246190D01*
X102751429Y-90293809D01*
X102513333Y-90293809D01*
X102322857Y-90246190D01*
X102227619Y-90198571D01*
X102180000Y-90150952D01*
X102132381Y-90055714D01*
X103132381Y-88769999D02*
X103132381Y-89341428D01*
X103132381Y-89055714D02*
X102132381Y-89055714D01*
X102275238Y-89150952D01*
X102370476Y-89246190D01*
X102418095Y-89341428D01*
X102132381Y-88436666D02*
X102132381Y-87769999D01*
X103132381Y-88198571D01*
D12*
X100525714Y-80162856D02*
X100597143Y-80234285D01*
X100668571Y-80448571D01*
X100668571Y-80591428D01*
X100597143Y-80805713D01*
X100454286Y-80948571D01*
X100311429Y-81019999D01*
X100025714Y-81091428D01*
X99811429Y-81091428D01*
X99525714Y-81019999D01*
X99382857Y-80948571D01*
X99240000Y-80805713D01*
X99168571Y-80591428D01*
X99168571Y-80448571D01*
X99240000Y-80234285D01*
X99311429Y-80162856D01*
X100668571Y-79519999D02*
X99168571Y-79519999D01*
X99168571Y-78948571D01*
X99240000Y-78805713D01*
X99311429Y-78734285D01*
X99454286Y-78662856D01*
X99668571Y-78662856D01*
X99811429Y-78734285D01*
X99882857Y-78805713D01*
X99954286Y-78948571D01*
X99954286Y-79519999D01*
X99168571Y-78019999D02*
X100382857Y-78019999D01*
X100525714Y-77948571D01*
X100597143Y-77877142D01*
X100668571Y-77734285D01*
X100668571Y-77448571D01*
X100597143Y-77305713D01*
X100525714Y-77234285D01*
X100382857Y-77162856D01*
X99168571Y-77162856D01*
X99882857Y-74805713D02*
X99954286Y-74591427D01*
X100025714Y-74519999D01*
X100168571Y-74448570D01*
X100382857Y-74448570D01*
X100525714Y-74519999D01*
X100597143Y-74591427D01*
X100668571Y-74734285D01*
X100668571Y-75305713D01*
X99168571Y-75305713D01*
X99168571Y-74805713D01*
X99240000Y-74662856D01*
X99311429Y-74591427D01*
X99454286Y-74519999D01*
X99597143Y-74519999D01*
X99740000Y-74591427D01*
X99811429Y-74662856D01*
X99882857Y-74805713D01*
X99882857Y-75305713D01*
X100668571Y-73591427D02*
X100597143Y-73734285D01*
X100525714Y-73805713D01*
X100382857Y-73877142D01*
X99954286Y-73877142D01*
X99811429Y-73805713D01*
X99740000Y-73734285D01*
X99668571Y-73591427D01*
X99668571Y-73377142D01*
X99740000Y-73234285D01*
X99811429Y-73162856D01*
X99954286Y-73091427D01*
X100382857Y-73091427D01*
X100525714Y-73162856D01*
X100597143Y-73234285D01*
X100668571Y-73377142D01*
X100668571Y-73591427D01*
X100668571Y-71805713D02*
X99882857Y-71805713D01*
X99740000Y-71877142D01*
X99668571Y-72019999D01*
X99668571Y-72305713D01*
X99740000Y-72448570D01*
X100597143Y-71805713D02*
X100668571Y-71948570D01*
X100668571Y-72305713D01*
X100597143Y-72448570D01*
X100454286Y-72519999D01*
X100311429Y-72519999D01*
X100168571Y-72448570D01*
X100097143Y-72305713D01*
X100097143Y-71948570D01*
X100025714Y-71805713D01*
X100668571Y-71091427D02*
X99668571Y-71091427D01*
X99954286Y-71091427D02*
X99811429Y-71019999D01*
X99740000Y-70948570D01*
X99668571Y-70805713D01*
X99668571Y-70662856D01*
X100668571Y-69519999D02*
X99168571Y-69519999D01*
X100597143Y-69519999D02*
X100668571Y-69662856D01*
X100668571Y-69948570D01*
X100597143Y-70091428D01*
X100525714Y-70162856D01*
X100382857Y-70234285D01*
X99954286Y-70234285D01*
X99811429Y-70162856D01*
X99740000Y-70091428D01*
X99668571Y-69948570D01*
X99668571Y-69662856D01*
X99740000Y-69519999D01*
X99168571Y-67877142D02*
X100668571Y-67377142D01*
X99168571Y-66877142D01*
X99311429Y-66448571D02*
X99240000Y-66377142D01*
X99168571Y-66234285D01*
X99168571Y-65877142D01*
X99240000Y-65734285D01*
X99311429Y-65662856D01*
X99454286Y-65591428D01*
X99597143Y-65591428D01*
X99811429Y-65662856D01*
X100668571Y-66519999D01*
X100668571Y-65591428D01*
X100525714Y-64948571D02*
X100597143Y-64877143D01*
X100668571Y-64948571D01*
X100597143Y-65020000D01*
X100525714Y-64948571D01*
X100668571Y-64948571D01*
X100668571Y-63448571D02*
X100668571Y-64305714D01*
X100668571Y-63877142D02*
X99168571Y-63877142D01*
X99382857Y-64019999D01*
X99525714Y-64162857D01*
X99597143Y-64305714D01*
X100738571Y-103178570D02*
X99238571Y-103178570D01*
X99238571Y-102607142D01*
X99310000Y-102464284D01*
X99381429Y-102392856D01*
X99524286Y-102321427D01*
X99738571Y-102321427D01*
X99881429Y-102392856D01*
X99952857Y-102464284D01*
X100024286Y-102607142D01*
X100024286Y-103178570D01*
X100738571Y-101678570D02*
X99238571Y-101678570D01*
X100595714Y-100107141D02*
X100667143Y-100178570D01*
X100738571Y-100392856D01*
X100738571Y-100535713D01*
X100667143Y-100749998D01*
X100524286Y-100892856D01*
X100381429Y-100964284D01*
X100095714Y-101035713D01*
X99881429Y-101035713D01*
X99595714Y-100964284D01*
X99452857Y-100892856D01*
X99310000Y-100749998D01*
X99238571Y-100535713D01*
X99238571Y-100392856D01*
X99310000Y-100178570D01*
X99381429Y-100107141D01*
X100738571Y-98678570D02*
X100738571Y-99535713D01*
X100738571Y-99107141D02*
X99238571Y-99107141D01*
X99452857Y-99249998D01*
X99595714Y-99392856D01*
X99667143Y-99535713D01*
X99881429Y-97821427D02*
X99810000Y-97964285D01*
X99738571Y-98035713D01*
X99595714Y-98107142D01*
X99524286Y-98107142D01*
X99381429Y-98035713D01*
X99310000Y-97964285D01*
X99238571Y-97821427D01*
X99238571Y-97535713D01*
X99310000Y-97392856D01*
X99381429Y-97321427D01*
X99524286Y-97249999D01*
X99595714Y-97249999D01*
X99738571Y-97321427D01*
X99810000Y-97392856D01*
X99881429Y-97535713D01*
X99881429Y-97821427D01*
X99952857Y-97964285D01*
X100024286Y-98035713D01*
X100167143Y-98107142D01*
X100452857Y-98107142D01*
X100595714Y-98035713D01*
X100667143Y-97964285D01*
X100738571Y-97821427D01*
X100738571Y-97535713D01*
X100667143Y-97392856D01*
X100595714Y-97321427D01*
X100452857Y-97249999D01*
X100167143Y-97249999D01*
X100024286Y-97321427D01*
X99952857Y-97392856D01*
X99881429Y-97535713D01*
X99952857Y-96107142D02*
X99952857Y-96607142D01*
X100738571Y-96607142D02*
X99238571Y-96607142D01*
X99238571Y-95892856D01*
X99738571Y-94678571D02*
X100738571Y-94678571D01*
X99167143Y-95035714D02*
X100238571Y-95392857D01*
X100238571Y-94464285D01*
X99238571Y-93178571D02*
X99238571Y-93892857D01*
X99952857Y-93964286D01*
X99881429Y-93892857D01*
X99810000Y-93750000D01*
X99810000Y-93392857D01*
X99881429Y-93250000D01*
X99952857Y-93178571D01*
X100095714Y-93107143D01*
X100452857Y-93107143D01*
X100595714Y-93178571D01*
X100667143Y-93250000D01*
X100738571Y-93392857D01*
X100738571Y-93750000D01*
X100667143Y-93892857D01*
X100595714Y-93964286D01*
X100738571Y-92464286D02*
X99238571Y-92464286D01*
X100738571Y-91607143D02*
X99881429Y-92250000D01*
X99238571Y-91607143D02*
X100095714Y-92464286D01*
X99381429Y-91035715D02*
X99310000Y-90964286D01*
X99238571Y-90821429D01*
X99238571Y-90464286D01*
X99310000Y-90321429D01*
X99381429Y-90250000D01*
X99524286Y-90178572D01*
X99667143Y-90178572D01*
X99881429Y-90250000D01*
X100738571Y-91107143D01*
X100738571Y-90178572D01*
X99381429Y-89607144D02*
X99310000Y-89535715D01*
X99238571Y-89392858D01*
X99238571Y-89035715D01*
X99310000Y-88892858D01*
X99381429Y-88821429D01*
X99524286Y-88750001D01*
X99667143Y-88750001D01*
X99881429Y-88821429D01*
X100738571Y-89678572D01*
X100738571Y-88750001D01*
D11*
X56800000Y-61300000D02*
X52600000Y-61300000D01*
X52600000Y-61300000D02*
X52600000Y-76700000D01*
X52600000Y-76700000D02*
X56800000Y-76700000D01*
X56800000Y-76700000D02*
X56800000Y-61300000D01*
X55000000Y-61300000D02*
X55000000Y-61800000D01*
X55000000Y-61800000D02*
X56300000Y-61800000D01*
X56300000Y-61800000D02*
X56300000Y-76200000D01*
X56300000Y-76200000D02*
X55000000Y-76200000D01*
X55000000Y-76200000D02*
X55000000Y-76700000D01*
X54100000Y-61300000D02*
X54100000Y-62300000D01*
X54100000Y-62300000D02*
X52600000Y-62300000D01*
X54100000Y-76700000D02*
X54100000Y-75700000D01*
X54100000Y-75700000D02*
X52600000Y-75700000D01*
X52250000Y-64000000D02*
X51650000Y-63700000D01*
X51650000Y-63700000D02*
X51650000Y-64300000D01*
X51650000Y-64300000D02*
X52250000Y-64000000D01*
X68699000Y-59686000D02*
X68699000Y-59886000D01*
X68699000Y-62280000D02*
X68699000Y-62100000D01*
X65471256Y-61969643D02*
G75*
G03X68699000Y-62286000I1727744J1003643D01*
G01*
X66146994Y-62099068D02*
G75*
G03X68250000Y-62100000I1052006J1133068D01*
G01*
X68686220Y-59659274D02*
G75*
G03X65449000Y-60006000I-1497220J-1306726D01*
G01*
X68212889Y-59886747D02*
G75*
G03X66165000Y-59906000I-1013889J-1079253D01*
G01*
X68699000Y-63686000D02*
X68699000Y-63886000D01*
X68699000Y-66280000D02*
X68699000Y-66100000D01*
X65471256Y-65969643D02*
G75*
G03X68699000Y-66286000I1727744J1003643D01*
G01*
X66146994Y-66099068D02*
G75*
G03X68250000Y-66100000I1052006J1133068D01*
G01*
X68686220Y-63659274D02*
G75*
G03X65449000Y-64006000I-1497220J-1306726D01*
G01*
X68212889Y-63886747D02*
G75*
G03X66165000Y-63906000I-1013889J-1079253D01*
G01*
X68699000Y-71286000D02*
X68699000Y-71486000D01*
X68699000Y-73880000D02*
X68699000Y-73700000D01*
X65471256Y-73569643D02*
G75*
G03X68699000Y-73886000I1727744J1003643D01*
G01*
X66146994Y-73699068D02*
G75*
G03X68250000Y-73700000I1052006J1133068D01*
G01*
X68686220Y-71259274D02*
G75*
G03X65449000Y-71606000I-1497220J-1306726D01*
G01*
X68212889Y-71486747D02*
G75*
G03X66165000Y-71506000I-1013889J-1079253D01*
G01*
X68699000Y-75186000D02*
X68699000Y-75386000D01*
X68699000Y-77780000D02*
X68699000Y-77600000D01*
X65471256Y-77469643D02*
G75*
G03X68699000Y-77786000I1727744J1003643D01*
G01*
X66146994Y-77599068D02*
G75*
G03X68250000Y-77600000I1052006J1133068D01*
G01*
X68686220Y-75159274D02*
G75*
G03X65449000Y-75506000I-1497220J-1306726D01*
G01*
X68212889Y-75386747D02*
G75*
G03X66165000Y-75406000I-1013889J-1079253D01*
G01*
X68699000Y-79086000D02*
X68699000Y-79286000D01*
X68699000Y-81680000D02*
X68699000Y-81500000D01*
X65471256Y-81369643D02*
G75*
G03X68699000Y-81686000I1727744J1003643D01*
G01*
X66146994Y-81499068D02*
G75*
G03X68250000Y-81500000I1052006J1133068D01*
G01*
X68686220Y-79059274D02*
G75*
G03X65449000Y-79406000I-1497220J-1306726D01*
G01*
X68212889Y-79286747D02*
G75*
G03X66165000Y-79306000I-1013889J-1079253D01*
G01*
X68699000Y-83086000D02*
X68699000Y-83286000D01*
X68699000Y-85680000D02*
X68699000Y-85500000D01*
X65471256Y-85369643D02*
G75*
G03X68699000Y-85686000I1727744J1003643D01*
G01*
X66146994Y-85499068D02*
G75*
G03X68250000Y-85500000I1052006J1133068D01*
G01*
X68686220Y-83059274D02*
G75*
G03X65449000Y-83406000I-1497220J-1306726D01*
G01*
X68212889Y-83286747D02*
G75*
G03X66165000Y-83306000I-1013889J-1079253D01*
G01*
X68699000Y-87086000D02*
X68699000Y-87286000D01*
X68699000Y-89680000D02*
X68699000Y-89500000D01*
X65471256Y-89369643D02*
G75*
G03X68699000Y-89686000I1727744J1003643D01*
G01*
X66146994Y-89499068D02*
G75*
G03X68250000Y-89500000I1052006J1133068D01*
G01*
X68686220Y-87059274D02*
G75*
G03X65449000Y-87406000I-1497220J-1306726D01*
G01*
X68212889Y-87286747D02*
G75*
G03X66165000Y-87306000I-1013889J-1079253D01*
G01*
X113599000Y-57086000D02*
X113599000Y-57286000D01*
X113599000Y-59680000D02*
X113599000Y-59500000D01*
X110371256Y-59369643D02*
G75*
G03X113599000Y-59686000I1727744J1003643D01*
G01*
X111046994Y-59499068D02*
G75*
G03X113150000Y-59500000I1052006J1133068D01*
G01*
X113586220Y-57059274D02*
G75*
G03X110349000Y-57406000I-1497220J-1306726D01*
G01*
X113112889Y-57286747D02*
G75*
G03X111065000Y-57306000I-1013889J-1079253D01*
G01*
X113699000Y-53186000D02*
X113699000Y-53386000D01*
X113699000Y-55780000D02*
X113699000Y-55600000D01*
X110471256Y-55469643D02*
G75*
G03X113699000Y-55786000I1727744J1003643D01*
G01*
X111146994Y-55599068D02*
G75*
G03X113250000Y-55600000I1052006J1133068D01*
G01*
X113686220Y-53159274D02*
G75*
G03X110449000Y-53506000I-1497220J-1306726D01*
G01*
X113212889Y-53386747D02*
G75*
G03X111165000Y-53406000I-1013889J-1079253D01*
G01*
X68699000Y-91186000D02*
X68699000Y-91386000D01*
X68699000Y-93780000D02*
X68699000Y-93600000D01*
X65471256Y-93469643D02*
G75*
G03X68699000Y-93786000I1727744J1003643D01*
G01*
X66146994Y-93599068D02*
G75*
G03X68250000Y-93600000I1052006J1133068D01*
G01*
X68686220Y-91159274D02*
G75*
G03X65449000Y-91506000I-1497220J-1306726D01*
G01*
X68212889Y-91386747D02*
G75*
G03X66165000Y-91406000I-1013889J-1079253D01*
G01*
X68699000Y-95086000D02*
X68699000Y-95286000D01*
X68699000Y-97680000D02*
X68699000Y-97500000D01*
X65471256Y-97369643D02*
G75*
G03X68699000Y-97686000I1727744J1003643D01*
G01*
X66146994Y-97499068D02*
G75*
G03X68250000Y-97500000I1052006J1133068D01*
G01*
X68686220Y-95059274D02*
G75*
G03X65449000Y-95406000I-1497220J-1306726D01*
G01*
X68212889Y-95286747D02*
G75*
G03X66165000Y-95306000I-1013889J-1079253D01*
G01*
X68699000Y-99086000D02*
X68699000Y-99286000D01*
X68699000Y-101680000D02*
X68699000Y-101500000D01*
X65471256Y-101369643D02*
G75*
G03X68699000Y-101686000I1727744J1003643D01*
G01*
X66146994Y-101499068D02*
G75*
G03X68250000Y-101500000I1052006J1133068D01*
G01*
X68686220Y-99059274D02*
G75*
G03X65449000Y-99406000I-1497220J-1306726D01*
G01*
X68212889Y-99286747D02*
G75*
G03X66165000Y-99306000I-1013889J-1079253D01*
G01*
X68699000Y-103086000D02*
X68699000Y-103286000D01*
X68699000Y-105680000D02*
X68699000Y-105500000D01*
X65471256Y-105369643D02*
G75*
G03X68699000Y-105686000I1727744J1003643D01*
G01*
X66146994Y-105499068D02*
G75*
G03X68250000Y-105500000I1052006J1133068D01*
G01*
X68686220Y-103059274D02*
G75*
G03X65449000Y-103406000I-1497220J-1306726D01*
G01*
X68212889Y-103286747D02*
G75*
G03X66165000Y-103306000I-1013889J-1079253D01*
G01*
X113799000Y-87686000D02*
X113799000Y-87886000D01*
X113799000Y-90280000D02*
X113799000Y-90100000D01*
X110571256Y-89969643D02*
G75*
G03X113799000Y-90286000I1727744J1003643D01*
G01*
X111246994Y-90099068D02*
G75*
G03X113350000Y-90100000I1052006J1133068D01*
G01*
X113786220Y-87659274D02*
G75*
G03X110549000Y-88006000I-1497220J-1306726D01*
G01*
X113312889Y-87886747D02*
G75*
G03X111265000Y-87906000I-1013889J-1079253D01*
G01*
X113799000Y-91686000D02*
X113799000Y-91886000D01*
X113799000Y-94280000D02*
X113799000Y-94100000D01*
X110571256Y-93969643D02*
G75*
G03X113799000Y-94286000I1727744J1003643D01*
G01*
X111246994Y-94099068D02*
G75*
G03X113350000Y-94100000I1052006J1133068D01*
G01*
X113786220Y-91659274D02*
G75*
G03X110549000Y-92006000I-1497220J-1306726D01*
G01*
X113312889Y-91886747D02*
G75*
G03X111265000Y-91906000I-1013889J-1079253D01*
G01*
X113799000Y-95786000D02*
X113799000Y-95986000D01*
X113799000Y-98380000D02*
X113799000Y-98200000D01*
X110571256Y-98069643D02*
G75*
G03X113799000Y-98386000I1727744J1003643D01*
G01*
X111246994Y-98199068D02*
G75*
G03X113350000Y-98200000I1052006J1133068D01*
G01*
X113786220Y-95759274D02*
G75*
G03X110549000Y-96106000I-1497220J-1306726D01*
G01*
X113312889Y-95986747D02*
G75*
G03X111265000Y-96006000I-1013889J-1079253D01*
G01*
X113799000Y-99686000D02*
X113799000Y-99886000D01*
X113799000Y-102280000D02*
X113799000Y-102100000D01*
X110571256Y-101969643D02*
G75*
G03X113799000Y-102286000I1727744J1003643D01*
G01*
X111246994Y-102099068D02*
G75*
G03X113350000Y-102100000I1052006J1133068D01*
G01*
X113786220Y-99659274D02*
G75*
G03X110549000Y-100006000I-1497220J-1306726D01*
G01*
X113312889Y-99886747D02*
G75*
G03X111265000Y-99906000I-1013889J-1079253D01*
G01*
X113799000Y-103786000D02*
X113799000Y-103986000D01*
X113799000Y-106380000D02*
X113799000Y-106200000D01*
X110571256Y-106069643D02*
G75*
G03X113799000Y-106386000I1727744J1003643D01*
G01*
X111246994Y-106199068D02*
G75*
G03X113350000Y-106200000I1052006J1133068D01*
G01*
X113786220Y-103759274D02*
G75*
G03X110549000Y-104106000I-1497220J-1306726D01*
G01*
X113312889Y-103986747D02*
G75*
G03X111265000Y-104006000I-1013889J-1079253D01*
G01*
X113799000Y-107786000D02*
X113799000Y-107986000D01*
X113799000Y-110380000D02*
X113799000Y-110200000D01*
X110571256Y-110069643D02*
G75*
G03X113799000Y-110386000I1727744J1003643D01*
G01*
X111246994Y-110199068D02*
G75*
G03X113350000Y-110200000I1052006J1133068D01*
G01*
X113786220Y-107759274D02*
G75*
G03X110549000Y-108106000I-1497220J-1306726D01*
G01*
X113312889Y-107986747D02*
G75*
G03X111265000Y-108006000I-1013889J-1079253D01*
G01*
X113799000Y-111786000D02*
X113799000Y-111986000D01*
X113799000Y-114380000D02*
X113799000Y-114200000D01*
X110571256Y-114069643D02*
G75*
G03X113799000Y-114386000I1727744J1003643D01*
G01*
X111246994Y-114199068D02*
G75*
G03X113350000Y-114200000I1052006J1133068D01*
G01*
X113786220Y-111759274D02*
G75*
G03X110549000Y-112106000I-1497220J-1306726D01*
G01*
X113312889Y-111986747D02*
G75*
G03X111265000Y-112006000I-1013889J-1079253D01*
G01*
X113799000Y-115786000D02*
X113799000Y-115986000D01*
X113799000Y-118380000D02*
X113799000Y-118200000D01*
X110571256Y-118069643D02*
G75*
G03X113799000Y-118386000I1727744J1003643D01*
G01*
X111246994Y-118199068D02*
G75*
G03X113350000Y-118200000I1052006J1133068D01*
G01*
X113786220Y-115759274D02*
G75*
G03X110549000Y-116106000I-1497220J-1306726D01*
G01*
X113312889Y-115986747D02*
G75*
G03X111265000Y-116006000I-1013889J-1079253D01*
G01*
X68699000Y-107086000D02*
X68699000Y-107286000D01*
X68699000Y-109680000D02*
X68699000Y-109500000D01*
X65471256Y-109369643D02*
G75*
G03X68699000Y-109686000I1727744J1003643D01*
G01*
X66146994Y-109499068D02*
G75*
G03X68250000Y-109500000I1052006J1133068D01*
G01*
X68686220Y-107059274D02*
G75*
G03X65449000Y-107406000I-1497220J-1306726D01*
G01*
X68212889Y-107286747D02*
G75*
G03X66165000Y-107306000I-1013889J-1079253D01*
G01*
X113799000Y-77186000D02*
X113799000Y-77386000D01*
X113799000Y-79780000D02*
X113799000Y-79600000D01*
X110571256Y-79469643D02*
G75*
G03X113799000Y-79786000I1727744J1003643D01*
G01*
X111246994Y-79599068D02*
G75*
G03X113350000Y-79600000I1052006J1133068D01*
G01*
X113786220Y-77159274D02*
G75*
G03X110549000Y-77506000I-1497220J-1306726D01*
G01*
X113312889Y-77386747D02*
G75*
G03X111265000Y-77406000I-1013889J-1079253D01*
G01*
X113699000Y-69186000D02*
X113699000Y-69386000D01*
X113699000Y-71780000D02*
X113699000Y-71600000D01*
X110471256Y-71469643D02*
G75*
G03X113699000Y-71786000I1727744J1003643D01*
G01*
X111146994Y-71599068D02*
G75*
G03X113250000Y-71600000I1052006J1133068D01*
G01*
X113686220Y-69159274D02*
G75*
G03X110449000Y-69506000I-1497220J-1306726D01*
G01*
X113212889Y-69386747D02*
G75*
G03X111165000Y-69406000I-1013889J-1079253D01*
G01*
X68699000Y-110986000D02*
X68699000Y-111186000D01*
X68699000Y-113580000D02*
X68699000Y-113400000D01*
X65471256Y-113269643D02*
G75*
G03X68699000Y-113586000I1727744J1003643D01*
G01*
X66146994Y-113399068D02*
G75*
G03X68250000Y-113400000I1052006J1133068D01*
G01*
X68686220Y-110959274D02*
G75*
G03X65449000Y-111306000I-1497220J-1306726D01*
G01*
X68212889Y-111186747D02*
G75*
G03X66165000Y-111206000I-1013889J-1079253D01*
G01*
X119899000Y-120386000D02*
X119899000Y-120586000D01*
X119899000Y-122980000D02*
X119899000Y-122800000D01*
X116671256Y-122669643D02*
G75*
G03X119899000Y-122986000I1727744J1003643D01*
G01*
X117346994Y-122799068D02*
G75*
G03X119450000Y-122800000I1052006J1133068D01*
G01*
X119886220Y-120359274D02*
G75*
G03X116649000Y-120706000I-1497220J-1306726D01*
G01*
X119412889Y-120586747D02*
G75*
G03X117365000Y-120606000I-1013889J-1079253D01*
G01*
X113799000Y-81186000D02*
X113799000Y-81386000D01*
X113799000Y-83780000D02*
X113799000Y-83600000D01*
X110571256Y-83469643D02*
G75*
G03X113799000Y-83786000I1727744J1003643D01*
G01*
X111246994Y-83599068D02*
G75*
G03X113350000Y-83600000I1052006J1133068D01*
G01*
X113786220Y-81159274D02*
G75*
G03X110549000Y-81506000I-1497220J-1306726D01*
G01*
X113312889Y-81386747D02*
G75*
G03X111265000Y-81406000I-1013889J-1079253D01*
G01*
X113699000Y-65186000D02*
X113699000Y-65386000D01*
X113699000Y-67780000D02*
X113699000Y-67600000D01*
X110471256Y-67469643D02*
G75*
G03X113699000Y-67786000I1727744J1003643D01*
G01*
X111146994Y-67599068D02*
G75*
G03X113250000Y-67600000I1052006J1133068D01*
G01*
X113686220Y-65159274D02*
G75*
G03X110449000Y-65506000I-1497220J-1306726D01*
G01*
X113212889Y-65386747D02*
G75*
G03X111165000Y-65406000I-1013889J-1079253D01*
G01*
X113699000Y-61186000D02*
X113699000Y-61386000D01*
X113699000Y-63780000D02*
X113699000Y-63600000D01*
X110471256Y-63469643D02*
G75*
G03X113699000Y-63786000I1727744J1003643D01*
G01*
X111146994Y-63599068D02*
G75*
G03X113250000Y-63600000I1052006J1133068D01*
G01*
X113686220Y-61159274D02*
G75*
G03X110449000Y-61506000I-1497220J-1306726D01*
G01*
X113212889Y-61386747D02*
G75*
G03X111165000Y-61406000I-1013889J-1079253D01*
G01*
X113799000Y-73186000D02*
X113799000Y-73386000D01*
X113799000Y-75780000D02*
X113799000Y-75600000D01*
X110571256Y-75469643D02*
G75*
G03X113799000Y-75786000I1727744J1003643D01*
G01*
X111246994Y-75599068D02*
G75*
G03X113350000Y-75600000I1052006J1133068D01*
G01*
X113786220Y-73159274D02*
G75*
G03X110549000Y-73506000I-1497220J-1306726D01*
G01*
X113312889Y-73386747D02*
G75*
G03X111265000Y-73406000I-1013889J-1079253D01*
G01*
X68699000Y-55686000D02*
X68699000Y-55886000D01*
X68699000Y-58280000D02*
X68699000Y-58100000D01*
X65471256Y-57969643D02*
G75*
G03X68699000Y-58286000I1727744J1003643D01*
G01*
X66146994Y-58099068D02*
G75*
G03X68250000Y-58100000I1052006J1133068D01*
G01*
X68686220Y-55659274D02*
G75*
G03X65449000Y-56006000I-1497220J-1306726D01*
G01*
X68212889Y-55886747D02*
G75*
G03X66165000Y-55906000I-1013889J-1079253D01*
G01*
X94175000Y-122500000D02*
X95200000Y-122500000D01*
X94175000Y-127200000D02*
X95200000Y-127200000D01*
X101925000Y-122500000D02*
X102950000Y-122500000D01*
X101975000Y-122475000D02*
X101950000Y-122475000D01*
X101925000Y-127200000D02*
X102950000Y-127200000D01*
X102975000Y-122525000D02*
X102975000Y-127175000D01*
X94175000Y-122525000D02*
X94175000Y-127175000D01*
X101950000Y-122475000D02*
X101950000Y-121400000D01*
X57430760Y-118720000D02*
G75*
G03X57430760Y-118720000I-1000760J0D01*
G01*
X62730000Y-118720000D02*
G75*
G03X62730000Y-118720000I-6300000J0D01*
G01*
X107970000Y-114830000D02*
X105430000Y-114830000D01*
X105430000Y-114830000D02*
X105430000Y-91970000D01*
X105430000Y-91970000D02*
X107970000Y-91970000D01*
X107970000Y-114830000D02*
X107970000Y-91970000D01*
X107970000Y-94510000D02*
X105430000Y-94510000D01*
X105630000Y-59170000D02*
X108170000Y-59170000D01*
X108170000Y-59170000D02*
X108170000Y-82030000D01*
X108170000Y-82030000D02*
X105630000Y-82030000D01*
X105630000Y-59170000D02*
X105630000Y-82030000D01*
X105630000Y-79490000D02*
X108170000Y-79490000D01*
X71730000Y-96430000D02*
X71730000Y-98970000D01*
X74270000Y-96430000D02*
X74270000Y-98970000D01*
X74270000Y-96430000D02*
X71730000Y-96430000D01*
X74270000Y-98970000D02*
X71730000Y-98970000D01*
X71730000Y-96430000D02*
X71730000Y-73570000D01*
X71730000Y-73570000D02*
X74270000Y-73570000D01*
X74270000Y-96430000D02*
X74270000Y-73570000D01*
X74270000Y-76110000D02*
X71730000Y-76110000D01*
X71730000Y-66770000D02*
X71730000Y-54070000D01*
X74270000Y-54070000D02*
X74270000Y-66770000D01*
X74270000Y-66770000D02*
X71730000Y-66770000D01*
X71730000Y-54070000D02*
X74270000Y-54070000D01*
X74270000Y-56610000D02*
X71730000Y-56610000D01*
X71730000Y-117310000D02*
X71730000Y-102070000D01*
X74270000Y-102070000D02*
X74270000Y-117310000D01*
X74270000Y-117310000D02*
X74016000Y-117310000D01*
X74270000Y-117310000D02*
X71730000Y-117310000D01*
X74270000Y-114770000D02*
X71730000Y-114770000D01*
X71730000Y-102070000D02*
X74270000Y-102070000D01*
X74270000Y-104610000D02*
X71730000Y-104610000D01*
X120180000Y-81080000D02*
X120180000Y-60760000D01*
X120730000Y-80540000D02*
X120730000Y-61320000D01*
X129280000Y-81080000D02*
X129280000Y-60760000D01*
X128730000Y-80540000D02*
X128730000Y-73170000D01*
X128730000Y-68670000D02*
X128730000Y-61320000D01*
X128730000Y-73170000D02*
X129280000Y-73170000D01*
X128730000Y-68670000D02*
X129280000Y-68670000D01*
X120180000Y-81080000D02*
X129280000Y-81080000D01*
X120730000Y-80540000D02*
X128730000Y-80540000D01*
X120180000Y-60760000D02*
X129280000Y-60760000D01*
X120730000Y-61320000D02*
X128730000Y-61320000D01*
X120180000Y-81080000D02*
X120730000Y-80540000D01*
X120180000Y-60760000D02*
X120730000Y-61320000D01*
X129280000Y-81080000D02*
X128730000Y-80540000D01*
X129280000Y-60760000D02*
X128730000Y-61320000D01*
X120180000Y-112080000D02*
X120180000Y-91760000D01*
X120730000Y-111540000D02*
X120730000Y-92320000D01*
X129280000Y-112080000D02*
X129280000Y-91760000D01*
X128730000Y-111540000D02*
X128730000Y-104170000D01*
X128730000Y-99670000D02*
X128730000Y-92320000D01*
X128730000Y-104170000D02*
X129280000Y-104170000D01*
X128730000Y-99670000D02*
X129280000Y-99670000D01*
X120180000Y-112080000D02*
X129280000Y-112080000D01*
X120730000Y-111540000D02*
X128730000Y-111540000D01*
X120180000Y-91760000D02*
X129280000Y-91760000D01*
X120730000Y-92320000D02*
X128730000Y-92320000D01*
X120180000Y-112080000D02*
X120730000Y-111540000D01*
X120180000Y-91760000D02*
X120730000Y-92320000D01*
X129280000Y-112080000D02*
X128730000Y-111540000D01*
X129280000Y-91760000D02*
X128730000Y-92320000D01*
X82229360Y-133349180D02*
X89930640Y-133349180D01*
X82229360Y-134349940D02*
X89930640Y-134349940D01*
X89930640Y-134349940D02*
X89930640Y-125150060D01*
X89930640Y-125150060D02*
X82229360Y-125150060D01*
X82229360Y-125150060D02*
X82229360Y-134349940D01*
X96800000Y-54450000D02*
X96800000Y-52900000D01*
X95500000Y-54450000D02*
X96800000Y-54450000D01*
X95381697Y-48522941D02*
X95381697Y-42680941D01*
X95381697Y-42680941D02*
X95635697Y-42680941D01*
X95635697Y-42680941D02*
X95635697Y-48522941D01*
X95635697Y-48522941D02*
X95508697Y-48522941D01*
X95508697Y-48522941D02*
X95508697Y-42680941D01*
X82554697Y-51189941D02*
X82554697Y-51570941D01*
X83062697Y-51189941D02*
X83062697Y-51570941D01*
X85094697Y-51189941D02*
X85094697Y-51570941D01*
X85602697Y-51189941D02*
X85602697Y-51570941D01*
X87634697Y-51189941D02*
X87634697Y-51570941D01*
X88142697Y-51189941D02*
X88142697Y-51570941D01*
X95762697Y-51189941D02*
X95762697Y-51570941D01*
X95254697Y-51189941D02*
X95254697Y-51570941D01*
X93222697Y-51189941D02*
X93222697Y-51570941D01*
X92714697Y-51189941D02*
X92714697Y-51570941D01*
X90682697Y-51189941D02*
X90682697Y-51570941D01*
X90174697Y-51189941D02*
X90174697Y-51570941D01*
X81538697Y-51189941D02*
X81538697Y-48649941D01*
X84078697Y-51189941D02*
X84078697Y-48649941D01*
X84078697Y-51189941D02*
X86618697Y-51189941D01*
X86618697Y-51189941D02*
X86618697Y-48649941D01*
X85094697Y-48649941D02*
X85094697Y-42553941D01*
X85094697Y-42553941D02*
X85602697Y-42553941D01*
X85602697Y-42553941D02*
X85602697Y-48649941D01*
X86618697Y-48649941D02*
X84078697Y-48649941D01*
X84078697Y-48649941D02*
X81538697Y-48649941D01*
X83062697Y-42553941D02*
X83062697Y-48649941D01*
X82554697Y-42553941D02*
X83062697Y-42553941D01*
X82554697Y-48649941D02*
X82554697Y-42553941D01*
X84078697Y-51189941D02*
X84078697Y-48649941D01*
X81538697Y-51189941D02*
X84078697Y-51189941D01*
X91698697Y-51189941D02*
X91698697Y-48649941D01*
X91698697Y-51189941D02*
X94238697Y-51189941D01*
X94238697Y-51189941D02*
X94238697Y-48649941D01*
X92714697Y-48649941D02*
X92714697Y-42553941D01*
X92714697Y-42553941D02*
X93222697Y-42553941D01*
X93222697Y-42553941D02*
X93222697Y-48649941D01*
X94238697Y-48649941D02*
X91698697Y-48649941D01*
X96778697Y-48649941D02*
X94238697Y-48649941D01*
X95762697Y-42553941D02*
X95762697Y-48649941D01*
X95254697Y-42553941D02*
X95762697Y-42553941D01*
X95254697Y-48649941D02*
X95254697Y-42553941D01*
X96778697Y-51189941D02*
X96778697Y-48649941D01*
X94238697Y-51189941D02*
X96778697Y-51189941D01*
X94238697Y-51189941D02*
X94238697Y-48649941D01*
X89158697Y-51189941D02*
X89158697Y-48649941D01*
X89158697Y-51189941D02*
X91698697Y-51189941D01*
X91698697Y-51189941D02*
X91698697Y-48649941D01*
X90174697Y-48649941D02*
X90174697Y-42553941D01*
X90174697Y-42553941D02*
X90682697Y-42553941D01*
X90682697Y-42553941D02*
X90682697Y-48649941D01*
X91698697Y-48649941D02*
X89158697Y-48649941D01*
X89158697Y-48649941D02*
X86618697Y-48649941D01*
X88142697Y-42553941D02*
X88142697Y-48649941D01*
X87634697Y-42553941D02*
X88142697Y-42553941D01*
X87634697Y-48649941D02*
X87634697Y-42553941D01*
X89158697Y-51189941D02*
X89158697Y-48649941D01*
X86618697Y-51189941D02*
X89158697Y-51189941D01*
X86618697Y-51189941D02*
X86618697Y-48649941D01*
X66290000Y-130100000D02*
X66290000Y-124900000D01*
X66300000Y-124900000D02*
X74500000Y-124900000D01*
X74510000Y-124900000D02*
X74510000Y-130100000D01*
X74500000Y-130100000D02*
X66300000Y-130100000D01*
X59920000Y-84520000D02*
X59920000Y-109920000D01*
X59370000Y-85060000D02*
X59370000Y-109360000D01*
X50820000Y-84520000D02*
X50820000Y-109920000D01*
X51370000Y-85060000D02*
X51370000Y-94970000D01*
X51370000Y-99470000D02*
X51370000Y-109360000D01*
X51370000Y-94970000D02*
X50820000Y-94970000D01*
X51370000Y-99470000D02*
X50820000Y-99470000D01*
X59920000Y-84520000D02*
X50820000Y-84520000D01*
X59370000Y-85060000D02*
X51370000Y-85060000D01*
X59920000Y-109920000D02*
X50820000Y-109920000D01*
X59370000Y-109360000D02*
X51370000Y-109360000D01*
X59920000Y-84520000D02*
X59370000Y-85060000D01*
X59920000Y-109920000D02*
X59370000Y-109360000D01*
X50820000Y-84520000D02*
X51370000Y-85060000D01*
X50820000Y-109920000D02*
X51370000Y-109360000D01*
X97400000Y-57000000D02*
X98000000Y-57000000D01*
X97500000Y-57000000D02*
G75*
G03X97500000Y-57000000I-1270000J0D01*
G01*
X124500000Y-117400000D02*
X124500000Y-118000000D01*
X125770000Y-116230000D02*
G75*
G03X125770000Y-116230000I-1270000J0D01*
G01*
X112050000Y-126000000D02*
X112050000Y-126100000D01*
X111950000Y-125950000D02*
X112300000Y-125950000D01*
X112300000Y-125950000D02*
G75*
G03X111950000Y-126300000I700000J-1050000D01*
G01*
X111950000Y-125950000D02*
X111950000Y-126300000D01*
X117414214Y-129000000D02*
G75*
G03X117414214Y-129000000I-1414214J0D01*
G01*
X114000000Y-132000000D02*
X118000000Y-132000000D01*
X114000000Y-126000000D02*
X118000000Y-126000000D01*
X113000000Y-129750000D02*
X113000000Y-128250000D01*
X119000000Y-128250000D02*
X119000000Y-129750000D01*
D10*
X113000000Y-129000000D02*
X113000000Y-129000000D01*
X118000000Y-132000000D02*
X114000000Y-132000000D01*
X118000000Y-126000000D02*
X114000000Y-126000000D01*
X119000000Y-129000000D02*
X119000000Y-129000000D01*
X117414214Y-129000000D02*
G75*
G03X117414214Y-129000000I-1414214J0D01*
G01*
D11*
X80050000Y-117400000D02*
X80050000Y-124400000D01*
X80050000Y-124400000D02*
X77550000Y-124400000D01*
X77550000Y-124400000D02*
X77550000Y-117400000D01*
X77550000Y-117400000D02*
X80050000Y-117400000D01*
X107250000Y-130300000D02*
X107250000Y-123300000D01*
X107250000Y-123300000D02*
X109750000Y-123300000D01*
X109750000Y-123300000D02*
X109750000Y-130300000D01*
X109750000Y-130300000D02*
X107250000Y-130300000D01*
X94000000Y-58250000D02*
X87000000Y-58250000D01*
X87000000Y-58250000D02*
X87000000Y-55750000D01*
X87000000Y-55750000D02*
X94000000Y-55750000D01*
X94000000Y-55750000D02*
X94000000Y-58250000D01*
X79250000Y-88250000D02*
X79250000Y-92250000D01*
X76750000Y-88250000D02*
X76750000Y-92250000D01*
X126750000Y-87450000D02*
X122750000Y-87450000D01*
X126750000Y-84950000D02*
X122750000Y-84950000D01*
X101780000Y-83070000D02*
X101780000Y-87070000D01*
X99280000Y-83070000D02*
X99280000Y-87070000D01*
X69150000Y-118150000D02*
X65150000Y-118150000D01*
X69150000Y-115650000D02*
X65150000Y-115650000D01*
X62000000Y-129000000D02*
X62000000Y-122000000D01*
X62000000Y-122000000D02*
X64000000Y-122000000D01*
X64000000Y-122000000D02*
X64000000Y-129000000D01*
X64000000Y-129000000D02*
X62000000Y-129000000D01*
X81415000Y-61205000D02*
X81415000Y-62475000D01*
X96385000Y-61205000D02*
X96385000Y-62475000D01*
X96385000Y-114055000D02*
X96385000Y-112785000D01*
X81415000Y-114055000D02*
X81415000Y-112785000D01*
X81415000Y-61205000D02*
X96385000Y-61205000D01*
X81415000Y-114055000D02*
X96385000Y-114055000D01*
X81415000Y-62475000D02*
X80130000Y-62475000D01*
X101330000Y-118900000D02*
X102030000Y-118900000D01*
X102030000Y-120100000D02*
X101330000Y-120100000D01*
X97150000Y-129700000D02*
X97850000Y-129700000D01*
X97850000Y-130900000D02*
X97150000Y-130900000D01*
X83925000Y-122700000D02*
X83925000Y-121700000D01*
X85275000Y-121700000D02*
X85275000Y-122700000D01*
X86225000Y-122700000D02*
X86225000Y-121700000D01*
X87575000Y-121700000D02*
X87575000Y-122700000D01*
D14*
X53854286Y-60495714D02*
X53782857Y-60567143D01*
X53568571Y-60638571D01*
X53425714Y-60638571D01*
X53211429Y-60567143D01*
X53068571Y-60424286D01*
X52997143Y-60281429D01*
X52925714Y-59995714D01*
X52925714Y-59781429D01*
X52997143Y-59495714D01*
X53068571Y-59352857D01*
X53211429Y-59210000D01*
X53425714Y-59138571D01*
X53568571Y-59138571D01*
X53782857Y-59210000D01*
X53854286Y-59281429D01*
X54497143Y-60638571D02*
X54497143Y-59138571D01*
X55354286Y-60638571D01*
X55354286Y-59138571D01*
X56854286Y-60638571D02*
X55997143Y-60638571D01*
X56425715Y-60638571D02*
X56425715Y-59138571D01*
X56282858Y-59352857D01*
X56140000Y-59495714D01*
X55997143Y-59567143D01*
D11*
X62404762Y-61452381D02*
X62071428Y-60976190D01*
X61833333Y-61452381D02*
X61833333Y-60452381D01*
X62214286Y-60452381D01*
X62309524Y-60500000D01*
X62357143Y-60547619D01*
X62404762Y-60642857D01*
X62404762Y-60785714D01*
X62357143Y-60880952D01*
X62309524Y-60928571D01*
X62214286Y-60976190D01*
X61833333Y-60976190D01*
X62785714Y-61166667D02*
X63261905Y-61166667D01*
X62690476Y-61452381D02*
X63023809Y-60452381D01*
X63357143Y-61452381D01*
X64214286Y-61452381D02*
X63642857Y-61452381D01*
X63928571Y-61452381D02*
X63928571Y-60452381D01*
X63833333Y-60595238D01*
X63738095Y-60690476D01*
X63642857Y-60738095D01*
X69809048Y-59331429D02*
X70570953Y-59331429D01*
X70190001Y-59712381D02*
X70190001Y-58950476D01*
X62404762Y-65452381D02*
X62071428Y-64976190D01*
X61833333Y-65452381D02*
X61833333Y-64452381D01*
X62214286Y-64452381D01*
X62309524Y-64500000D01*
X62357143Y-64547619D01*
X62404762Y-64642857D01*
X62404762Y-64785714D01*
X62357143Y-64880952D01*
X62309524Y-64928571D01*
X62214286Y-64976190D01*
X61833333Y-64976190D01*
X62785714Y-65166667D02*
X63261905Y-65166667D01*
X62690476Y-65452381D02*
X63023809Y-64452381D01*
X63357143Y-65452381D01*
X63642857Y-64547619D02*
X63690476Y-64500000D01*
X63785714Y-64452381D01*
X64023810Y-64452381D01*
X64119048Y-64500000D01*
X64166667Y-64547619D01*
X64214286Y-64642857D01*
X64214286Y-64738095D01*
X64166667Y-64880952D01*
X63595238Y-65452381D01*
X64214286Y-65452381D01*
X69809048Y-63331429D02*
X70570953Y-63331429D01*
X70190001Y-63712381D02*
X70190001Y-62950476D01*
X62204762Y-73152381D02*
X61871428Y-72676190D01*
X61633333Y-73152381D02*
X61633333Y-72152381D01*
X62014286Y-72152381D01*
X62109524Y-72200000D01*
X62157143Y-72247619D01*
X62204762Y-72342857D01*
X62204762Y-72485714D01*
X62157143Y-72580952D01*
X62109524Y-72628571D01*
X62014286Y-72676190D01*
X61633333Y-72676190D01*
X62585714Y-72866667D02*
X63061905Y-72866667D01*
X62490476Y-73152381D02*
X62823809Y-72152381D01*
X63157143Y-73152381D01*
X63395238Y-72152381D02*
X64014286Y-72152381D01*
X63680952Y-72533333D01*
X63823810Y-72533333D01*
X63919048Y-72580952D01*
X63966667Y-72628571D01*
X64014286Y-72723810D01*
X64014286Y-72961905D01*
X63966667Y-73057143D01*
X63919048Y-73104762D01*
X63823810Y-73152381D01*
X63538095Y-73152381D01*
X63442857Y-73104762D01*
X63395238Y-73057143D01*
X69809048Y-70931429D02*
X70570953Y-70931429D01*
X70190001Y-71312381D02*
X70190001Y-70550476D01*
X62304762Y-76852381D02*
X61971428Y-76376190D01*
X61733333Y-76852381D02*
X61733333Y-75852381D01*
X62114286Y-75852381D01*
X62209524Y-75900000D01*
X62257143Y-75947619D01*
X62304762Y-76042857D01*
X62304762Y-76185714D01*
X62257143Y-76280952D01*
X62209524Y-76328571D01*
X62114286Y-76376190D01*
X61733333Y-76376190D01*
X62685714Y-76566667D02*
X63161905Y-76566667D01*
X62590476Y-76852381D02*
X62923809Y-75852381D01*
X63257143Y-76852381D01*
X64019048Y-76185714D02*
X64019048Y-76852381D01*
X63780952Y-75804762D02*
X63542857Y-76519048D01*
X64161905Y-76519048D01*
X69809048Y-74831429D02*
X70570953Y-74831429D01*
X70190001Y-75212381D02*
X70190001Y-74450476D01*
X62304762Y-80852381D02*
X61971428Y-80376190D01*
X61733333Y-80852381D02*
X61733333Y-79852381D01*
X62114286Y-79852381D01*
X62209524Y-79900000D01*
X62257143Y-79947619D01*
X62304762Y-80042857D01*
X62304762Y-80185714D01*
X62257143Y-80280952D01*
X62209524Y-80328571D01*
X62114286Y-80376190D01*
X61733333Y-80376190D01*
X62685714Y-80566667D02*
X63161905Y-80566667D01*
X62590476Y-80852381D02*
X62923809Y-79852381D01*
X63257143Y-80852381D01*
X64066667Y-79852381D02*
X63590476Y-79852381D01*
X63542857Y-80328571D01*
X63590476Y-80280952D01*
X63685714Y-80233333D01*
X63923810Y-80233333D01*
X64019048Y-80280952D01*
X64066667Y-80328571D01*
X64114286Y-80423810D01*
X64114286Y-80661905D01*
X64066667Y-80757143D01*
X64019048Y-80804762D01*
X63923810Y-80852381D01*
X63685714Y-80852381D01*
X63590476Y-80804762D01*
X63542857Y-80757143D01*
X69809048Y-78731429D02*
X70570953Y-78731429D01*
X70190001Y-79112381D02*
X70190001Y-78350476D01*
X62404762Y-84852381D02*
X62071428Y-84376190D01*
X61833333Y-84852381D02*
X61833333Y-83852381D01*
X62214286Y-83852381D01*
X62309524Y-83900000D01*
X62357143Y-83947619D01*
X62404762Y-84042857D01*
X62404762Y-84185714D01*
X62357143Y-84280952D01*
X62309524Y-84328571D01*
X62214286Y-84376190D01*
X61833333Y-84376190D01*
X62785714Y-84566667D02*
X63261905Y-84566667D01*
X62690476Y-84852381D02*
X63023809Y-83852381D01*
X63357143Y-84852381D01*
X64119048Y-83852381D02*
X63928571Y-83852381D01*
X63833333Y-83900000D01*
X63785714Y-83947619D01*
X63690476Y-84090476D01*
X63642857Y-84280952D01*
X63642857Y-84661905D01*
X63690476Y-84757143D01*
X63738095Y-84804762D01*
X63833333Y-84852381D01*
X64023810Y-84852381D01*
X64119048Y-84804762D01*
X64166667Y-84757143D01*
X64214286Y-84661905D01*
X64214286Y-84423810D01*
X64166667Y-84328571D01*
X64119048Y-84280952D01*
X64023810Y-84233333D01*
X63833333Y-84233333D01*
X63738095Y-84280952D01*
X63690476Y-84328571D01*
X63642857Y-84423810D01*
X69809048Y-82731429D02*
X70570953Y-82731429D01*
X70190001Y-83112381D02*
X70190001Y-82350476D01*
X62504762Y-88952381D02*
X62171428Y-88476190D01*
X61933333Y-88952381D02*
X61933333Y-87952381D01*
X62314286Y-87952381D01*
X62409524Y-88000000D01*
X62457143Y-88047619D01*
X62504762Y-88142857D01*
X62504762Y-88285714D01*
X62457143Y-88380952D01*
X62409524Y-88428571D01*
X62314286Y-88476190D01*
X61933333Y-88476190D01*
X62885714Y-88666667D02*
X63361905Y-88666667D01*
X62790476Y-88952381D02*
X63123809Y-87952381D01*
X63457143Y-88952381D01*
X63695238Y-87952381D02*
X64361905Y-87952381D01*
X63933333Y-88952381D01*
X69809048Y-86731429D02*
X70570953Y-86731429D01*
X70190001Y-87112381D02*
X70190001Y-86350476D01*
X116133334Y-59052381D02*
X115800000Y-58576190D01*
X115561905Y-59052381D02*
X115561905Y-58052381D01*
X115942858Y-58052381D01*
X116038096Y-58100000D01*
X116085715Y-58147619D01*
X116133334Y-58242857D01*
X116133334Y-58385714D01*
X116085715Y-58480952D01*
X116038096Y-58528571D01*
X115942858Y-58576190D01*
X115561905Y-58576190D01*
X116895239Y-58528571D02*
X117038096Y-58576190D01*
X117085715Y-58623810D01*
X117133334Y-58719048D01*
X117133334Y-58861905D01*
X117085715Y-58957143D01*
X117038096Y-59004762D01*
X116942858Y-59052381D01*
X116561905Y-59052381D01*
X116561905Y-58052381D01*
X116895239Y-58052381D01*
X116990477Y-58100000D01*
X117038096Y-58147619D01*
X117085715Y-58242857D01*
X117085715Y-58338095D01*
X117038096Y-58433333D01*
X116990477Y-58480952D01*
X116895239Y-58528571D01*
X116561905Y-58528571D01*
X117752381Y-58052381D02*
X117847620Y-58052381D01*
X117942858Y-58100000D01*
X117990477Y-58147619D01*
X118038096Y-58242857D01*
X118085715Y-58433333D01*
X118085715Y-58671429D01*
X118038096Y-58861905D01*
X117990477Y-58957143D01*
X117942858Y-59004762D01*
X117847620Y-59052381D01*
X117752381Y-59052381D01*
X117657143Y-59004762D01*
X117609524Y-58957143D01*
X117561905Y-58861905D01*
X117514286Y-58671429D01*
X117514286Y-58433333D01*
X117561905Y-58242857D01*
X117609524Y-58147619D01*
X117657143Y-58100000D01*
X117752381Y-58052381D01*
X114709048Y-56731429D02*
X115470953Y-56731429D01*
X115090001Y-57112381D02*
X115090001Y-56350476D01*
X115933334Y-54952381D02*
X115600000Y-54476190D01*
X115361905Y-54952381D02*
X115361905Y-53952381D01*
X115742858Y-53952381D01*
X115838096Y-54000000D01*
X115885715Y-54047619D01*
X115933334Y-54142857D01*
X115933334Y-54285714D01*
X115885715Y-54380952D01*
X115838096Y-54428571D01*
X115742858Y-54476190D01*
X115361905Y-54476190D01*
X116695239Y-54428571D02*
X116838096Y-54476190D01*
X116885715Y-54523810D01*
X116933334Y-54619048D01*
X116933334Y-54761905D01*
X116885715Y-54857143D01*
X116838096Y-54904762D01*
X116742858Y-54952381D01*
X116361905Y-54952381D01*
X116361905Y-53952381D01*
X116695239Y-53952381D01*
X116790477Y-54000000D01*
X116838096Y-54047619D01*
X116885715Y-54142857D01*
X116885715Y-54238095D01*
X116838096Y-54333333D01*
X116790477Y-54380952D01*
X116695239Y-54428571D01*
X116361905Y-54428571D01*
X117885715Y-54952381D02*
X117314286Y-54952381D01*
X117600000Y-54952381D02*
X117600000Y-53952381D01*
X117504762Y-54095238D01*
X117409524Y-54190476D01*
X117314286Y-54238095D01*
X114809048Y-52831429D02*
X115570953Y-52831429D01*
X115190001Y-53212381D02*
X115190001Y-52450476D01*
X62133334Y-92952381D02*
X61800000Y-92476190D01*
X61561905Y-92952381D02*
X61561905Y-91952381D01*
X61942858Y-91952381D01*
X62038096Y-92000000D01*
X62085715Y-92047619D01*
X62133334Y-92142857D01*
X62133334Y-92285714D01*
X62085715Y-92380952D01*
X62038096Y-92428571D01*
X61942858Y-92476190D01*
X61561905Y-92476190D01*
X62895239Y-92428571D02*
X63038096Y-92476190D01*
X63085715Y-92523810D01*
X63133334Y-92619048D01*
X63133334Y-92761905D01*
X63085715Y-92857143D01*
X63038096Y-92904762D01*
X62942858Y-92952381D01*
X62561905Y-92952381D01*
X62561905Y-91952381D01*
X62895239Y-91952381D01*
X62990477Y-92000000D01*
X63038096Y-92047619D01*
X63085715Y-92142857D01*
X63085715Y-92238095D01*
X63038096Y-92333333D01*
X62990477Y-92380952D01*
X62895239Y-92428571D01*
X62561905Y-92428571D01*
X63514286Y-92047619D02*
X63561905Y-92000000D01*
X63657143Y-91952381D01*
X63895239Y-91952381D01*
X63990477Y-92000000D01*
X64038096Y-92047619D01*
X64085715Y-92142857D01*
X64085715Y-92238095D01*
X64038096Y-92380952D01*
X63466667Y-92952381D01*
X64085715Y-92952381D01*
X69809048Y-90831429D02*
X70570953Y-90831429D01*
X70190001Y-91212381D02*
X70190001Y-90450476D01*
X62233334Y-96752381D02*
X61900000Y-96276190D01*
X61661905Y-96752381D02*
X61661905Y-95752381D01*
X62042858Y-95752381D01*
X62138096Y-95800000D01*
X62185715Y-95847619D01*
X62233334Y-95942857D01*
X62233334Y-96085714D01*
X62185715Y-96180952D01*
X62138096Y-96228571D01*
X62042858Y-96276190D01*
X61661905Y-96276190D01*
X62995239Y-96228571D02*
X63138096Y-96276190D01*
X63185715Y-96323810D01*
X63233334Y-96419048D01*
X63233334Y-96561905D01*
X63185715Y-96657143D01*
X63138096Y-96704762D01*
X63042858Y-96752381D01*
X62661905Y-96752381D01*
X62661905Y-95752381D01*
X62995239Y-95752381D01*
X63090477Y-95800000D01*
X63138096Y-95847619D01*
X63185715Y-95942857D01*
X63185715Y-96038095D01*
X63138096Y-96133333D01*
X63090477Y-96180952D01*
X62995239Y-96228571D01*
X62661905Y-96228571D01*
X63566667Y-95752381D02*
X64185715Y-95752381D01*
X63852381Y-96133333D01*
X63995239Y-96133333D01*
X64090477Y-96180952D01*
X64138096Y-96228571D01*
X64185715Y-96323810D01*
X64185715Y-96561905D01*
X64138096Y-96657143D01*
X64090477Y-96704762D01*
X63995239Y-96752381D01*
X63709524Y-96752381D01*
X63614286Y-96704762D01*
X63566667Y-96657143D01*
X69809048Y-94731429D02*
X70570953Y-94731429D01*
X70190001Y-95112381D02*
X70190001Y-94350476D01*
X62233334Y-101052381D02*
X61900000Y-100576190D01*
X61661905Y-101052381D02*
X61661905Y-100052381D01*
X62042858Y-100052381D01*
X62138096Y-100100000D01*
X62185715Y-100147619D01*
X62233334Y-100242857D01*
X62233334Y-100385714D01*
X62185715Y-100480952D01*
X62138096Y-100528571D01*
X62042858Y-100576190D01*
X61661905Y-100576190D01*
X62995239Y-100528571D02*
X63138096Y-100576190D01*
X63185715Y-100623810D01*
X63233334Y-100719048D01*
X63233334Y-100861905D01*
X63185715Y-100957143D01*
X63138096Y-101004762D01*
X63042858Y-101052381D01*
X62661905Y-101052381D01*
X62661905Y-100052381D01*
X62995239Y-100052381D01*
X63090477Y-100100000D01*
X63138096Y-100147619D01*
X63185715Y-100242857D01*
X63185715Y-100338095D01*
X63138096Y-100433333D01*
X63090477Y-100480952D01*
X62995239Y-100528571D01*
X62661905Y-100528571D01*
X64090477Y-100385714D02*
X64090477Y-101052381D01*
X63852381Y-100004762D02*
X63614286Y-100719048D01*
X64233334Y-100719048D01*
X69809048Y-98731429D02*
X70570953Y-98731429D01*
X70190001Y-99112381D02*
X70190001Y-98350476D01*
X62033334Y-104852381D02*
X61700000Y-104376190D01*
X61461905Y-104852381D02*
X61461905Y-103852381D01*
X61842858Y-103852381D01*
X61938096Y-103900000D01*
X61985715Y-103947619D01*
X62033334Y-104042857D01*
X62033334Y-104185714D01*
X61985715Y-104280952D01*
X61938096Y-104328571D01*
X61842858Y-104376190D01*
X61461905Y-104376190D01*
X62795239Y-104328571D02*
X62938096Y-104376190D01*
X62985715Y-104423810D01*
X63033334Y-104519048D01*
X63033334Y-104661905D01*
X62985715Y-104757143D01*
X62938096Y-104804762D01*
X62842858Y-104852381D01*
X62461905Y-104852381D01*
X62461905Y-103852381D01*
X62795239Y-103852381D01*
X62890477Y-103900000D01*
X62938096Y-103947619D01*
X62985715Y-104042857D01*
X62985715Y-104138095D01*
X62938096Y-104233333D01*
X62890477Y-104280952D01*
X62795239Y-104328571D01*
X62461905Y-104328571D01*
X63938096Y-103852381D02*
X63461905Y-103852381D01*
X63414286Y-104328571D01*
X63461905Y-104280952D01*
X63557143Y-104233333D01*
X63795239Y-104233333D01*
X63890477Y-104280952D01*
X63938096Y-104328571D01*
X63985715Y-104423810D01*
X63985715Y-104661905D01*
X63938096Y-104757143D01*
X63890477Y-104804762D01*
X63795239Y-104852381D01*
X63557143Y-104852381D01*
X63461905Y-104804762D01*
X63414286Y-104757143D01*
X69809048Y-102731429D02*
X70570953Y-102731429D01*
X70190001Y-103112381D02*
X70190001Y-102350476D01*
X116233334Y-89652381D02*
X115900000Y-89176190D01*
X115661905Y-89652381D02*
X115661905Y-88652381D01*
X116042858Y-88652381D01*
X116138096Y-88700000D01*
X116185715Y-88747619D01*
X116233334Y-88842857D01*
X116233334Y-88985714D01*
X116185715Y-89080952D01*
X116138096Y-89128571D01*
X116042858Y-89176190D01*
X115661905Y-89176190D01*
X117233334Y-89557143D02*
X117185715Y-89604762D01*
X117042858Y-89652381D01*
X116947620Y-89652381D01*
X116804762Y-89604762D01*
X116709524Y-89509524D01*
X116661905Y-89414286D01*
X116614286Y-89223810D01*
X116614286Y-89080952D01*
X116661905Y-88890476D01*
X116709524Y-88795238D01*
X116804762Y-88700000D01*
X116947620Y-88652381D01*
X117042858Y-88652381D01*
X117185715Y-88700000D01*
X117233334Y-88747619D01*
X117852381Y-88652381D02*
X117947620Y-88652381D01*
X118042858Y-88700000D01*
X118090477Y-88747619D01*
X118138096Y-88842857D01*
X118185715Y-89033333D01*
X118185715Y-89271429D01*
X118138096Y-89461905D01*
X118090477Y-89557143D01*
X118042858Y-89604762D01*
X117947620Y-89652381D01*
X117852381Y-89652381D01*
X117757143Y-89604762D01*
X117709524Y-89557143D01*
X117661905Y-89461905D01*
X117614286Y-89271429D01*
X117614286Y-89033333D01*
X117661905Y-88842857D01*
X117709524Y-88747619D01*
X117757143Y-88700000D01*
X117852381Y-88652381D01*
X114909048Y-87331429D02*
X115670953Y-87331429D01*
X115290001Y-87712381D02*
X115290001Y-86950476D01*
X116133334Y-93352381D02*
X115800000Y-92876190D01*
X115561905Y-93352381D02*
X115561905Y-92352381D01*
X115942858Y-92352381D01*
X116038096Y-92400000D01*
X116085715Y-92447619D01*
X116133334Y-92542857D01*
X116133334Y-92685714D01*
X116085715Y-92780952D01*
X116038096Y-92828571D01*
X115942858Y-92876190D01*
X115561905Y-92876190D01*
X117133334Y-93257143D02*
X117085715Y-93304762D01*
X116942858Y-93352381D01*
X116847620Y-93352381D01*
X116704762Y-93304762D01*
X116609524Y-93209524D01*
X116561905Y-93114286D01*
X116514286Y-92923810D01*
X116514286Y-92780952D01*
X116561905Y-92590476D01*
X116609524Y-92495238D01*
X116704762Y-92400000D01*
X116847620Y-92352381D01*
X116942858Y-92352381D01*
X117085715Y-92400000D01*
X117133334Y-92447619D01*
X118085715Y-93352381D02*
X117514286Y-93352381D01*
X117800000Y-93352381D02*
X117800000Y-92352381D01*
X117704762Y-92495238D01*
X117609524Y-92590476D01*
X117514286Y-92638095D01*
X114909048Y-91331429D02*
X115670953Y-91331429D01*
X115290001Y-91712381D02*
X115290001Y-90950476D01*
X116233334Y-97552381D02*
X115900000Y-97076190D01*
X115661905Y-97552381D02*
X115661905Y-96552381D01*
X116042858Y-96552381D01*
X116138096Y-96600000D01*
X116185715Y-96647619D01*
X116233334Y-96742857D01*
X116233334Y-96885714D01*
X116185715Y-96980952D01*
X116138096Y-97028571D01*
X116042858Y-97076190D01*
X115661905Y-97076190D01*
X117233334Y-97457143D02*
X117185715Y-97504762D01*
X117042858Y-97552381D01*
X116947620Y-97552381D01*
X116804762Y-97504762D01*
X116709524Y-97409524D01*
X116661905Y-97314286D01*
X116614286Y-97123810D01*
X116614286Y-96980952D01*
X116661905Y-96790476D01*
X116709524Y-96695238D01*
X116804762Y-96600000D01*
X116947620Y-96552381D01*
X117042858Y-96552381D01*
X117185715Y-96600000D01*
X117233334Y-96647619D01*
X117614286Y-96647619D02*
X117661905Y-96600000D01*
X117757143Y-96552381D01*
X117995239Y-96552381D01*
X118090477Y-96600000D01*
X118138096Y-96647619D01*
X118185715Y-96742857D01*
X118185715Y-96838095D01*
X118138096Y-96980952D01*
X117566667Y-97552381D01*
X118185715Y-97552381D01*
X114909048Y-95431429D02*
X115670953Y-95431429D01*
X115290001Y-95812381D02*
X115290001Y-95050476D01*
X116133334Y-101452381D02*
X115800000Y-100976190D01*
X115561905Y-101452381D02*
X115561905Y-100452381D01*
X115942858Y-100452381D01*
X116038096Y-100500000D01*
X116085715Y-100547619D01*
X116133334Y-100642857D01*
X116133334Y-100785714D01*
X116085715Y-100880952D01*
X116038096Y-100928571D01*
X115942858Y-100976190D01*
X115561905Y-100976190D01*
X117133334Y-101357143D02*
X117085715Y-101404762D01*
X116942858Y-101452381D01*
X116847620Y-101452381D01*
X116704762Y-101404762D01*
X116609524Y-101309524D01*
X116561905Y-101214286D01*
X116514286Y-101023810D01*
X116514286Y-100880952D01*
X116561905Y-100690476D01*
X116609524Y-100595238D01*
X116704762Y-100500000D01*
X116847620Y-100452381D01*
X116942858Y-100452381D01*
X117085715Y-100500000D01*
X117133334Y-100547619D01*
X117466667Y-100452381D02*
X118085715Y-100452381D01*
X117752381Y-100833333D01*
X117895239Y-100833333D01*
X117990477Y-100880952D01*
X118038096Y-100928571D01*
X118085715Y-101023810D01*
X118085715Y-101261905D01*
X118038096Y-101357143D01*
X117990477Y-101404762D01*
X117895239Y-101452381D01*
X117609524Y-101452381D01*
X117514286Y-101404762D01*
X117466667Y-101357143D01*
X114909048Y-99331429D02*
X115670953Y-99331429D01*
X115290001Y-99712381D02*
X115290001Y-98950476D01*
X116033334Y-105552381D02*
X115700000Y-105076190D01*
X115461905Y-105552381D02*
X115461905Y-104552381D01*
X115842858Y-104552381D01*
X115938096Y-104600000D01*
X115985715Y-104647619D01*
X116033334Y-104742857D01*
X116033334Y-104885714D01*
X115985715Y-104980952D01*
X115938096Y-105028571D01*
X115842858Y-105076190D01*
X115461905Y-105076190D01*
X117033334Y-105457143D02*
X116985715Y-105504762D01*
X116842858Y-105552381D01*
X116747620Y-105552381D01*
X116604762Y-105504762D01*
X116509524Y-105409524D01*
X116461905Y-105314286D01*
X116414286Y-105123810D01*
X116414286Y-104980952D01*
X116461905Y-104790476D01*
X116509524Y-104695238D01*
X116604762Y-104600000D01*
X116747620Y-104552381D01*
X116842858Y-104552381D01*
X116985715Y-104600000D01*
X117033334Y-104647619D01*
X117890477Y-104885714D02*
X117890477Y-105552381D01*
X117652381Y-104504762D02*
X117414286Y-105219048D01*
X118033334Y-105219048D01*
X114909048Y-103431429D02*
X115670953Y-103431429D01*
X115290001Y-103812381D02*
X115290001Y-103050476D01*
X116033334Y-109552381D02*
X115700000Y-109076190D01*
X115461905Y-109552381D02*
X115461905Y-108552381D01*
X115842858Y-108552381D01*
X115938096Y-108600000D01*
X115985715Y-108647619D01*
X116033334Y-108742857D01*
X116033334Y-108885714D01*
X115985715Y-108980952D01*
X115938096Y-109028571D01*
X115842858Y-109076190D01*
X115461905Y-109076190D01*
X117033334Y-109457143D02*
X116985715Y-109504762D01*
X116842858Y-109552381D01*
X116747620Y-109552381D01*
X116604762Y-109504762D01*
X116509524Y-109409524D01*
X116461905Y-109314286D01*
X116414286Y-109123810D01*
X116414286Y-108980952D01*
X116461905Y-108790476D01*
X116509524Y-108695238D01*
X116604762Y-108600000D01*
X116747620Y-108552381D01*
X116842858Y-108552381D01*
X116985715Y-108600000D01*
X117033334Y-108647619D01*
X117938096Y-108552381D02*
X117461905Y-108552381D01*
X117414286Y-109028571D01*
X117461905Y-108980952D01*
X117557143Y-108933333D01*
X117795239Y-108933333D01*
X117890477Y-108980952D01*
X117938096Y-109028571D01*
X117985715Y-109123810D01*
X117985715Y-109361905D01*
X117938096Y-109457143D01*
X117890477Y-109504762D01*
X117795239Y-109552381D01*
X117557143Y-109552381D01*
X117461905Y-109504762D01*
X117414286Y-109457143D01*
X114909048Y-107431429D02*
X115670953Y-107431429D01*
X115290001Y-107812381D02*
X115290001Y-107050476D01*
X116033334Y-113452381D02*
X115700000Y-112976190D01*
X115461905Y-113452381D02*
X115461905Y-112452381D01*
X115842858Y-112452381D01*
X115938096Y-112500000D01*
X115985715Y-112547619D01*
X116033334Y-112642857D01*
X116033334Y-112785714D01*
X115985715Y-112880952D01*
X115938096Y-112928571D01*
X115842858Y-112976190D01*
X115461905Y-112976190D01*
X117033334Y-113357143D02*
X116985715Y-113404762D01*
X116842858Y-113452381D01*
X116747620Y-113452381D01*
X116604762Y-113404762D01*
X116509524Y-113309524D01*
X116461905Y-113214286D01*
X116414286Y-113023810D01*
X116414286Y-112880952D01*
X116461905Y-112690476D01*
X116509524Y-112595238D01*
X116604762Y-112500000D01*
X116747620Y-112452381D01*
X116842858Y-112452381D01*
X116985715Y-112500000D01*
X117033334Y-112547619D01*
X117890477Y-112452381D02*
X117700000Y-112452381D01*
X117604762Y-112500000D01*
X117557143Y-112547619D01*
X117461905Y-112690476D01*
X117414286Y-112880952D01*
X117414286Y-113261905D01*
X117461905Y-113357143D01*
X117509524Y-113404762D01*
X117604762Y-113452381D01*
X117795239Y-113452381D01*
X117890477Y-113404762D01*
X117938096Y-113357143D01*
X117985715Y-113261905D01*
X117985715Y-113023810D01*
X117938096Y-112928571D01*
X117890477Y-112880952D01*
X117795239Y-112833333D01*
X117604762Y-112833333D01*
X117509524Y-112880952D01*
X117461905Y-112928571D01*
X117414286Y-113023810D01*
X114909048Y-111431429D02*
X115670953Y-111431429D01*
X115290001Y-111812381D02*
X115290001Y-111050476D01*
X116033334Y-117452381D02*
X115700000Y-116976190D01*
X115461905Y-117452381D02*
X115461905Y-116452381D01*
X115842858Y-116452381D01*
X115938096Y-116500000D01*
X115985715Y-116547619D01*
X116033334Y-116642857D01*
X116033334Y-116785714D01*
X115985715Y-116880952D01*
X115938096Y-116928571D01*
X115842858Y-116976190D01*
X115461905Y-116976190D01*
X117033334Y-117357143D02*
X116985715Y-117404762D01*
X116842858Y-117452381D01*
X116747620Y-117452381D01*
X116604762Y-117404762D01*
X116509524Y-117309524D01*
X116461905Y-117214286D01*
X116414286Y-117023810D01*
X116414286Y-116880952D01*
X116461905Y-116690476D01*
X116509524Y-116595238D01*
X116604762Y-116500000D01*
X116747620Y-116452381D01*
X116842858Y-116452381D01*
X116985715Y-116500000D01*
X117033334Y-116547619D01*
X117366667Y-116452381D02*
X118033334Y-116452381D01*
X117604762Y-117452381D01*
X114909048Y-115431429D02*
X115670953Y-115431429D01*
X115290001Y-115812381D02*
X115290001Y-115050476D01*
X62033334Y-108752381D02*
X61700000Y-108276190D01*
X61461905Y-108752381D02*
X61461905Y-107752381D01*
X61842858Y-107752381D01*
X61938096Y-107800000D01*
X61985715Y-107847619D01*
X62033334Y-107942857D01*
X62033334Y-108085714D01*
X61985715Y-108180952D01*
X61938096Y-108228571D01*
X61842858Y-108276190D01*
X61461905Y-108276190D01*
X62461905Y-108752381D02*
X62461905Y-107752381D01*
X62700000Y-107752381D01*
X62842858Y-107800000D01*
X62938096Y-107895238D01*
X62985715Y-107990476D01*
X63033334Y-108180952D01*
X63033334Y-108323810D01*
X62985715Y-108514286D01*
X62938096Y-108609524D01*
X62842858Y-108704762D01*
X62700000Y-108752381D01*
X62461905Y-108752381D01*
X63652381Y-107752381D02*
X63747620Y-107752381D01*
X63842858Y-107800000D01*
X63890477Y-107847619D01*
X63938096Y-107942857D01*
X63985715Y-108133333D01*
X63985715Y-108371429D01*
X63938096Y-108561905D01*
X63890477Y-108657143D01*
X63842858Y-108704762D01*
X63747620Y-108752381D01*
X63652381Y-108752381D01*
X63557143Y-108704762D01*
X63509524Y-108657143D01*
X63461905Y-108561905D01*
X63414286Y-108371429D01*
X63414286Y-108133333D01*
X63461905Y-107942857D01*
X63509524Y-107847619D01*
X63557143Y-107800000D01*
X63652381Y-107752381D01*
X69809048Y-106731429D02*
X70570953Y-106731429D01*
X70190001Y-107112381D02*
X70190001Y-106350476D01*
X116133334Y-78952381D02*
X115800000Y-78476190D01*
X115561905Y-78952381D02*
X115561905Y-77952381D01*
X115942858Y-77952381D01*
X116038096Y-78000000D01*
X116085715Y-78047619D01*
X116133334Y-78142857D01*
X116133334Y-78285714D01*
X116085715Y-78380952D01*
X116038096Y-78428571D01*
X115942858Y-78476190D01*
X115561905Y-78476190D01*
X116561905Y-78952381D02*
X116561905Y-77952381D01*
X116800000Y-77952381D01*
X116942858Y-78000000D01*
X117038096Y-78095238D01*
X117085715Y-78190476D01*
X117133334Y-78380952D01*
X117133334Y-78523810D01*
X117085715Y-78714286D01*
X117038096Y-78809524D01*
X116942858Y-78904762D01*
X116800000Y-78952381D01*
X116561905Y-78952381D01*
X118085715Y-78952381D02*
X117514286Y-78952381D01*
X117800000Y-78952381D02*
X117800000Y-77952381D01*
X117704762Y-78095238D01*
X117609524Y-78190476D01*
X117514286Y-78238095D01*
X114909048Y-76831429D02*
X115670953Y-76831429D01*
X115290001Y-77212381D02*
X115290001Y-76450476D01*
X115933334Y-71052381D02*
X115600000Y-70576190D01*
X115361905Y-71052381D02*
X115361905Y-70052381D01*
X115742858Y-70052381D01*
X115838096Y-70100000D01*
X115885715Y-70147619D01*
X115933334Y-70242857D01*
X115933334Y-70385714D01*
X115885715Y-70480952D01*
X115838096Y-70528571D01*
X115742858Y-70576190D01*
X115361905Y-70576190D01*
X116361905Y-71052381D02*
X116361905Y-70052381D01*
X116600000Y-70052381D01*
X116742858Y-70100000D01*
X116838096Y-70195238D01*
X116885715Y-70290476D01*
X116933334Y-70480952D01*
X116933334Y-70623810D01*
X116885715Y-70814286D01*
X116838096Y-70909524D01*
X116742858Y-71004762D01*
X116600000Y-71052381D01*
X116361905Y-71052381D01*
X117314286Y-70147619D02*
X117361905Y-70100000D01*
X117457143Y-70052381D01*
X117695239Y-70052381D01*
X117790477Y-70100000D01*
X117838096Y-70147619D01*
X117885715Y-70242857D01*
X117885715Y-70338095D01*
X117838096Y-70480952D01*
X117266667Y-71052381D01*
X117885715Y-71052381D01*
X114809048Y-68831429D02*
X115570953Y-68831429D01*
X115190001Y-69212381D02*
X115190001Y-68450476D01*
X62033334Y-112852381D02*
X61700000Y-112376190D01*
X61461905Y-112852381D02*
X61461905Y-111852381D01*
X61842858Y-111852381D01*
X61938096Y-111900000D01*
X61985715Y-111947619D01*
X62033334Y-112042857D01*
X62033334Y-112185714D01*
X61985715Y-112280952D01*
X61938096Y-112328571D01*
X61842858Y-112376190D01*
X61461905Y-112376190D01*
X62461905Y-112852381D02*
X62461905Y-111852381D01*
X62700000Y-111852381D01*
X62842858Y-111900000D01*
X62938096Y-111995238D01*
X62985715Y-112090476D01*
X63033334Y-112280952D01*
X63033334Y-112423810D01*
X62985715Y-112614286D01*
X62938096Y-112709524D01*
X62842858Y-112804762D01*
X62700000Y-112852381D01*
X62461905Y-112852381D01*
X63366667Y-111852381D02*
X63985715Y-111852381D01*
X63652381Y-112233333D01*
X63795239Y-112233333D01*
X63890477Y-112280952D01*
X63938096Y-112328571D01*
X63985715Y-112423810D01*
X63985715Y-112661905D01*
X63938096Y-112757143D01*
X63890477Y-112804762D01*
X63795239Y-112852381D01*
X63509524Y-112852381D01*
X63414286Y-112804762D01*
X63366667Y-112757143D01*
X69809048Y-110631429D02*
X70570953Y-110631429D01*
X70190001Y-111012381D02*
X70190001Y-110250476D01*
X121673334Y-122322381D02*
X121340000Y-121846190D01*
X121101905Y-122322381D02*
X121101905Y-121322381D01*
X121482858Y-121322381D01*
X121578096Y-121370000D01*
X121625715Y-121417619D01*
X121673334Y-121512857D01*
X121673334Y-121655714D01*
X121625715Y-121750952D01*
X121578096Y-121798571D01*
X121482858Y-121846190D01*
X121101905Y-121846190D01*
X122101905Y-122322381D02*
X122101905Y-121322381D01*
X122340000Y-121322381D01*
X122482858Y-121370000D01*
X122578096Y-121465238D01*
X122625715Y-121560476D01*
X122673334Y-121750952D01*
X122673334Y-121893810D01*
X122625715Y-122084286D01*
X122578096Y-122179524D01*
X122482858Y-122274762D01*
X122340000Y-122322381D01*
X122101905Y-122322381D01*
X123530477Y-121655714D02*
X123530477Y-122322381D01*
X123292381Y-121274762D02*
X123054286Y-121989048D01*
X123673334Y-121989048D01*
X121009048Y-120031429D02*
X121770953Y-120031429D01*
X121390001Y-120412381D02*
X121390001Y-119650476D01*
X116033334Y-83052381D02*
X115700000Y-82576190D01*
X115461905Y-83052381D02*
X115461905Y-82052381D01*
X115842858Y-82052381D01*
X115938096Y-82100000D01*
X115985715Y-82147619D01*
X116033334Y-82242857D01*
X116033334Y-82385714D01*
X115985715Y-82480952D01*
X115938096Y-82528571D01*
X115842858Y-82576190D01*
X115461905Y-82576190D01*
X116461905Y-83052381D02*
X116461905Y-82052381D01*
X116700000Y-82052381D01*
X116842858Y-82100000D01*
X116938096Y-82195238D01*
X116985715Y-82290476D01*
X117033334Y-82480952D01*
X117033334Y-82623810D01*
X116985715Y-82814286D01*
X116938096Y-82909524D01*
X116842858Y-83004762D01*
X116700000Y-83052381D01*
X116461905Y-83052381D01*
X117938096Y-82052381D02*
X117461905Y-82052381D01*
X117414286Y-82528571D01*
X117461905Y-82480952D01*
X117557143Y-82433333D01*
X117795239Y-82433333D01*
X117890477Y-82480952D01*
X117938096Y-82528571D01*
X117985715Y-82623810D01*
X117985715Y-82861905D01*
X117938096Y-82957143D01*
X117890477Y-83004762D01*
X117795239Y-83052381D01*
X117557143Y-83052381D01*
X117461905Y-83004762D01*
X117414286Y-82957143D01*
X114909048Y-80831429D02*
X115670953Y-80831429D01*
X115290001Y-81212381D02*
X115290001Y-80450476D01*
X115780953Y-67052381D02*
X115447619Y-66576190D01*
X115209524Y-67052381D02*
X115209524Y-66052381D01*
X115590477Y-66052381D01*
X115685715Y-66100000D01*
X115733334Y-66147619D01*
X115780953Y-66242857D01*
X115780953Y-66385714D01*
X115733334Y-66480952D01*
X115685715Y-66528571D01*
X115590477Y-66576190D01*
X115209524Y-66576190D01*
X116209524Y-66528571D02*
X116542858Y-66528571D01*
X116685715Y-67052381D02*
X116209524Y-67052381D01*
X116209524Y-66052381D01*
X116685715Y-66052381D01*
X117304762Y-66052381D02*
X117400001Y-66052381D01*
X117495239Y-66100000D01*
X117542858Y-66147619D01*
X117590477Y-66242857D01*
X117638096Y-66433333D01*
X117638096Y-66671429D01*
X117590477Y-66861905D01*
X117542858Y-66957143D01*
X117495239Y-67004762D01*
X117400001Y-67052381D01*
X117304762Y-67052381D01*
X117209524Y-67004762D01*
X117161905Y-66957143D01*
X117114286Y-66861905D01*
X117066667Y-66671429D01*
X117066667Y-66433333D01*
X117114286Y-66242857D01*
X117161905Y-66147619D01*
X117209524Y-66100000D01*
X117304762Y-66052381D01*
X114809048Y-64831429D02*
X115570953Y-64831429D01*
X115190001Y-65212381D02*
X115190001Y-64450476D01*
X115980953Y-63052381D02*
X115647619Y-62576190D01*
X115409524Y-63052381D02*
X115409524Y-62052381D01*
X115790477Y-62052381D01*
X115885715Y-62100000D01*
X115933334Y-62147619D01*
X115980953Y-62242857D01*
X115980953Y-62385714D01*
X115933334Y-62480952D01*
X115885715Y-62528571D01*
X115790477Y-62576190D01*
X115409524Y-62576190D01*
X116409524Y-62528571D02*
X116742858Y-62528571D01*
X116885715Y-63052381D02*
X116409524Y-63052381D01*
X116409524Y-62052381D01*
X116885715Y-62052381D01*
X117838096Y-63052381D02*
X117266667Y-63052381D01*
X117552381Y-63052381D02*
X117552381Y-62052381D01*
X117457143Y-62195238D01*
X117361905Y-62290476D01*
X117266667Y-62338095D01*
X114809048Y-60831429D02*
X115570953Y-60831429D01*
X115190001Y-61212381D02*
X115190001Y-60450476D01*
X115980953Y-74952381D02*
X115647619Y-74476190D01*
X115409524Y-74952381D02*
X115409524Y-73952381D01*
X115790477Y-73952381D01*
X115885715Y-74000000D01*
X115933334Y-74047619D01*
X115980953Y-74142857D01*
X115980953Y-74285714D01*
X115933334Y-74380952D01*
X115885715Y-74428571D01*
X115790477Y-74476190D01*
X115409524Y-74476190D01*
X116409524Y-74428571D02*
X116742858Y-74428571D01*
X116885715Y-74952381D02*
X116409524Y-74952381D01*
X116409524Y-73952381D01*
X116885715Y-73952381D01*
X117266667Y-74047619D02*
X117314286Y-74000000D01*
X117409524Y-73952381D01*
X117647620Y-73952381D01*
X117742858Y-74000000D01*
X117790477Y-74047619D01*
X117838096Y-74142857D01*
X117838096Y-74238095D01*
X117790477Y-74380952D01*
X117219048Y-74952381D01*
X117838096Y-74952381D01*
X114909048Y-72831429D02*
X115670953Y-72831429D01*
X115290001Y-73212381D02*
X115290001Y-72450476D01*
X62404762Y-57452381D02*
X62071428Y-56976190D01*
X61833333Y-57452381D02*
X61833333Y-56452381D01*
X62214286Y-56452381D01*
X62309524Y-56500000D01*
X62357143Y-56547619D01*
X62404762Y-56642857D01*
X62404762Y-56785714D01*
X62357143Y-56880952D01*
X62309524Y-56928571D01*
X62214286Y-56976190D01*
X61833333Y-56976190D01*
X62785714Y-57166667D02*
X63261905Y-57166667D01*
X62690476Y-57452381D02*
X63023809Y-56452381D01*
X63357143Y-57452381D01*
X63880952Y-56452381D02*
X63976191Y-56452381D01*
X64071429Y-56500000D01*
X64119048Y-56547619D01*
X64166667Y-56642857D01*
X64214286Y-56833333D01*
X64214286Y-57071429D01*
X64166667Y-57261905D01*
X64119048Y-57357143D01*
X64071429Y-57404762D01*
X63976191Y-57452381D01*
X63880952Y-57452381D01*
X63785714Y-57404762D01*
X63738095Y-57357143D01*
X63690476Y-57261905D01*
X63642857Y-57071429D01*
X63642857Y-56833333D01*
X63690476Y-56642857D01*
X63738095Y-56547619D01*
X63785714Y-56500000D01*
X63880952Y-56452381D01*
X69809048Y-55331429D02*
X70570953Y-55331429D01*
X70190001Y-55712381D02*
X70190001Y-54950476D01*
X103302381Y-125561905D02*
X104111905Y-125561905D01*
X104207143Y-125514286D01*
X104254762Y-125466667D01*
X104302381Y-125371429D01*
X104302381Y-125180952D01*
X104254762Y-125085714D01*
X104207143Y-125038095D01*
X104111905Y-124990476D01*
X103302381Y-124990476D01*
X103397619Y-124561905D02*
X103350000Y-124514286D01*
X103302381Y-124419048D01*
X103302381Y-124180952D01*
X103350000Y-124085714D01*
X103397619Y-124038095D01*
X103492857Y-123990476D01*
X103588095Y-123990476D01*
X103730952Y-124038095D01*
X104302381Y-124609524D01*
X104302381Y-123990476D01*
X55109048Y-125948571D02*
X55251905Y-125996190D01*
X55299524Y-126043810D01*
X55347143Y-126139048D01*
X55347143Y-126281905D01*
X55299524Y-126377143D01*
X55251905Y-126424762D01*
X55156667Y-126472381D01*
X54775714Y-126472381D01*
X54775714Y-125472381D01*
X55109048Y-125472381D01*
X55204286Y-125520000D01*
X55251905Y-125567619D01*
X55299524Y-125662857D01*
X55299524Y-125758095D01*
X55251905Y-125853333D01*
X55204286Y-125900952D01*
X55109048Y-125948571D01*
X54775714Y-125948571D01*
X55680476Y-125472381D02*
X56347143Y-125472381D01*
X55680476Y-126472381D01*
X56347143Y-126472381D01*
X57251905Y-126472381D02*
X56680476Y-126472381D01*
X56966190Y-126472381D02*
X56966190Y-125472381D01*
X56870952Y-125615238D01*
X56775714Y-125710476D01*
X56680476Y-125758095D01*
X104952381Y-102966666D02*
X104476190Y-103300000D01*
X104952381Y-103538095D02*
X103952381Y-103538095D01*
X103952381Y-103157142D01*
X104000000Y-103061904D01*
X104047619Y-103014285D01*
X104142857Y-102966666D01*
X104285714Y-102966666D01*
X104380952Y-103014285D01*
X104428571Y-103061904D01*
X104476190Y-103157142D01*
X104476190Y-103538095D01*
X104952381Y-101966666D02*
X104476190Y-102300000D01*
X104952381Y-102538095D02*
X103952381Y-102538095D01*
X103952381Y-102157142D01*
X104000000Y-102061904D01*
X104047619Y-102014285D01*
X104142857Y-101966666D01*
X104285714Y-101966666D01*
X104380952Y-102014285D01*
X104428571Y-102061904D01*
X104476190Y-102157142D01*
X104476190Y-102538095D01*
X104952381Y-101014285D02*
X104952381Y-101585714D01*
X104952381Y-101300000D02*
X103952381Y-101300000D01*
X104095238Y-101395238D01*
X104190476Y-101490476D01*
X104238095Y-101585714D01*
X104085714Y-110504761D02*
X104752381Y-110504761D01*
X103704762Y-110742857D02*
X104419048Y-110980952D01*
X104419048Y-110361904D01*
X104657143Y-109980952D02*
X104704762Y-109933333D01*
X104752381Y-109980952D01*
X104704762Y-110028571D01*
X104657143Y-109980952D01*
X104752381Y-109980952D01*
X103752381Y-109600000D02*
X103752381Y-108933333D01*
X104752381Y-109361905D01*
X104752381Y-108552381D02*
X103752381Y-108552381D01*
X104752381Y-107980952D02*
X104180952Y-108409524D01*
X103752381Y-107980952D02*
X104323810Y-108552381D01*
X104752381Y-107647619D02*
X104085714Y-107123809D01*
X104085714Y-107647619D02*
X104752381Y-107123809D01*
X104180952Y-106600000D02*
X104133333Y-106695238D01*
X104085714Y-106742857D01*
X103990476Y-106790476D01*
X103942857Y-106790476D01*
X103847619Y-106742857D01*
X103800000Y-106695238D01*
X103752381Y-106600000D01*
X103752381Y-106409523D01*
X103800000Y-106314285D01*
X103847619Y-106266666D01*
X103942857Y-106219047D01*
X103990476Y-106219047D01*
X104085714Y-106266666D01*
X104133333Y-106314285D01*
X104180952Y-106409523D01*
X104180952Y-106600000D01*
X104228571Y-106695238D01*
X104276190Y-106742857D01*
X104371429Y-106790476D01*
X104561905Y-106790476D01*
X104657143Y-106742857D01*
X104704762Y-106695238D01*
X104752381Y-106600000D01*
X104752381Y-106409523D01*
X104704762Y-106314285D01*
X104657143Y-106266666D01*
X104561905Y-106219047D01*
X104371429Y-106219047D01*
X104276190Y-106266666D01*
X104228571Y-106314285D01*
X104180952Y-106409523D01*
X104952381Y-69766666D02*
X104476190Y-70100000D01*
X104952381Y-70338095D02*
X103952381Y-70338095D01*
X103952381Y-69957142D01*
X104000000Y-69861904D01*
X104047619Y-69814285D01*
X104142857Y-69766666D01*
X104285714Y-69766666D01*
X104380952Y-69814285D01*
X104428571Y-69861904D01*
X104476190Y-69957142D01*
X104476190Y-70338095D01*
X104952381Y-68766666D02*
X104476190Y-69100000D01*
X104952381Y-69338095D02*
X103952381Y-69338095D01*
X103952381Y-68957142D01*
X104000000Y-68861904D01*
X104047619Y-68814285D01*
X104142857Y-68766666D01*
X104285714Y-68766666D01*
X104380952Y-68814285D01*
X104428571Y-68861904D01*
X104476190Y-68957142D01*
X104476190Y-69338095D01*
X104047619Y-68385714D02*
X104000000Y-68338095D01*
X103952381Y-68242857D01*
X103952381Y-68004761D01*
X104000000Y-67909523D01*
X104047619Y-67861904D01*
X104142857Y-67814285D01*
X104238095Y-67814285D01*
X104380952Y-67861904D01*
X104952381Y-68433333D01*
X104952381Y-67814285D01*
X104385714Y-76904761D02*
X105052381Y-76904761D01*
X104004762Y-77142857D02*
X104719048Y-77380952D01*
X104719048Y-76761904D01*
X104957143Y-76380952D02*
X105004762Y-76333333D01*
X105052381Y-76380952D01*
X105004762Y-76428571D01*
X104957143Y-76380952D01*
X105052381Y-76380952D01*
X104052381Y-76000000D02*
X104052381Y-75333333D01*
X105052381Y-75761905D01*
X105052381Y-74952381D02*
X104052381Y-74952381D01*
X105052381Y-74380952D02*
X104480952Y-74809524D01*
X104052381Y-74380952D02*
X104623810Y-74952381D01*
X105052381Y-74047619D02*
X104385714Y-73523809D01*
X104385714Y-74047619D02*
X105052381Y-73523809D01*
X104480952Y-73000000D02*
X104433333Y-73095238D01*
X104385714Y-73142857D01*
X104290476Y-73190476D01*
X104242857Y-73190476D01*
X104147619Y-73142857D01*
X104100000Y-73095238D01*
X104052381Y-73000000D01*
X104052381Y-72809523D01*
X104100000Y-72714285D01*
X104147619Y-72666666D01*
X104242857Y-72619047D01*
X104290476Y-72619047D01*
X104385714Y-72666666D01*
X104433333Y-72714285D01*
X104480952Y-72809523D01*
X104480952Y-73000000D01*
X104528571Y-73095238D01*
X104576190Y-73142857D01*
X104671429Y-73190476D01*
X104861905Y-73190476D01*
X104957143Y-73142857D01*
X105004762Y-73095238D01*
X105052381Y-73000000D01*
X105052381Y-72809523D01*
X105004762Y-72714285D01*
X104957143Y-72666666D01*
X104861905Y-72619047D01*
X104671429Y-72619047D01*
X104576190Y-72666666D01*
X104528571Y-72714285D01*
X104480952Y-72809523D01*
X75642381Y-87706666D02*
X75166190Y-88040000D01*
X75642381Y-88278095D02*
X74642381Y-88278095D01*
X74642381Y-87897142D01*
X74690000Y-87801904D01*
X74737619Y-87754285D01*
X74832857Y-87706666D01*
X74975714Y-87706666D01*
X75070952Y-87754285D01*
X75118571Y-87801904D01*
X75166190Y-87897142D01*
X75166190Y-88278095D01*
X75642381Y-86706666D02*
X75166190Y-87040000D01*
X75642381Y-87278095D02*
X74642381Y-87278095D01*
X74642381Y-86897142D01*
X74690000Y-86801904D01*
X74737619Y-86754285D01*
X74832857Y-86706666D01*
X74975714Y-86706666D01*
X75070952Y-86754285D01*
X75118571Y-86801904D01*
X75166190Y-86897142D01*
X75166190Y-87278095D01*
X74642381Y-86373333D02*
X74642381Y-85754285D01*
X75023333Y-86087619D01*
X75023333Y-85944761D01*
X75070952Y-85849523D01*
X75118571Y-85801904D01*
X75213810Y-85754285D01*
X75451905Y-85754285D01*
X75547143Y-85801904D01*
X75594762Y-85849523D01*
X75642381Y-85944761D01*
X75642381Y-86230476D01*
X75594762Y-86325714D01*
X75547143Y-86373333D01*
X75005714Y-82906666D02*
X75672381Y-82906666D01*
X74624762Y-83144762D02*
X75339048Y-83382857D01*
X75339048Y-82763809D01*
X75577143Y-82382857D02*
X75624762Y-82335238D01*
X75672381Y-82382857D01*
X75624762Y-82430476D01*
X75577143Y-82382857D01*
X75672381Y-82382857D01*
X74672381Y-82001905D02*
X74672381Y-81335238D01*
X75672381Y-81763810D01*
X75672381Y-80954286D02*
X74672381Y-80954286D01*
X75672381Y-80382857D02*
X75100952Y-80811429D01*
X74672381Y-80382857D02*
X75243810Y-80954286D01*
X75672381Y-79287619D02*
X75005714Y-78763809D01*
X75005714Y-79287619D02*
X75672381Y-78763809D01*
X75100952Y-77478095D02*
X75053333Y-77573333D01*
X75005714Y-77620952D01*
X74910476Y-77668571D01*
X74862857Y-77668571D01*
X74767619Y-77620952D01*
X74720000Y-77573333D01*
X74672381Y-77478095D01*
X74672381Y-77287618D01*
X74720000Y-77192380D01*
X74767619Y-77144761D01*
X74862857Y-77097142D01*
X74910476Y-77097142D01*
X75005714Y-77144761D01*
X75053333Y-77192380D01*
X75100952Y-77287618D01*
X75100952Y-77478095D01*
X75148571Y-77573333D01*
X75196190Y-77620952D01*
X75291429Y-77668571D01*
X75481905Y-77668571D01*
X75577143Y-77620952D01*
X75624762Y-77573333D01*
X75672381Y-77478095D01*
X75672381Y-77287618D01*
X75624762Y-77192380D01*
X75577143Y-77144761D01*
X75481905Y-77097142D01*
X75291429Y-77097142D01*
X75196190Y-77144761D01*
X75148571Y-77192380D01*
X75100952Y-77287618D01*
X74532000Y-98461904D02*
X74484381Y-98557142D01*
X74484381Y-98699999D01*
X74532000Y-98842857D01*
X74627238Y-98938095D01*
X74722476Y-98985714D01*
X74912952Y-99033333D01*
X75055810Y-99033333D01*
X75246286Y-98985714D01*
X75341524Y-98938095D01*
X75436762Y-98842857D01*
X75484381Y-98699999D01*
X75484381Y-98604761D01*
X75436762Y-98461904D01*
X75389143Y-98414285D01*
X75055810Y-98414285D01*
X75055810Y-98604761D01*
X75484381Y-97985714D02*
X74484381Y-97985714D01*
X75484381Y-97414285D01*
X74484381Y-97414285D01*
X75484381Y-96938095D02*
X74484381Y-96938095D01*
X74484381Y-96700000D01*
X74532000Y-96557142D01*
X74627238Y-96461904D01*
X74722476Y-96414285D01*
X74912952Y-96366666D01*
X75055810Y-96366666D01*
X75246286Y-96414285D01*
X75341524Y-96461904D01*
X75436762Y-96557142D01*
X75484381Y-96700000D01*
X75484381Y-96938095D01*
X74484381Y-76173333D02*
X75484381Y-75840000D01*
X74484381Y-75506666D01*
X75389143Y-74601904D02*
X75436762Y-74649523D01*
X75484381Y-74792380D01*
X75484381Y-74887618D01*
X75436762Y-75030476D01*
X75341524Y-75125714D01*
X75246286Y-75173333D01*
X75055810Y-75220952D01*
X74912952Y-75220952D01*
X74722476Y-75173333D01*
X74627238Y-75125714D01*
X74532000Y-75030476D01*
X74484381Y-74887618D01*
X74484381Y-74792380D01*
X74532000Y-74649523D01*
X74579619Y-74601904D01*
X75389143Y-73601904D02*
X75436762Y-73649523D01*
X75484381Y-73792380D01*
X75484381Y-73887618D01*
X75436762Y-74030476D01*
X75341524Y-74125714D01*
X75246286Y-74173333D01*
X75055810Y-74220952D01*
X74912952Y-74220952D01*
X74722476Y-74173333D01*
X74627238Y-74125714D01*
X74532000Y-74030476D01*
X74484381Y-73887618D01*
X74484381Y-73792380D01*
X74532000Y-73649523D01*
X74579619Y-73601904D01*
X76032381Y-66766666D02*
X75556190Y-67100000D01*
X76032381Y-67338095D02*
X75032381Y-67338095D01*
X75032381Y-66957142D01*
X75080000Y-66861904D01*
X75127619Y-66814285D01*
X75222857Y-66766666D01*
X75365714Y-66766666D01*
X75460952Y-66814285D01*
X75508571Y-66861904D01*
X75556190Y-66957142D01*
X75556190Y-67338095D01*
X76032381Y-65766666D02*
X75556190Y-66100000D01*
X76032381Y-66338095D02*
X75032381Y-66338095D01*
X75032381Y-65957142D01*
X75080000Y-65861904D01*
X75127619Y-65814285D01*
X75222857Y-65766666D01*
X75365714Y-65766666D01*
X75460952Y-65814285D01*
X75508571Y-65861904D01*
X75556190Y-65957142D01*
X75556190Y-66338095D01*
X75365714Y-64909523D02*
X76032381Y-64909523D01*
X74984762Y-65147619D02*
X75699048Y-65385714D01*
X75699048Y-64766666D01*
X75405714Y-61626666D02*
X76072381Y-61626666D01*
X75024762Y-61864762D02*
X75739048Y-62102857D01*
X75739048Y-61483809D01*
X75977143Y-61102857D02*
X76024762Y-61055238D01*
X76072381Y-61102857D01*
X76024762Y-61150476D01*
X75977143Y-61102857D01*
X76072381Y-61102857D01*
X75072381Y-60721905D02*
X75072381Y-60055238D01*
X76072381Y-60483810D01*
X76072381Y-59674286D02*
X75072381Y-59674286D01*
X76072381Y-59102857D02*
X75500952Y-59531429D01*
X75072381Y-59102857D02*
X75643810Y-59674286D01*
X76072381Y-58007619D02*
X75405714Y-57483809D01*
X75405714Y-58007619D02*
X76072381Y-57483809D01*
X75405714Y-55912380D02*
X76072381Y-55912380D01*
X75024762Y-56150476D02*
X75739048Y-56388571D01*
X75739048Y-55769523D01*
X75672381Y-110666666D02*
X75196190Y-111000000D01*
X75672381Y-111238095D02*
X74672381Y-111238095D01*
X74672381Y-110857142D01*
X74720000Y-110761904D01*
X74767619Y-110714285D01*
X74862857Y-110666666D01*
X75005714Y-110666666D01*
X75100952Y-110714285D01*
X75148571Y-110761904D01*
X75196190Y-110857142D01*
X75196190Y-111238095D01*
X75672381Y-109666666D02*
X75196190Y-110000000D01*
X75672381Y-110238095D02*
X74672381Y-110238095D01*
X74672381Y-109857142D01*
X74720000Y-109761904D01*
X74767619Y-109714285D01*
X74862857Y-109666666D01*
X75005714Y-109666666D01*
X75100952Y-109714285D01*
X75148571Y-109761904D01*
X75196190Y-109857142D01*
X75196190Y-110238095D01*
X74672381Y-108761904D02*
X74672381Y-109238095D01*
X75148571Y-109285714D01*
X75100952Y-109238095D01*
X75053333Y-109142857D01*
X75053333Y-108904761D01*
X75100952Y-108809523D01*
X75148571Y-108761904D01*
X75243810Y-108714285D01*
X75481905Y-108714285D01*
X75577143Y-108761904D01*
X75624762Y-108809523D01*
X75672381Y-108904761D01*
X75672381Y-109142857D01*
X75624762Y-109238095D01*
X75577143Y-109285714D01*
X76655714Y-110846666D02*
X77322381Y-110846666D01*
X76274762Y-111084762D02*
X76989048Y-111322857D01*
X76989048Y-110703809D01*
X77227143Y-110322857D02*
X77274762Y-110275238D01*
X77322381Y-110322857D01*
X77274762Y-110370476D01*
X77227143Y-110322857D01*
X77322381Y-110322857D01*
X76322381Y-109941905D02*
X76322381Y-109275238D01*
X77322381Y-109703810D01*
X77322381Y-108894286D02*
X76322381Y-108894286D01*
X77322381Y-108322857D02*
X76750952Y-108751429D01*
X76322381Y-108322857D02*
X76893810Y-108894286D01*
X77322381Y-107227619D02*
X76655714Y-106703809D01*
X76655714Y-107227619D02*
X77322381Y-106703809D01*
X76655714Y-105132380D02*
X77322381Y-105132380D01*
X76274762Y-105370476D02*
X76989048Y-105608571D01*
X76989048Y-104989523D01*
X74532000Y-117055904D02*
X74484381Y-117151142D01*
X74484381Y-117293999D01*
X74532000Y-117436857D01*
X74627238Y-117532095D01*
X74722476Y-117579714D01*
X74912952Y-117627333D01*
X75055810Y-117627333D01*
X75246286Y-117579714D01*
X75341524Y-117532095D01*
X75436762Y-117436857D01*
X75484381Y-117293999D01*
X75484381Y-117198761D01*
X75436762Y-117055904D01*
X75389143Y-117008285D01*
X75055810Y-117008285D01*
X75055810Y-117198761D01*
X75484381Y-116579714D02*
X74484381Y-116579714D01*
X75484381Y-116008285D01*
X74484381Y-116008285D01*
X75484381Y-115532095D02*
X74484381Y-115532095D01*
X74484381Y-115294000D01*
X74532000Y-115151142D01*
X74627238Y-115055904D01*
X74722476Y-115008285D01*
X74912952Y-114960666D01*
X75055810Y-114960666D01*
X75246286Y-115008285D01*
X75341524Y-115055904D01*
X75436762Y-115151142D01*
X75484381Y-115294000D01*
X75484381Y-115532095D01*
X74484381Y-104673333D02*
X75484381Y-104340000D01*
X74484381Y-104006666D01*
X75389143Y-103101904D02*
X75436762Y-103149523D01*
X75484381Y-103292380D01*
X75484381Y-103387618D01*
X75436762Y-103530476D01*
X75341524Y-103625714D01*
X75246286Y-103673333D01*
X75055810Y-103720952D01*
X74912952Y-103720952D01*
X74722476Y-103673333D01*
X74627238Y-103625714D01*
X74532000Y-103530476D01*
X74484381Y-103387618D01*
X74484381Y-103292380D01*
X74532000Y-103149523D01*
X74579619Y-103101904D01*
X75389143Y-102101904D02*
X75436762Y-102149523D01*
X75484381Y-102292380D01*
X75484381Y-102387618D01*
X75436762Y-102530476D01*
X75341524Y-102625714D01*
X75246286Y-102673333D01*
X75055810Y-102720952D01*
X74912952Y-102720952D01*
X74722476Y-102673333D01*
X74627238Y-102625714D01*
X74532000Y-102530476D01*
X74484381Y-102387618D01*
X74484381Y-102292380D01*
X74532000Y-102149523D01*
X74579619Y-102101904D01*
D14*
X122264286Y-60045714D02*
X122192857Y-60117143D01*
X121978571Y-60188571D01*
X121835714Y-60188571D01*
X121621429Y-60117143D01*
X121478571Y-59974286D01*
X121407143Y-59831429D01*
X121335714Y-59545714D01*
X121335714Y-59331429D01*
X121407143Y-59045714D01*
X121478571Y-58902857D01*
X121621429Y-58760000D01*
X121835714Y-58688571D01*
X121978571Y-58688571D01*
X122192857Y-58760000D01*
X122264286Y-58831429D01*
X122907143Y-60188571D02*
X122907143Y-58688571D01*
X123764286Y-60188571D01*
X123764286Y-58688571D01*
X124407143Y-58831429D02*
X124478572Y-58760000D01*
X124621429Y-58688571D01*
X124978572Y-58688571D01*
X125121429Y-58760000D01*
X125192858Y-58831429D01*
X125264286Y-58974286D01*
X125264286Y-59117143D01*
X125192858Y-59331429D01*
X124335715Y-60188571D01*
X125264286Y-60188571D01*
X122444286Y-91065714D02*
X122372857Y-91137143D01*
X122158571Y-91208571D01*
X122015714Y-91208571D01*
X121801429Y-91137143D01*
X121658571Y-90994286D01*
X121587143Y-90851429D01*
X121515714Y-90565714D01*
X121515714Y-90351429D01*
X121587143Y-90065714D01*
X121658571Y-89922857D01*
X121801429Y-89780000D01*
X122015714Y-89708571D01*
X122158571Y-89708571D01*
X122372857Y-89780000D01*
X122444286Y-89851429D01*
X123087143Y-91208571D02*
X123087143Y-89708571D01*
X123944286Y-91208571D01*
X123944286Y-89708571D01*
X124515715Y-89708571D02*
X125444286Y-89708571D01*
X124944286Y-90280000D01*
X125158572Y-90280000D01*
X125301429Y-90351429D01*
X125372858Y-90422857D01*
X125444286Y-90565714D01*
X125444286Y-90922857D01*
X125372858Y-91065714D01*
X125301429Y-91137143D01*
X125158572Y-91208571D01*
X124730000Y-91208571D01*
X124587143Y-91137143D01*
X124515715Y-91065714D01*
D11*
X88936667Y-123702381D02*
X88936667Y-124416667D01*
X88889047Y-124559524D01*
X88793809Y-124654762D01*
X88650952Y-124702381D01*
X88555714Y-124702381D01*
X89936667Y-124702381D02*
X89365238Y-124702381D01*
X89650952Y-124702381D02*
X89650952Y-123702381D01*
X89555714Y-123845238D01*
X89460476Y-123940476D01*
X89365238Y-123988095D01*
X83246667Y-54842381D02*
X83246667Y-55556667D01*
X83199047Y-55699524D01*
X83103809Y-55794762D01*
X82960952Y-55842381D01*
X82865714Y-55842381D01*
X83675238Y-54937619D02*
X83722857Y-54890000D01*
X83818095Y-54842381D01*
X84056191Y-54842381D01*
X84151429Y-54890000D01*
X84199048Y-54937619D01*
X84246667Y-55032857D01*
X84246667Y-55128095D01*
X84199048Y-55270952D01*
X83627619Y-55842381D01*
X84246667Y-55842381D01*
X69066667Y-124604762D02*
X69209524Y-124652381D01*
X69447620Y-124652381D01*
X69542858Y-124604762D01*
X69590477Y-124557143D01*
X69638096Y-124461905D01*
X69638096Y-124366667D01*
X69590477Y-124271429D01*
X69542858Y-124223810D01*
X69447620Y-124176190D01*
X69257143Y-124128571D01*
X69161905Y-124080952D01*
X69114286Y-124033333D01*
X69066667Y-123938095D01*
X69066667Y-123842857D01*
X69114286Y-123747619D01*
X69161905Y-123700000D01*
X69257143Y-123652381D01*
X69495239Y-123652381D01*
X69638096Y-123700000D01*
X69971429Y-123652381D02*
X70209524Y-124652381D01*
X70400001Y-123938095D01*
X70590477Y-124652381D01*
X70828572Y-123652381D01*
X71733334Y-124652381D02*
X71161905Y-124652381D01*
X71447619Y-124652381D02*
X71447619Y-123652381D01*
X71352381Y-123795238D01*
X71257143Y-123890476D01*
X71161905Y-123938095D01*
D14*
X54584286Y-83675714D02*
X54512857Y-83747143D01*
X54298571Y-83818571D01*
X54155714Y-83818571D01*
X53941429Y-83747143D01*
X53798571Y-83604286D01*
X53727143Y-83461429D01*
X53655714Y-83175714D01*
X53655714Y-82961429D01*
X53727143Y-82675714D01*
X53798571Y-82532857D01*
X53941429Y-82390000D01*
X54155714Y-82318571D01*
X54298571Y-82318571D01*
X54512857Y-82390000D01*
X54584286Y-82461429D01*
X55227143Y-83818571D02*
X55227143Y-82318571D01*
X56084286Y-83818571D01*
X56084286Y-82318571D01*
X57441429Y-82818571D02*
X57441429Y-83818571D01*
X57084286Y-82247143D02*
X56727143Y-83318571D01*
X57655715Y-83318571D01*
D11*
X100913334Y-57632381D02*
X100580000Y-57156190D01*
X100341905Y-57632381D02*
X100341905Y-56632381D01*
X100722858Y-56632381D01*
X100818096Y-56680000D01*
X100865715Y-56727619D01*
X100913334Y-56822857D01*
X100913334Y-56965714D01*
X100865715Y-57060952D01*
X100818096Y-57108571D01*
X100722858Y-57156190D01*
X100341905Y-57156190D01*
X101865715Y-57632381D02*
X101294286Y-57632381D01*
X101580000Y-57632381D02*
X101580000Y-56632381D01*
X101484762Y-56775238D01*
X101389524Y-56870476D01*
X101294286Y-56918095D01*
X100096191Y-58915714D02*
X100096191Y-59582381D01*
X99858095Y-58534762D02*
X99620000Y-59249048D01*
X100239048Y-59249048D01*
X100620000Y-59487143D02*
X100667619Y-59534762D01*
X100620000Y-59582381D01*
X100572381Y-59534762D01*
X100620000Y-59487143D01*
X100620000Y-59582381D01*
X101000952Y-58582381D02*
X101667619Y-58582381D01*
X101239047Y-59582381D01*
X102048571Y-59582381D02*
X102048571Y-58582381D01*
X102620000Y-59582381D02*
X102191428Y-59010952D01*
X102620000Y-58582381D02*
X102048571Y-59153810D01*
X126782381Y-119192857D02*
X126306190Y-119526191D01*
X126782381Y-119764286D02*
X125782381Y-119764286D01*
X125782381Y-119383333D01*
X125830000Y-119288095D01*
X125877619Y-119240476D01*
X125972857Y-119192857D01*
X126115714Y-119192857D01*
X126210952Y-119240476D01*
X126258571Y-119288095D01*
X126306190Y-119383333D01*
X126306190Y-119764286D01*
X125782381Y-118859524D02*
X125782381Y-118240476D01*
X126163333Y-118573810D01*
X126163333Y-118430952D01*
X126210952Y-118335714D01*
X126258571Y-118288095D01*
X126353810Y-118240476D01*
X126591905Y-118240476D01*
X126687143Y-118288095D01*
X126734762Y-118335714D01*
X126782381Y-118430952D01*
X126782381Y-118716667D01*
X126734762Y-118811905D01*
X126687143Y-118859524D01*
X125782381Y-117621429D02*
X125782381Y-117526190D01*
X125830000Y-117430952D01*
X125877619Y-117383333D01*
X125972857Y-117335714D01*
X126163333Y-117288095D01*
X126401429Y-117288095D01*
X126591905Y-117335714D01*
X126687143Y-117383333D01*
X126734762Y-117430952D01*
X126782381Y-117526190D01*
X126782381Y-117621429D01*
X126734762Y-117716667D01*
X126687143Y-117764286D01*
X126591905Y-117811905D01*
X126401429Y-117859524D01*
X126163333Y-117859524D01*
X125972857Y-117811905D01*
X125877619Y-117764286D01*
X125830000Y-117716667D01*
X125782381Y-117621429D01*
X122735714Y-119603809D02*
X123402381Y-119603809D01*
X122354762Y-119841905D02*
X123069048Y-120080000D01*
X123069048Y-119460952D01*
X123307143Y-119080000D02*
X123354762Y-119032381D01*
X123402381Y-119080000D01*
X123354762Y-119127619D01*
X123307143Y-119080000D01*
X123402381Y-119080000D01*
X122402381Y-118699048D02*
X122402381Y-118032381D01*
X123402381Y-118460953D01*
X123402381Y-117651429D02*
X122402381Y-117651429D01*
X123402381Y-117080000D02*
X122830952Y-117508572D01*
X122402381Y-117080000D02*
X122973810Y-117651429D01*
X114666667Y-133404762D02*
X114809524Y-133452381D01*
X115047620Y-133452381D01*
X115142858Y-133404762D01*
X115190477Y-133357143D01*
X115238096Y-133261905D01*
X115238096Y-133166667D01*
X115190477Y-133071429D01*
X115142858Y-133023810D01*
X115047620Y-132976190D01*
X114857143Y-132928571D01*
X114761905Y-132880952D01*
X114714286Y-132833333D01*
X114666667Y-132738095D01*
X114666667Y-132642857D01*
X114714286Y-132547619D01*
X114761905Y-132500000D01*
X114857143Y-132452381D01*
X115095239Y-132452381D01*
X115238096Y-132500000D01*
X115571429Y-132452381D02*
X115809524Y-133452381D01*
X116000001Y-132738095D01*
X116190477Y-133452381D01*
X116428572Y-132452381D01*
X116761905Y-132547619D02*
X116809524Y-132500000D01*
X116904762Y-132452381D01*
X117142858Y-132452381D01*
X117238096Y-132500000D01*
X117285715Y-132547619D01*
X117333334Y-132642857D01*
X117333334Y-132738095D01*
X117285715Y-132880952D01*
X116714286Y-133452381D01*
X117333334Y-133452381D01*
X81457143Y-121166666D02*
X81504762Y-121214285D01*
X81552381Y-121357142D01*
X81552381Y-121452380D01*
X81504762Y-121595238D01*
X81409524Y-121690476D01*
X81314286Y-121738095D01*
X81123810Y-121785714D01*
X80980952Y-121785714D01*
X80790476Y-121738095D01*
X80695238Y-121690476D01*
X80600000Y-121595238D01*
X80552381Y-121452380D01*
X80552381Y-121357142D01*
X80600000Y-121214285D01*
X80647619Y-121166666D01*
X81552381Y-120214285D02*
X81552381Y-120785714D01*
X81552381Y-120500000D02*
X80552381Y-120500000D01*
X80695238Y-120595238D01*
X80790476Y-120690476D01*
X80838095Y-120785714D01*
X109207143Y-122156666D02*
X109254762Y-122204285D01*
X109302381Y-122347142D01*
X109302381Y-122442380D01*
X109254762Y-122585238D01*
X109159524Y-122680476D01*
X109064286Y-122728095D01*
X108873810Y-122775714D01*
X108730952Y-122775714D01*
X108540476Y-122728095D01*
X108445238Y-122680476D01*
X108350000Y-122585238D01*
X108302381Y-122442380D01*
X108302381Y-122347142D01*
X108350000Y-122204285D01*
X108397619Y-122156666D01*
X108397619Y-121775714D02*
X108350000Y-121728095D01*
X108302381Y-121632857D01*
X108302381Y-121394761D01*
X108350000Y-121299523D01*
X108397619Y-121251904D01*
X108492857Y-121204285D01*
X108588095Y-121204285D01*
X108730952Y-121251904D01*
X109302381Y-121823333D01*
X109302381Y-121204285D01*
X106672381Y-127632857D02*
X106672381Y-128204286D01*
X106672381Y-127918572D02*
X105672381Y-127918572D01*
X105815238Y-128013810D01*
X105910476Y-128109048D01*
X105958095Y-128204286D01*
X105672381Y-127013810D02*
X105672381Y-126918571D01*
X105720000Y-126823333D01*
X105767619Y-126775714D01*
X105862857Y-126728095D01*
X106053333Y-126680476D01*
X106291429Y-126680476D01*
X106481905Y-126728095D01*
X106577143Y-126775714D01*
X106624762Y-126823333D01*
X106672381Y-126918571D01*
X106672381Y-127013810D01*
X106624762Y-127109048D01*
X106577143Y-127156667D01*
X106481905Y-127204286D01*
X106291429Y-127251905D01*
X106053333Y-127251905D01*
X105862857Y-127204286D01*
X105767619Y-127156667D01*
X105720000Y-127109048D01*
X105672381Y-127013810D01*
X106005714Y-125823333D02*
X106672381Y-125823333D01*
X106005714Y-126251905D02*
X106529524Y-126251905D01*
X106624762Y-126204286D01*
X106672381Y-126109048D01*
X106672381Y-125966190D01*
X106624762Y-125870952D01*
X106577143Y-125823333D01*
X89983334Y-59577143D02*
X89935715Y-59624762D01*
X89792858Y-59672381D01*
X89697620Y-59672381D01*
X89554762Y-59624762D01*
X89459524Y-59529524D01*
X89411905Y-59434286D01*
X89364286Y-59243810D01*
X89364286Y-59100952D01*
X89411905Y-58910476D01*
X89459524Y-58815238D01*
X89554762Y-58720000D01*
X89697620Y-58672381D01*
X89792858Y-58672381D01*
X89935715Y-58720000D01*
X89983334Y-58767619D01*
X90316667Y-58672381D02*
X90935715Y-58672381D01*
X90602381Y-59053333D01*
X90745239Y-59053333D01*
X90840477Y-59100952D01*
X90888096Y-59148571D01*
X90935715Y-59243810D01*
X90935715Y-59481905D01*
X90888096Y-59577143D01*
X90840477Y-59624762D01*
X90745239Y-59672381D01*
X90459524Y-59672381D01*
X90364286Y-59624762D01*
X90316667Y-59577143D01*
X92827143Y-59752381D02*
X92255714Y-59752381D01*
X92541428Y-59752381D02*
X92541428Y-58752381D01*
X92446190Y-58895238D01*
X92350952Y-58990476D01*
X92255714Y-59038095D01*
X93446190Y-58752381D02*
X93541429Y-58752381D01*
X93636667Y-58800000D01*
X93684286Y-58847619D01*
X93731905Y-58942857D01*
X93779524Y-59133333D01*
X93779524Y-59371429D01*
X93731905Y-59561905D01*
X93684286Y-59657143D01*
X93636667Y-59704762D01*
X93541429Y-59752381D01*
X93446190Y-59752381D01*
X93350952Y-59704762D01*
X93303333Y-59657143D01*
X93255714Y-59561905D01*
X93208095Y-59371429D01*
X93208095Y-59133333D01*
X93255714Y-58942857D01*
X93303333Y-58847619D01*
X93350952Y-58800000D01*
X93446190Y-58752381D01*
X94636667Y-59085714D02*
X94636667Y-59752381D01*
X94208095Y-59085714D02*
X94208095Y-59609524D01*
X94255714Y-59704762D01*
X94350952Y-59752381D01*
X94493810Y-59752381D01*
X94589048Y-59704762D01*
X94636667Y-59657143D01*
X78847143Y-87016666D02*
X78894762Y-87064285D01*
X78942381Y-87207142D01*
X78942381Y-87302380D01*
X78894762Y-87445238D01*
X78799524Y-87540476D01*
X78704286Y-87588095D01*
X78513810Y-87635714D01*
X78370952Y-87635714D01*
X78180476Y-87588095D01*
X78085238Y-87540476D01*
X77990000Y-87445238D01*
X77942381Y-87302380D01*
X77942381Y-87207142D01*
X77990000Y-87064285D01*
X78037619Y-87016666D01*
X77942381Y-86111904D02*
X77942381Y-86588095D01*
X78418571Y-86635714D01*
X78370952Y-86588095D01*
X78323333Y-86492857D01*
X78323333Y-86254761D01*
X78370952Y-86159523D01*
X78418571Y-86111904D01*
X78513810Y-86064285D01*
X78751905Y-86064285D01*
X78847143Y-86111904D01*
X78894762Y-86159523D01*
X78942381Y-86254761D01*
X78942381Y-86492857D01*
X78894762Y-86588095D01*
X78847143Y-86635714D01*
X77062381Y-95624286D02*
X77062381Y-95529047D01*
X77110000Y-95433809D01*
X77157619Y-95386190D01*
X77252857Y-95338571D01*
X77443333Y-95290952D01*
X77681429Y-95290952D01*
X77871905Y-95338571D01*
X77967143Y-95386190D01*
X78014762Y-95433809D01*
X78062381Y-95529047D01*
X78062381Y-95624286D01*
X78014762Y-95719524D01*
X77967143Y-95767143D01*
X77871905Y-95814762D01*
X77681429Y-95862381D01*
X77443333Y-95862381D01*
X77252857Y-95814762D01*
X77157619Y-95767143D01*
X77110000Y-95719524D01*
X77062381Y-95624286D01*
X77967143Y-94862381D02*
X78014762Y-94814762D01*
X78062381Y-94862381D01*
X78014762Y-94910000D01*
X77967143Y-94862381D01*
X78062381Y-94862381D01*
X78062381Y-93862381D02*
X78062381Y-94433810D01*
X78062381Y-94148096D02*
X77062381Y-94148096D01*
X77205238Y-94243334D01*
X77300476Y-94338572D01*
X77348095Y-94433810D01*
X77395714Y-93005238D02*
X78062381Y-93005238D01*
X77395714Y-93433810D02*
X77919524Y-93433810D01*
X78014762Y-93386191D01*
X78062381Y-93290953D01*
X78062381Y-93148095D01*
X78014762Y-93052857D01*
X77967143Y-93005238D01*
X124583334Y-89057143D02*
X124535715Y-89104762D01*
X124392858Y-89152381D01*
X124297620Y-89152381D01*
X124154762Y-89104762D01*
X124059524Y-89009524D01*
X124011905Y-88914286D01*
X123964286Y-88723810D01*
X123964286Y-88580952D01*
X124011905Y-88390476D01*
X124059524Y-88295238D01*
X124154762Y-88200000D01*
X124297620Y-88152381D01*
X124392858Y-88152381D01*
X124535715Y-88200000D01*
X124583334Y-88247619D01*
X125440477Y-88152381D02*
X125250000Y-88152381D01*
X125154762Y-88200000D01*
X125107143Y-88247619D01*
X125011905Y-88390476D01*
X124964286Y-88580952D01*
X124964286Y-88961905D01*
X125011905Y-89057143D01*
X125059524Y-89104762D01*
X125154762Y-89152381D01*
X125345239Y-89152381D01*
X125440477Y-89104762D01*
X125488096Y-89057143D01*
X125535715Y-88961905D01*
X125535715Y-88723810D01*
X125488096Y-88628571D01*
X125440477Y-88580952D01*
X125345239Y-88533333D01*
X125154762Y-88533333D01*
X125059524Y-88580952D01*
X125011905Y-88628571D01*
X124964286Y-88723810D01*
X123535714Y-83152381D02*
X123630953Y-83152381D01*
X123726191Y-83200000D01*
X123773810Y-83247619D01*
X123821429Y-83342857D01*
X123869048Y-83533333D01*
X123869048Y-83771429D01*
X123821429Y-83961905D01*
X123773810Y-84057143D01*
X123726191Y-84104762D01*
X123630953Y-84152381D01*
X123535714Y-84152381D01*
X123440476Y-84104762D01*
X123392857Y-84057143D01*
X123345238Y-83961905D01*
X123297619Y-83771429D01*
X123297619Y-83533333D01*
X123345238Y-83342857D01*
X123392857Y-83247619D01*
X123440476Y-83200000D01*
X123535714Y-83152381D01*
X124297619Y-84057143D02*
X124345238Y-84104762D01*
X124297619Y-84152381D01*
X124250000Y-84104762D01*
X124297619Y-84057143D01*
X124297619Y-84152381D01*
X125297619Y-84152381D02*
X124726190Y-84152381D01*
X125011904Y-84152381D02*
X125011904Y-83152381D01*
X124916666Y-83295238D01*
X124821428Y-83390476D01*
X124726190Y-83438095D01*
X126154762Y-83485714D02*
X126154762Y-84152381D01*
X125726190Y-83485714D02*
X125726190Y-84009524D01*
X125773809Y-84104762D01*
X125869047Y-84152381D01*
X126011905Y-84152381D01*
X126107143Y-84104762D01*
X126154762Y-84057143D01*
X103207143Y-85226666D02*
X103254762Y-85274285D01*
X103302381Y-85417142D01*
X103302381Y-85512380D01*
X103254762Y-85655238D01*
X103159524Y-85750476D01*
X103064286Y-85798095D01*
X102873810Y-85845714D01*
X102730952Y-85845714D01*
X102540476Y-85798095D01*
X102445238Y-85750476D01*
X102350000Y-85655238D01*
X102302381Y-85512380D01*
X102302381Y-85417142D01*
X102350000Y-85274285D01*
X102397619Y-85226666D01*
X102302381Y-84893333D02*
X102302381Y-84226666D01*
X103302381Y-84655238D01*
X97812381Y-86164286D02*
X97812381Y-86069047D01*
X97860000Y-85973809D01*
X97907619Y-85926190D01*
X98002857Y-85878571D01*
X98193333Y-85830952D01*
X98431429Y-85830952D01*
X98621905Y-85878571D01*
X98717143Y-85926190D01*
X98764762Y-85973809D01*
X98812381Y-86069047D01*
X98812381Y-86164286D01*
X98764762Y-86259524D01*
X98717143Y-86307143D01*
X98621905Y-86354762D01*
X98431429Y-86402381D01*
X98193333Y-86402381D01*
X98002857Y-86354762D01*
X97907619Y-86307143D01*
X97860000Y-86259524D01*
X97812381Y-86164286D01*
X98717143Y-85402381D02*
X98764762Y-85354762D01*
X98812381Y-85402381D01*
X98764762Y-85450000D01*
X98717143Y-85402381D01*
X98812381Y-85402381D01*
X98812381Y-84402381D02*
X98812381Y-84973810D01*
X98812381Y-84688096D02*
X97812381Y-84688096D01*
X97955238Y-84783334D01*
X98050476Y-84878572D01*
X98098095Y-84973810D01*
X98145714Y-83545238D02*
X98812381Y-83545238D01*
X98145714Y-83973810D02*
X98669524Y-83973810D01*
X98764762Y-83926191D01*
X98812381Y-83830953D01*
X98812381Y-83688095D01*
X98764762Y-83592857D01*
X98717143Y-83545238D01*
X68813334Y-119717143D02*
X68765715Y-119764762D01*
X68622858Y-119812381D01*
X68527620Y-119812381D01*
X68384762Y-119764762D01*
X68289524Y-119669524D01*
X68241905Y-119574286D01*
X68194286Y-119383810D01*
X68194286Y-119240952D01*
X68241905Y-119050476D01*
X68289524Y-118955238D01*
X68384762Y-118860000D01*
X68527620Y-118812381D01*
X68622858Y-118812381D01*
X68765715Y-118860000D01*
X68813334Y-118907619D01*
X69289524Y-119812381D02*
X69480000Y-119812381D01*
X69575239Y-119764762D01*
X69622858Y-119717143D01*
X69718096Y-119574286D01*
X69765715Y-119383810D01*
X69765715Y-119002857D01*
X69718096Y-118907619D01*
X69670477Y-118860000D01*
X69575239Y-118812381D01*
X69384762Y-118812381D01*
X69289524Y-118860000D01*
X69241905Y-118907619D01*
X69194286Y-119002857D01*
X69194286Y-119240952D01*
X69241905Y-119336190D01*
X69289524Y-119383810D01*
X69384762Y-119431429D01*
X69575239Y-119431429D01*
X69670477Y-119383810D01*
X69718096Y-119336190D01*
X69765715Y-119240952D01*
X64945714Y-119532381D02*
X65040953Y-119532381D01*
X65136191Y-119580000D01*
X65183810Y-119627619D01*
X65231429Y-119722857D01*
X65279048Y-119913333D01*
X65279048Y-120151429D01*
X65231429Y-120341905D01*
X65183810Y-120437143D01*
X65136191Y-120484762D01*
X65040953Y-120532381D01*
X64945714Y-120532381D01*
X64850476Y-120484762D01*
X64802857Y-120437143D01*
X64755238Y-120341905D01*
X64707619Y-120151429D01*
X64707619Y-119913333D01*
X64755238Y-119722857D01*
X64802857Y-119627619D01*
X64850476Y-119580000D01*
X64945714Y-119532381D01*
X65707619Y-120437143D02*
X65755238Y-120484762D01*
X65707619Y-120532381D01*
X65660000Y-120484762D01*
X65707619Y-120437143D01*
X65707619Y-120532381D01*
X66707619Y-120532381D02*
X66136190Y-120532381D01*
X66421904Y-120532381D02*
X66421904Y-119532381D01*
X66326666Y-119675238D01*
X66231428Y-119770476D01*
X66136190Y-119818095D01*
X67564762Y-119865714D02*
X67564762Y-120532381D01*
X67136190Y-119865714D02*
X67136190Y-120389524D01*
X67183809Y-120484762D01*
X67279047Y-120532381D01*
X67421905Y-120532381D01*
X67517143Y-120484762D01*
X67564762Y-120437143D01*
X60688571Y-128343333D02*
X60688571Y-128676667D01*
X61212381Y-128676667D02*
X60212381Y-128676667D01*
X60212381Y-128200476D01*
X61212381Y-127295714D02*
X61212381Y-127867143D01*
X61212381Y-127581429D02*
X60212381Y-127581429D01*
X60355238Y-127676667D01*
X60450476Y-127771905D01*
X60498095Y-127867143D01*
X61422381Y-126362857D02*
X60422381Y-126362857D01*
X60422381Y-125981904D01*
X60470000Y-125886666D01*
X60517619Y-125839047D01*
X60612857Y-125791428D01*
X60755714Y-125791428D01*
X60850952Y-125839047D01*
X60898571Y-125886666D01*
X60946190Y-125981904D01*
X60946190Y-126362857D01*
X60422381Y-125505714D02*
X60422381Y-124934285D01*
X61422381Y-125220000D02*
X60422381Y-125220000D01*
X61327143Y-124029523D02*
X61374762Y-124077142D01*
X61422381Y-124219999D01*
X61422381Y-124315237D01*
X61374762Y-124458095D01*
X61279524Y-124553333D01*
X61184286Y-124600952D01*
X60993810Y-124648571D01*
X60850952Y-124648571D01*
X60660476Y-124600952D01*
X60565238Y-124553333D01*
X60470000Y-124458095D01*
X60422381Y-124315237D01*
X60422381Y-124219999D01*
X60470000Y-124077142D01*
X60517619Y-124029523D01*
X82958095Y-59442381D02*
X82958095Y-60251905D01*
X83005714Y-60347143D01*
X83053333Y-60394762D01*
X83148571Y-60442381D01*
X83339048Y-60442381D01*
X83434286Y-60394762D01*
X83481905Y-60347143D01*
X83529524Y-60251905D01*
X83529524Y-59442381D01*
X84529524Y-60442381D02*
X83958095Y-60442381D01*
X84243809Y-60442381D02*
X84243809Y-59442381D01*
X84148571Y-59585238D01*
X84053333Y-59680476D01*
X83958095Y-59728095D01*
X89382381Y-85446666D02*
X88382381Y-85446666D01*
X88382381Y-85065713D01*
X88430000Y-84970475D01*
X88477619Y-84922856D01*
X88572857Y-84875237D01*
X88715714Y-84875237D01*
X88810952Y-84922856D01*
X88858571Y-84970475D01*
X88906190Y-85065713D01*
X88906190Y-85446666D01*
X89382381Y-84446666D02*
X88382381Y-84446666D01*
X89287143Y-83399047D02*
X89334762Y-83446666D01*
X89382381Y-83589523D01*
X89382381Y-83684761D01*
X89334762Y-83827619D01*
X89239524Y-83922857D01*
X89144286Y-83970476D01*
X88953810Y-84018095D01*
X88810952Y-84018095D01*
X88620476Y-83970476D01*
X88525238Y-83922857D01*
X88430000Y-83827619D01*
X88382381Y-83684761D01*
X88382381Y-83589523D01*
X88430000Y-83446666D01*
X88477619Y-83399047D01*
X89382381Y-82446666D02*
X89382381Y-83018095D01*
X89382381Y-82732381D02*
X88382381Y-82732381D01*
X88525238Y-82827619D01*
X88620476Y-82922857D01*
X88668095Y-83018095D01*
X88810952Y-81875238D02*
X88763333Y-81970476D01*
X88715714Y-82018095D01*
X88620476Y-82065714D01*
X88572857Y-82065714D01*
X88477619Y-82018095D01*
X88430000Y-81970476D01*
X88382381Y-81875238D01*
X88382381Y-81684761D01*
X88430000Y-81589523D01*
X88477619Y-81541904D01*
X88572857Y-81494285D01*
X88620476Y-81494285D01*
X88715714Y-81541904D01*
X88763333Y-81589523D01*
X88810952Y-81684761D01*
X88810952Y-81875238D01*
X88858571Y-81970476D01*
X88906190Y-82018095D01*
X89001429Y-82065714D01*
X89191905Y-82065714D01*
X89287143Y-82018095D01*
X89334762Y-81970476D01*
X89382381Y-81875238D01*
X89382381Y-81684761D01*
X89334762Y-81589523D01*
X89287143Y-81541904D01*
X89191905Y-81494285D01*
X89001429Y-81494285D01*
X88906190Y-81541904D01*
X88858571Y-81589523D01*
X88810952Y-81684761D01*
X88858571Y-80732380D02*
X88858571Y-81065714D01*
X89382381Y-81065714D02*
X88382381Y-81065714D01*
X88382381Y-80589523D01*
X88715714Y-79779999D02*
X89382381Y-79779999D01*
X88334762Y-80018095D02*
X89049048Y-80256190D01*
X89049048Y-79637142D01*
X88382381Y-78779999D02*
X88382381Y-79256190D01*
X88858571Y-79303809D01*
X88810952Y-79256190D01*
X88763333Y-79160952D01*
X88763333Y-78922856D01*
X88810952Y-78827618D01*
X88858571Y-78779999D01*
X88953810Y-78732380D01*
X89191905Y-78732380D01*
X89287143Y-78779999D01*
X89334762Y-78827618D01*
X89382381Y-78922856D01*
X89382381Y-79160952D01*
X89334762Y-79256190D01*
X89287143Y-79303809D01*
X89382381Y-78303809D02*
X88382381Y-78303809D01*
X89382381Y-77732380D02*
X88810952Y-78160952D01*
X88382381Y-77732380D02*
X88953810Y-78303809D01*
X88477619Y-77351428D02*
X88430000Y-77303809D01*
X88382381Y-77208571D01*
X88382381Y-76970475D01*
X88430000Y-76875237D01*
X88477619Y-76827618D01*
X88572857Y-76779999D01*
X88668095Y-76779999D01*
X88810952Y-76827618D01*
X89382381Y-77399047D01*
X89382381Y-76779999D01*
X88477619Y-76399047D02*
X88430000Y-76351428D01*
X88382381Y-76256190D01*
X88382381Y-76018094D01*
X88430000Y-75922856D01*
X88477619Y-75875237D01*
X88572857Y-75827618D01*
X88668095Y-75827618D01*
X88810952Y-75875237D01*
X89382381Y-76446666D01*
X89382381Y-75827618D01*
X89001429Y-75399047D02*
X89001429Y-74637142D01*
X89382381Y-74160952D02*
X88382381Y-74160952D01*
X88334762Y-72970476D02*
X89620476Y-73827619D01*
X89382381Y-72637143D02*
X88382381Y-72637143D01*
X88382381Y-72256190D01*
X88430000Y-72160952D01*
X88477619Y-72113333D01*
X88572857Y-72065714D01*
X88715714Y-72065714D01*
X88810952Y-72113333D01*
X88858571Y-72160952D01*
X88906190Y-72256190D01*
X88906190Y-72637143D01*
X105013334Y-119957143D02*
X104965715Y-120004762D01*
X104822858Y-120052381D01*
X104727620Y-120052381D01*
X104584762Y-120004762D01*
X104489524Y-119909524D01*
X104441905Y-119814286D01*
X104394286Y-119623810D01*
X104394286Y-119480952D01*
X104441905Y-119290476D01*
X104489524Y-119195238D01*
X104584762Y-119100000D01*
X104727620Y-119052381D01*
X104822858Y-119052381D01*
X104965715Y-119100000D01*
X105013334Y-119147619D01*
X105870477Y-119385714D02*
X105870477Y-120052381D01*
X105632381Y-119004762D02*
X105394286Y-119719048D01*
X106013334Y-119719048D01*
X100445714Y-117542381D02*
X100540953Y-117542381D01*
X100636191Y-117590000D01*
X100683810Y-117637619D01*
X100731429Y-117732857D01*
X100779048Y-117923333D01*
X100779048Y-118161429D01*
X100731429Y-118351905D01*
X100683810Y-118447143D01*
X100636191Y-118494762D01*
X100540953Y-118542381D01*
X100445714Y-118542381D01*
X100350476Y-118494762D01*
X100302857Y-118447143D01*
X100255238Y-118351905D01*
X100207619Y-118161429D01*
X100207619Y-117923333D01*
X100255238Y-117732857D01*
X100302857Y-117637619D01*
X100350476Y-117590000D01*
X100445714Y-117542381D01*
X101207619Y-118447143D02*
X101255238Y-118494762D01*
X101207619Y-118542381D01*
X101160000Y-118494762D01*
X101207619Y-118447143D01*
X101207619Y-118542381D01*
X102207619Y-118542381D02*
X101636190Y-118542381D01*
X101921904Y-118542381D02*
X101921904Y-117542381D01*
X101826666Y-117685238D01*
X101731428Y-117780476D01*
X101636190Y-117828095D01*
X103064762Y-117875714D02*
X103064762Y-118542381D01*
X102636190Y-117875714D02*
X102636190Y-118399524D01*
X102683809Y-118494762D01*
X102779047Y-118542381D01*
X102921905Y-118542381D01*
X103017143Y-118494762D01*
X103064762Y-118447143D01*
X93893334Y-130687143D02*
X93845715Y-130734762D01*
X93702858Y-130782381D01*
X93607620Y-130782381D01*
X93464762Y-130734762D01*
X93369524Y-130639524D01*
X93321905Y-130544286D01*
X93274286Y-130353810D01*
X93274286Y-130210952D01*
X93321905Y-130020476D01*
X93369524Y-129925238D01*
X93464762Y-129830000D01*
X93607620Y-129782381D01*
X93702858Y-129782381D01*
X93845715Y-129830000D01*
X93893334Y-129877619D01*
X94464762Y-130210952D02*
X94369524Y-130163333D01*
X94321905Y-130115714D01*
X94274286Y-130020476D01*
X94274286Y-129972857D01*
X94321905Y-129877619D01*
X94369524Y-129830000D01*
X94464762Y-129782381D01*
X94655239Y-129782381D01*
X94750477Y-129830000D01*
X94798096Y-129877619D01*
X94845715Y-129972857D01*
X94845715Y-130020476D01*
X94798096Y-130115714D01*
X94750477Y-130163333D01*
X94655239Y-130210952D01*
X94464762Y-130210952D01*
X94369524Y-130258571D01*
X94321905Y-130306190D01*
X94274286Y-130401429D01*
X94274286Y-130591905D01*
X94321905Y-130687143D01*
X94369524Y-130734762D01*
X94464762Y-130782381D01*
X94655239Y-130782381D01*
X94750477Y-130734762D01*
X94798096Y-130687143D01*
X94845715Y-130591905D01*
X94845715Y-130401429D01*
X94798096Y-130306190D01*
X94750477Y-130258571D01*
X94655239Y-130210952D01*
X96285714Y-131352381D02*
X96380953Y-131352381D01*
X96476191Y-131400000D01*
X96523810Y-131447619D01*
X96571429Y-131542857D01*
X96619048Y-131733333D01*
X96619048Y-131971429D01*
X96571429Y-132161905D01*
X96523810Y-132257143D01*
X96476191Y-132304762D01*
X96380953Y-132352381D01*
X96285714Y-132352381D01*
X96190476Y-132304762D01*
X96142857Y-132257143D01*
X96095238Y-132161905D01*
X96047619Y-131971429D01*
X96047619Y-131733333D01*
X96095238Y-131542857D01*
X96142857Y-131447619D01*
X96190476Y-131400000D01*
X96285714Y-131352381D01*
X97047619Y-132257143D02*
X97095238Y-132304762D01*
X97047619Y-132352381D01*
X97000000Y-132304762D01*
X97047619Y-132257143D01*
X97047619Y-132352381D01*
X98047619Y-132352381D02*
X97476190Y-132352381D01*
X97761904Y-132352381D02*
X97761904Y-131352381D01*
X97666666Y-131495238D01*
X97571428Y-131590476D01*
X97476190Y-131638095D01*
X98904762Y-131685714D02*
X98904762Y-132352381D01*
X98476190Y-131685714D02*
X98476190Y-132209524D01*
X98523809Y-132304762D01*
X98619047Y-132352381D01*
X98761905Y-132352381D01*
X98857143Y-132304762D01*
X98904762Y-132257143D01*
X85152381Y-119166666D02*
X84676190Y-119500000D01*
X85152381Y-119738095D02*
X84152381Y-119738095D01*
X84152381Y-119357142D01*
X84200000Y-119261904D01*
X84247619Y-119214285D01*
X84342857Y-119166666D01*
X84485714Y-119166666D01*
X84580952Y-119214285D01*
X84628571Y-119261904D01*
X84676190Y-119357142D01*
X84676190Y-119738095D01*
X84247619Y-118785714D02*
X84200000Y-118738095D01*
X84152381Y-118642857D01*
X84152381Y-118404761D01*
X84200000Y-118309523D01*
X84247619Y-118261904D01*
X84342857Y-118214285D01*
X84438095Y-118214285D01*
X84580952Y-118261904D01*
X85152381Y-118833333D01*
X85152381Y-118214285D01*
X82447619Y-122261905D02*
X82400000Y-122214286D01*
X82352381Y-122119048D01*
X82352381Y-121880952D01*
X82400000Y-121785714D01*
X82447619Y-121738095D01*
X82542857Y-121690476D01*
X82638095Y-121690476D01*
X82780952Y-121738095D01*
X83352381Y-122309524D01*
X83352381Y-121690476D01*
X82352381Y-121357143D02*
X82352381Y-120690476D01*
X83352381Y-121119048D01*
X87452381Y-119266666D02*
X86976190Y-119600000D01*
X87452381Y-119838095D02*
X86452381Y-119838095D01*
X86452381Y-119457142D01*
X86500000Y-119361904D01*
X86547619Y-119314285D01*
X86642857Y-119266666D01*
X86785714Y-119266666D01*
X86880952Y-119314285D01*
X86928571Y-119361904D01*
X86976190Y-119457142D01*
X86976190Y-119838095D01*
X86452381Y-118933333D02*
X86452381Y-118314285D01*
X86833333Y-118647619D01*
X86833333Y-118504761D01*
X86880952Y-118409523D01*
X86928571Y-118361904D01*
X87023810Y-118314285D01*
X87261905Y-118314285D01*
X87357143Y-118361904D01*
X87404762Y-118409523D01*
X87452381Y-118504761D01*
X87452381Y-118790476D01*
X87404762Y-118885714D01*
X87357143Y-118933333D01*
X88047619Y-122361905D02*
X88000000Y-122314286D01*
X87952381Y-122219048D01*
X87952381Y-121980952D01*
X88000000Y-121885714D01*
X88047619Y-121838095D01*
X88142857Y-121790476D01*
X88238095Y-121790476D01*
X88380952Y-121838095D01*
X88952381Y-122409524D01*
X88952381Y-121790476D01*
X87952381Y-121457143D02*
X87952381Y-120790476D01*
X88952381Y-121219048D01*
%LPC*%
D15*
X55000000Y-64000000D03*
D16*
X55000000Y-66500000D03*
X55000000Y-69000000D03*
X55000000Y-71500000D03*
X55000000Y-74000000D03*
D17*
X68500000Y-61000000D03*
D18*
X65960000Y-61000000D03*
D17*
X68500000Y-65000000D03*
D18*
X65960000Y-65000000D03*
D17*
X68500000Y-72600000D03*
D18*
X65960000Y-72600000D03*
D17*
X68500000Y-76500000D03*
D18*
X65960000Y-76500000D03*
D17*
X68500000Y-80400000D03*
D18*
X65960000Y-80400000D03*
D17*
X68500000Y-84400000D03*
D18*
X65960000Y-84400000D03*
D17*
X68500000Y-88400000D03*
D18*
X65960000Y-88400000D03*
D17*
X113400000Y-58400000D03*
D18*
X110860000Y-58400000D03*
D17*
X113500000Y-54500000D03*
D18*
X110960000Y-54500000D03*
D17*
X68500000Y-92500000D03*
D18*
X65960000Y-92500000D03*
D17*
X68500000Y-96400000D03*
D18*
X65960000Y-96400000D03*
D17*
X68500000Y-100400000D03*
D18*
X65960000Y-100400000D03*
D17*
X68500000Y-104400000D03*
D18*
X65960000Y-104400000D03*
D17*
X113600000Y-89000000D03*
D18*
X111060000Y-89000000D03*
D17*
X113600000Y-93000000D03*
D18*
X111060000Y-93000000D03*
D17*
X113600000Y-97100000D03*
D18*
X111060000Y-97100000D03*
D17*
X113600000Y-101000000D03*
D18*
X111060000Y-101000000D03*
D17*
X113600000Y-105100000D03*
D18*
X111060000Y-105100000D03*
D17*
X113600000Y-109100000D03*
D18*
X111060000Y-109100000D03*
D17*
X113600000Y-113100000D03*
D18*
X111060000Y-113100000D03*
D17*
X113600000Y-117100000D03*
D18*
X111060000Y-117100000D03*
D17*
X68500000Y-108400000D03*
D18*
X65960000Y-108400000D03*
D17*
X113600000Y-78500000D03*
D18*
X111060000Y-78500000D03*
D17*
X113500000Y-70500000D03*
D18*
X110960000Y-70500000D03*
D17*
X68500000Y-112300000D03*
D18*
X65960000Y-112300000D03*
D17*
X119700000Y-121700000D03*
D18*
X117160000Y-121700000D03*
D17*
X113600000Y-82500000D03*
D18*
X111060000Y-82500000D03*
D17*
X113500000Y-66500000D03*
D18*
X110960000Y-66500000D03*
D17*
X113500000Y-62500000D03*
D18*
X110960000Y-62500000D03*
D17*
X113600000Y-74500000D03*
D18*
X111060000Y-74500000D03*
D17*
X68500000Y-57000000D03*
D18*
X65960000Y-57000000D03*
D19*
X101457500Y-121879000D03*
X100822500Y-121879000D03*
X100187500Y-121879000D03*
X99552500Y-121879000D03*
X98917500Y-121879000D03*
X98282500Y-121879000D03*
X97647500Y-121879000D03*
X97012500Y-121879000D03*
X96377500Y-121879000D03*
X95742500Y-121879000D03*
X95742500Y-127721000D03*
X96377500Y-127721000D03*
X96987100Y-127721000D03*
X97647500Y-127721000D03*
X98282500Y-127721000D03*
X98917500Y-127721000D03*
X99552500Y-127721000D03*
X100212900Y-127721000D03*
X100822500Y-127721000D03*
X101457500Y-127721000D03*
D20*
X58930000Y-118720000D03*
X53930000Y-118720000D03*
D21*
X106700000Y-93240000D03*
D22*
X106700000Y-95780000D03*
X106700000Y-98320000D03*
X106700000Y-100860000D03*
X106700000Y-103400000D03*
X106700000Y-105940000D03*
X106700000Y-108480000D03*
X106700000Y-111020000D03*
X106700000Y-113560000D03*
D21*
X106900000Y-80760000D03*
D22*
X106900000Y-78220000D03*
X106900000Y-75680000D03*
X106900000Y-73140000D03*
X106900000Y-70600000D03*
X106900000Y-68060000D03*
X106900000Y-65520000D03*
X106900000Y-62980000D03*
X106900000Y-60440000D03*
D23*
X54000000Y-54000000D03*
X126000000Y-54000000D03*
X126000000Y-130000000D03*
X54000000Y-130000000D03*
D21*
X73000000Y-74840000D03*
D22*
X73000000Y-77380000D03*
X73000000Y-79920000D03*
X73000000Y-82460000D03*
X73000000Y-85000000D03*
X73000000Y-87540000D03*
X73000000Y-90080000D03*
X73000000Y-92620000D03*
X73000000Y-95160000D03*
D24*
X73000000Y-97700000D03*
D21*
X73000000Y-55340000D03*
D22*
X73000000Y-57880000D03*
X73000000Y-60420000D03*
X73000000Y-62960000D03*
X73000000Y-65500000D03*
D21*
X73000000Y-103340000D03*
D22*
X73000000Y-105880000D03*
X73000000Y-108420000D03*
X73000000Y-110960000D03*
X73000000Y-113500000D03*
X73000000Y-116040000D03*
D25*
X126000000Y-76000000D03*
D26*
X123460000Y-76000000D03*
X126000000Y-73460000D03*
X123460000Y-73460000D03*
X126000000Y-70920000D03*
X123460000Y-70920000D03*
X126000000Y-68380000D03*
X123460000Y-68380000D03*
X126000000Y-65840000D03*
X123460000Y-65840000D03*
D25*
X126000000Y-107000000D03*
D26*
X123460000Y-107000000D03*
X126000000Y-104460000D03*
X123460000Y-104460000D03*
X126000000Y-101920000D03*
X123460000Y-101920000D03*
X126000000Y-99380000D03*
X123460000Y-99380000D03*
X126000000Y-96840000D03*
X123460000Y-96840000D03*
D27*
X84480000Y-125850000D03*
X85280000Y-127050000D03*
X86080000Y-125850000D03*
X86880000Y-127050000D03*
X87680000Y-125850000D03*
D28*
X82380000Y-126750000D03*
X82380000Y-131500000D03*
X89780000Y-126750000D03*
X89780000Y-131500000D03*
D29*
X95500000Y-53000000D03*
D30*
X92960000Y-53000000D03*
X90420000Y-53000000D03*
X87880000Y-53000000D03*
X85340000Y-53000000D03*
X82800000Y-53000000D03*
D21*
X67860000Y-127500000D03*
D22*
X70400000Y-127500000D03*
X72940000Y-127500000D03*
D25*
X54100000Y-89600000D03*
D26*
X56640000Y-89600000D03*
X54100000Y-92140000D03*
X56640000Y-92140000D03*
X54100000Y-94680000D03*
X56640000Y-94680000D03*
X54100000Y-97220000D03*
X56640000Y-97220000D03*
X54100000Y-99760000D03*
X56640000Y-99760000D03*
X54100000Y-102300000D03*
X56640000Y-102300000D03*
X54100000Y-104840000D03*
X56640000Y-104840000D03*
D20*
X96230000Y-57000000D03*
X98770000Y-57000000D03*
X124500000Y-116230000D03*
X124500000Y-118770000D03*
D31*
X119000000Y-131000000D03*
X113000000Y-131000000D03*
X119000000Y-127000000D03*
X112750000Y-126750000D03*
D32*
X78800000Y-118400000D03*
D20*
X78800000Y-123400000D03*
D32*
X108500000Y-129300000D03*
D20*
X108500000Y-124300000D03*
D32*
X93000000Y-57000000D03*
D20*
X88000000Y-57000000D03*
D33*
X78000000Y-89000000D03*
D34*
X78000000Y-91500000D03*
D33*
X126000000Y-86200000D03*
D34*
X123500000Y-86200000D03*
D33*
X100530000Y-83820000D03*
D34*
X100530000Y-86320000D03*
D33*
X68400000Y-116900000D03*
D34*
X65900000Y-116900000D03*
D32*
X63000000Y-128000000D03*
D20*
X63000000Y-123000000D03*
D35*
X81280000Y-63500000D03*
X81280000Y-66040000D03*
X81280000Y-68580000D03*
X81280000Y-71120000D03*
X81280000Y-73660000D03*
X81280000Y-76200000D03*
X81280000Y-78740000D03*
X81280000Y-81280000D03*
X81280000Y-83820000D03*
X81280000Y-86360000D03*
X81280000Y-88900000D03*
X81280000Y-91440000D03*
X81280000Y-93980000D03*
X81280000Y-96520000D03*
X81280000Y-99060000D03*
X81280000Y-101600000D03*
X81280000Y-104140000D03*
X81280000Y-106680000D03*
X81280000Y-109220000D03*
X81280000Y-111760000D03*
X96520000Y-111760000D03*
X96520000Y-109220000D03*
X96520000Y-106680000D03*
X96520000Y-104140000D03*
X96520000Y-101600000D03*
X96520000Y-99060000D03*
X96520000Y-96520000D03*
X96520000Y-93980000D03*
X96520000Y-91440000D03*
X96520000Y-88900000D03*
X96520000Y-86360000D03*
X96520000Y-83820000D03*
X96520000Y-81280000D03*
X96520000Y-78740000D03*
X96520000Y-76200000D03*
X96520000Y-73660000D03*
X96520000Y-71120000D03*
X96520000Y-68580000D03*
X96520000Y-66040000D03*
X96520000Y-63500000D03*
D36*
X100730000Y-119500000D03*
X102630000Y-119500000D03*
X96550000Y-130300000D03*
X98450000Y-130300000D03*
D37*
X84600000Y-121100000D03*
X84600000Y-123300000D03*
X86900000Y-121100000D03*
X86900000Y-123300000D03*
M02*
