G04 #@! TF.GenerationSoftware,KiCad,Pcbnew,(5.1.2)-1*
G04 #@! TF.CreationDate,2019-04-29T19:23:30+09:00*
G04 #@! TF.ProjectId,PIC18F45K22_CPUBOARD_V21,50494331-3846-4343-954b-32325f435055,rev?*
G04 #@! TF.SameCoordinates,Original*
G04 #@! TF.FileFunction,Legend,Top*
G04 #@! TF.FilePolarity,Positive*
%FSLAX46Y46*%
G04 Gerber Fmt 4.6, Leading zero omitted, Abs format (unit mm)*
G04 Created by KiCad (PCBNEW (5.1.2)-1) date 2019-04-29 19:23:30*
%MOMM*%
%LPD*%
G04 APERTURE LIST*
%ADD10C,0.100000*%
%ADD11C,0.150000*%
%ADD12C,0.300000*%
%ADD13C,0.400000*%
%ADD14C,0.200000*%
%ADD15R,2.250000X2.250000*%
%ADD16C,2.250000*%
%ADD17R,1.900000X1.900000*%
%ADD18C,1.900000*%
%ADD19O,0.750000X1.600000*%
%ADD20C,1.700000*%
%ADD21R,1.797000X1.797000*%
%ADD22C,1.797000*%
%ADD23C,3.900000*%
%ADD24C,1.924000*%
%ADD25R,2.127200X2.127200*%
%ADD26O,2.127200X2.127200*%
%ADD27O,1.400000X1.600000*%
%ADD28O,1.700000X3.600000*%
%ADD29R,2.127200X2.432000*%
%ADD30O,2.127200X2.432000*%
%ADD31C,2.100000*%
%ADD32R,1.700000X1.700000*%
%ADD33R,1.600000X1.600000*%
%ADD34C,1.600000*%
%ADD35O,2.700000X2.000000*%
%ADD36R,1.600000X1.150000*%
%ADD37R,1.300000X1.600000*%
G04 APERTURE END LIST*
D10*
D11*
X177002200Y-166007200D02*
X177002200Y-198007200D01*
X285002200Y-198007200D01*
X285002200Y-166007200D01*
X177002200Y-166007200D01*
D10*
D11*
X10000000Y-10000000D02*
X10000000Y-200007200D01*
X287002200Y-200007200D01*
X287002200Y-10000000D01*
X10000000Y-10000000D01*
D10*
D11*
X12000000Y-12000000D02*
X12000000Y-198007200D01*
X285002200Y-198007200D01*
X285002200Y-12000000D01*
X12000000Y-12000000D01*
D10*
D11*
X60000000Y-12000000D02*
X60000000Y-10000000D01*
D10*
D11*
X110000000Y-12000000D02*
X110000000Y-10000000D01*
D10*
D11*
X160000000Y-12000000D02*
X160000000Y-10000000D01*
D10*
D11*
X210000000Y-12000000D02*
X210000000Y-10000000D01*
D10*
D11*
X260000000Y-12000000D02*
X260000000Y-10000000D01*
D10*
D11*
X36065476Y-11588095D02*
X35322619Y-11588095D01*
X35694047Y-11588095D02*
X35694047Y-10288095D01*
X35570238Y-10473809D01*
X35446428Y-10597619D01*
X35322619Y-10659523D01*
D10*
D11*
X85322619Y-10411904D02*
X85384523Y-10350000D01*
X85508333Y-10288095D01*
X85817857Y-10288095D01*
X85941666Y-10350000D01*
X86003571Y-10411904D01*
X86065476Y-10535714D01*
X86065476Y-10659523D01*
X86003571Y-10845238D01*
X85260714Y-11588095D01*
X86065476Y-11588095D01*
D10*
D11*
X135260714Y-10288095D02*
X136065476Y-10288095D01*
X135632142Y-10783333D01*
X135817857Y-10783333D01*
X135941666Y-10845238D01*
X136003571Y-10907142D01*
X136065476Y-11030952D01*
X136065476Y-11340476D01*
X136003571Y-11464285D01*
X135941666Y-11526190D01*
X135817857Y-11588095D01*
X135446428Y-11588095D01*
X135322619Y-11526190D01*
X135260714Y-11464285D01*
D10*
D11*
X185941666Y-10721428D02*
X185941666Y-11588095D01*
X185632142Y-10226190D02*
X185322619Y-11154761D01*
X186127380Y-11154761D01*
D10*
D11*
X236003571Y-10288095D02*
X235384523Y-10288095D01*
X235322619Y-10907142D01*
X235384523Y-10845238D01*
X235508333Y-10783333D01*
X235817857Y-10783333D01*
X235941666Y-10845238D01*
X236003571Y-10907142D01*
X236065476Y-11030952D01*
X236065476Y-11340476D01*
X236003571Y-11464285D01*
X235941666Y-11526190D01*
X235817857Y-11588095D01*
X235508333Y-11588095D01*
X235384523Y-11526190D01*
X235322619Y-11464285D01*
D10*
D11*
X285941666Y-10288095D02*
X285694047Y-10288095D01*
X285570238Y-10350000D01*
X285508333Y-10411904D01*
X285384523Y-10597619D01*
X285322619Y-10845238D01*
X285322619Y-11340476D01*
X285384523Y-11464285D01*
X285446428Y-11526190D01*
X285570238Y-11588095D01*
X285817857Y-11588095D01*
X285941666Y-11526190D01*
X286003571Y-11464285D01*
X286065476Y-11340476D01*
X286065476Y-11030952D01*
X286003571Y-10907142D01*
X285941666Y-10845238D01*
X285817857Y-10783333D01*
X285570238Y-10783333D01*
X285446428Y-10845238D01*
X285384523Y-10907142D01*
X285322619Y-11030952D01*
D10*
D11*
X60000000Y-198007200D02*
X60000000Y-200007200D01*
D10*
D11*
X110000000Y-198007200D02*
X110000000Y-200007200D01*
D10*
D11*
X160000000Y-198007200D02*
X160000000Y-200007200D01*
D10*
D11*
X210000000Y-198007200D02*
X210000000Y-200007200D01*
D10*
D11*
X260000000Y-198007200D02*
X260000000Y-200007200D01*
D10*
D11*
X36065476Y-199595295D02*
X35322619Y-199595295D01*
X35694047Y-199595295D02*
X35694047Y-198295295D01*
X35570238Y-198481009D01*
X35446428Y-198604819D01*
X35322619Y-198666723D01*
D10*
D11*
X85322619Y-198419104D02*
X85384523Y-198357200D01*
X85508333Y-198295295D01*
X85817857Y-198295295D01*
X85941666Y-198357200D01*
X86003571Y-198419104D01*
X86065476Y-198542914D01*
X86065476Y-198666723D01*
X86003571Y-198852438D01*
X85260714Y-199595295D01*
X86065476Y-199595295D01*
D10*
D11*
X135260714Y-198295295D02*
X136065476Y-198295295D01*
X135632142Y-198790533D01*
X135817857Y-198790533D01*
X135941666Y-198852438D01*
X136003571Y-198914342D01*
X136065476Y-199038152D01*
X136065476Y-199347676D01*
X136003571Y-199471485D01*
X135941666Y-199533390D01*
X135817857Y-199595295D01*
X135446428Y-199595295D01*
X135322619Y-199533390D01*
X135260714Y-199471485D01*
D10*
D11*
X185941666Y-198728628D02*
X185941666Y-199595295D01*
X185632142Y-198233390D02*
X185322619Y-199161961D01*
X186127380Y-199161961D01*
D10*
D11*
X236003571Y-198295295D02*
X235384523Y-198295295D01*
X235322619Y-198914342D01*
X235384523Y-198852438D01*
X235508333Y-198790533D01*
X235817857Y-198790533D01*
X235941666Y-198852438D01*
X236003571Y-198914342D01*
X236065476Y-199038152D01*
X236065476Y-199347676D01*
X236003571Y-199471485D01*
X235941666Y-199533390D01*
X235817857Y-199595295D01*
X235508333Y-199595295D01*
X235384523Y-199533390D01*
X235322619Y-199471485D01*
D10*
D11*
X285941666Y-198295295D02*
X285694047Y-198295295D01*
X285570238Y-198357200D01*
X285508333Y-198419104D01*
X285384523Y-198604819D01*
X285322619Y-198852438D01*
X285322619Y-199347676D01*
X285384523Y-199471485D01*
X285446428Y-199533390D01*
X285570238Y-199595295D01*
X285817857Y-199595295D01*
X285941666Y-199533390D01*
X286003571Y-199471485D01*
X286065476Y-199347676D01*
X286065476Y-199038152D01*
X286003571Y-198914342D01*
X285941666Y-198852438D01*
X285817857Y-198790533D01*
X285570238Y-198790533D01*
X285446428Y-198852438D01*
X285384523Y-198914342D01*
X285322619Y-199038152D01*
D10*
D11*
X10000000Y-60000000D02*
X12000000Y-60000000D01*
D10*
D11*
X10000000Y-110000000D02*
X12000000Y-110000000D01*
D10*
D11*
X10000000Y-160000000D02*
X12000000Y-160000000D01*
D10*
D11*
X10690476Y-35216666D02*
X11309523Y-35216666D01*
X10566666Y-35588095D02*
X11000000Y-34288095D01*
X11433333Y-35588095D01*
D10*
D11*
X11092857Y-84907142D02*
X11278571Y-84969047D01*
X11340476Y-85030952D01*
X11402380Y-85154761D01*
X11402380Y-85340476D01*
X11340476Y-85464285D01*
X11278571Y-85526190D01*
X11154761Y-85588095D01*
X10659523Y-85588095D01*
X10659523Y-84288095D01*
X11092857Y-84288095D01*
X11216666Y-84350000D01*
X11278571Y-84411904D01*
X11340476Y-84535714D01*
X11340476Y-84659523D01*
X11278571Y-84783333D01*
X11216666Y-84845238D01*
X11092857Y-84907142D01*
X10659523Y-84907142D01*
D10*
D11*
X11402380Y-135464285D02*
X11340476Y-135526190D01*
X11154761Y-135588095D01*
X11030952Y-135588095D01*
X10845238Y-135526190D01*
X10721428Y-135402380D01*
X10659523Y-135278571D01*
X10597619Y-135030952D01*
X10597619Y-134845238D01*
X10659523Y-134597619D01*
X10721428Y-134473809D01*
X10845238Y-134350000D01*
X11030952Y-134288095D01*
X11154761Y-134288095D01*
X11340476Y-134350000D01*
X11402380Y-134411904D01*
D10*
D11*
X10659523Y-185588095D02*
X10659523Y-184288095D01*
X10969047Y-184288095D01*
X11154761Y-184350000D01*
X11278571Y-184473809D01*
X11340476Y-184597619D01*
X11402380Y-184845238D01*
X11402380Y-185030952D01*
X11340476Y-185278571D01*
X11278571Y-185402380D01*
X11154761Y-185526190D01*
X10969047Y-185588095D01*
X10659523Y-185588095D01*
D10*
D11*
X287002200Y-60000000D02*
X285002200Y-60000000D01*
D10*
D11*
X287002200Y-110000000D02*
X285002200Y-110000000D01*
D10*
D11*
X287002200Y-160000000D02*
X285002200Y-160000000D01*
D10*
D11*
X285692676Y-35216666D02*
X286311723Y-35216666D01*
X285568866Y-35588095D02*
X286002200Y-34288095D01*
X286435533Y-35588095D01*
D10*
D11*
X286095057Y-84907142D02*
X286280771Y-84969047D01*
X286342676Y-85030952D01*
X286404580Y-85154761D01*
X286404580Y-85340476D01*
X286342676Y-85464285D01*
X286280771Y-85526190D01*
X286156961Y-85588095D01*
X285661723Y-85588095D01*
X285661723Y-84288095D01*
X286095057Y-84288095D01*
X286218866Y-84350000D01*
X286280771Y-84411904D01*
X286342676Y-84535714D01*
X286342676Y-84659523D01*
X286280771Y-84783333D01*
X286218866Y-84845238D01*
X286095057Y-84907142D01*
X285661723Y-84907142D01*
D10*
D11*
X286404580Y-135464285D02*
X286342676Y-135526190D01*
X286156961Y-135588095D01*
X286033152Y-135588095D01*
X285847438Y-135526190D01*
X285723628Y-135402380D01*
X285661723Y-135278571D01*
X285599819Y-135030952D01*
X285599819Y-134845238D01*
X285661723Y-134597619D01*
X285723628Y-134473809D01*
X285847438Y-134350000D01*
X286033152Y-134288095D01*
X286156961Y-134288095D01*
X286342676Y-134350000D01*
X286404580Y-134411904D01*
D10*
D11*
X285661723Y-185588095D02*
X285661723Y-184288095D01*
X285971247Y-184288095D01*
X286156961Y-184350000D01*
X286280771Y-184473809D01*
X286342676Y-184597619D01*
X286404580Y-184845238D01*
X286404580Y-185030952D01*
X286342676Y-185278571D01*
X286280771Y-185402380D01*
X286156961Y-185526190D01*
X285971247Y-185588095D01*
X285661723Y-185588095D01*
D10*
D11*
X200434342Y-193785771D02*
X200434342Y-192285771D01*
X200791485Y-192285771D01*
X201005771Y-192357200D01*
X201148628Y-192500057D01*
X201220057Y-192642914D01*
X201291485Y-192928628D01*
X201291485Y-193142914D01*
X201220057Y-193428628D01*
X201148628Y-193571485D01*
X201005771Y-193714342D01*
X200791485Y-193785771D01*
X200434342Y-193785771D01*
X202577200Y-193785771D02*
X202577200Y-193000057D01*
X202505771Y-192857200D01*
X202362914Y-192785771D01*
X202077200Y-192785771D01*
X201934342Y-192857200D01*
X202577200Y-193714342D02*
X202434342Y-193785771D01*
X202077200Y-193785771D01*
X201934342Y-193714342D01*
X201862914Y-193571485D01*
X201862914Y-193428628D01*
X201934342Y-193285771D01*
X202077200Y-193214342D01*
X202434342Y-193214342D01*
X202577200Y-193142914D01*
X203077200Y-192785771D02*
X203648628Y-192785771D01*
X203291485Y-192285771D02*
X203291485Y-193571485D01*
X203362914Y-193714342D01*
X203505771Y-193785771D01*
X203648628Y-193785771D01*
X204720057Y-193714342D02*
X204577200Y-193785771D01*
X204291485Y-193785771D01*
X204148628Y-193714342D01*
X204077200Y-193571485D01*
X204077200Y-193000057D01*
X204148628Y-192857200D01*
X204291485Y-192785771D01*
X204577200Y-192785771D01*
X204720057Y-192857200D01*
X204791485Y-193000057D01*
X204791485Y-193142914D01*
X204077200Y-193285771D01*
X205434342Y-193642914D02*
X205505771Y-193714342D01*
X205434342Y-193785771D01*
X205362914Y-193714342D01*
X205434342Y-193642914D01*
X205434342Y-193785771D01*
X205434342Y-192857200D02*
X205505771Y-192928628D01*
X205434342Y-193000057D01*
X205362914Y-192928628D01*
X205434342Y-192857200D01*
X205434342Y-193000057D01*
D10*
D11*
X177002200Y-194507200D02*
X285002200Y-194507200D01*
D10*
D11*
X178434342Y-196585771D02*
X178434342Y-195085771D01*
X179291485Y-196585771D02*
X178648628Y-195728628D01*
X179291485Y-195085771D02*
X178434342Y-195942914D01*
X179934342Y-196585771D02*
X179934342Y-195585771D01*
X179934342Y-195085771D02*
X179862914Y-195157200D01*
X179934342Y-195228628D01*
X180005771Y-195157200D01*
X179934342Y-195085771D01*
X179934342Y-195228628D01*
X181505771Y-196442914D02*
X181434342Y-196514342D01*
X181220057Y-196585771D01*
X181077200Y-196585771D01*
X180862914Y-196514342D01*
X180720057Y-196371485D01*
X180648628Y-196228628D01*
X180577200Y-195942914D01*
X180577200Y-195728628D01*
X180648628Y-195442914D01*
X180720057Y-195300057D01*
X180862914Y-195157200D01*
X181077200Y-195085771D01*
X181220057Y-195085771D01*
X181434342Y-195157200D01*
X181505771Y-195228628D01*
X182791485Y-196585771D02*
X182791485Y-195800057D01*
X182720057Y-195657200D01*
X182577200Y-195585771D01*
X182291485Y-195585771D01*
X182148628Y-195657200D01*
X182791485Y-196514342D02*
X182648628Y-196585771D01*
X182291485Y-196585771D01*
X182148628Y-196514342D01*
X182077200Y-196371485D01*
X182077200Y-196228628D01*
X182148628Y-196085771D01*
X182291485Y-196014342D01*
X182648628Y-196014342D01*
X182791485Y-195942914D01*
X184148628Y-196585771D02*
X184148628Y-195085771D01*
X184148628Y-196514342D02*
X184005771Y-196585771D01*
X183720057Y-196585771D01*
X183577200Y-196514342D01*
X183505771Y-196442914D01*
X183434342Y-196300057D01*
X183434342Y-195871485D01*
X183505771Y-195728628D01*
X183577200Y-195657200D01*
X183720057Y-195585771D01*
X184005771Y-195585771D01*
X184148628Y-195657200D01*
X186005771Y-195800057D02*
X186505771Y-195800057D01*
X186720057Y-196585771D02*
X186005771Y-196585771D01*
X186005771Y-195085771D01*
X186720057Y-195085771D01*
X187362914Y-196442914D02*
X187434342Y-196514342D01*
X187362914Y-196585771D01*
X187291485Y-196514342D01*
X187362914Y-196442914D01*
X187362914Y-196585771D01*
X188077200Y-196585771D02*
X188077200Y-195085771D01*
X188434342Y-195085771D01*
X188648628Y-195157200D01*
X188791485Y-195300057D01*
X188862914Y-195442914D01*
X188934342Y-195728628D01*
X188934342Y-195942914D01*
X188862914Y-196228628D01*
X188791485Y-196371485D01*
X188648628Y-196514342D01*
X188434342Y-196585771D01*
X188077200Y-196585771D01*
X189577200Y-196442914D02*
X189648628Y-196514342D01*
X189577200Y-196585771D01*
X189505771Y-196514342D01*
X189577200Y-196442914D01*
X189577200Y-196585771D01*
X190220057Y-196157200D02*
X190934342Y-196157200D01*
X190077200Y-196585771D02*
X190577200Y-195085771D01*
X191077200Y-196585771D01*
X191577200Y-196442914D02*
X191648628Y-196514342D01*
X191577200Y-196585771D01*
X191505771Y-196514342D01*
X191577200Y-196442914D01*
X191577200Y-196585771D01*
X194577200Y-196585771D02*
X194577200Y-195085771D01*
X194720057Y-196014342D02*
X195148628Y-196585771D01*
X195148628Y-195585771D02*
X194577200Y-196157200D01*
X195791485Y-196585771D02*
X195791485Y-195585771D01*
X195791485Y-195085771D02*
X195720057Y-195157200D01*
X195791485Y-195228628D01*
X195862914Y-195157200D01*
X195791485Y-195085771D01*
X195791485Y-195228628D01*
X197148628Y-196514342D02*
X197005771Y-196585771D01*
X196720057Y-196585771D01*
X196577200Y-196514342D01*
X196505771Y-196442914D01*
X196434342Y-196300057D01*
X196434342Y-195871485D01*
X196505771Y-195728628D01*
X196577200Y-195657200D01*
X196720057Y-195585771D01*
X197005771Y-195585771D01*
X197148628Y-195657200D01*
X198434342Y-196585771D02*
X198434342Y-195800057D01*
X198362914Y-195657200D01*
X198220057Y-195585771D01*
X197934342Y-195585771D01*
X197791485Y-195657200D01*
X198434342Y-196514342D02*
X198291485Y-196585771D01*
X197934342Y-196585771D01*
X197791485Y-196514342D01*
X197720057Y-196371485D01*
X197720057Y-196228628D01*
X197791485Y-196085771D01*
X197934342Y-196014342D01*
X198291485Y-196014342D01*
X198434342Y-195942914D01*
X199791485Y-196585771D02*
X199791485Y-195085771D01*
X199791485Y-196514342D02*
X199648628Y-196585771D01*
X199362914Y-196585771D01*
X199220057Y-196514342D01*
X199148628Y-196442914D01*
X199077200Y-196300057D01*
X199077200Y-195871485D01*
X199148628Y-195728628D01*
X199220057Y-195657200D01*
X199362914Y-195585771D01*
X199648628Y-195585771D01*
X199791485Y-195657200D01*
X202077200Y-197157200D02*
X202005771Y-197085771D01*
X201862914Y-196871485D01*
X201791485Y-196728628D01*
X201720057Y-196514342D01*
X201648628Y-196157200D01*
X201648628Y-195871485D01*
X201720057Y-195514342D01*
X201791485Y-195300057D01*
X201862914Y-195157200D01*
X202005771Y-194942914D01*
X202077200Y-194871485D01*
X203362914Y-195085771D02*
X202648628Y-195085771D01*
X202577200Y-195800057D01*
X202648628Y-195728628D01*
X202791485Y-195657200D01*
X203148628Y-195657200D01*
X203291485Y-195728628D01*
X203362914Y-195800057D01*
X203434342Y-195942914D01*
X203434342Y-196300057D01*
X203362914Y-196442914D01*
X203291485Y-196514342D01*
X203148628Y-196585771D01*
X202791485Y-196585771D01*
X202648628Y-196514342D01*
X202577200Y-196442914D01*
X204077200Y-196442914D02*
X204148628Y-196514342D01*
X204077200Y-196585771D01*
X204005771Y-196514342D01*
X204077200Y-196442914D01*
X204077200Y-196585771D01*
X205577200Y-196585771D02*
X204720057Y-196585771D01*
X205148628Y-196585771D02*
X205148628Y-195085771D01*
X205005771Y-195300057D01*
X204862914Y-195442914D01*
X204720057Y-195514342D01*
X206220057Y-196442914D02*
X206291485Y-196514342D01*
X206220057Y-196585771D01*
X206148628Y-196514342D01*
X206220057Y-196442914D01*
X206220057Y-196585771D01*
X206862914Y-195228628D02*
X206934342Y-195157200D01*
X207077200Y-195085771D01*
X207434342Y-195085771D01*
X207577200Y-195157200D01*
X207648628Y-195228628D01*
X207720057Y-195371485D01*
X207720057Y-195514342D01*
X207648628Y-195728628D01*
X206791485Y-196585771D01*
X207720057Y-196585771D01*
X208220057Y-197157200D02*
X208291485Y-197085771D01*
X208434342Y-196871485D01*
X208505771Y-196728628D01*
X208577200Y-196514342D01*
X208648628Y-196157200D01*
X208648628Y-195871485D01*
X208577200Y-195514342D01*
X208505771Y-195300057D01*
X208434342Y-195157200D01*
X208291485Y-194942914D01*
X208220057Y-194871485D01*
X209362914Y-196014342D02*
X210505771Y-196014342D01*
X212005771Y-196585771D02*
X211148628Y-196585771D01*
X211577200Y-196585771D02*
X211577200Y-195085771D01*
X211434342Y-195300057D01*
X211291485Y-195442914D01*
X211148628Y-195514342D01*
D10*
D11*
X177002200Y-191507200D02*
X285002200Y-191507200D01*
D10*
D12*
X264411485Y-193785771D02*
X263911485Y-193071485D01*
X263554342Y-193785771D02*
X263554342Y-192285771D01*
X264125771Y-192285771D01*
X264268628Y-192357200D01*
X264340057Y-192428628D01*
X264411485Y-192571485D01*
X264411485Y-192785771D01*
X264340057Y-192928628D01*
X264268628Y-193000057D01*
X264125771Y-193071485D01*
X263554342Y-193071485D01*
X265625771Y-193714342D02*
X265482914Y-193785771D01*
X265197200Y-193785771D01*
X265054342Y-193714342D01*
X264982914Y-193571485D01*
X264982914Y-193000057D01*
X265054342Y-192857200D01*
X265197200Y-192785771D01*
X265482914Y-192785771D01*
X265625771Y-192857200D01*
X265697200Y-193000057D01*
X265697200Y-193142914D01*
X264982914Y-193285771D01*
X266197200Y-192785771D02*
X266554342Y-193785771D01*
X266911485Y-192785771D01*
X267482914Y-193642914D02*
X267554342Y-193714342D01*
X267482914Y-193785771D01*
X267411485Y-193714342D01*
X267482914Y-193642914D01*
X267482914Y-193785771D01*
X267482914Y-192857200D02*
X267554342Y-192928628D01*
X267482914Y-193000057D01*
X267411485Y-192928628D01*
X267482914Y-192857200D01*
X267482914Y-193000057D01*
D10*
D11*
X178362914Y-193714342D02*
X178577200Y-193785771D01*
X178934342Y-193785771D01*
X179077200Y-193714342D01*
X179148628Y-193642914D01*
X179220057Y-193500057D01*
X179220057Y-193357200D01*
X179148628Y-193214342D01*
X179077200Y-193142914D01*
X178934342Y-193071485D01*
X178648628Y-193000057D01*
X178505771Y-192928628D01*
X178434342Y-192857200D01*
X178362914Y-192714342D01*
X178362914Y-192571485D01*
X178434342Y-192428628D01*
X178505771Y-192357200D01*
X178648628Y-192285771D01*
X179005771Y-192285771D01*
X179220057Y-192357200D01*
X179862914Y-193785771D02*
X179862914Y-192785771D01*
X179862914Y-192285771D02*
X179791485Y-192357200D01*
X179862914Y-192428628D01*
X179934342Y-192357200D01*
X179862914Y-192285771D01*
X179862914Y-192428628D01*
X180434342Y-192785771D02*
X181220057Y-192785771D01*
X180434342Y-193785771D01*
X181220057Y-193785771D01*
X182362914Y-193714342D02*
X182220057Y-193785771D01*
X181934342Y-193785771D01*
X181791485Y-193714342D01*
X181720057Y-193571485D01*
X181720057Y-193000057D01*
X181791485Y-192857200D01*
X181934342Y-192785771D01*
X182220057Y-192785771D01*
X182362914Y-192857200D01*
X182434342Y-193000057D01*
X182434342Y-193142914D01*
X181720057Y-193285771D01*
X183077200Y-193642914D02*
X183148628Y-193714342D01*
X183077200Y-193785771D01*
X183005771Y-193714342D01*
X183077200Y-193642914D01*
X183077200Y-193785771D01*
X183077200Y-192857200D02*
X183148628Y-192928628D01*
X183077200Y-193000057D01*
X183005771Y-192928628D01*
X183077200Y-192857200D01*
X183077200Y-193000057D01*
X184862914Y-193357200D02*
X185577200Y-193357200D01*
X184720057Y-193785771D02*
X185220057Y-192285771D01*
X185720057Y-193785771D01*
X186862914Y-192785771D02*
X186862914Y-193785771D01*
X186505771Y-192214342D02*
X186148628Y-193285771D01*
X187077200Y-193285771D01*
D10*
D11*
X263434342Y-196585771D02*
X263434342Y-195085771D01*
X264791485Y-196585771D02*
X264791485Y-195085771D01*
X264791485Y-196514342D02*
X264648628Y-196585771D01*
X264362914Y-196585771D01*
X264220057Y-196514342D01*
X264148628Y-196442914D01*
X264077200Y-196300057D01*
X264077200Y-195871485D01*
X264148628Y-195728628D01*
X264220057Y-195657200D01*
X264362914Y-195585771D01*
X264648628Y-195585771D01*
X264791485Y-195657200D01*
X265505771Y-196442914D02*
X265577200Y-196514342D01*
X265505771Y-196585771D01*
X265434342Y-196514342D01*
X265505771Y-196442914D01*
X265505771Y-196585771D01*
X265505771Y-195657200D02*
X265577200Y-195728628D01*
X265505771Y-195800057D01*
X265434342Y-195728628D01*
X265505771Y-195657200D01*
X265505771Y-195800057D01*
X268148628Y-196585771D02*
X267291485Y-196585771D01*
X267720057Y-196585771D02*
X267720057Y-195085771D01*
X267577200Y-195300057D01*
X267434342Y-195442914D01*
X267291485Y-195514342D01*
X269862914Y-195014342D02*
X268577200Y-196942914D01*
X271148628Y-196585771D02*
X270291485Y-196585771D01*
X270720057Y-196585771D02*
X270720057Y-195085771D01*
X270577200Y-195300057D01*
X270434342Y-195442914D01*
X270291485Y-195514342D01*
D10*
D11*
X177002200Y-187507200D02*
X285002200Y-187507200D01*
D10*
D13*
X178714580Y-188211961D02*
X179857438Y-188211961D01*
X179036009Y-190211961D02*
X179286009Y-188211961D01*
X180274104Y-190211961D02*
X180440771Y-188878628D01*
X180524104Y-188211961D02*
X180416961Y-188307200D01*
X180500295Y-188402438D01*
X180607438Y-188307200D01*
X180524104Y-188211961D01*
X180500295Y-188402438D01*
X181107438Y-188878628D02*
X181869342Y-188878628D01*
X181476485Y-188211961D02*
X181262200Y-189926247D01*
X181333628Y-190116723D01*
X181512200Y-190211961D01*
X181702676Y-190211961D01*
X182655057Y-190211961D02*
X182476485Y-190116723D01*
X182405057Y-189926247D01*
X182619342Y-188211961D01*
X184190771Y-190116723D02*
X183988390Y-190211961D01*
X183607438Y-190211961D01*
X183428866Y-190116723D01*
X183357438Y-189926247D01*
X183452676Y-189164342D01*
X183571723Y-188973866D01*
X183774104Y-188878628D01*
X184155057Y-188878628D01*
X184333628Y-188973866D01*
X184405057Y-189164342D01*
X184381247Y-189354819D01*
X183405057Y-189545295D01*
X185155057Y-190021485D02*
X185238390Y-190116723D01*
X185131247Y-190211961D01*
X185047914Y-190116723D01*
X185155057Y-190021485D01*
X185131247Y-190211961D01*
X185286009Y-188973866D02*
X185369342Y-189069104D01*
X185262200Y-189164342D01*
X185178866Y-189069104D01*
X185286009Y-188973866D01*
X185262200Y-189164342D01*
D10*
D11*
X178934342Y-185600057D02*
X178434342Y-185600057D01*
X178434342Y-186385771D02*
X178434342Y-184885771D01*
X179148628Y-184885771D01*
X179720057Y-186385771D02*
X179720057Y-185385771D01*
X179720057Y-184885771D02*
X179648628Y-184957200D01*
X179720057Y-185028628D01*
X179791485Y-184957200D01*
X179720057Y-184885771D01*
X179720057Y-185028628D01*
X180648628Y-186385771D02*
X180505771Y-186314342D01*
X180434342Y-186171485D01*
X180434342Y-184885771D01*
X181791485Y-186314342D02*
X181648628Y-186385771D01*
X181362914Y-186385771D01*
X181220057Y-186314342D01*
X181148628Y-186171485D01*
X181148628Y-185600057D01*
X181220057Y-185457200D01*
X181362914Y-185385771D01*
X181648628Y-185385771D01*
X181791485Y-185457200D01*
X181862914Y-185600057D01*
X181862914Y-185742914D01*
X181148628Y-185885771D01*
X182505771Y-186242914D02*
X182577200Y-186314342D01*
X182505771Y-186385771D01*
X182434342Y-186314342D01*
X182505771Y-186242914D01*
X182505771Y-186385771D01*
X182505771Y-185457200D02*
X182577200Y-185528628D01*
X182505771Y-185600057D01*
X182434342Y-185528628D01*
X182505771Y-185457200D01*
X182505771Y-185600057D01*
X184362914Y-186385771D02*
X184362914Y-184885771D01*
X184934342Y-184885771D01*
X185077200Y-184957200D01*
X185148628Y-185028628D01*
X185220057Y-185171485D01*
X185220057Y-185385771D01*
X185148628Y-185528628D01*
X185077200Y-185600057D01*
X184934342Y-185671485D01*
X184362914Y-185671485D01*
X185862914Y-186385771D02*
X185862914Y-184885771D01*
X187434342Y-186242914D02*
X187362914Y-186314342D01*
X187148628Y-186385771D01*
X187005771Y-186385771D01*
X186791485Y-186314342D01*
X186648628Y-186171485D01*
X186577200Y-186028628D01*
X186505771Y-185742914D01*
X186505771Y-185528628D01*
X186577200Y-185242914D01*
X186648628Y-185100057D01*
X186791485Y-184957200D01*
X187005771Y-184885771D01*
X187148628Y-184885771D01*
X187362914Y-184957200D01*
X187434342Y-185028628D01*
X188862914Y-186385771D02*
X188005771Y-186385771D01*
X188434342Y-186385771D02*
X188434342Y-184885771D01*
X188291485Y-185100057D01*
X188148628Y-185242914D01*
X188005771Y-185314342D01*
X189720057Y-185528628D02*
X189577200Y-185457200D01*
X189505771Y-185385771D01*
X189434342Y-185242914D01*
X189434342Y-185171485D01*
X189505771Y-185028628D01*
X189577200Y-184957200D01*
X189720057Y-184885771D01*
X190005771Y-184885771D01*
X190148628Y-184957200D01*
X190220057Y-185028628D01*
X190291485Y-185171485D01*
X190291485Y-185242914D01*
X190220057Y-185385771D01*
X190148628Y-185457200D01*
X190005771Y-185528628D01*
X189720057Y-185528628D01*
X189577200Y-185600057D01*
X189505771Y-185671485D01*
X189434342Y-185814342D01*
X189434342Y-186100057D01*
X189505771Y-186242914D01*
X189577200Y-186314342D01*
X189720057Y-186385771D01*
X190005771Y-186385771D01*
X190148628Y-186314342D01*
X190220057Y-186242914D01*
X190291485Y-186100057D01*
X190291485Y-185814342D01*
X190220057Y-185671485D01*
X190148628Y-185600057D01*
X190005771Y-185528628D01*
X191434342Y-185600057D02*
X190934342Y-185600057D01*
X190934342Y-186385771D02*
X190934342Y-184885771D01*
X191648628Y-184885771D01*
X192862914Y-185385771D02*
X192862914Y-186385771D01*
X192505771Y-184814342D02*
X192148628Y-185885771D01*
X193077200Y-185885771D01*
X194362914Y-184885771D02*
X193648628Y-184885771D01*
X193577200Y-185600057D01*
X193648628Y-185528628D01*
X193791485Y-185457200D01*
X194148628Y-185457200D01*
X194291485Y-185528628D01*
X194362914Y-185600057D01*
X194434342Y-185742914D01*
X194434342Y-186100057D01*
X194362914Y-186242914D01*
X194291485Y-186314342D01*
X194148628Y-186385771D01*
X193791485Y-186385771D01*
X193648628Y-186314342D01*
X193577200Y-186242914D01*
X195077200Y-186385771D02*
X195077200Y-184885771D01*
X195934342Y-186385771D02*
X195291485Y-185528628D01*
X195934342Y-184885771D02*
X195077200Y-185742914D01*
X196505771Y-185028628D02*
X196577200Y-184957200D01*
X196720057Y-184885771D01*
X197077200Y-184885771D01*
X197220057Y-184957200D01*
X197291485Y-185028628D01*
X197362914Y-185171485D01*
X197362914Y-185314342D01*
X197291485Y-185528628D01*
X196434342Y-186385771D01*
X197362914Y-186385771D01*
X197934342Y-185028628D02*
X198005771Y-184957200D01*
X198148628Y-184885771D01*
X198505771Y-184885771D01*
X198648628Y-184957200D01*
X198720057Y-185028628D01*
X198791485Y-185171485D01*
X198791485Y-185314342D01*
X198720057Y-185528628D01*
X197862914Y-186385771D01*
X198791485Y-186385771D01*
X199077200Y-186528628D02*
X200220057Y-186528628D01*
X201434342Y-186242914D02*
X201362914Y-186314342D01*
X201148628Y-186385771D01*
X201005771Y-186385771D01*
X200791485Y-186314342D01*
X200648628Y-186171485D01*
X200577200Y-186028628D01*
X200505771Y-185742914D01*
X200505771Y-185528628D01*
X200577200Y-185242914D01*
X200648628Y-185100057D01*
X200791485Y-184957200D01*
X201005771Y-184885771D01*
X201148628Y-184885771D01*
X201362914Y-184957200D01*
X201434342Y-185028628D01*
X202077200Y-186385771D02*
X202077200Y-184885771D01*
X202648628Y-184885771D01*
X202791485Y-184957200D01*
X202862914Y-185028628D01*
X202934342Y-185171485D01*
X202934342Y-185385771D01*
X202862914Y-185528628D01*
X202791485Y-185600057D01*
X202648628Y-185671485D01*
X202077200Y-185671485D01*
X203577200Y-184885771D02*
X203577200Y-186100057D01*
X203648628Y-186242914D01*
X203720057Y-186314342D01*
X203862914Y-186385771D01*
X204148628Y-186385771D01*
X204291485Y-186314342D01*
X204362914Y-186242914D01*
X204434342Y-186100057D01*
X204434342Y-184885771D01*
X205648628Y-185600057D02*
X205862914Y-185671485D01*
X205934342Y-185742914D01*
X206005771Y-185885771D01*
X206005771Y-186100057D01*
X205934342Y-186242914D01*
X205862914Y-186314342D01*
X205720057Y-186385771D01*
X205148628Y-186385771D01*
X205148628Y-184885771D01*
X205648628Y-184885771D01*
X205791485Y-184957200D01*
X205862914Y-185028628D01*
X205934342Y-185171485D01*
X205934342Y-185314342D01*
X205862914Y-185457200D01*
X205791485Y-185528628D01*
X205648628Y-185600057D01*
X205148628Y-185600057D01*
X206934342Y-184885771D02*
X207220057Y-184885771D01*
X207362914Y-184957200D01*
X207505771Y-185100057D01*
X207577200Y-185385771D01*
X207577200Y-185885771D01*
X207505771Y-186171485D01*
X207362914Y-186314342D01*
X207220057Y-186385771D01*
X206934342Y-186385771D01*
X206791485Y-186314342D01*
X206648628Y-186171485D01*
X206577200Y-185885771D01*
X206577200Y-185385771D01*
X206648628Y-185100057D01*
X206791485Y-184957200D01*
X206934342Y-184885771D01*
X208148628Y-185957200D02*
X208862914Y-185957200D01*
X208005771Y-186385771D02*
X208505771Y-184885771D01*
X209005771Y-186385771D01*
X210362914Y-186385771D02*
X209862914Y-185671485D01*
X209505771Y-186385771D02*
X209505771Y-184885771D01*
X210077200Y-184885771D01*
X210220057Y-184957200D01*
X210291485Y-185028628D01*
X210362914Y-185171485D01*
X210362914Y-185385771D01*
X210291485Y-185528628D01*
X210220057Y-185600057D01*
X210077200Y-185671485D01*
X209505771Y-185671485D01*
X211005771Y-186385771D02*
X211005771Y-184885771D01*
X211362914Y-184885771D01*
X211577200Y-184957200D01*
X211720057Y-185100057D01*
X211791485Y-185242914D01*
X211862914Y-185528628D01*
X211862914Y-185742914D01*
X211791485Y-186028628D01*
X211720057Y-186171485D01*
X211577200Y-186314342D01*
X211362914Y-186385771D01*
X211005771Y-186385771D01*
X212148628Y-186528628D02*
X213291485Y-186528628D01*
X213434342Y-184885771D02*
X213934342Y-186385771D01*
X214434342Y-184885771D01*
X214862914Y-185028628D02*
X214934342Y-184957200D01*
X215077200Y-184885771D01*
X215434342Y-184885771D01*
X215577200Y-184957200D01*
X215648628Y-185028628D01*
X215720057Y-185171485D01*
X215720057Y-185314342D01*
X215648628Y-185528628D01*
X214791485Y-186385771D01*
X215720057Y-186385771D01*
X217148628Y-186385771D02*
X216291485Y-186385771D01*
X216720057Y-186385771D02*
X216720057Y-184885771D01*
X216577200Y-185100057D01*
X216434342Y-185242914D01*
X216291485Y-185314342D01*
X217791485Y-186242914D02*
X217862914Y-186314342D01*
X217791485Y-186385771D01*
X217720057Y-186314342D01*
X217791485Y-186242914D01*
X217791485Y-186385771D01*
X218505771Y-186385771D02*
X218505771Y-184885771D01*
X218648628Y-185814342D02*
X219077200Y-186385771D01*
X219077200Y-185385771D02*
X218505771Y-185957200D01*
X219720057Y-186385771D02*
X219720057Y-185385771D01*
X219720057Y-184885771D02*
X219648628Y-184957200D01*
X219720057Y-185028628D01*
X219791485Y-184957200D01*
X219720057Y-184885771D01*
X219720057Y-185028628D01*
X221077200Y-186314342D02*
X220934342Y-186385771D01*
X220648628Y-186385771D01*
X220505771Y-186314342D01*
X220434342Y-186242914D01*
X220362914Y-186100057D01*
X220362914Y-185671485D01*
X220434342Y-185528628D01*
X220505771Y-185457200D01*
X220648628Y-185385771D01*
X220934342Y-185385771D01*
X221077200Y-185457200D01*
X222362914Y-186385771D02*
X222362914Y-185600057D01*
X222291485Y-185457200D01*
X222148628Y-185385771D01*
X221862914Y-185385771D01*
X221720057Y-185457200D01*
X222362914Y-186314342D02*
X222220057Y-186385771D01*
X221862914Y-186385771D01*
X221720057Y-186314342D01*
X221648628Y-186171485D01*
X221648628Y-186028628D01*
X221720057Y-185885771D01*
X221862914Y-185814342D01*
X222220057Y-185814342D01*
X222362914Y-185742914D01*
X223720057Y-186385771D02*
X223720057Y-184885771D01*
X223720057Y-186314342D02*
X223577200Y-186385771D01*
X223291485Y-186385771D01*
X223148628Y-186314342D01*
X223077200Y-186242914D01*
X223005771Y-186100057D01*
X223005771Y-185671485D01*
X223077200Y-185528628D01*
X223148628Y-185457200D01*
X223291485Y-185385771D01*
X223577200Y-185385771D01*
X223720057Y-185457200D01*
X224077200Y-186528628D02*
X225220057Y-186528628D01*
X225577200Y-185385771D02*
X225577200Y-186885771D01*
X225577200Y-185457200D02*
X225720057Y-185385771D01*
X226005771Y-185385771D01*
X226148628Y-185457200D01*
X226220057Y-185528628D01*
X226291485Y-185671485D01*
X226291485Y-186100057D01*
X226220057Y-186242914D01*
X226148628Y-186314342D01*
X226005771Y-186385771D01*
X225720057Y-186385771D01*
X225577200Y-186314342D01*
X227577200Y-186314342D02*
X227434342Y-186385771D01*
X227148628Y-186385771D01*
X227005771Y-186314342D01*
X226934342Y-186242914D01*
X226862914Y-186100057D01*
X226862914Y-185671485D01*
X226934342Y-185528628D01*
X227005771Y-185457200D01*
X227148628Y-185385771D01*
X227434342Y-185385771D01*
X227577200Y-185457200D01*
X228220057Y-186385771D02*
X228220057Y-184885771D01*
X228220057Y-185457200D02*
X228362914Y-185385771D01*
X228648628Y-185385771D01*
X228791485Y-185457200D01*
X228862914Y-185528628D01*
X228934342Y-185671485D01*
X228934342Y-186100057D01*
X228862914Y-186242914D01*
X228791485Y-186314342D01*
X228648628Y-186385771D01*
X228362914Y-186385771D01*
X228220057Y-186314342D01*
D10*
D11*
X177002200Y-181507200D02*
X285002200Y-181507200D01*
D10*
D11*
X178362914Y-183614342D02*
X178577200Y-183685771D01*
X178934342Y-183685771D01*
X179077200Y-183614342D01*
X179148628Y-183542914D01*
X179220057Y-183400057D01*
X179220057Y-183257200D01*
X179148628Y-183114342D01*
X179077200Y-183042914D01*
X178934342Y-182971485D01*
X178648628Y-182900057D01*
X178505771Y-182828628D01*
X178434342Y-182757200D01*
X178362914Y-182614342D01*
X178362914Y-182471485D01*
X178434342Y-182328628D01*
X178505771Y-182257200D01*
X178648628Y-182185771D01*
X179005771Y-182185771D01*
X179220057Y-182257200D01*
X179862914Y-183685771D02*
X179862914Y-182185771D01*
X180505771Y-183685771D02*
X180505771Y-182900057D01*
X180434342Y-182757200D01*
X180291485Y-182685771D01*
X180077200Y-182685771D01*
X179934342Y-182757200D01*
X179862914Y-182828628D01*
X181791485Y-183614342D02*
X181648628Y-183685771D01*
X181362914Y-183685771D01*
X181220057Y-183614342D01*
X181148628Y-183471485D01*
X181148628Y-182900057D01*
X181220057Y-182757200D01*
X181362914Y-182685771D01*
X181648628Y-182685771D01*
X181791485Y-182757200D01*
X181862914Y-182900057D01*
X181862914Y-183042914D01*
X181148628Y-183185771D01*
X183077200Y-183614342D02*
X182934342Y-183685771D01*
X182648628Y-183685771D01*
X182505771Y-183614342D01*
X182434342Y-183471485D01*
X182434342Y-182900057D01*
X182505771Y-182757200D01*
X182648628Y-182685771D01*
X182934342Y-182685771D01*
X183077200Y-182757200D01*
X183148628Y-182900057D01*
X183148628Y-183042914D01*
X182434342Y-183185771D01*
X183577200Y-182685771D02*
X184148628Y-182685771D01*
X183791485Y-182185771D02*
X183791485Y-183471485D01*
X183862914Y-183614342D01*
X184005771Y-183685771D01*
X184148628Y-183685771D01*
X184648628Y-183542914D02*
X184720057Y-183614342D01*
X184648628Y-183685771D01*
X184577200Y-183614342D01*
X184648628Y-183542914D01*
X184648628Y-183685771D01*
X184648628Y-182757200D02*
X184720057Y-182828628D01*
X184648628Y-182900057D01*
X184577200Y-182828628D01*
X184648628Y-182757200D01*
X184648628Y-182900057D01*
D10*
D11*
X197002200Y-191507200D02*
X197002200Y-194507200D01*
D10*
D11*
X261002200Y-191507200D02*
X261002200Y-198007200D01*
D12*
X97477142Y-113471428D02*
X97548571Y-113400000D01*
X97691428Y-113328571D01*
X98048571Y-113328571D01*
X98191428Y-113400000D01*
X98262857Y-113471428D01*
X98334285Y-113614285D01*
X98334285Y-113757142D01*
X98262857Y-113971428D01*
X97405714Y-114828571D01*
X98334285Y-114828571D01*
X99762857Y-114828571D02*
X98905714Y-114828571D01*
X99334285Y-114828571D02*
X99334285Y-113328571D01*
X99191428Y-113542857D01*
X99048571Y-113685714D01*
X98905714Y-113757142D01*
X78117142Y-113391428D02*
X78188571Y-113320000D01*
X78331428Y-113248571D01*
X78688571Y-113248571D01*
X78831428Y-113320000D01*
X78902857Y-113391428D01*
X78974285Y-113534285D01*
X78974285Y-113677142D01*
X78902857Y-113891428D01*
X78045714Y-114748571D01*
X78974285Y-114748571D01*
X79902857Y-113248571D02*
X80045714Y-113248571D01*
X80188571Y-113320000D01*
X80260000Y-113391428D01*
X80331428Y-113534285D01*
X80402857Y-113820000D01*
X80402857Y-114177142D01*
X80331428Y-114462857D01*
X80260000Y-114605714D01*
X80188571Y-114677142D01*
X80045714Y-114748571D01*
X79902857Y-114748571D01*
X79760000Y-114677142D01*
X79688571Y-114605714D01*
X79617142Y-114462857D01*
X79545714Y-114177142D01*
X79545714Y-113820000D01*
X79617142Y-113534285D01*
X79688571Y-113391428D01*
X79760000Y-113320000D01*
X79902857Y-113248571D01*
X98131428Y-61128571D02*
X98131428Y-62128571D01*
X97774285Y-60557142D02*
X97417142Y-61628571D01*
X98345714Y-61628571D01*
X99202857Y-60628571D02*
X99345714Y-60628571D01*
X99488571Y-60700000D01*
X99560000Y-60771428D01*
X99631428Y-60914285D01*
X99702857Y-61200000D01*
X99702857Y-61557142D01*
X99631428Y-61842857D01*
X99560000Y-61985714D01*
X99488571Y-62057142D01*
X99345714Y-62128571D01*
X99202857Y-62128571D01*
X99060000Y-62057142D01*
X98988571Y-61985714D01*
X98917142Y-61842857D01*
X98845714Y-61557142D01*
X98845714Y-61200000D01*
X98917142Y-60914285D01*
X98988571Y-60771428D01*
X99060000Y-60700000D01*
X99202857Y-60628571D01*
X79188571Y-62808571D02*
X78331428Y-62808571D01*
X78760000Y-62808571D02*
X78760000Y-61308571D01*
X78617142Y-61522857D01*
X78474285Y-61665714D01*
X78331428Y-61737142D01*
D14*
X98042857Y-53804761D02*
X98042857Y-51804761D01*
X98804761Y-51804761D01*
X98995238Y-51900000D01*
X99090476Y-51995238D01*
X99185714Y-52185714D01*
X99185714Y-52471428D01*
X99090476Y-52661904D01*
X98995238Y-52757142D01*
X98804761Y-52852380D01*
X98042857Y-52852380D01*
X100042857Y-53804761D02*
X100042857Y-52471428D01*
X100042857Y-51804761D02*
X99947619Y-51900000D01*
X100042857Y-51995238D01*
X100138095Y-51900000D01*
X100042857Y-51804761D01*
X100042857Y-51995238D01*
X101852380Y-53709523D02*
X101661904Y-53804761D01*
X101280952Y-53804761D01*
X101090476Y-53709523D01*
X100995238Y-53614285D01*
X100900000Y-53423809D01*
X100900000Y-52852380D01*
X100995238Y-52661904D01*
X101090476Y-52566666D01*
X101280952Y-52471428D01*
X101661904Y-52471428D01*
X101852380Y-52566666D01*
X102709523Y-53804761D02*
X102709523Y-51804761D01*
X103852380Y-53804761D02*
X102995238Y-52661904D01*
X103852380Y-51804761D02*
X102709523Y-52947619D01*
X104709523Y-53804761D02*
X104709523Y-52471428D01*
X104709523Y-51804761D02*
X104614285Y-51900000D01*
X104709523Y-51995238D01*
X104804761Y-51900000D01*
X104709523Y-51804761D01*
X104709523Y-51995238D01*
X105376190Y-52471428D02*
X106138095Y-52471428D01*
X105661904Y-51804761D02*
X105661904Y-53519047D01*
X105757142Y-53709523D01*
X105947619Y-53804761D01*
X106138095Y-53804761D01*
X106614285Y-51804761D02*
X107852380Y-51804761D01*
X107185714Y-52566666D01*
X107471428Y-52566666D01*
X107661904Y-52661904D01*
X107757142Y-52757142D01*
X107852380Y-52947619D01*
X107852380Y-53423809D01*
X107757142Y-53614285D01*
X107661904Y-53709523D01*
X107471428Y-53804761D01*
X106900000Y-53804761D01*
X106709523Y-53709523D01*
X106614285Y-53614285D01*
D12*
X65871428Y-130678571D02*
X66157142Y-130678571D01*
X66300000Y-130750000D01*
X66442857Y-130892857D01*
X66514285Y-131178571D01*
X66514285Y-131678571D01*
X66442857Y-131964285D01*
X66300000Y-132107142D01*
X66157142Y-132178571D01*
X65871428Y-132178571D01*
X65728571Y-132107142D01*
X65585714Y-131964285D01*
X65514285Y-131678571D01*
X65514285Y-131178571D01*
X65585714Y-130892857D01*
X65728571Y-130750000D01*
X65871428Y-130678571D01*
X67657142Y-131392857D02*
X67157142Y-131392857D01*
X67157142Y-132178571D02*
X67157142Y-130678571D01*
X67871428Y-130678571D01*
X68942857Y-131392857D02*
X68442857Y-131392857D01*
X68442857Y-132178571D02*
X68442857Y-130678571D01*
X69157142Y-130678571D01*
X72071428Y-130778571D02*
X72357142Y-130778571D01*
X72500000Y-130850000D01*
X72642857Y-130992857D01*
X72714285Y-131278571D01*
X72714285Y-131778571D01*
X72642857Y-132064285D01*
X72500000Y-132207142D01*
X72357142Y-132278571D01*
X72071428Y-132278571D01*
X71928571Y-132207142D01*
X71785714Y-132064285D01*
X71714285Y-131778571D01*
X71714285Y-131278571D01*
X71785714Y-130992857D01*
X71928571Y-130850000D01*
X72071428Y-130778571D01*
X73357142Y-132278571D02*
X73357142Y-130778571D01*
X74214285Y-132278571D01*
X74214285Y-130778571D01*
D14*
X103513333Y-102389047D02*
X103465714Y-102436666D01*
X103322857Y-102531904D01*
X103227619Y-102579523D01*
X103084761Y-102627142D01*
X102846666Y-102674761D01*
X102656190Y-102674761D01*
X102418095Y-102627142D01*
X102275238Y-102579523D01*
X102180000Y-102531904D01*
X102037142Y-102436666D01*
X101989523Y-102389047D01*
X103084761Y-101579523D02*
X103132380Y-101674761D01*
X103132380Y-101865238D01*
X103084761Y-101960476D01*
X103037142Y-102008095D01*
X102941904Y-102055714D01*
X102656190Y-102055714D01*
X102560952Y-102008095D01*
X102513333Y-101960476D01*
X102465714Y-101865238D01*
X102465714Y-101674761D01*
X102513333Y-101579523D01*
X103513333Y-101246190D02*
X103465714Y-101198571D01*
X103322857Y-101103333D01*
X103227619Y-101055714D01*
X103084761Y-101008095D01*
X102846666Y-100960476D01*
X102656190Y-100960476D01*
X102418095Y-101008095D01*
X102275238Y-101055714D01*
X102180000Y-101103333D01*
X102037142Y-101198571D01*
X101989523Y-101246190D01*
X102132380Y-99436666D02*
X102846666Y-99436666D01*
X102989523Y-99484285D01*
X103084761Y-99579523D01*
X103132380Y-99722380D01*
X103132380Y-99817619D01*
X103084761Y-99008095D02*
X103132380Y-98865238D01*
X103132380Y-98627142D01*
X103084761Y-98531904D01*
X103037142Y-98484285D01*
X102941904Y-98436666D01*
X102846666Y-98436666D01*
X102751428Y-98484285D01*
X102703809Y-98531904D01*
X102656190Y-98627142D01*
X102608571Y-98817619D01*
X102560952Y-98912857D01*
X102513333Y-98960476D01*
X102418095Y-99008095D01*
X102322857Y-99008095D01*
X102227619Y-98960476D01*
X102180000Y-98912857D01*
X102132380Y-98817619D01*
X102132380Y-98579523D01*
X102180000Y-98436666D01*
X103132380Y-98008095D02*
X102132380Y-98008095D01*
X102132380Y-97770000D01*
X102180000Y-97627142D01*
X102275238Y-97531904D01*
X102370476Y-97484285D01*
X102560952Y-97436666D01*
X102703809Y-97436666D01*
X102894285Y-97484285D01*
X102989523Y-97531904D01*
X103084761Y-97627142D01*
X103132380Y-97770000D01*
X103132380Y-98008095D01*
X102227619Y-96293809D02*
X102180000Y-96246190D01*
X102132380Y-96150952D01*
X102132380Y-95912857D01*
X102180000Y-95817619D01*
X102227619Y-95770000D01*
X102322857Y-95722380D01*
X102418095Y-95722380D01*
X102560952Y-95770000D01*
X103132380Y-96341428D01*
X103132380Y-95722380D01*
X102132380Y-95103333D02*
X102132380Y-95008095D01*
X102180000Y-94912857D01*
X102227619Y-94865238D01*
X102322857Y-94817619D01*
X102513333Y-94770000D01*
X102751428Y-94770000D01*
X102941904Y-94817619D01*
X103037142Y-94865238D01*
X103084761Y-94912857D01*
X103132380Y-95008095D01*
X103132380Y-95103333D01*
X103084761Y-95198571D01*
X103037142Y-95246190D01*
X102941904Y-95293809D01*
X102751428Y-95341428D01*
X102513333Y-95341428D01*
X102322857Y-95293809D01*
X102227619Y-95246190D01*
X102180000Y-95198571D01*
X102132380Y-95103333D01*
X103132380Y-93817619D02*
X103132380Y-94389047D01*
X103132380Y-94103333D02*
X102132380Y-94103333D01*
X102275238Y-94198571D01*
X102370476Y-94293809D01*
X102418095Y-94389047D01*
X102132380Y-92960476D02*
X102132380Y-93150952D01*
X102180000Y-93246190D01*
X102227619Y-93293809D01*
X102370476Y-93389047D01*
X102560952Y-93436666D01*
X102941904Y-93436666D01*
X103037142Y-93389047D01*
X103084761Y-93341428D01*
X103132380Y-93246190D01*
X103132380Y-93055714D01*
X103084761Y-92960476D01*
X103037142Y-92912857D01*
X102941904Y-92865238D01*
X102703809Y-92865238D01*
X102608571Y-92912857D01*
X102560952Y-92960476D01*
X102513333Y-93055714D01*
X102513333Y-93246190D01*
X102560952Y-93341428D01*
X102608571Y-93389047D01*
X102703809Y-93436666D01*
X102751428Y-92436666D02*
X102751428Y-91674761D01*
X102227619Y-91246190D02*
X102180000Y-91198571D01*
X102132380Y-91103333D01*
X102132380Y-90865238D01*
X102180000Y-90770000D01*
X102227619Y-90722380D01*
X102322857Y-90674761D01*
X102418095Y-90674761D01*
X102560952Y-90722380D01*
X103132380Y-91293809D01*
X103132380Y-90674761D01*
X102132380Y-90055714D02*
X102132380Y-89960476D01*
X102180000Y-89865238D01*
X102227619Y-89817619D01*
X102322857Y-89770000D01*
X102513333Y-89722380D01*
X102751428Y-89722380D01*
X102941904Y-89770000D01*
X103037142Y-89817619D01*
X103084761Y-89865238D01*
X103132380Y-89960476D01*
X103132380Y-90055714D01*
X103084761Y-90150952D01*
X103037142Y-90198571D01*
X102941904Y-90246190D01*
X102751428Y-90293809D01*
X102513333Y-90293809D01*
X102322857Y-90246190D01*
X102227619Y-90198571D01*
X102180000Y-90150952D01*
X102132380Y-90055714D01*
X103132380Y-88770000D02*
X103132380Y-89341428D01*
X103132380Y-89055714D02*
X102132380Y-89055714D01*
X102275238Y-89150952D01*
X102370476Y-89246190D01*
X102418095Y-89341428D01*
X102132380Y-88436666D02*
X102132380Y-87770000D01*
X103132380Y-88198571D01*
D12*
X100525714Y-80162857D02*
X100597142Y-80234285D01*
X100668571Y-80448571D01*
X100668571Y-80591428D01*
X100597142Y-80805714D01*
X100454285Y-80948571D01*
X100311428Y-81020000D01*
X100025714Y-81091428D01*
X99811428Y-81091428D01*
X99525714Y-81020000D01*
X99382857Y-80948571D01*
X99240000Y-80805714D01*
X99168571Y-80591428D01*
X99168571Y-80448571D01*
X99240000Y-80234285D01*
X99311428Y-80162857D01*
X100668571Y-79520000D02*
X99168571Y-79520000D01*
X99168571Y-78948571D01*
X99240000Y-78805714D01*
X99311428Y-78734285D01*
X99454285Y-78662857D01*
X99668571Y-78662857D01*
X99811428Y-78734285D01*
X99882857Y-78805714D01*
X99954285Y-78948571D01*
X99954285Y-79520000D01*
X99168571Y-78020000D02*
X100382857Y-78020000D01*
X100525714Y-77948571D01*
X100597142Y-77877142D01*
X100668571Y-77734285D01*
X100668571Y-77448571D01*
X100597142Y-77305714D01*
X100525714Y-77234285D01*
X100382857Y-77162857D01*
X99168571Y-77162857D01*
X99882857Y-74805714D02*
X99954285Y-74591428D01*
X100025714Y-74520000D01*
X100168571Y-74448571D01*
X100382857Y-74448571D01*
X100525714Y-74520000D01*
X100597142Y-74591428D01*
X100668571Y-74734285D01*
X100668571Y-75305714D01*
X99168571Y-75305714D01*
X99168571Y-74805714D01*
X99240000Y-74662857D01*
X99311428Y-74591428D01*
X99454285Y-74520000D01*
X99597142Y-74520000D01*
X99740000Y-74591428D01*
X99811428Y-74662857D01*
X99882857Y-74805714D01*
X99882857Y-75305714D01*
X100668571Y-73591428D02*
X100597142Y-73734285D01*
X100525714Y-73805714D01*
X100382857Y-73877142D01*
X99954285Y-73877142D01*
X99811428Y-73805714D01*
X99740000Y-73734285D01*
X99668571Y-73591428D01*
X99668571Y-73377142D01*
X99740000Y-73234285D01*
X99811428Y-73162857D01*
X99954285Y-73091428D01*
X100382857Y-73091428D01*
X100525714Y-73162857D01*
X100597142Y-73234285D01*
X100668571Y-73377142D01*
X100668571Y-73591428D01*
X100668571Y-71805714D02*
X99882857Y-71805714D01*
X99740000Y-71877142D01*
X99668571Y-72020000D01*
X99668571Y-72305714D01*
X99740000Y-72448571D01*
X100597142Y-71805714D02*
X100668571Y-71948571D01*
X100668571Y-72305714D01*
X100597142Y-72448571D01*
X100454285Y-72520000D01*
X100311428Y-72520000D01*
X100168571Y-72448571D01*
X100097142Y-72305714D01*
X100097142Y-71948571D01*
X100025714Y-71805714D01*
X100668571Y-71091428D02*
X99668571Y-71091428D01*
X99954285Y-71091428D02*
X99811428Y-71020000D01*
X99740000Y-70948571D01*
X99668571Y-70805714D01*
X99668571Y-70662857D01*
X100668571Y-69520000D02*
X99168571Y-69520000D01*
X100597142Y-69520000D02*
X100668571Y-69662857D01*
X100668571Y-69948571D01*
X100597142Y-70091428D01*
X100525714Y-70162857D01*
X100382857Y-70234285D01*
X99954285Y-70234285D01*
X99811428Y-70162857D01*
X99740000Y-70091428D01*
X99668571Y-69948571D01*
X99668571Y-69662857D01*
X99740000Y-69520000D01*
X99168571Y-67877142D02*
X100668571Y-67377142D01*
X99168571Y-66877142D01*
X99311428Y-66448571D02*
X99240000Y-66377142D01*
X99168571Y-66234285D01*
X99168571Y-65877142D01*
X99240000Y-65734285D01*
X99311428Y-65662857D01*
X99454285Y-65591428D01*
X99597142Y-65591428D01*
X99811428Y-65662857D01*
X100668571Y-66520000D01*
X100668571Y-65591428D01*
X100525714Y-64948571D02*
X100597142Y-64877142D01*
X100668571Y-64948571D01*
X100597142Y-65020000D01*
X100525714Y-64948571D01*
X100668571Y-64948571D01*
X100668571Y-63448571D02*
X100668571Y-64305714D01*
X100668571Y-63877142D02*
X99168571Y-63877142D01*
X99382857Y-64020000D01*
X99525714Y-64162857D01*
X99597142Y-64305714D01*
X100738571Y-103178571D02*
X99238571Y-103178571D01*
X99238571Y-102607142D01*
X99310000Y-102464285D01*
X99381428Y-102392857D01*
X99524285Y-102321428D01*
X99738571Y-102321428D01*
X99881428Y-102392857D01*
X99952857Y-102464285D01*
X100024285Y-102607142D01*
X100024285Y-103178571D01*
X100738571Y-101678571D02*
X99238571Y-101678571D01*
X100595714Y-100107142D02*
X100667142Y-100178571D01*
X100738571Y-100392857D01*
X100738571Y-100535714D01*
X100667142Y-100750000D01*
X100524285Y-100892857D01*
X100381428Y-100964285D01*
X100095714Y-101035714D01*
X99881428Y-101035714D01*
X99595714Y-100964285D01*
X99452857Y-100892857D01*
X99310000Y-100750000D01*
X99238571Y-100535714D01*
X99238571Y-100392857D01*
X99310000Y-100178571D01*
X99381428Y-100107142D01*
X100738571Y-98678571D02*
X100738571Y-99535714D01*
X100738571Y-99107142D02*
X99238571Y-99107142D01*
X99452857Y-99250000D01*
X99595714Y-99392857D01*
X99667142Y-99535714D01*
X99881428Y-97821428D02*
X99810000Y-97964285D01*
X99738571Y-98035714D01*
X99595714Y-98107142D01*
X99524285Y-98107142D01*
X99381428Y-98035714D01*
X99310000Y-97964285D01*
X99238571Y-97821428D01*
X99238571Y-97535714D01*
X99310000Y-97392857D01*
X99381428Y-97321428D01*
X99524285Y-97250000D01*
X99595714Y-97250000D01*
X99738571Y-97321428D01*
X99810000Y-97392857D01*
X99881428Y-97535714D01*
X99881428Y-97821428D01*
X99952857Y-97964285D01*
X100024285Y-98035714D01*
X100167142Y-98107142D01*
X100452857Y-98107142D01*
X100595714Y-98035714D01*
X100667142Y-97964285D01*
X100738571Y-97821428D01*
X100738571Y-97535714D01*
X100667142Y-97392857D01*
X100595714Y-97321428D01*
X100452857Y-97250000D01*
X100167142Y-97250000D01*
X100024285Y-97321428D01*
X99952857Y-97392857D01*
X99881428Y-97535714D01*
X99952857Y-96107142D02*
X99952857Y-96607142D01*
X100738571Y-96607142D02*
X99238571Y-96607142D01*
X99238571Y-95892857D01*
X99738571Y-94678571D02*
X100738571Y-94678571D01*
X99167142Y-95035714D02*
X100238571Y-95392857D01*
X100238571Y-94464285D01*
X99238571Y-93178571D02*
X99238571Y-93892857D01*
X99952857Y-93964285D01*
X99881428Y-93892857D01*
X99810000Y-93750000D01*
X99810000Y-93392857D01*
X99881428Y-93250000D01*
X99952857Y-93178571D01*
X100095714Y-93107142D01*
X100452857Y-93107142D01*
X100595714Y-93178571D01*
X100667142Y-93250000D01*
X100738571Y-93392857D01*
X100738571Y-93750000D01*
X100667142Y-93892857D01*
X100595714Y-93964285D01*
X100738571Y-92464285D02*
X99238571Y-92464285D01*
X100738571Y-91607142D02*
X99881428Y-92250000D01*
X99238571Y-91607142D02*
X100095714Y-92464285D01*
X99381428Y-91035714D02*
X99310000Y-90964285D01*
X99238571Y-90821428D01*
X99238571Y-90464285D01*
X99310000Y-90321428D01*
X99381428Y-90250000D01*
X99524285Y-90178571D01*
X99667142Y-90178571D01*
X99881428Y-90250000D01*
X100738571Y-91107142D01*
X100738571Y-90178571D01*
X99381428Y-89607142D02*
X99310000Y-89535714D01*
X99238571Y-89392857D01*
X99238571Y-89035714D01*
X99310000Y-88892857D01*
X99381428Y-88821428D01*
X99524285Y-88750000D01*
X99667142Y-88750000D01*
X99881428Y-88821428D01*
X100738571Y-89678571D01*
X100738571Y-88750000D01*
D11*
X56800000Y-61300000D02*
X52600000Y-61300000D01*
X52600000Y-61300000D02*
X52600000Y-76700000D01*
X52600000Y-76700000D02*
X56800000Y-76700000D01*
X56800000Y-76700000D02*
X56800000Y-61300000D01*
X55000000Y-61300000D02*
X55000000Y-61800000D01*
X55000000Y-61800000D02*
X56300000Y-61800000D01*
X56300000Y-61800000D02*
X56300000Y-76200000D01*
X56300000Y-76200000D02*
X55000000Y-76200000D01*
X55000000Y-76200000D02*
X55000000Y-76700000D01*
X54100000Y-61300000D02*
X54100000Y-62300000D01*
X54100000Y-62300000D02*
X52600000Y-62300000D01*
X54100000Y-76700000D02*
X54100000Y-75700000D01*
X54100000Y-75700000D02*
X52600000Y-75700000D01*
X52250000Y-64000000D02*
X51650000Y-63700000D01*
X51650000Y-63700000D02*
X51650000Y-64300000D01*
X51650000Y-64300000D02*
X52250000Y-64000000D01*
X68699000Y-59686000D02*
X68699000Y-59886000D01*
X68699000Y-62280000D02*
X68699000Y-62100000D01*
X65471256Y-61969643D02*
G75*
G03X68699000Y-62286000I1727744J1003643D01*
G01*
X66146994Y-62099068D02*
G75*
G03X68250000Y-62100000I1052006J1133068D01*
G01*
X68686220Y-59659274D02*
G75*
G03X65449000Y-60006000I-1497220J-1306726D01*
G01*
X68212889Y-59886747D02*
G75*
G03X66165000Y-59906000I-1013889J-1079253D01*
G01*
X68699000Y-63686000D02*
X68699000Y-63886000D01*
X68699000Y-66280000D02*
X68699000Y-66100000D01*
X65471256Y-65969643D02*
G75*
G03X68699000Y-66286000I1727744J1003643D01*
G01*
X66146994Y-66099068D02*
G75*
G03X68250000Y-66100000I1052006J1133068D01*
G01*
X68686220Y-63659274D02*
G75*
G03X65449000Y-64006000I-1497220J-1306726D01*
G01*
X68212889Y-63886747D02*
G75*
G03X66165000Y-63906000I-1013889J-1079253D01*
G01*
X68699000Y-71286000D02*
X68699000Y-71486000D01*
X68699000Y-73880000D02*
X68699000Y-73700000D01*
X65471256Y-73569643D02*
G75*
G03X68699000Y-73886000I1727744J1003643D01*
G01*
X66146994Y-73699068D02*
G75*
G03X68250000Y-73700000I1052006J1133068D01*
G01*
X68686220Y-71259274D02*
G75*
G03X65449000Y-71606000I-1497220J-1306726D01*
G01*
X68212889Y-71486747D02*
G75*
G03X66165000Y-71506000I-1013889J-1079253D01*
G01*
X68699000Y-75186000D02*
X68699000Y-75386000D01*
X68699000Y-77780000D02*
X68699000Y-77600000D01*
X65471256Y-77469643D02*
G75*
G03X68699000Y-77786000I1727744J1003643D01*
G01*
X66146994Y-77599068D02*
G75*
G03X68250000Y-77600000I1052006J1133068D01*
G01*
X68686220Y-75159274D02*
G75*
G03X65449000Y-75506000I-1497220J-1306726D01*
G01*
X68212889Y-75386747D02*
G75*
G03X66165000Y-75406000I-1013889J-1079253D01*
G01*
X68699000Y-79086000D02*
X68699000Y-79286000D01*
X68699000Y-81680000D02*
X68699000Y-81500000D01*
X65471256Y-81369643D02*
G75*
G03X68699000Y-81686000I1727744J1003643D01*
G01*
X66146994Y-81499068D02*
G75*
G03X68250000Y-81500000I1052006J1133068D01*
G01*
X68686220Y-79059274D02*
G75*
G03X65449000Y-79406000I-1497220J-1306726D01*
G01*
X68212889Y-79286747D02*
G75*
G03X66165000Y-79306000I-1013889J-1079253D01*
G01*
X68699000Y-83086000D02*
X68699000Y-83286000D01*
X68699000Y-85680000D02*
X68699000Y-85500000D01*
X65471256Y-85369643D02*
G75*
G03X68699000Y-85686000I1727744J1003643D01*
G01*
X66146994Y-85499068D02*
G75*
G03X68250000Y-85500000I1052006J1133068D01*
G01*
X68686220Y-83059274D02*
G75*
G03X65449000Y-83406000I-1497220J-1306726D01*
G01*
X68212889Y-83286747D02*
G75*
G03X66165000Y-83306000I-1013889J-1079253D01*
G01*
X68699000Y-87086000D02*
X68699000Y-87286000D01*
X68699000Y-89680000D02*
X68699000Y-89500000D01*
X65471256Y-89369643D02*
G75*
G03X68699000Y-89686000I1727744J1003643D01*
G01*
X66146994Y-89499068D02*
G75*
G03X68250000Y-89500000I1052006J1133068D01*
G01*
X68686220Y-87059274D02*
G75*
G03X65449000Y-87406000I-1497220J-1306726D01*
G01*
X68212889Y-87286747D02*
G75*
G03X66165000Y-87306000I-1013889J-1079253D01*
G01*
X113599000Y-57086000D02*
X113599000Y-57286000D01*
X113599000Y-59680000D02*
X113599000Y-59500000D01*
X110371256Y-59369643D02*
G75*
G03X113599000Y-59686000I1727744J1003643D01*
G01*
X111046994Y-59499068D02*
G75*
G03X113150000Y-59500000I1052006J1133068D01*
G01*
X113586220Y-57059274D02*
G75*
G03X110349000Y-57406000I-1497220J-1306726D01*
G01*
X113112889Y-57286747D02*
G75*
G03X111065000Y-57306000I-1013889J-1079253D01*
G01*
X113699000Y-53186000D02*
X113699000Y-53386000D01*
X113699000Y-55780000D02*
X113699000Y-55600000D01*
X110471256Y-55469643D02*
G75*
G03X113699000Y-55786000I1727744J1003643D01*
G01*
X111146994Y-55599068D02*
G75*
G03X113250000Y-55600000I1052006J1133068D01*
G01*
X113686220Y-53159274D02*
G75*
G03X110449000Y-53506000I-1497220J-1306726D01*
G01*
X113212889Y-53386747D02*
G75*
G03X111165000Y-53406000I-1013889J-1079253D01*
G01*
X68699000Y-91186000D02*
X68699000Y-91386000D01*
X68699000Y-93780000D02*
X68699000Y-93600000D01*
X65471256Y-93469643D02*
G75*
G03X68699000Y-93786000I1727744J1003643D01*
G01*
X66146994Y-93599068D02*
G75*
G03X68250000Y-93600000I1052006J1133068D01*
G01*
X68686220Y-91159274D02*
G75*
G03X65449000Y-91506000I-1497220J-1306726D01*
G01*
X68212889Y-91386747D02*
G75*
G03X66165000Y-91406000I-1013889J-1079253D01*
G01*
X68699000Y-95086000D02*
X68699000Y-95286000D01*
X68699000Y-97680000D02*
X68699000Y-97500000D01*
X65471256Y-97369643D02*
G75*
G03X68699000Y-97686000I1727744J1003643D01*
G01*
X66146994Y-97499068D02*
G75*
G03X68250000Y-97500000I1052006J1133068D01*
G01*
X68686220Y-95059274D02*
G75*
G03X65449000Y-95406000I-1497220J-1306726D01*
G01*
X68212889Y-95286747D02*
G75*
G03X66165000Y-95306000I-1013889J-1079253D01*
G01*
X68699000Y-99086000D02*
X68699000Y-99286000D01*
X68699000Y-101680000D02*
X68699000Y-101500000D01*
X65471256Y-101369643D02*
G75*
G03X68699000Y-101686000I1727744J1003643D01*
G01*
X66146994Y-101499068D02*
G75*
G03X68250000Y-101500000I1052006J1133068D01*
G01*
X68686220Y-99059274D02*
G75*
G03X65449000Y-99406000I-1497220J-1306726D01*
G01*
X68212889Y-99286747D02*
G75*
G03X66165000Y-99306000I-1013889J-1079253D01*
G01*
X68699000Y-103086000D02*
X68699000Y-103286000D01*
X68699000Y-105680000D02*
X68699000Y-105500000D01*
X65471256Y-105369643D02*
G75*
G03X68699000Y-105686000I1727744J1003643D01*
G01*
X66146994Y-105499068D02*
G75*
G03X68250000Y-105500000I1052006J1133068D01*
G01*
X68686220Y-103059274D02*
G75*
G03X65449000Y-103406000I-1497220J-1306726D01*
G01*
X68212889Y-103286747D02*
G75*
G03X66165000Y-103306000I-1013889J-1079253D01*
G01*
X113799000Y-87686000D02*
X113799000Y-87886000D01*
X113799000Y-90280000D02*
X113799000Y-90100000D01*
X110571256Y-89969643D02*
G75*
G03X113799000Y-90286000I1727744J1003643D01*
G01*
X111246994Y-90099068D02*
G75*
G03X113350000Y-90100000I1052006J1133068D01*
G01*
X113786220Y-87659274D02*
G75*
G03X110549000Y-88006000I-1497220J-1306726D01*
G01*
X113312889Y-87886747D02*
G75*
G03X111265000Y-87906000I-1013889J-1079253D01*
G01*
X113799000Y-91686000D02*
X113799000Y-91886000D01*
X113799000Y-94280000D02*
X113799000Y-94100000D01*
X110571256Y-93969643D02*
G75*
G03X113799000Y-94286000I1727744J1003643D01*
G01*
X111246994Y-94099068D02*
G75*
G03X113350000Y-94100000I1052006J1133068D01*
G01*
X113786220Y-91659274D02*
G75*
G03X110549000Y-92006000I-1497220J-1306726D01*
G01*
X113312889Y-91886747D02*
G75*
G03X111265000Y-91906000I-1013889J-1079253D01*
G01*
X113799000Y-95786000D02*
X113799000Y-95986000D01*
X113799000Y-98380000D02*
X113799000Y-98200000D01*
X110571256Y-98069643D02*
G75*
G03X113799000Y-98386000I1727744J1003643D01*
G01*
X111246994Y-98199068D02*
G75*
G03X113350000Y-98200000I1052006J1133068D01*
G01*
X113786220Y-95759274D02*
G75*
G03X110549000Y-96106000I-1497220J-1306726D01*
G01*
X113312889Y-95986747D02*
G75*
G03X111265000Y-96006000I-1013889J-1079253D01*
G01*
X113799000Y-99686000D02*
X113799000Y-99886000D01*
X113799000Y-102280000D02*
X113799000Y-102100000D01*
X110571256Y-101969643D02*
G75*
G03X113799000Y-102286000I1727744J1003643D01*
G01*
X111246994Y-102099068D02*
G75*
G03X113350000Y-102100000I1052006J1133068D01*
G01*
X113786220Y-99659274D02*
G75*
G03X110549000Y-100006000I-1497220J-1306726D01*
G01*
X113312889Y-99886747D02*
G75*
G03X111265000Y-99906000I-1013889J-1079253D01*
G01*
X113799000Y-103786000D02*
X113799000Y-103986000D01*
X113799000Y-106380000D02*
X113799000Y-106200000D01*
X110571256Y-106069643D02*
G75*
G03X113799000Y-106386000I1727744J1003643D01*
G01*
X111246994Y-106199068D02*
G75*
G03X113350000Y-106200000I1052006J1133068D01*
G01*
X113786220Y-103759274D02*
G75*
G03X110549000Y-104106000I-1497220J-1306726D01*
G01*
X113312889Y-103986747D02*
G75*
G03X111265000Y-104006000I-1013889J-1079253D01*
G01*
X113799000Y-107786000D02*
X113799000Y-107986000D01*
X113799000Y-110380000D02*
X113799000Y-110200000D01*
X110571256Y-110069643D02*
G75*
G03X113799000Y-110386000I1727744J1003643D01*
G01*
X111246994Y-110199068D02*
G75*
G03X113350000Y-110200000I1052006J1133068D01*
G01*
X113786220Y-107759274D02*
G75*
G03X110549000Y-108106000I-1497220J-1306726D01*
G01*
X113312889Y-107986747D02*
G75*
G03X111265000Y-108006000I-1013889J-1079253D01*
G01*
X113799000Y-111786000D02*
X113799000Y-111986000D01*
X113799000Y-114380000D02*
X113799000Y-114200000D01*
X110571256Y-114069643D02*
G75*
G03X113799000Y-114386000I1727744J1003643D01*
G01*
X111246994Y-114199068D02*
G75*
G03X113350000Y-114200000I1052006J1133068D01*
G01*
X113786220Y-111759274D02*
G75*
G03X110549000Y-112106000I-1497220J-1306726D01*
G01*
X113312889Y-111986747D02*
G75*
G03X111265000Y-112006000I-1013889J-1079253D01*
G01*
X113799000Y-115786000D02*
X113799000Y-115986000D01*
X113799000Y-118380000D02*
X113799000Y-118200000D01*
X110571256Y-118069643D02*
G75*
G03X113799000Y-118386000I1727744J1003643D01*
G01*
X111246994Y-118199068D02*
G75*
G03X113350000Y-118200000I1052006J1133068D01*
G01*
X113786220Y-115759274D02*
G75*
G03X110549000Y-116106000I-1497220J-1306726D01*
G01*
X113312889Y-115986747D02*
G75*
G03X111265000Y-116006000I-1013889J-1079253D01*
G01*
X68699000Y-107086000D02*
X68699000Y-107286000D01*
X68699000Y-109680000D02*
X68699000Y-109500000D01*
X65471256Y-109369643D02*
G75*
G03X68699000Y-109686000I1727744J1003643D01*
G01*
X66146994Y-109499068D02*
G75*
G03X68250000Y-109500000I1052006J1133068D01*
G01*
X68686220Y-107059274D02*
G75*
G03X65449000Y-107406000I-1497220J-1306726D01*
G01*
X68212889Y-107286747D02*
G75*
G03X66165000Y-107306000I-1013889J-1079253D01*
G01*
X113799000Y-77186000D02*
X113799000Y-77386000D01*
X113799000Y-79780000D02*
X113799000Y-79600000D01*
X110571256Y-79469643D02*
G75*
G03X113799000Y-79786000I1727744J1003643D01*
G01*
X111246994Y-79599068D02*
G75*
G03X113350000Y-79600000I1052006J1133068D01*
G01*
X113786220Y-77159274D02*
G75*
G03X110549000Y-77506000I-1497220J-1306726D01*
G01*
X113312889Y-77386747D02*
G75*
G03X111265000Y-77406000I-1013889J-1079253D01*
G01*
X113699000Y-69186000D02*
X113699000Y-69386000D01*
X113699000Y-71780000D02*
X113699000Y-71600000D01*
X110471256Y-71469643D02*
G75*
G03X113699000Y-71786000I1727744J1003643D01*
G01*
X111146994Y-71599068D02*
G75*
G03X113250000Y-71600000I1052006J1133068D01*
G01*
X113686220Y-69159274D02*
G75*
G03X110449000Y-69506000I-1497220J-1306726D01*
G01*
X113212889Y-69386747D02*
G75*
G03X111165000Y-69406000I-1013889J-1079253D01*
G01*
X68699000Y-110986000D02*
X68699000Y-111186000D01*
X68699000Y-113580000D02*
X68699000Y-113400000D01*
X65471256Y-113269643D02*
G75*
G03X68699000Y-113586000I1727744J1003643D01*
G01*
X66146994Y-113399068D02*
G75*
G03X68250000Y-113400000I1052006J1133068D01*
G01*
X68686220Y-110959274D02*
G75*
G03X65449000Y-111306000I-1497220J-1306726D01*
G01*
X68212889Y-111186747D02*
G75*
G03X66165000Y-111206000I-1013889J-1079253D01*
G01*
X119899000Y-120386000D02*
X119899000Y-120586000D01*
X119899000Y-122980000D02*
X119899000Y-122800000D01*
X116671256Y-122669643D02*
G75*
G03X119899000Y-122986000I1727744J1003643D01*
G01*
X117346994Y-122799068D02*
G75*
G03X119450000Y-122800000I1052006J1133068D01*
G01*
X119886220Y-120359274D02*
G75*
G03X116649000Y-120706000I-1497220J-1306726D01*
G01*
X119412889Y-120586747D02*
G75*
G03X117365000Y-120606000I-1013889J-1079253D01*
G01*
X113799000Y-81186000D02*
X113799000Y-81386000D01*
X113799000Y-83780000D02*
X113799000Y-83600000D01*
X110571256Y-83469643D02*
G75*
G03X113799000Y-83786000I1727744J1003643D01*
G01*
X111246994Y-83599068D02*
G75*
G03X113350000Y-83600000I1052006J1133068D01*
G01*
X113786220Y-81159274D02*
G75*
G03X110549000Y-81506000I-1497220J-1306726D01*
G01*
X113312889Y-81386747D02*
G75*
G03X111265000Y-81406000I-1013889J-1079253D01*
G01*
X113699000Y-65186000D02*
X113699000Y-65386000D01*
X113699000Y-67780000D02*
X113699000Y-67600000D01*
X110471256Y-67469643D02*
G75*
G03X113699000Y-67786000I1727744J1003643D01*
G01*
X111146994Y-67599068D02*
G75*
G03X113250000Y-67600000I1052006J1133068D01*
G01*
X113686220Y-65159274D02*
G75*
G03X110449000Y-65506000I-1497220J-1306726D01*
G01*
X113212889Y-65386747D02*
G75*
G03X111165000Y-65406000I-1013889J-1079253D01*
G01*
X113699000Y-61186000D02*
X113699000Y-61386000D01*
X113699000Y-63780000D02*
X113699000Y-63600000D01*
X110471256Y-63469643D02*
G75*
G03X113699000Y-63786000I1727744J1003643D01*
G01*
X111146994Y-63599068D02*
G75*
G03X113250000Y-63600000I1052006J1133068D01*
G01*
X113686220Y-61159274D02*
G75*
G03X110449000Y-61506000I-1497220J-1306726D01*
G01*
X113212889Y-61386747D02*
G75*
G03X111165000Y-61406000I-1013889J-1079253D01*
G01*
X113799000Y-73186000D02*
X113799000Y-73386000D01*
X113799000Y-75780000D02*
X113799000Y-75600000D01*
X110571256Y-75469643D02*
G75*
G03X113799000Y-75786000I1727744J1003643D01*
G01*
X111246994Y-75599068D02*
G75*
G03X113350000Y-75600000I1052006J1133068D01*
G01*
X113786220Y-73159274D02*
G75*
G03X110549000Y-73506000I-1497220J-1306726D01*
G01*
X113312889Y-73386747D02*
G75*
G03X111265000Y-73406000I-1013889J-1079253D01*
G01*
X68699000Y-55686000D02*
X68699000Y-55886000D01*
X68699000Y-58280000D02*
X68699000Y-58100000D01*
X65471256Y-57969643D02*
G75*
G03X68699000Y-58286000I1727744J1003643D01*
G01*
X66146994Y-58099068D02*
G75*
G03X68250000Y-58100000I1052006J1133068D01*
G01*
X68686220Y-55659274D02*
G75*
G03X65449000Y-56006000I-1497220J-1306726D01*
G01*
X68212889Y-55886747D02*
G75*
G03X66165000Y-55906000I-1013889J-1079253D01*
G01*
X94175000Y-122500000D02*
X95200000Y-122500000D01*
X94175000Y-127200000D02*
X95200000Y-127200000D01*
X101925000Y-122500000D02*
X102950000Y-122500000D01*
X101975000Y-122475000D02*
X101950000Y-122475000D01*
X101925000Y-127200000D02*
X102950000Y-127200000D01*
X102975000Y-122525000D02*
X102975000Y-127175000D01*
X94175000Y-122525000D02*
X94175000Y-127175000D01*
X101950000Y-122475000D02*
X101950000Y-121400000D01*
X57430760Y-118720000D02*
G75*
G03X57430760Y-118720000I-1000760J0D01*
G01*
X62730000Y-118720000D02*
G75*
G03X62730000Y-118720000I-6300000J0D01*
G01*
X107970000Y-114830000D02*
X105430000Y-114830000D01*
X105430000Y-114830000D02*
X105430000Y-91970000D01*
X105430000Y-91970000D02*
X107970000Y-91970000D01*
X107970000Y-114830000D02*
X107970000Y-91970000D01*
X107970000Y-94510000D02*
X105430000Y-94510000D01*
X105630000Y-59170000D02*
X108170000Y-59170000D01*
X108170000Y-59170000D02*
X108170000Y-82030000D01*
X108170000Y-82030000D02*
X105630000Y-82030000D01*
X105630000Y-59170000D02*
X105630000Y-82030000D01*
X105630000Y-79490000D02*
X108170000Y-79490000D01*
X71730000Y-96430000D02*
X71730000Y-98970000D01*
X74270000Y-96430000D02*
X74270000Y-98970000D01*
X74270000Y-96430000D02*
X71730000Y-96430000D01*
X74270000Y-98970000D02*
X71730000Y-98970000D01*
X71730000Y-96430000D02*
X71730000Y-73570000D01*
X71730000Y-73570000D02*
X74270000Y-73570000D01*
X74270000Y-96430000D02*
X74270000Y-73570000D01*
X74270000Y-76110000D02*
X71730000Y-76110000D01*
X71730000Y-66770000D02*
X71730000Y-54070000D01*
X74270000Y-54070000D02*
X74270000Y-66770000D01*
X74270000Y-66770000D02*
X71730000Y-66770000D01*
X71730000Y-54070000D02*
X74270000Y-54070000D01*
X74270000Y-56610000D02*
X71730000Y-56610000D01*
X71730000Y-117310000D02*
X71730000Y-102070000D01*
X74270000Y-102070000D02*
X74270000Y-117310000D01*
X74270000Y-117310000D02*
X74016000Y-117310000D01*
X74270000Y-117310000D02*
X71730000Y-117310000D01*
X74270000Y-114770000D02*
X71730000Y-114770000D01*
X71730000Y-102070000D02*
X74270000Y-102070000D01*
X74270000Y-104610000D02*
X71730000Y-104610000D01*
X120180000Y-81080000D02*
X120180000Y-60760000D01*
X120730000Y-80540000D02*
X120730000Y-61320000D01*
X129280000Y-81080000D02*
X129280000Y-60760000D01*
X128730000Y-80540000D02*
X128730000Y-73170000D01*
X128730000Y-68670000D02*
X128730000Y-61320000D01*
X128730000Y-73170000D02*
X129280000Y-73170000D01*
X128730000Y-68670000D02*
X129280000Y-68670000D01*
X120180000Y-81080000D02*
X129280000Y-81080000D01*
X120730000Y-80540000D02*
X128730000Y-80540000D01*
X120180000Y-60760000D02*
X129280000Y-60760000D01*
X120730000Y-61320000D02*
X128730000Y-61320000D01*
X120180000Y-81080000D02*
X120730000Y-80540000D01*
X120180000Y-60760000D02*
X120730000Y-61320000D01*
X129280000Y-81080000D02*
X128730000Y-80540000D01*
X129280000Y-60760000D02*
X128730000Y-61320000D01*
X120180000Y-112080000D02*
X120180000Y-91760000D01*
X120730000Y-111540000D02*
X120730000Y-92320000D01*
X129280000Y-112080000D02*
X129280000Y-91760000D01*
X128730000Y-111540000D02*
X128730000Y-104170000D01*
X128730000Y-99670000D02*
X128730000Y-92320000D01*
X128730000Y-104170000D02*
X129280000Y-104170000D01*
X128730000Y-99670000D02*
X129280000Y-99670000D01*
X120180000Y-112080000D02*
X129280000Y-112080000D01*
X120730000Y-111540000D02*
X128730000Y-111540000D01*
X120180000Y-91760000D02*
X129280000Y-91760000D01*
X120730000Y-92320000D02*
X128730000Y-92320000D01*
X120180000Y-112080000D02*
X120730000Y-111540000D01*
X120180000Y-91760000D02*
X120730000Y-92320000D01*
X129280000Y-112080000D02*
X128730000Y-111540000D01*
X129280000Y-91760000D02*
X128730000Y-92320000D01*
X82229360Y-133349180D02*
X89930640Y-133349180D01*
X82229360Y-134349940D02*
X89930640Y-134349940D01*
X89930640Y-134349940D02*
X89930640Y-125150060D01*
X89930640Y-125150060D02*
X82229360Y-125150060D01*
X82229360Y-125150060D02*
X82229360Y-134349940D01*
X96800000Y-54450000D02*
X96800000Y-52900000D01*
X95500000Y-54450000D02*
X96800000Y-54450000D01*
X95381697Y-48522941D02*
X95381697Y-42680941D01*
X95381697Y-42680941D02*
X95635697Y-42680941D01*
X95635697Y-42680941D02*
X95635697Y-48522941D01*
X95635697Y-48522941D02*
X95508697Y-48522941D01*
X95508697Y-48522941D02*
X95508697Y-42680941D01*
X82554697Y-51189941D02*
X82554697Y-51570941D01*
X83062697Y-51189941D02*
X83062697Y-51570941D01*
X85094697Y-51189941D02*
X85094697Y-51570941D01*
X85602697Y-51189941D02*
X85602697Y-51570941D01*
X87634697Y-51189941D02*
X87634697Y-51570941D01*
X88142697Y-51189941D02*
X88142697Y-51570941D01*
X95762697Y-51189941D02*
X95762697Y-51570941D01*
X95254697Y-51189941D02*
X95254697Y-51570941D01*
X93222697Y-51189941D02*
X93222697Y-51570941D01*
X92714697Y-51189941D02*
X92714697Y-51570941D01*
X90682697Y-51189941D02*
X90682697Y-51570941D01*
X90174697Y-51189941D02*
X90174697Y-51570941D01*
X81538697Y-51189941D02*
X81538697Y-48649941D01*
X84078697Y-51189941D02*
X84078697Y-48649941D01*
X84078697Y-51189941D02*
X86618697Y-51189941D01*
X86618697Y-51189941D02*
X86618697Y-48649941D01*
X85094697Y-48649941D02*
X85094697Y-42553941D01*
X85094697Y-42553941D02*
X85602697Y-42553941D01*
X85602697Y-42553941D02*
X85602697Y-48649941D01*
X86618697Y-48649941D02*
X84078697Y-48649941D01*
X84078697Y-48649941D02*
X81538697Y-48649941D01*
X83062697Y-42553941D02*
X83062697Y-48649941D01*
X82554697Y-42553941D02*
X83062697Y-42553941D01*
X82554697Y-48649941D02*
X82554697Y-42553941D01*
X84078697Y-51189941D02*
X84078697Y-48649941D01*
X81538697Y-51189941D02*
X84078697Y-51189941D01*
X91698697Y-51189941D02*
X91698697Y-48649941D01*
X91698697Y-51189941D02*
X94238697Y-51189941D01*
X94238697Y-51189941D02*
X94238697Y-48649941D01*
X92714697Y-48649941D02*
X92714697Y-42553941D01*
X92714697Y-42553941D02*
X93222697Y-42553941D01*
X93222697Y-42553941D02*
X93222697Y-48649941D01*
X94238697Y-48649941D02*
X91698697Y-48649941D01*
X96778697Y-48649941D02*
X94238697Y-48649941D01*
X95762697Y-42553941D02*
X95762697Y-48649941D01*
X95254697Y-42553941D02*
X95762697Y-42553941D01*
X95254697Y-48649941D02*
X95254697Y-42553941D01*
X96778697Y-51189941D02*
X96778697Y-48649941D01*
X94238697Y-51189941D02*
X96778697Y-51189941D01*
X94238697Y-51189941D02*
X94238697Y-48649941D01*
X89158697Y-51189941D02*
X89158697Y-48649941D01*
X89158697Y-51189941D02*
X91698697Y-51189941D01*
X91698697Y-51189941D02*
X91698697Y-48649941D01*
X90174697Y-48649941D02*
X90174697Y-42553941D01*
X90174697Y-42553941D02*
X90682697Y-42553941D01*
X90682697Y-42553941D02*
X90682697Y-48649941D01*
X91698697Y-48649941D02*
X89158697Y-48649941D01*
X89158697Y-48649941D02*
X86618697Y-48649941D01*
X88142697Y-42553941D02*
X88142697Y-48649941D01*
X87634697Y-42553941D02*
X88142697Y-42553941D01*
X87634697Y-48649941D02*
X87634697Y-42553941D01*
X89158697Y-51189941D02*
X89158697Y-48649941D01*
X86618697Y-51189941D02*
X89158697Y-51189941D01*
X86618697Y-51189941D02*
X86618697Y-48649941D01*
X66290000Y-130100000D02*
X66290000Y-124900000D01*
X66300000Y-124900000D02*
X74500000Y-124900000D01*
X74510000Y-124900000D02*
X74510000Y-130100000D01*
X74500000Y-130100000D02*
X66300000Y-130100000D01*
X59920000Y-84520000D02*
X59920000Y-109920000D01*
X59370000Y-85060000D02*
X59370000Y-109360000D01*
X50820000Y-84520000D02*
X50820000Y-109920000D01*
X51370000Y-85060000D02*
X51370000Y-94970000D01*
X51370000Y-99470000D02*
X51370000Y-109360000D01*
X51370000Y-94970000D02*
X50820000Y-94970000D01*
X51370000Y-99470000D02*
X50820000Y-99470000D01*
X59920000Y-84520000D02*
X50820000Y-84520000D01*
X59370000Y-85060000D02*
X51370000Y-85060000D01*
X59920000Y-109920000D02*
X50820000Y-109920000D01*
X59370000Y-109360000D02*
X51370000Y-109360000D01*
X59920000Y-84520000D02*
X59370000Y-85060000D01*
X59920000Y-109920000D02*
X59370000Y-109360000D01*
X50820000Y-84520000D02*
X51370000Y-85060000D01*
X50820000Y-109920000D02*
X51370000Y-109360000D01*
X97400000Y-57000000D02*
X98000000Y-57000000D01*
X97500000Y-57000000D02*
G75*
G03X97500000Y-57000000I-1270000J0D01*
G01*
X124500000Y-117400000D02*
X124500000Y-118000000D01*
X125770000Y-116230000D02*
G75*
G03X125770000Y-116230000I-1270000J0D01*
G01*
X112050000Y-126000000D02*
X112050000Y-126100000D01*
X111950000Y-125950000D02*
X112300000Y-125950000D01*
X112300000Y-125950000D02*
G75*
G03X111950000Y-126300000I700000J-1050000D01*
G01*
X111950000Y-125950000D02*
X111950000Y-126300000D01*
X117414214Y-129000000D02*
G75*
G03X117414214Y-129000000I-1414214J0D01*
G01*
X114000000Y-132000000D02*
X118000000Y-132000000D01*
X114000000Y-126000000D02*
X118000000Y-126000000D01*
X113000000Y-129750000D02*
X113000000Y-128250000D01*
X119000000Y-128250000D02*
X119000000Y-129750000D01*
D10*
X113000000Y-129000000D02*
X113000000Y-129000000D01*
X118000000Y-132000000D02*
X114000000Y-132000000D01*
X118000000Y-126000000D02*
X114000000Y-126000000D01*
X119000000Y-129000000D02*
X119000000Y-129000000D01*
X117414214Y-129000000D02*
G75*
G03X117414214Y-129000000I-1414214J0D01*
G01*
D11*
X80050000Y-117400000D02*
X80050000Y-124400000D01*
X80050000Y-124400000D02*
X77550000Y-124400000D01*
X77550000Y-124400000D02*
X77550000Y-117400000D01*
X77550000Y-117400000D02*
X80050000Y-117400000D01*
X107250000Y-130300000D02*
X107250000Y-123300000D01*
X107250000Y-123300000D02*
X109750000Y-123300000D01*
X109750000Y-123300000D02*
X109750000Y-130300000D01*
X109750000Y-130300000D02*
X107250000Y-130300000D01*
X94000000Y-58250000D02*
X87000000Y-58250000D01*
X87000000Y-58250000D02*
X87000000Y-55750000D01*
X87000000Y-55750000D02*
X94000000Y-55750000D01*
X94000000Y-55750000D02*
X94000000Y-58250000D01*
X79250000Y-88250000D02*
X79250000Y-92250000D01*
X76750000Y-88250000D02*
X76750000Y-92250000D01*
X126750000Y-87450000D02*
X122750000Y-87450000D01*
X126750000Y-84950000D02*
X122750000Y-84950000D01*
X101780000Y-83070000D02*
X101780000Y-87070000D01*
X99280000Y-83070000D02*
X99280000Y-87070000D01*
X69150000Y-118150000D02*
X65150000Y-118150000D01*
X69150000Y-115650000D02*
X65150000Y-115650000D01*
X62000000Y-129000000D02*
X62000000Y-122000000D01*
X62000000Y-122000000D02*
X64000000Y-122000000D01*
X64000000Y-122000000D02*
X64000000Y-129000000D01*
X64000000Y-129000000D02*
X62000000Y-129000000D01*
X81415000Y-61205000D02*
X81415000Y-62475000D01*
X96385000Y-61205000D02*
X96385000Y-62475000D01*
X96385000Y-114055000D02*
X96385000Y-112785000D01*
X81415000Y-114055000D02*
X81415000Y-112785000D01*
X81415000Y-61205000D02*
X96385000Y-61205000D01*
X81415000Y-114055000D02*
X96385000Y-114055000D01*
X81415000Y-62475000D02*
X80130000Y-62475000D01*
X101330000Y-118900000D02*
X102030000Y-118900000D01*
X102030000Y-120100000D02*
X101330000Y-120100000D01*
X97150000Y-129700000D02*
X97850000Y-129700000D01*
X97850000Y-130900000D02*
X97150000Y-130900000D01*
X83925000Y-122700000D02*
X83925000Y-121700000D01*
X85275000Y-121700000D02*
X85275000Y-122700000D01*
X86225000Y-122700000D02*
X86225000Y-121700000D01*
X87575000Y-121700000D02*
X87575000Y-122700000D01*
D14*
X53854285Y-60495714D02*
X53782857Y-60567142D01*
X53568571Y-60638571D01*
X53425714Y-60638571D01*
X53211428Y-60567142D01*
X53068571Y-60424285D01*
X52997142Y-60281428D01*
X52925714Y-59995714D01*
X52925714Y-59781428D01*
X52997142Y-59495714D01*
X53068571Y-59352857D01*
X53211428Y-59210000D01*
X53425714Y-59138571D01*
X53568571Y-59138571D01*
X53782857Y-59210000D01*
X53854285Y-59281428D01*
X54497142Y-60638571D02*
X54497142Y-59138571D01*
X55354285Y-60638571D01*
X55354285Y-59138571D01*
X56854285Y-60638571D02*
X55997142Y-60638571D01*
X56425714Y-60638571D02*
X56425714Y-59138571D01*
X56282857Y-59352857D01*
X56140000Y-59495714D01*
X55997142Y-59567142D01*
D11*
X62404761Y-61452380D02*
X62071428Y-60976190D01*
X61833333Y-61452380D02*
X61833333Y-60452380D01*
X62214285Y-60452380D01*
X62309523Y-60500000D01*
X62357142Y-60547619D01*
X62404761Y-60642857D01*
X62404761Y-60785714D01*
X62357142Y-60880952D01*
X62309523Y-60928571D01*
X62214285Y-60976190D01*
X61833333Y-60976190D01*
X62785714Y-61166666D02*
X63261904Y-61166666D01*
X62690476Y-61452380D02*
X63023809Y-60452380D01*
X63357142Y-61452380D01*
X64214285Y-61452380D02*
X63642857Y-61452380D01*
X63928571Y-61452380D02*
X63928571Y-60452380D01*
X63833333Y-60595238D01*
X63738095Y-60690476D01*
X63642857Y-60738095D01*
X69809047Y-59331428D02*
X70570952Y-59331428D01*
X70190000Y-59712380D02*
X70190000Y-58950476D01*
X62404761Y-65452380D02*
X62071428Y-64976190D01*
X61833333Y-65452380D02*
X61833333Y-64452380D01*
X62214285Y-64452380D01*
X62309523Y-64500000D01*
X62357142Y-64547619D01*
X62404761Y-64642857D01*
X62404761Y-64785714D01*
X62357142Y-64880952D01*
X62309523Y-64928571D01*
X62214285Y-64976190D01*
X61833333Y-64976190D01*
X62785714Y-65166666D02*
X63261904Y-65166666D01*
X62690476Y-65452380D02*
X63023809Y-64452380D01*
X63357142Y-65452380D01*
X63642857Y-64547619D02*
X63690476Y-64500000D01*
X63785714Y-64452380D01*
X64023809Y-64452380D01*
X64119047Y-64500000D01*
X64166666Y-64547619D01*
X64214285Y-64642857D01*
X64214285Y-64738095D01*
X64166666Y-64880952D01*
X63595238Y-65452380D01*
X64214285Y-65452380D01*
X69809047Y-63331428D02*
X70570952Y-63331428D01*
X70190000Y-63712380D02*
X70190000Y-62950476D01*
X62204761Y-73152380D02*
X61871428Y-72676190D01*
X61633333Y-73152380D02*
X61633333Y-72152380D01*
X62014285Y-72152380D01*
X62109523Y-72200000D01*
X62157142Y-72247619D01*
X62204761Y-72342857D01*
X62204761Y-72485714D01*
X62157142Y-72580952D01*
X62109523Y-72628571D01*
X62014285Y-72676190D01*
X61633333Y-72676190D01*
X62585714Y-72866666D02*
X63061904Y-72866666D01*
X62490476Y-73152380D02*
X62823809Y-72152380D01*
X63157142Y-73152380D01*
X63395238Y-72152380D02*
X64014285Y-72152380D01*
X63680952Y-72533333D01*
X63823809Y-72533333D01*
X63919047Y-72580952D01*
X63966666Y-72628571D01*
X64014285Y-72723809D01*
X64014285Y-72961904D01*
X63966666Y-73057142D01*
X63919047Y-73104761D01*
X63823809Y-73152380D01*
X63538095Y-73152380D01*
X63442857Y-73104761D01*
X63395238Y-73057142D01*
X69809047Y-70931428D02*
X70570952Y-70931428D01*
X70190000Y-71312380D02*
X70190000Y-70550476D01*
X62304761Y-76852380D02*
X61971428Y-76376190D01*
X61733333Y-76852380D02*
X61733333Y-75852380D01*
X62114285Y-75852380D01*
X62209523Y-75900000D01*
X62257142Y-75947619D01*
X62304761Y-76042857D01*
X62304761Y-76185714D01*
X62257142Y-76280952D01*
X62209523Y-76328571D01*
X62114285Y-76376190D01*
X61733333Y-76376190D01*
X62685714Y-76566666D02*
X63161904Y-76566666D01*
X62590476Y-76852380D02*
X62923809Y-75852380D01*
X63257142Y-76852380D01*
X64019047Y-76185714D02*
X64019047Y-76852380D01*
X63780952Y-75804761D02*
X63542857Y-76519047D01*
X64161904Y-76519047D01*
X69809047Y-74831428D02*
X70570952Y-74831428D01*
X70190000Y-75212380D02*
X70190000Y-74450476D01*
X62304761Y-80852380D02*
X61971428Y-80376190D01*
X61733333Y-80852380D02*
X61733333Y-79852380D01*
X62114285Y-79852380D01*
X62209523Y-79900000D01*
X62257142Y-79947619D01*
X62304761Y-80042857D01*
X62304761Y-80185714D01*
X62257142Y-80280952D01*
X62209523Y-80328571D01*
X62114285Y-80376190D01*
X61733333Y-80376190D01*
X62685714Y-80566666D02*
X63161904Y-80566666D01*
X62590476Y-80852380D02*
X62923809Y-79852380D01*
X63257142Y-80852380D01*
X64066666Y-79852380D02*
X63590476Y-79852380D01*
X63542857Y-80328571D01*
X63590476Y-80280952D01*
X63685714Y-80233333D01*
X63923809Y-80233333D01*
X64019047Y-80280952D01*
X64066666Y-80328571D01*
X64114285Y-80423809D01*
X64114285Y-80661904D01*
X64066666Y-80757142D01*
X64019047Y-80804761D01*
X63923809Y-80852380D01*
X63685714Y-80852380D01*
X63590476Y-80804761D01*
X63542857Y-80757142D01*
X69809047Y-78731428D02*
X70570952Y-78731428D01*
X70190000Y-79112380D02*
X70190000Y-78350476D01*
X62404761Y-84852380D02*
X62071428Y-84376190D01*
X61833333Y-84852380D02*
X61833333Y-83852380D01*
X62214285Y-83852380D01*
X62309523Y-83900000D01*
X62357142Y-83947619D01*
X62404761Y-84042857D01*
X62404761Y-84185714D01*
X62357142Y-84280952D01*
X62309523Y-84328571D01*
X62214285Y-84376190D01*
X61833333Y-84376190D01*
X62785714Y-84566666D02*
X63261904Y-84566666D01*
X62690476Y-84852380D02*
X63023809Y-83852380D01*
X63357142Y-84852380D01*
X64119047Y-83852380D02*
X63928571Y-83852380D01*
X63833333Y-83900000D01*
X63785714Y-83947619D01*
X63690476Y-84090476D01*
X63642857Y-84280952D01*
X63642857Y-84661904D01*
X63690476Y-84757142D01*
X63738095Y-84804761D01*
X63833333Y-84852380D01*
X64023809Y-84852380D01*
X64119047Y-84804761D01*
X64166666Y-84757142D01*
X64214285Y-84661904D01*
X64214285Y-84423809D01*
X64166666Y-84328571D01*
X64119047Y-84280952D01*
X64023809Y-84233333D01*
X63833333Y-84233333D01*
X63738095Y-84280952D01*
X63690476Y-84328571D01*
X63642857Y-84423809D01*
X69809047Y-82731428D02*
X70570952Y-82731428D01*
X70190000Y-83112380D02*
X70190000Y-82350476D01*
X62504761Y-88952380D02*
X62171428Y-88476190D01*
X61933333Y-88952380D02*
X61933333Y-87952380D01*
X62314285Y-87952380D01*
X62409523Y-88000000D01*
X62457142Y-88047619D01*
X62504761Y-88142857D01*
X62504761Y-88285714D01*
X62457142Y-88380952D01*
X62409523Y-88428571D01*
X62314285Y-88476190D01*
X61933333Y-88476190D01*
X62885714Y-88666666D02*
X63361904Y-88666666D01*
X62790476Y-88952380D02*
X63123809Y-87952380D01*
X63457142Y-88952380D01*
X63695238Y-87952380D02*
X64361904Y-87952380D01*
X63933333Y-88952380D01*
X69809047Y-86731428D02*
X70570952Y-86731428D01*
X70190000Y-87112380D02*
X70190000Y-86350476D01*
X116133333Y-59052380D02*
X115800000Y-58576190D01*
X115561904Y-59052380D02*
X115561904Y-58052380D01*
X115942857Y-58052380D01*
X116038095Y-58100000D01*
X116085714Y-58147619D01*
X116133333Y-58242857D01*
X116133333Y-58385714D01*
X116085714Y-58480952D01*
X116038095Y-58528571D01*
X115942857Y-58576190D01*
X115561904Y-58576190D01*
X116895238Y-58528571D02*
X117038095Y-58576190D01*
X117085714Y-58623809D01*
X117133333Y-58719047D01*
X117133333Y-58861904D01*
X117085714Y-58957142D01*
X117038095Y-59004761D01*
X116942857Y-59052380D01*
X116561904Y-59052380D01*
X116561904Y-58052380D01*
X116895238Y-58052380D01*
X116990476Y-58100000D01*
X117038095Y-58147619D01*
X117085714Y-58242857D01*
X117085714Y-58338095D01*
X117038095Y-58433333D01*
X116990476Y-58480952D01*
X116895238Y-58528571D01*
X116561904Y-58528571D01*
X117752380Y-58052380D02*
X117847619Y-58052380D01*
X117942857Y-58100000D01*
X117990476Y-58147619D01*
X118038095Y-58242857D01*
X118085714Y-58433333D01*
X118085714Y-58671428D01*
X118038095Y-58861904D01*
X117990476Y-58957142D01*
X117942857Y-59004761D01*
X117847619Y-59052380D01*
X117752380Y-59052380D01*
X117657142Y-59004761D01*
X117609523Y-58957142D01*
X117561904Y-58861904D01*
X117514285Y-58671428D01*
X117514285Y-58433333D01*
X117561904Y-58242857D01*
X117609523Y-58147619D01*
X117657142Y-58100000D01*
X117752380Y-58052380D01*
X114709047Y-56731428D02*
X115470952Y-56731428D01*
X115090000Y-57112380D02*
X115090000Y-56350476D01*
X115933333Y-54952380D02*
X115600000Y-54476190D01*
X115361904Y-54952380D02*
X115361904Y-53952380D01*
X115742857Y-53952380D01*
X115838095Y-54000000D01*
X115885714Y-54047619D01*
X115933333Y-54142857D01*
X115933333Y-54285714D01*
X115885714Y-54380952D01*
X115838095Y-54428571D01*
X115742857Y-54476190D01*
X115361904Y-54476190D01*
X116695238Y-54428571D02*
X116838095Y-54476190D01*
X116885714Y-54523809D01*
X116933333Y-54619047D01*
X116933333Y-54761904D01*
X116885714Y-54857142D01*
X116838095Y-54904761D01*
X116742857Y-54952380D01*
X116361904Y-54952380D01*
X116361904Y-53952380D01*
X116695238Y-53952380D01*
X116790476Y-54000000D01*
X116838095Y-54047619D01*
X116885714Y-54142857D01*
X116885714Y-54238095D01*
X116838095Y-54333333D01*
X116790476Y-54380952D01*
X116695238Y-54428571D01*
X116361904Y-54428571D01*
X117885714Y-54952380D02*
X117314285Y-54952380D01*
X117600000Y-54952380D02*
X117600000Y-53952380D01*
X117504761Y-54095238D01*
X117409523Y-54190476D01*
X117314285Y-54238095D01*
X114809047Y-52831428D02*
X115570952Y-52831428D01*
X115190000Y-53212380D02*
X115190000Y-52450476D01*
X62133333Y-92952380D02*
X61800000Y-92476190D01*
X61561904Y-92952380D02*
X61561904Y-91952380D01*
X61942857Y-91952380D01*
X62038095Y-92000000D01*
X62085714Y-92047619D01*
X62133333Y-92142857D01*
X62133333Y-92285714D01*
X62085714Y-92380952D01*
X62038095Y-92428571D01*
X61942857Y-92476190D01*
X61561904Y-92476190D01*
X62895238Y-92428571D02*
X63038095Y-92476190D01*
X63085714Y-92523809D01*
X63133333Y-92619047D01*
X63133333Y-92761904D01*
X63085714Y-92857142D01*
X63038095Y-92904761D01*
X62942857Y-92952380D01*
X62561904Y-92952380D01*
X62561904Y-91952380D01*
X62895238Y-91952380D01*
X62990476Y-92000000D01*
X63038095Y-92047619D01*
X63085714Y-92142857D01*
X63085714Y-92238095D01*
X63038095Y-92333333D01*
X62990476Y-92380952D01*
X62895238Y-92428571D01*
X62561904Y-92428571D01*
X63514285Y-92047619D02*
X63561904Y-92000000D01*
X63657142Y-91952380D01*
X63895238Y-91952380D01*
X63990476Y-92000000D01*
X64038095Y-92047619D01*
X64085714Y-92142857D01*
X64085714Y-92238095D01*
X64038095Y-92380952D01*
X63466666Y-92952380D01*
X64085714Y-92952380D01*
X69809047Y-90831428D02*
X70570952Y-90831428D01*
X70190000Y-91212380D02*
X70190000Y-90450476D01*
X62233333Y-96752380D02*
X61900000Y-96276190D01*
X61661904Y-96752380D02*
X61661904Y-95752380D01*
X62042857Y-95752380D01*
X62138095Y-95800000D01*
X62185714Y-95847619D01*
X62233333Y-95942857D01*
X62233333Y-96085714D01*
X62185714Y-96180952D01*
X62138095Y-96228571D01*
X62042857Y-96276190D01*
X61661904Y-96276190D01*
X62995238Y-96228571D02*
X63138095Y-96276190D01*
X63185714Y-96323809D01*
X63233333Y-96419047D01*
X63233333Y-96561904D01*
X63185714Y-96657142D01*
X63138095Y-96704761D01*
X63042857Y-96752380D01*
X62661904Y-96752380D01*
X62661904Y-95752380D01*
X62995238Y-95752380D01*
X63090476Y-95800000D01*
X63138095Y-95847619D01*
X63185714Y-95942857D01*
X63185714Y-96038095D01*
X63138095Y-96133333D01*
X63090476Y-96180952D01*
X62995238Y-96228571D01*
X62661904Y-96228571D01*
X63566666Y-95752380D02*
X64185714Y-95752380D01*
X63852380Y-96133333D01*
X63995238Y-96133333D01*
X64090476Y-96180952D01*
X64138095Y-96228571D01*
X64185714Y-96323809D01*
X64185714Y-96561904D01*
X64138095Y-96657142D01*
X64090476Y-96704761D01*
X63995238Y-96752380D01*
X63709523Y-96752380D01*
X63614285Y-96704761D01*
X63566666Y-96657142D01*
X69809047Y-94731428D02*
X70570952Y-94731428D01*
X70190000Y-95112380D02*
X70190000Y-94350476D01*
X62233333Y-101052380D02*
X61900000Y-100576190D01*
X61661904Y-101052380D02*
X61661904Y-100052380D01*
X62042857Y-100052380D01*
X62138095Y-100100000D01*
X62185714Y-100147619D01*
X62233333Y-100242857D01*
X62233333Y-100385714D01*
X62185714Y-100480952D01*
X62138095Y-100528571D01*
X62042857Y-100576190D01*
X61661904Y-100576190D01*
X62995238Y-100528571D02*
X63138095Y-100576190D01*
X63185714Y-100623809D01*
X63233333Y-100719047D01*
X63233333Y-100861904D01*
X63185714Y-100957142D01*
X63138095Y-101004761D01*
X63042857Y-101052380D01*
X62661904Y-101052380D01*
X62661904Y-100052380D01*
X62995238Y-100052380D01*
X63090476Y-100100000D01*
X63138095Y-100147619D01*
X63185714Y-100242857D01*
X63185714Y-100338095D01*
X63138095Y-100433333D01*
X63090476Y-100480952D01*
X62995238Y-100528571D01*
X62661904Y-100528571D01*
X64090476Y-100385714D02*
X64090476Y-101052380D01*
X63852380Y-100004761D02*
X63614285Y-100719047D01*
X64233333Y-100719047D01*
X69809047Y-98731428D02*
X70570952Y-98731428D01*
X70190000Y-99112380D02*
X70190000Y-98350476D01*
X62033333Y-104852380D02*
X61700000Y-104376190D01*
X61461904Y-104852380D02*
X61461904Y-103852380D01*
X61842857Y-103852380D01*
X61938095Y-103900000D01*
X61985714Y-103947619D01*
X62033333Y-104042857D01*
X62033333Y-104185714D01*
X61985714Y-104280952D01*
X61938095Y-104328571D01*
X61842857Y-104376190D01*
X61461904Y-104376190D01*
X62795238Y-104328571D02*
X62938095Y-104376190D01*
X62985714Y-104423809D01*
X63033333Y-104519047D01*
X63033333Y-104661904D01*
X62985714Y-104757142D01*
X62938095Y-104804761D01*
X62842857Y-104852380D01*
X62461904Y-104852380D01*
X62461904Y-103852380D01*
X62795238Y-103852380D01*
X62890476Y-103900000D01*
X62938095Y-103947619D01*
X62985714Y-104042857D01*
X62985714Y-104138095D01*
X62938095Y-104233333D01*
X62890476Y-104280952D01*
X62795238Y-104328571D01*
X62461904Y-104328571D01*
X63938095Y-103852380D02*
X63461904Y-103852380D01*
X63414285Y-104328571D01*
X63461904Y-104280952D01*
X63557142Y-104233333D01*
X63795238Y-104233333D01*
X63890476Y-104280952D01*
X63938095Y-104328571D01*
X63985714Y-104423809D01*
X63985714Y-104661904D01*
X63938095Y-104757142D01*
X63890476Y-104804761D01*
X63795238Y-104852380D01*
X63557142Y-104852380D01*
X63461904Y-104804761D01*
X63414285Y-104757142D01*
X69809047Y-102731428D02*
X70570952Y-102731428D01*
X70190000Y-103112380D02*
X70190000Y-102350476D01*
X116233333Y-89652380D02*
X115900000Y-89176190D01*
X115661904Y-89652380D02*
X115661904Y-88652380D01*
X116042857Y-88652380D01*
X116138095Y-88700000D01*
X116185714Y-88747619D01*
X116233333Y-88842857D01*
X116233333Y-88985714D01*
X116185714Y-89080952D01*
X116138095Y-89128571D01*
X116042857Y-89176190D01*
X115661904Y-89176190D01*
X117233333Y-89557142D02*
X117185714Y-89604761D01*
X117042857Y-89652380D01*
X116947619Y-89652380D01*
X116804761Y-89604761D01*
X116709523Y-89509523D01*
X116661904Y-89414285D01*
X116614285Y-89223809D01*
X116614285Y-89080952D01*
X116661904Y-88890476D01*
X116709523Y-88795238D01*
X116804761Y-88700000D01*
X116947619Y-88652380D01*
X117042857Y-88652380D01*
X117185714Y-88700000D01*
X117233333Y-88747619D01*
X117852380Y-88652380D02*
X117947619Y-88652380D01*
X118042857Y-88700000D01*
X118090476Y-88747619D01*
X118138095Y-88842857D01*
X118185714Y-89033333D01*
X118185714Y-89271428D01*
X118138095Y-89461904D01*
X118090476Y-89557142D01*
X118042857Y-89604761D01*
X117947619Y-89652380D01*
X117852380Y-89652380D01*
X117757142Y-89604761D01*
X117709523Y-89557142D01*
X117661904Y-89461904D01*
X117614285Y-89271428D01*
X117614285Y-89033333D01*
X117661904Y-88842857D01*
X117709523Y-88747619D01*
X117757142Y-88700000D01*
X117852380Y-88652380D01*
X114909047Y-87331428D02*
X115670952Y-87331428D01*
X115290000Y-87712380D02*
X115290000Y-86950476D01*
X116133333Y-93352380D02*
X115800000Y-92876190D01*
X115561904Y-93352380D02*
X115561904Y-92352380D01*
X115942857Y-92352380D01*
X116038095Y-92400000D01*
X116085714Y-92447619D01*
X116133333Y-92542857D01*
X116133333Y-92685714D01*
X116085714Y-92780952D01*
X116038095Y-92828571D01*
X115942857Y-92876190D01*
X115561904Y-92876190D01*
X117133333Y-93257142D02*
X117085714Y-93304761D01*
X116942857Y-93352380D01*
X116847619Y-93352380D01*
X116704761Y-93304761D01*
X116609523Y-93209523D01*
X116561904Y-93114285D01*
X116514285Y-92923809D01*
X116514285Y-92780952D01*
X116561904Y-92590476D01*
X116609523Y-92495238D01*
X116704761Y-92400000D01*
X116847619Y-92352380D01*
X116942857Y-92352380D01*
X117085714Y-92400000D01*
X117133333Y-92447619D01*
X118085714Y-93352380D02*
X117514285Y-93352380D01*
X117800000Y-93352380D02*
X117800000Y-92352380D01*
X117704761Y-92495238D01*
X117609523Y-92590476D01*
X117514285Y-92638095D01*
X114909047Y-91331428D02*
X115670952Y-91331428D01*
X115290000Y-91712380D02*
X115290000Y-90950476D01*
X116233333Y-97552380D02*
X115900000Y-97076190D01*
X115661904Y-97552380D02*
X115661904Y-96552380D01*
X116042857Y-96552380D01*
X116138095Y-96600000D01*
X116185714Y-96647619D01*
X116233333Y-96742857D01*
X116233333Y-96885714D01*
X116185714Y-96980952D01*
X116138095Y-97028571D01*
X116042857Y-97076190D01*
X115661904Y-97076190D01*
X117233333Y-97457142D02*
X117185714Y-97504761D01*
X117042857Y-97552380D01*
X116947619Y-97552380D01*
X116804761Y-97504761D01*
X116709523Y-97409523D01*
X116661904Y-97314285D01*
X116614285Y-97123809D01*
X116614285Y-96980952D01*
X116661904Y-96790476D01*
X116709523Y-96695238D01*
X116804761Y-96600000D01*
X116947619Y-96552380D01*
X117042857Y-96552380D01*
X117185714Y-96600000D01*
X117233333Y-96647619D01*
X117614285Y-96647619D02*
X117661904Y-96600000D01*
X117757142Y-96552380D01*
X117995238Y-96552380D01*
X118090476Y-96600000D01*
X118138095Y-96647619D01*
X118185714Y-96742857D01*
X118185714Y-96838095D01*
X118138095Y-96980952D01*
X117566666Y-97552380D01*
X118185714Y-97552380D01*
X114909047Y-95431428D02*
X115670952Y-95431428D01*
X115290000Y-95812380D02*
X115290000Y-95050476D01*
X116133333Y-101452380D02*
X115800000Y-100976190D01*
X115561904Y-101452380D02*
X115561904Y-100452380D01*
X115942857Y-100452380D01*
X116038095Y-100500000D01*
X116085714Y-100547619D01*
X116133333Y-100642857D01*
X116133333Y-100785714D01*
X116085714Y-100880952D01*
X116038095Y-100928571D01*
X115942857Y-100976190D01*
X115561904Y-100976190D01*
X117133333Y-101357142D02*
X117085714Y-101404761D01*
X116942857Y-101452380D01*
X116847619Y-101452380D01*
X116704761Y-101404761D01*
X116609523Y-101309523D01*
X116561904Y-101214285D01*
X116514285Y-101023809D01*
X116514285Y-100880952D01*
X116561904Y-100690476D01*
X116609523Y-100595238D01*
X116704761Y-100500000D01*
X116847619Y-100452380D01*
X116942857Y-100452380D01*
X117085714Y-100500000D01*
X117133333Y-100547619D01*
X117466666Y-100452380D02*
X118085714Y-100452380D01*
X117752380Y-100833333D01*
X117895238Y-100833333D01*
X117990476Y-100880952D01*
X118038095Y-100928571D01*
X118085714Y-101023809D01*
X118085714Y-101261904D01*
X118038095Y-101357142D01*
X117990476Y-101404761D01*
X117895238Y-101452380D01*
X117609523Y-101452380D01*
X117514285Y-101404761D01*
X117466666Y-101357142D01*
X114909047Y-99331428D02*
X115670952Y-99331428D01*
X115290000Y-99712380D02*
X115290000Y-98950476D01*
X116033333Y-105552380D02*
X115700000Y-105076190D01*
X115461904Y-105552380D02*
X115461904Y-104552380D01*
X115842857Y-104552380D01*
X115938095Y-104600000D01*
X115985714Y-104647619D01*
X116033333Y-104742857D01*
X116033333Y-104885714D01*
X115985714Y-104980952D01*
X115938095Y-105028571D01*
X115842857Y-105076190D01*
X115461904Y-105076190D01*
X117033333Y-105457142D02*
X116985714Y-105504761D01*
X116842857Y-105552380D01*
X116747619Y-105552380D01*
X116604761Y-105504761D01*
X116509523Y-105409523D01*
X116461904Y-105314285D01*
X116414285Y-105123809D01*
X116414285Y-104980952D01*
X116461904Y-104790476D01*
X116509523Y-104695238D01*
X116604761Y-104600000D01*
X116747619Y-104552380D01*
X116842857Y-104552380D01*
X116985714Y-104600000D01*
X117033333Y-104647619D01*
X117890476Y-104885714D02*
X117890476Y-105552380D01*
X117652380Y-104504761D02*
X117414285Y-105219047D01*
X118033333Y-105219047D01*
X114909047Y-103431428D02*
X115670952Y-103431428D01*
X115290000Y-103812380D02*
X115290000Y-103050476D01*
X116033333Y-109552380D02*
X115700000Y-109076190D01*
X115461904Y-109552380D02*
X115461904Y-108552380D01*
X115842857Y-108552380D01*
X115938095Y-108600000D01*
X115985714Y-108647619D01*
X116033333Y-108742857D01*
X116033333Y-108885714D01*
X115985714Y-108980952D01*
X115938095Y-109028571D01*
X115842857Y-109076190D01*
X115461904Y-109076190D01*
X117033333Y-109457142D02*
X116985714Y-109504761D01*
X116842857Y-109552380D01*
X116747619Y-109552380D01*
X116604761Y-109504761D01*
X116509523Y-109409523D01*
X116461904Y-109314285D01*
X116414285Y-109123809D01*
X116414285Y-108980952D01*
X116461904Y-108790476D01*
X116509523Y-108695238D01*
X116604761Y-108600000D01*
X116747619Y-108552380D01*
X116842857Y-108552380D01*
X116985714Y-108600000D01*
X117033333Y-108647619D01*
X117938095Y-108552380D02*
X117461904Y-108552380D01*
X117414285Y-109028571D01*
X117461904Y-108980952D01*
X117557142Y-108933333D01*
X117795238Y-108933333D01*
X117890476Y-108980952D01*
X117938095Y-109028571D01*
X117985714Y-109123809D01*
X117985714Y-109361904D01*
X117938095Y-109457142D01*
X117890476Y-109504761D01*
X117795238Y-109552380D01*
X117557142Y-109552380D01*
X117461904Y-109504761D01*
X117414285Y-109457142D01*
X114909047Y-107431428D02*
X115670952Y-107431428D01*
X115290000Y-107812380D02*
X115290000Y-107050476D01*
X116033333Y-113452380D02*
X115700000Y-112976190D01*
X115461904Y-113452380D02*
X115461904Y-112452380D01*
X115842857Y-112452380D01*
X115938095Y-112500000D01*
X115985714Y-112547619D01*
X116033333Y-112642857D01*
X116033333Y-112785714D01*
X115985714Y-112880952D01*
X115938095Y-112928571D01*
X115842857Y-112976190D01*
X115461904Y-112976190D01*
X117033333Y-113357142D02*
X116985714Y-113404761D01*
X116842857Y-113452380D01*
X116747619Y-113452380D01*
X116604761Y-113404761D01*
X116509523Y-113309523D01*
X116461904Y-113214285D01*
X116414285Y-113023809D01*
X116414285Y-112880952D01*
X116461904Y-112690476D01*
X116509523Y-112595238D01*
X116604761Y-112500000D01*
X116747619Y-112452380D01*
X116842857Y-112452380D01*
X116985714Y-112500000D01*
X117033333Y-112547619D01*
X117890476Y-112452380D02*
X117700000Y-112452380D01*
X117604761Y-112500000D01*
X117557142Y-112547619D01*
X117461904Y-112690476D01*
X117414285Y-112880952D01*
X117414285Y-113261904D01*
X117461904Y-113357142D01*
X117509523Y-113404761D01*
X117604761Y-113452380D01*
X117795238Y-113452380D01*
X117890476Y-113404761D01*
X117938095Y-113357142D01*
X117985714Y-113261904D01*
X117985714Y-113023809D01*
X117938095Y-112928571D01*
X117890476Y-112880952D01*
X117795238Y-112833333D01*
X117604761Y-112833333D01*
X117509523Y-112880952D01*
X117461904Y-112928571D01*
X117414285Y-113023809D01*
X114909047Y-111431428D02*
X115670952Y-111431428D01*
X115290000Y-111812380D02*
X115290000Y-111050476D01*
X116033333Y-117452380D02*
X115700000Y-116976190D01*
X115461904Y-117452380D02*
X115461904Y-116452380D01*
X115842857Y-116452380D01*
X115938095Y-116500000D01*
X115985714Y-116547619D01*
X116033333Y-116642857D01*
X116033333Y-116785714D01*
X115985714Y-116880952D01*
X115938095Y-116928571D01*
X115842857Y-116976190D01*
X115461904Y-116976190D01*
X117033333Y-117357142D02*
X116985714Y-117404761D01*
X116842857Y-117452380D01*
X116747619Y-117452380D01*
X116604761Y-117404761D01*
X116509523Y-117309523D01*
X116461904Y-117214285D01*
X116414285Y-117023809D01*
X116414285Y-116880952D01*
X116461904Y-116690476D01*
X116509523Y-116595238D01*
X116604761Y-116500000D01*
X116747619Y-116452380D01*
X116842857Y-116452380D01*
X116985714Y-116500000D01*
X117033333Y-116547619D01*
X117366666Y-116452380D02*
X118033333Y-116452380D01*
X117604761Y-117452380D01*
X114909047Y-115431428D02*
X115670952Y-115431428D01*
X115290000Y-115812380D02*
X115290000Y-115050476D01*
X62033333Y-108752380D02*
X61700000Y-108276190D01*
X61461904Y-108752380D02*
X61461904Y-107752380D01*
X61842857Y-107752380D01*
X61938095Y-107800000D01*
X61985714Y-107847619D01*
X62033333Y-107942857D01*
X62033333Y-108085714D01*
X61985714Y-108180952D01*
X61938095Y-108228571D01*
X61842857Y-108276190D01*
X61461904Y-108276190D01*
X62461904Y-108752380D02*
X62461904Y-107752380D01*
X62700000Y-107752380D01*
X62842857Y-107800000D01*
X62938095Y-107895238D01*
X62985714Y-107990476D01*
X63033333Y-108180952D01*
X63033333Y-108323809D01*
X62985714Y-108514285D01*
X62938095Y-108609523D01*
X62842857Y-108704761D01*
X62700000Y-108752380D01*
X62461904Y-108752380D01*
X63652380Y-107752380D02*
X63747619Y-107752380D01*
X63842857Y-107800000D01*
X63890476Y-107847619D01*
X63938095Y-107942857D01*
X63985714Y-108133333D01*
X63985714Y-108371428D01*
X63938095Y-108561904D01*
X63890476Y-108657142D01*
X63842857Y-108704761D01*
X63747619Y-108752380D01*
X63652380Y-108752380D01*
X63557142Y-108704761D01*
X63509523Y-108657142D01*
X63461904Y-108561904D01*
X63414285Y-108371428D01*
X63414285Y-108133333D01*
X63461904Y-107942857D01*
X63509523Y-107847619D01*
X63557142Y-107800000D01*
X63652380Y-107752380D01*
X69809047Y-106731428D02*
X70570952Y-106731428D01*
X70190000Y-107112380D02*
X70190000Y-106350476D01*
X116133333Y-78952380D02*
X115800000Y-78476190D01*
X115561904Y-78952380D02*
X115561904Y-77952380D01*
X115942857Y-77952380D01*
X116038095Y-78000000D01*
X116085714Y-78047619D01*
X116133333Y-78142857D01*
X116133333Y-78285714D01*
X116085714Y-78380952D01*
X116038095Y-78428571D01*
X115942857Y-78476190D01*
X115561904Y-78476190D01*
X116561904Y-78952380D02*
X116561904Y-77952380D01*
X116800000Y-77952380D01*
X116942857Y-78000000D01*
X117038095Y-78095238D01*
X117085714Y-78190476D01*
X117133333Y-78380952D01*
X117133333Y-78523809D01*
X117085714Y-78714285D01*
X117038095Y-78809523D01*
X116942857Y-78904761D01*
X116800000Y-78952380D01*
X116561904Y-78952380D01*
X118085714Y-78952380D02*
X117514285Y-78952380D01*
X117800000Y-78952380D02*
X117800000Y-77952380D01*
X117704761Y-78095238D01*
X117609523Y-78190476D01*
X117514285Y-78238095D01*
X114909047Y-76831428D02*
X115670952Y-76831428D01*
X115290000Y-77212380D02*
X115290000Y-76450476D01*
X115933333Y-71052380D02*
X115600000Y-70576190D01*
X115361904Y-71052380D02*
X115361904Y-70052380D01*
X115742857Y-70052380D01*
X115838095Y-70100000D01*
X115885714Y-70147619D01*
X115933333Y-70242857D01*
X115933333Y-70385714D01*
X115885714Y-70480952D01*
X115838095Y-70528571D01*
X115742857Y-70576190D01*
X115361904Y-70576190D01*
X116361904Y-71052380D02*
X116361904Y-70052380D01*
X116600000Y-70052380D01*
X116742857Y-70100000D01*
X116838095Y-70195238D01*
X116885714Y-70290476D01*
X116933333Y-70480952D01*
X116933333Y-70623809D01*
X116885714Y-70814285D01*
X116838095Y-70909523D01*
X116742857Y-71004761D01*
X116600000Y-71052380D01*
X116361904Y-71052380D01*
X117314285Y-70147619D02*
X117361904Y-70100000D01*
X117457142Y-70052380D01*
X117695238Y-70052380D01*
X117790476Y-70100000D01*
X117838095Y-70147619D01*
X117885714Y-70242857D01*
X117885714Y-70338095D01*
X117838095Y-70480952D01*
X117266666Y-71052380D01*
X117885714Y-71052380D01*
X114809047Y-68831428D02*
X115570952Y-68831428D01*
X115190000Y-69212380D02*
X115190000Y-68450476D01*
X62033333Y-112852380D02*
X61700000Y-112376190D01*
X61461904Y-112852380D02*
X61461904Y-111852380D01*
X61842857Y-111852380D01*
X61938095Y-111900000D01*
X61985714Y-111947619D01*
X62033333Y-112042857D01*
X62033333Y-112185714D01*
X61985714Y-112280952D01*
X61938095Y-112328571D01*
X61842857Y-112376190D01*
X61461904Y-112376190D01*
X62461904Y-112852380D02*
X62461904Y-111852380D01*
X62700000Y-111852380D01*
X62842857Y-111900000D01*
X62938095Y-111995238D01*
X62985714Y-112090476D01*
X63033333Y-112280952D01*
X63033333Y-112423809D01*
X62985714Y-112614285D01*
X62938095Y-112709523D01*
X62842857Y-112804761D01*
X62700000Y-112852380D01*
X62461904Y-112852380D01*
X63366666Y-111852380D02*
X63985714Y-111852380D01*
X63652380Y-112233333D01*
X63795238Y-112233333D01*
X63890476Y-112280952D01*
X63938095Y-112328571D01*
X63985714Y-112423809D01*
X63985714Y-112661904D01*
X63938095Y-112757142D01*
X63890476Y-112804761D01*
X63795238Y-112852380D01*
X63509523Y-112852380D01*
X63414285Y-112804761D01*
X63366666Y-112757142D01*
X69809047Y-110631428D02*
X70570952Y-110631428D01*
X70190000Y-111012380D02*
X70190000Y-110250476D01*
X121673333Y-122322380D02*
X121340000Y-121846190D01*
X121101904Y-122322380D02*
X121101904Y-121322380D01*
X121482857Y-121322380D01*
X121578095Y-121370000D01*
X121625714Y-121417619D01*
X121673333Y-121512857D01*
X121673333Y-121655714D01*
X121625714Y-121750952D01*
X121578095Y-121798571D01*
X121482857Y-121846190D01*
X121101904Y-121846190D01*
X122101904Y-122322380D02*
X122101904Y-121322380D01*
X122340000Y-121322380D01*
X122482857Y-121370000D01*
X122578095Y-121465238D01*
X122625714Y-121560476D01*
X122673333Y-121750952D01*
X122673333Y-121893809D01*
X122625714Y-122084285D01*
X122578095Y-122179523D01*
X122482857Y-122274761D01*
X122340000Y-122322380D01*
X122101904Y-122322380D01*
X123530476Y-121655714D02*
X123530476Y-122322380D01*
X123292380Y-121274761D02*
X123054285Y-121989047D01*
X123673333Y-121989047D01*
X121009047Y-120031428D02*
X121770952Y-120031428D01*
X121390000Y-120412380D02*
X121390000Y-119650476D01*
X116033333Y-83052380D02*
X115700000Y-82576190D01*
X115461904Y-83052380D02*
X115461904Y-82052380D01*
X115842857Y-82052380D01*
X115938095Y-82100000D01*
X115985714Y-82147619D01*
X116033333Y-82242857D01*
X116033333Y-82385714D01*
X115985714Y-82480952D01*
X115938095Y-82528571D01*
X115842857Y-82576190D01*
X115461904Y-82576190D01*
X116461904Y-83052380D02*
X116461904Y-82052380D01*
X116700000Y-82052380D01*
X116842857Y-82100000D01*
X116938095Y-82195238D01*
X116985714Y-82290476D01*
X117033333Y-82480952D01*
X117033333Y-82623809D01*
X116985714Y-82814285D01*
X116938095Y-82909523D01*
X116842857Y-83004761D01*
X116700000Y-83052380D01*
X116461904Y-83052380D01*
X117938095Y-82052380D02*
X117461904Y-82052380D01*
X117414285Y-82528571D01*
X117461904Y-82480952D01*
X117557142Y-82433333D01*
X117795238Y-82433333D01*
X117890476Y-82480952D01*
X117938095Y-82528571D01*
X117985714Y-82623809D01*
X117985714Y-82861904D01*
X117938095Y-82957142D01*
X117890476Y-83004761D01*
X117795238Y-83052380D01*
X117557142Y-83052380D01*
X117461904Y-83004761D01*
X117414285Y-82957142D01*
X114909047Y-80831428D02*
X115670952Y-80831428D01*
X115290000Y-81212380D02*
X115290000Y-80450476D01*
X115780952Y-67052380D02*
X115447619Y-66576190D01*
X115209523Y-67052380D02*
X115209523Y-66052380D01*
X115590476Y-66052380D01*
X115685714Y-66100000D01*
X115733333Y-66147619D01*
X115780952Y-66242857D01*
X115780952Y-66385714D01*
X115733333Y-66480952D01*
X115685714Y-66528571D01*
X115590476Y-66576190D01*
X115209523Y-66576190D01*
X116209523Y-66528571D02*
X116542857Y-66528571D01*
X116685714Y-67052380D02*
X116209523Y-67052380D01*
X116209523Y-66052380D01*
X116685714Y-66052380D01*
X117304761Y-66052380D02*
X117400000Y-66052380D01*
X117495238Y-66100000D01*
X117542857Y-66147619D01*
X117590476Y-66242857D01*
X117638095Y-66433333D01*
X117638095Y-66671428D01*
X117590476Y-66861904D01*
X117542857Y-66957142D01*
X117495238Y-67004761D01*
X117400000Y-67052380D01*
X117304761Y-67052380D01*
X117209523Y-67004761D01*
X117161904Y-66957142D01*
X117114285Y-66861904D01*
X117066666Y-66671428D01*
X117066666Y-66433333D01*
X117114285Y-66242857D01*
X117161904Y-66147619D01*
X117209523Y-66100000D01*
X117304761Y-66052380D01*
X114809047Y-64831428D02*
X115570952Y-64831428D01*
X115190000Y-65212380D02*
X115190000Y-64450476D01*
X115980952Y-63052380D02*
X115647619Y-62576190D01*
X115409523Y-63052380D02*
X115409523Y-62052380D01*
X115790476Y-62052380D01*
X115885714Y-62100000D01*
X115933333Y-62147619D01*
X115980952Y-62242857D01*
X115980952Y-62385714D01*
X115933333Y-62480952D01*
X115885714Y-62528571D01*
X115790476Y-62576190D01*
X115409523Y-62576190D01*
X116409523Y-62528571D02*
X116742857Y-62528571D01*
X116885714Y-63052380D02*
X116409523Y-63052380D01*
X116409523Y-62052380D01*
X116885714Y-62052380D01*
X117838095Y-63052380D02*
X117266666Y-63052380D01*
X117552380Y-63052380D02*
X117552380Y-62052380D01*
X117457142Y-62195238D01*
X117361904Y-62290476D01*
X117266666Y-62338095D01*
X114809047Y-60831428D02*
X115570952Y-60831428D01*
X115190000Y-61212380D02*
X115190000Y-60450476D01*
X115980952Y-74952380D02*
X115647619Y-74476190D01*
X115409523Y-74952380D02*
X115409523Y-73952380D01*
X115790476Y-73952380D01*
X115885714Y-74000000D01*
X115933333Y-74047619D01*
X115980952Y-74142857D01*
X115980952Y-74285714D01*
X115933333Y-74380952D01*
X115885714Y-74428571D01*
X115790476Y-74476190D01*
X115409523Y-74476190D01*
X116409523Y-74428571D02*
X116742857Y-74428571D01*
X116885714Y-74952380D02*
X116409523Y-74952380D01*
X116409523Y-73952380D01*
X116885714Y-73952380D01*
X117266666Y-74047619D02*
X117314285Y-74000000D01*
X117409523Y-73952380D01*
X117647619Y-73952380D01*
X117742857Y-74000000D01*
X117790476Y-74047619D01*
X117838095Y-74142857D01*
X117838095Y-74238095D01*
X117790476Y-74380952D01*
X117219047Y-74952380D01*
X117838095Y-74952380D01*
X114909047Y-72831428D02*
X115670952Y-72831428D01*
X115290000Y-73212380D02*
X115290000Y-72450476D01*
X62404761Y-57452380D02*
X62071428Y-56976190D01*
X61833333Y-57452380D02*
X61833333Y-56452380D01*
X62214285Y-56452380D01*
X62309523Y-56500000D01*
X62357142Y-56547619D01*
X62404761Y-56642857D01*
X62404761Y-56785714D01*
X62357142Y-56880952D01*
X62309523Y-56928571D01*
X62214285Y-56976190D01*
X61833333Y-56976190D01*
X62785714Y-57166666D02*
X63261904Y-57166666D01*
X62690476Y-57452380D02*
X63023809Y-56452380D01*
X63357142Y-57452380D01*
X63880952Y-56452380D02*
X63976190Y-56452380D01*
X64071428Y-56500000D01*
X64119047Y-56547619D01*
X64166666Y-56642857D01*
X64214285Y-56833333D01*
X64214285Y-57071428D01*
X64166666Y-57261904D01*
X64119047Y-57357142D01*
X64071428Y-57404761D01*
X63976190Y-57452380D01*
X63880952Y-57452380D01*
X63785714Y-57404761D01*
X63738095Y-57357142D01*
X63690476Y-57261904D01*
X63642857Y-57071428D01*
X63642857Y-56833333D01*
X63690476Y-56642857D01*
X63738095Y-56547619D01*
X63785714Y-56500000D01*
X63880952Y-56452380D01*
X69809047Y-55331428D02*
X70570952Y-55331428D01*
X70190000Y-55712380D02*
X70190000Y-54950476D01*
X103302380Y-125561904D02*
X104111904Y-125561904D01*
X104207142Y-125514285D01*
X104254761Y-125466666D01*
X104302380Y-125371428D01*
X104302380Y-125180952D01*
X104254761Y-125085714D01*
X104207142Y-125038095D01*
X104111904Y-124990476D01*
X103302380Y-124990476D01*
X103397619Y-124561904D02*
X103350000Y-124514285D01*
X103302380Y-124419047D01*
X103302380Y-124180952D01*
X103350000Y-124085714D01*
X103397619Y-124038095D01*
X103492857Y-123990476D01*
X103588095Y-123990476D01*
X103730952Y-124038095D01*
X104302380Y-124609523D01*
X104302380Y-123990476D01*
X55109047Y-125948571D02*
X55251904Y-125996190D01*
X55299523Y-126043809D01*
X55347142Y-126139047D01*
X55347142Y-126281904D01*
X55299523Y-126377142D01*
X55251904Y-126424761D01*
X55156666Y-126472380D01*
X54775714Y-126472380D01*
X54775714Y-125472380D01*
X55109047Y-125472380D01*
X55204285Y-125520000D01*
X55251904Y-125567619D01*
X55299523Y-125662857D01*
X55299523Y-125758095D01*
X55251904Y-125853333D01*
X55204285Y-125900952D01*
X55109047Y-125948571D01*
X54775714Y-125948571D01*
X55680476Y-125472380D02*
X56347142Y-125472380D01*
X55680476Y-126472380D01*
X56347142Y-126472380D01*
X57251904Y-126472380D02*
X56680476Y-126472380D01*
X56966190Y-126472380D02*
X56966190Y-125472380D01*
X56870952Y-125615238D01*
X56775714Y-125710476D01*
X56680476Y-125758095D01*
X104952380Y-102966666D02*
X104476190Y-103300000D01*
X104952380Y-103538095D02*
X103952380Y-103538095D01*
X103952380Y-103157142D01*
X104000000Y-103061904D01*
X104047619Y-103014285D01*
X104142857Y-102966666D01*
X104285714Y-102966666D01*
X104380952Y-103014285D01*
X104428571Y-103061904D01*
X104476190Y-103157142D01*
X104476190Y-103538095D01*
X104952380Y-101966666D02*
X104476190Y-102300000D01*
X104952380Y-102538095D02*
X103952380Y-102538095D01*
X103952380Y-102157142D01*
X104000000Y-102061904D01*
X104047619Y-102014285D01*
X104142857Y-101966666D01*
X104285714Y-101966666D01*
X104380952Y-102014285D01*
X104428571Y-102061904D01*
X104476190Y-102157142D01*
X104476190Y-102538095D01*
X104952380Y-101014285D02*
X104952380Y-101585714D01*
X104952380Y-101300000D02*
X103952380Y-101300000D01*
X104095238Y-101395238D01*
X104190476Y-101490476D01*
X104238095Y-101585714D01*
X104085714Y-110504761D02*
X104752380Y-110504761D01*
X103704761Y-110742857D02*
X104419047Y-110980952D01*
X104419047Y-110361904D01*
X104657142Y-109980952D02*
X104704761Y-109933333D01*
X104752380Y-109980952D01*
X104704761Y-110028571D01*
X104657142Y-109980952D01*
X104752380Y-109980952D01*
X103752380Y-109600000D02*
X103752380Y-108933333D01*
X104752380Y-109361904D01*
X104752380Y-108552380D02*
X103752380Y-108552380D01*
X104752380Y-107980952D02*
X104180952Y-108409523D01*
X103752380Y-107980952D02*
X104323809Y-108552380D01*
X104752380Y-107647619D02*
X104085714Y-107123809D01*
X104085714Y-107647619D02*
X104752380Y-107123809D01*
X104180952Y-106600000D02*
X104133333Y-106695238D01*
X104085714Y-106742857D01*
X103990476Y-106790476D01*
X103942857Y-106790476D01*
X103847619Y-106742857D01*
X103800000Y-106695238D01*
X103752380Y-106600000D01*
X103752380Y-106409523D01*
X103800000Y-106314285D01*
X103847619Y-106266666D01*
X103942857Y-106219047D01*
X103990476Y-106219047D01*
X104085714Y-106266666D01*
X104133333Y-106314285D01*
X104180952Y-106409523D01*
X104180952Y-106600000D01*
X104228571Y-106695238D01*
X104276190Y-106742857D01*
X104371428Y-106790476D01*
X104561904Y-106790476D01*
X104657142Y-106742857D01*
X104704761Y-106695238D01*
X104752380Y-106600000D01*
X104752380Y-106409523D01*
X104704761Y-106314285D01*
X104657142Y-106266666D01*
X104561904Y-106219047D01*
X104371428Y-106219047D01*
X104276190Y-106266666D01*
X104228571Y-106314285D01*
X104180952Y-106409523D01*
X104952380Y-69766666D02*
X104476190Y-70100000D01*
X104952380Y-70338095D02*
X103952380Y-70338095D01*
X103952380Y-69957142D01*
X104000000Y-69861904D01*
X104047619Y-69814285D01*
X104142857Y-69766666D01*
X104285714Y-69766666D01*
X104380952Y-69814285D01*
X104428571Y-69861904D01*
X104476190Y-69957142D01*
X104476190Y-70338095D01*
X104952380Y-68766666D02*
X104476190Y-69100000D01*
X104952380Y-69338095D02*
X103952380Y-69338095D01*
X103952380Y-68957142D01*
X104000000Y-68861904D01*
X104047619Y-68814285D01*
X104142857Y-68766666D01*
X104285714Y-68766666D01*
X104380952Y-68814285D01*
X104428571Y-68861904D01*
X104476190Y-68957142D01*
X104476190Y-69338095D01*
X104047619Y-68385714D02*
X104000000Y-68338095D01*
X103952380Y-68242857D01*
X103952380Y-68004761D01*
X104000000Y-67909523D01*
X104047619Y-67861904D01*
X104142857Y-67814285D01*
X104238095Y-67814285D01*
X104380952Y-67861904D01*
X104952380Y-68433333D01*
X104952380Y-67814285D01*
X104385714Y-76904761D02*
X105052380Y-76904761D01*
X104004761Y-77142857D02*
X104719047Y-77380952D01*
X104719047Y-76761904D01*
X104957142Y-76380952D02*
X105004761Y-76333333D01*
X105052380Y-76380952D01*
X105004761Y-76428571D01*
X104957142Y-76380952D01*
X105052380Y-76380952D01*
X104052380Y-76000000D02*
X104052380Y-75333333D01*
X105052380Y-75761904D01*
X105052380Y-74952380D02*
X104052380Y-74952380D01*
X105052380Y-74380952D02*
X104480952Y-74809523D01*
X104052380Y-74380952D02*
X104623809Y-74952380D01*
X105052380Y-74047619D02*
X104385714Y-73523809D01*
X104385714Y-74047619D02*
X105052380Y-73523809D01*
X104480952Y-73000000D02*
X104433333Y-73095238D01*
X104385714Y-73142857D01*
X104290476Y-73190476D01*
X104242857Y-73190476D01*
X104147619Y-73142857D01*
X104100000Y-73095238D01*
X104052380Y-73000000D01*
X104052380Y-72809523D01*
X104100000Y-72714285D01*
X104147619Y-72666666D01*
X104242857Y-72619047D01*
X104290476Y-72619047D01*
X104385714Y-72666666D01*
X104433333Y-72714285D01*
X104480952Y-72809523D01*
X104480952Y-73000000D01*
X104528571Y-73095238D01*
X104576190Y-73142857D01*
X104671428Y-73190476D01*
X104861904Y-73190476D01*
X104957142Y-73142857D01*
X105004761Y-73095238D01*
X105052380Y-73000000D01*
X105052380Y-72809523D01*
X105004761Y-72714285D01*
X104957142Y-72666666D01*
X104861904Y-72619047D01*
X104671428Y-72619047D01*
X104576190Y-72666666D01*
X104528571Y-72714285D01*
X104480952Y-72809523D01*
X75642380Y-87706666D02*
X75166190Y-88040000D01*
X75642380Y-88278095D02*
X74642380Y-88278095D01*
X74642380Y-87897142D01*
X74690000Y-87801904D01*
X74737619Y-87754285D01*
X74832857Y-87706666D01*
X74975714Y-87706666D01*
X75070952Y-87754285D01*
X75118571Y-87801904D01*
X75166190Y-87897142D01*
X75166190Y-88278095D01*
X75642380Y-86706666D02*
X75166190Y-87040000D01*
X75642380Y-87278095D02*
X74642380Y-87278095D01*
X74642380Y-86897142D01*
X74690000Y-86801904D01*
X74737619Y-86754285D01*
X74832857Y-86706666D01*
X74975714Y-86706666D01*
X75070952Y-86754285D01*
X75118571Y-86801904D01*
X75166190Y-86897142D01*
X75166190Y-87278095D01*
X74642380Y-86373333D02*
X74642380Y-85754285D01*
X75023333Y-86087619D01*
X75023333Y-85944761D01*
X75070952Y-85849523D01*
X75118571Y-85801904D01*
X75213809Y-85754285D01*
X75451904Y-85754285D01*
X75547142Y-85801904D01*
X75594761Y-85849523D01*
X75642380Y-85944761D01*
X75642380Y-86230476D01*
X75594761Y-86325714D01*
X75547142Y-86373333D01*
X75005714Y-82906666D02*
X75672380Y-82906666D01*
X74624761Y-83144761D02*
X75339047Y-83382857D01*
X75339047Y-82763809D01*
X75577142Y-82382857D02*
X75624761Y-82335238D01*
X75672380Y-82382857D01*
X75624761Y-82430476D01*
X75577142Y-82382857D01*
X75672380Y-82382857D01*
X74672380Y-82001904D02*
X74672380Y-81335238D01*
X75672380Y-81763809D01*
X75672380Y-80954285D02*
X74672380Y-80954285D01*
X75672380Y-80382857D02*
X75100952Y-80811428D01*
X74672380Y-80382857D02*
X75243809Y-80954285D01*
X75672380Y-79287619D02*
X75005714Y-78763809D01*
X75005714Y-79287619D02*
X75672380Y-78763809D01*
X75100952Y-77478095D02*
X75053333Y-77573333D01*
X75005714Y-77620952D01*
X74910476Y-77668571D01*
X74862857Y-77668571D01*
X74767619Y-77620952D01*
X74720000Y-77573333D01*
X74672380Y-77478095D01*
X74672380Y-77287619D01*
X74720000Y-77192380D01*
X74767619Y-77144761D01*
X74862857Y-77097142D01*
X74910476Y-77097142D01*
X75005714Y-77144761D01*
X75053333Y-77192380D01*
X75100952Y-77287619D01*
X75100952Y-77478095D01*
X75148571Y-77573333D01*
X75196190Y-77620952D01*
X75291428Y-77668571D01*
X75481904Y-77668571D01*
X75577142Y-77620952D01*
X75624761Y-77573333D01*
X75672380Y-77478095D01*
X75672380Y-77287619D01*
X75624761Y-77192380D01*
X75577142Y-77144761D01*
X75481904Y-77097142D01*
X75291428Y-77097142D01*
X75196190Y-77144761D01*
X75148571Y-77192380D01*
X75100952Y-77287619D01*
X74532000Y-98461904D02*
X74484380Y-98557142D01*
X74484380Y-98700000D01*
X74532000Y-98842857D01*
X74627238Y-98938095D01*
X74722476Y-98985714D01*
X74912952Y-99033333D01*
X75055809Y-99033333D01*
X75246285Y-98985714D01*
X75341523Y-98938095D01*
X75436761Y-98842857D01*
X75484380Y-98700000D01*
X75484380Y-98604761D01*
X75436761Y-98461904D01*
X75389142Y-98414285D01*
X75055809Y-98414285D01*
X75055809Y-98604761D01*
X75484380Y-97985714D02*
X74484380Y-97985714D01*
X75484380Y-97414285D01*
X74484380Y-97414285D01*
X75484380Y-96938095D02*
X74484380Y-96938095D01*
X74484380Y-96700000D01*
X74532000Y-96557142D01*
X74627238Y-96461904D01*
X74722476Y-96414285D01*
X74912952Y-96366666D01*
X75055809Y-96366666D01*
X75246285Y-96414285D01*
X75341523Y-96461904D01*
X75436761Y-96557142D01*
X75484380Y-96700000D01*
X75484380Y-96938095D01*
X74484380Y-76173333D02*
X75484380Y-75840000D01*
X74484380Y-75506666D01*
X75389142Y-74601904D02*
X75436761Y-74649523D01*
X75484380Y-74792380D01*
X75484380Y-74887619D01*
X75436761Y-75030476D01*
X75341523Y-75125714D01*
X75246285Y-75173333D01*
X75055809Y-75220952D01*
X74912952Y-75220952D01*
X74722476Y-75173333D01*
X74627238Y-75125714D01*
X74532000Y-75030476D01*
X74484380Y-74887619D01*
X74484380Y-74792380D01*
X74532000Y-74649523D01*
X74579619Y-74601904D01*
X75389142Y-73601904D02*
X75436761Y-73649523D01*
X75484380Y-73792380D01*
X75484380Y-73887619D01*
X75436761Y-74030476D01*
X75341523Y-74125714D01*
X75246285Y-74173333D01*
X75055809Y-74220952D01*
X74912952Y-74220952D01*
X74722476Y-74173333D01*
X74627238Y-74125714D01*
X74532000Y-74030476D01*
X74484380Y-73887619D01*
X74484380Y-73792380D01*
X74532000Y-73649523D01*
X74579619Y-73601904D01*
X76032380Y-66766666D02*
X75556190Y-67100000D01*
X76032380Y-67338095D02*
X75032380Y-67338095D01*
X75032380Y-66957142D01*
X75080000Y-66861904D01*
X75127619Y-66814285D01*
X75222857Y-66766666D01*
X75365714Y-66766666D01*
X75460952Y-66814285D01*
X75508571Y-66861904D01*
X75556190Y-66957142D01*
X75556190Y-67338095D01*
X76032380Y-65766666D02*
X75556190Y-66100000D01*
X76032380Y-66338095D02*
X75032380Y-66338095D01*
X75032380Y-65957142D01*
X75080000Y-65861904D01*
X75127619Y-65814285D01*
X75222857Y-65766666D01*
X75365714Y-65766666D01*
X75460952Y-65814285D01*
X75508571Y-65861904D01*
X75556190Y-65957142D01*
X75556190Y-66338095D01*
X75365714Y-64909523D02*
X76032380Y-64909523D01*
X74984761Y-65147619D02*
X75699047Y-65385714D01*
X75699047Y-64766666D01*
X75405714Y-61626666D02*
X76072380Y-61626666D01*
X75024761Y-61864761D02*
X75739047Y-62102857D01*
X75739047Y-61483809D01*
X75977142Y-61102857D02*
X76024761Y-61055238D01*
X76072380Y-61102857D01*
X76024761Y-61150476D01*
X75977142Y-61102857D01*
X76072380Y-61102857D01*
X75072380Y-60721904D02*
X75072380Y-60055238D01*
X76072380Y-60483809D01*
X76072380Y-59674285D02*
X75072380Y-59674285D01*
X76072380Y-59102857D02*
X75500952Y-59531428D01*
X75072380Y-59102857D02*
X75643809Y-59674285D01*
X76072380Y-58007619D02*
X75405714Y-57483809D01*
X75405714Y-58007619D02*
X76072380Y-57483809D01*
X75405714Y-55912380D02*
X76072380Y-55912380D01*
X75024761Y-56150476D02*
X75739047Y-56388571D01*
X75739047Y-55769523D01*
X75672380Y-110666666D02*
X75196190Y-111000000D01*
X75672380Y-111238095D02*
X74672380Y-111238095D01*
X74672380Y-110857142D01*
X74720000Y-110761904D01*
X74767619Y-110714285D01*
X74862857Y-110666666D01*
X75005714Y-110666666D01*
X75100952Y-110714285D01*
X75148571Y-110761904D01*
X75196190Y-110857142D01*
X75196190Y-111238095D01*
X75672380Y-109666666D02*
X75196190Y-110000000D01*
X75672380Y-110238095D02*
X74672380Y-110238095D01*
X74672380Y-109857142D01*
X74720000Y-109761904D01*
X74767619Y-109714285D01*
X74862857Y-109666666D01*
X75005714Y-109666666D01*
X75100952Y-109714285D01*
X75148571Y-109761904D01*
X75196190Y-109857142D01*
X75196190Y-110238095D01*
X74672380Y-108761904D02*
X74672380Y-109238095D01*
X75148571Y-109285714D01*
X75100952Y-109238095D01*
X75053333Y-109142857D01*
X75053333Y-108904761D01*
X75100952Y-108809523D01*
X75148571Y-108761904D01*
X75243809Y-108714285D01*
X75481904Y-108714285D01*
X75577142Y-108761904D01*
X75624761Y-108809523D01*
X75672380Y-108904761D01*
X75672380Y-109142857D01*
X75624761Y-109238095D01*
X75577142Y-109285714D01*
X76655714Y-110846666D02*
X77322380Y-110846666D01*
X76274761Y-111084761D02*
X76989047Y-111322857D01*
X76989047Y-110703809D01*
X77227142Y-110322857D02*
X77274761Y-110275238D01*
X77322380Y-110322857D01*
X77274761Y-110370476D01*
X77227142Y-110322857D01*
X77322380Y-110322857D01*
X76322380Y-109941904D02*
X76322380Y-109275238D01*
X77322380Y-109703809D01*
X77322380Y-108894285D02*
X76322380Y-108894285D01*
X77322380Y-108322857D02*
X76750952Y-108751428D01*
X76322380Y-108322857D02*
X76893809Y-108894285D01*
X77322380Y-107227619D02*
X76655714Y-106703809D01*
X76655714Y-107227619D02*
X77322380Y-106703809D01*
X76655714Y-105132380D02*
X77322380Y-105132380D01*
X76274761Y-105370476D02*
X76989047Y-105608571D01*
X76989047Y-104989523D01*
X74532000Y-117055904D02*
X74484380Y-117151142D01*
X74484380Y-117294000D01*
X74532000Y-117436857D01*
X74627238Y-117532095D01*
X74722476Y-117579714D01*
X74912952Y-117627333D01*
X75055809Y-117627333D01*
X75246285Y-117579714D01*
X75341523Y-117532095D01*
X75436761Y-117436857D01*
X75484380Y-117294000D01*
X75484380Y-117198761D01*
X75436761Y-117055904D01*
X75389142Y-117008285D01*
X75055809Y-117008285D01*
X75055809Y-117198761D01*
X75484380Y-116579714D02*
X74484380Y-116579714D01*
X75484380Y-116008285D01*
X74484380Y-116008285D01*
X75484380Y-115532095D02*
X74484380Y-115532095D01*
X74484380Y-115294000D01*
X74532000Y-115151142D01*
X74627238Y-115055904D01*
X74722476Y-115008285D01*
X74912952Y-114960666D01*
X75055809Y-114960666D01*
X75246285Y-115008285D01*
X75341523Y-115055904D01*
X75436761Y-115151142D01*
X75484380Y-115294000D01*
X75484380Y-115532095D01*
X74484380Y-104673333D02*
X75484380Y-104340000D01*
X74484380Y-104006666D01*
X75389142Y-103101904D02*
X75436761Y-103149523D01*
X75484380Y-103292380D01*
X75484380Y-103387619D01*
X75436761Y-103530476D01*
X75341523Y-103625714D01*
X75246285Y-103673333D01*
X75055809Y-103720952D01*
X74912952Y-103720952D01*
X74722476Y-103673333D01*
X74627238Y-103625714D01*
X74532000Y-103530476D01*
X74484380Y-103387619D01*
X74484380Y-103292380D01*
X74532000Y-103149523D01*
X74579619Y-103101904D01*
X75389142Y-102101904D02*
X75436761Y-102149523D01*
X75484380Y-102292380D01*
X75484380Y-102387619D01*
X75436761Y-102530476D01*
X75341523Y-102625714D01*
X75246285Y-102673333D01*
X75055809Y-102720952D01*
X74912952Y-102720952D01*
X74722476Y-102673333D01*
X74627238Y-102625714D01*
X74532000Y-102530476D01*
X74484380Y-102387619D01*
X74484380Y-102292380D01*
X74532000Y-102149523D01*
X74579619Y-102101904D01*
D14*
X122264285Y-60045714D02*
X122192857Y-60117142D01*
X121978571Y-60188571D01*
X121835714Y-60188571D01*
X121621428Y-60117142D01*
X121478571Y-59974285D01*
X121407142Y-59831428D01*
X121335714Y-59545714D01*
X121335714Y-59331428D01*
X121407142Y-59045714D01*
X121478571Y-58902857D01*
X121621428Y-58760000D01*
X121835714Y-58688571D01*
X121978571Y-58688571D01*
X122192857Y-58760000D01*
X122264285Y-58831428D01*
X122907142Y-60188571D02*
X122907142Y-58688571D01*
X123764285Y-60188571D01*
X123764285Y-58688571D01*
X124407142Y-58831428D02*
X124478571Y-58760000D01*
X124621428Y-58688571D01*
X124978571Y-58688571D01*
X125121428Y-58760000D01*
X125192857Y-58831428D01*
X125264285Y-58974285D01*
X125264285Y-59117142D01*
X125192857Y-59331428D01*
X124335714Y-60188571D01*
X125264285Y-60188571D01*
X122444285Y-91065714D02*
X122372857Y-91137142D01*
X122158571Y-91208571D01*
X122015714Y-91208571D01*
X121801428Y-91137142D01*
X121658571Y-90994285D01*
X121587142Y-90851428D01*
X121515714Y-90565714D01*
X121515714Y-90351428D01*
X121587142Y-90065714D01*
X121658571Y-89922857D01*
X121801428Y-89780000D01*
X122015714Y-89708571D01*
X122158571Y-89708571D01*
X122372857Y-89780000D01*
X122444285Y-89851428D01*
X123087142Y-91208571D02*
X123087142Y-89708571D01*
X123944285Y-91208571D01*
X123944285Y-89708571D01*
X124515714Y-89708571D02*
X125444285Y-89708571D01*
X124944285Y-90280000D01*
X125158571Y-90280000D01*
X125301428Y-90351428D01*
X125372857Y-90422857D01*
X125444285Y-90565714D01*
X125444285Y-90922857D01*
X125372857Y-91065714D01*
X125301428Y-91137142D01*
X125158571Y-91208571D01*
X124730000Y-91208571D01*
X124587142Y-91137142D01*
X124515714Y-91065714D01*
D11*
X88936666Y-123702380D02*
X88936666Y-124416666D01*
X88889047Y-124559523D01*
X88793809Y-124654761D01*
X88650952Y-124702380D01*
X88555714Y-124702380D01*
X89936666Y-124702380D02*
X89365238Y-124702380D01*
X89650952Y-124702380D02*
X89650952Y-123702380D01*
X89555714Y-123845238D01*
X89460476Y-123940476D01*
X89365238Y-123988095D01*
X83246666Y-54842380D02*
X83246666Y-55556666D01*
X83199047Y-55699523D01*
X83103809Y-55794761D01*
X82960952Y-55842380D01*
X82865714Y-55842380D01*
X83675238Y-54937619D02*
X83722857Y-54890000D01*
X83818095Y-54842380D01*
X84056190Y-54842380D01*
X84151428Y-54890000D01*
X84199047Y-54937619D01*
X84246666Y-55032857D01*
X84246666Y-55128095D01*
X84199047Y-55270952D01*
X83627619Y-55842380D01*
X84246666Y-55842380D01*
X69066666Y-124604761D02*
X69209523Y-124652380D01*
X69447619Y-124652380D01*
X69542857Y-124604761D01*
X69590476Y-124557142D01*
X69638095Y-124461904D01*
X69638095Y-124366666D01*
X69590476Y-124271428D01*
X69542857Y-124223809D01*
X69447619Y-124176190D01*
X69257142Y-124128571D01*
X69161904Y-124080952D01*
X69114285Y-124033333D01*
X69066666Y-123938095D01*
X69066666Y-123842857D01*
X69114285Y-123747619D01*
X69161904Y-123700000D01*
X69257142Y-123652380D01*
X69495238Y-123652380D01*
X69638095Y-123700000D01*
X69971428Y-123652380D02*
X70209523Y-124652380D01*
X70400000Y-123938095D01*
X70590476Y-124652380D01*
X70828571Y-123652380D01*
X71733333Y-124652380D02*
X71161904Y-124652380D01*
X71447619Y-124652380D02*
X71447619Y-123652380D01*
X71352380Y-123795238D01*
X71257142Y-123890476D01*
X71161904Y-123938095D01*
D14*
X54584285Y-83675714D02*
X54512857Y-83747142D01*
X54298571Y-83818571D01*
X54155714Y-83818571D01*
X53941428Y-83747142D01*
X53798571Y-83604285D01*
X53727142Y-83461428D01*
X53655714Y-83175714D01*
X53655714Y-82961428D01*
X53727142Y-82675714D01*
X53798571Y-82532857D01*
X53941428Y-82390000D01*
X54155714Y-82318571D01*
X54298571Y-82318571D01*
X54512857Y-82390000D01*
X54584285Y-82461428D01*
X55227142Y-83818571D02*
X55227142Y-82318571D01*
X56084285Y-83818571D01*
X56084285Y-82318571D01*
X57441428Y-82818571D02*
X57441428Y-83818571D01*
X57084285Y-82247142D02*
X56727142Y-83318571D01*
X57655714Y-83318571D01*
D11*
X100913333Y-57632380D02*
X100580000Y-57156190D01*
X100341904Y-57632380D02*
X100341904Y-56632380D01*
X100722857Y-56632380D01*
X100818095Y-56680000D01*
X100865714Y-56727619D01*
X100913333Y-56822857D01*
X100913333Y-56965714D01*
X100865714Y-57060952D01*
X100818095Y-57108571D01*
X100722857Y-57156190D01*
X100341904Y-57156190D01*
X101865714Y-57632380D02*
X101294285Y-57632380D01*
X101580000Y-57632380D02*
X101580000Y-56632380D01*
X101484761Y-56775238D01*
X101389523Y-56870476D01*
X101294285Y-56918095D01*
X100096190Y-58915714D02*
X100096190Y-59582380D01*
X99858095Y-58534761D02*
X99620000Y-59249047D01*
X100239047Y-59249047D01*
X100620000Y-59487142D02*
X100667619Y-59534761D01*
X100620000Y-59582380D01*
X100572380Y-59534761D01*
X100620000Y-59487142D01*
X100620000Y-59582380D01*
X101000952Y-58582380D02*
X101667619Y-58582380D01*
X101239047Y-59582380D01*
X102048571Y-59582380D02*
X102048571Y-58582380D01*
X102620000Y-59582380D02*
X102191428Y-59010952D01*
X102620000Y-58582380D02*
X102048571Y-59153809D01*
X126782380Y-119192857D02*
X126306190Y-119526190D01*
X126782380Y-119764285D02*
X125782380Y-119764285D01*
X125782380Y-119383333D01*
X125830000Y-119288095D01*
X125877619Y-119240476D01*
X125972857Y-119192857D01*
X126115714Y-119192857D01*
X126210952Y-119240476D01*
X126258571Y-119288095D01*
X126306190Y-119383333D01*
X126306190Y-119764285D01*
X125782380Y-118859523D02*
X125782380Y-118240476D01*
X126163333Y-118573809D01*
X126163333Y-118430952D01*
X126210952Y-118335714D01*
X126258571Y-118288095D01*
X126353809Y-118240476D01*
X126591904Y-118240476D01*
X126687142Y-118288095D01*
X126734761Y-118335714D01*
X126782380Y-118430952D01*
X126782380Y-118716666D01*
X126734761Y-118811904D01*
X126687142Y-118859523D01*
X125782380Y-117621428D02*
X125782380Y-117526190D01*
X125830000Y-117430952D01*
X125877619Y-117383333D01*
X125972857Y-117335714D01*
X126163333Y-117288095D01*
X126401428Y-117288095D01*
X126591904Y-117335714D01*
X126687142Y-117383333D01*
X126734761Y-117430952D01*
X126782380Y-117526190D01*
X126782380Y-117621428D01*
X126734761Y-117716666D01*
X126687142Y-117764285D01*
X126591904Y-117811904D01*
X126401428Y-117859523D01*
X126163333Y-117859523D01*
X125972857Y-117811904D01*
X125877619Y-117764285D01*
X125830000Y-117716666D01*
X125782380Y-117621428D01*
X122735714Y-119603809D02*
X123402380Y-119603809D01*
X122354761Y-119841904D02*
X123069047Y-120080000D01*
X123069047Y-119460952D01*
X123307142Y-119080000D02*
X123354761Y-119032380D01*
X123402380Y-119080000D01*
X123354761Y-119127619D01*
X123307142Y-119080000D01*
X123402380Y-119080000D01*
X122402380Y-118699047D02*
X122402380Y-118032380D01*
X123402380Y-118460952D01*
X123402380Y-117651428D02*
X122402380Y-117651428D01*
X123402380Y-117080000D02*
X122830952Y-117508571D01*
X122402380Y-117080000D02*
X122973809Y-117651428D01*
X114666666Y-133404761D02*
X114809523Y-133452380D01*
X115047619Y-133452380D01*
X115142857Y-133404761D01*
X115190476Y-133357142D01*
X115238095Y-133261904D01*
X115238095Y-133166666D01*
X115190476Y-133071428D01*
X115142857Y-133023809D01*
X115047619Y-132976190D01*
X114857142Y-132928571D01*
X114761904Y-132880952D01*
X114714285Y-132833333D01*
X114666666Y-132738095D01*
X114666666Y-132642857D01*
X114714285Y-132547619D01*
X114761904Y-132500000D01*
X114857142Y-132452380D01*
X115095238Y-132452380D01*
X115238095Y-132500000D01*
X115571428Y-132452380D02*
X115809523Y-133452380D01*
X116000000Y-132738095D01*
X116190476Y-133452380D01*
X116428571Y-132452380D01*
X116761904Y-132547619D02*
X116809523Y-132500000D01*
X116904761Y-132452380D01*
X117142857Y-132452380D01*
X117238095Y-132500000D01*
X117285714Y-132547619D01*
X117333333Y-132642857D01*
X117333333Y-132738095D01*
X117285714Y-132880952D01*
X116714285Y-133452380D01*
X117333333Y-133452380D01*
X81457142Y-121166666D02*
X81504761Y-121214285D01*
X81552380Y-121357142D01*
X81552380Y-121452380D01*
X81504761Y-121595238D01*
X81409523Y-121690476D01*
X81314285Y-121738095D01*
X81123809Y-121785714D01*
X80980952Y-121785714D01*
X80790476Y-121738095D01*
X80695238Y-121690476D01*
X80600000Y-121595238D01*
X80552380Y-121452380D01*
X80552380Y-121357142D01*
X80600000Y-121214285D01*
X80647619Y-121166666D01*
X81552380Y-120214285D02*
X81552380Y-120785714D01*
X81552380Y-120500000D02*
X80552380Y-120500000D01*
X80695238Y-120595238D01*
X80790476Y-120690476D01*
X80838095Y-120785714D01*
X109207142Y-122156666D02*
X109254761Y-122204285D01*
X109302380Y-122347142D01*
X109302380Y-122442380D01*
X109254761Y-122585238D01*
X109159523Y-122680476D01*
X109064285Y-122728095D01*
X108873809Y-122775714D01*
X108730952Y-122775714D01*
X108540476Y-122728095D01*
X108445238Y-122680476D01*
X108350000Y-122585238D01*
X108302380Y-122442380D01*
X108302380Y-122347142D01*
X108350000Y-122204285D01*
X108397619Y-122156666D01*
X108397619Y-121775714D02*
X108350000Y-121728095D01*
X108302380Y-121632857D01*
X108302380Y-121394761D01*
X108350000Y-121299523D01*
X108397619Y-121251904D01*
X108492857Y-121204285D01*
X108588095Y-121204285D01*
X108730952Y-121251904D01*
X109302380Y-121823333D01*
X109302380Y-121204285D01*
X106672380Y-127632857D02*
X106672380Y-128204285D01*
X106672380Y-127918571D02*
X105672380Y-127918571D01*
X105815238Y-128013809D01*
X105910476Y-128109047D01*
X105958095Y-128204285D01*
X105672380Y-127013809D02*
X105672380Y-126918571D01*
X105720000Y-126823333D01*
X105767619Y-126775714D01*
X105862857Y-126728095D01*
X106053333Y-126680476D01*
X106291428Y-126680476D01*
X106481904Y-126728095D01*
X106577142Y-126775714D01*
X106624761Y-126823333D01*
X106672380Y-126918571D01*
X106672380Y-127013809D01*
X106624761Y-127109047D01*
X106577142Y-127156666D01*
X106481904Y-127204285D01*
X106291428Y-127251904D01*
X106053333Y-127251904D01*
X105862857Y-127204285D01*
X105767619Y-127156666D01*
X105720000Y-127109047D01*
X105672380Y-127013809D01*
X106005714Y-125823333D02*
X106672380Y-125823333D01*
X106005714Y-126251904D02*
X106529523Y-126251904D01*
X106624761Y-126204285D01*
X106672380Y-126109047D01*
X106672380Y-125966190D01*
X106624761Y-125870952D01*
X106577142Y-125823333D01*
X89983333Y-59577142D02*
X89935714Y-59624761D01*
X89792857Y-59672380D01*
X89697619Y-59672380D01*
X89554761Y-59624761D01*
X89459523Y-59529523D01*
X89411904Y-59434285D01*
X89364285Y-59243809D01*
X89364285Y-59100952D01*
X89411904Y-58910476D01*
X89459523Y-58815238D01*
X89554761Y-58720000D01*
X89697619Y-58672380D01*
X89792857Y-58672380D01*
X89935714Y-58720000D01*
X89983333Y-58767619D01*
X90316666Y-58672380D02*
X90935714Y-58672380D01*
X90602380Y-59053333D01*
X90745238Y-59053333D01*
X90840476Y-59100952D01*
X90888095Y-59148571D01*
X90935714Y-59243809D01*
X90935714Y-59481904D01*
X90888095Y-59577142D01*
X90840476Y-59624761D01*
X90745238Y-59672380D01*
X90459523Y-59672380D01*
X90364285Y-59624761D01*
X90316666Y-59577142D01*
X92827142Y-59752380D02*
X92255714Y-59752380D01*
X92541428Y-59752380D02*
X92541428Y-58752380D01*
X92446190Y-58895238D01*
X92350952Y-58990476D01*
X92255714Y-59038095D01*
X93446190Y-58752380D02*
X93541428Y-58752380D01*
X93636666Y-58800000D01*
X93684285Y-58847619D01*
X93731904Y-58942857D01*
X93779523Y-59133333D01*
X93779523Y-59371428D01*
X93731904Y-59561904D01*
X93684285Y-59657142D01*
X93636666Y-59704761D01*
X93541428Y-59752380D01*
X93446190Y-59752380D01*
X93350952Y-59704761D01*
X93303333Y-59657142D01*
X93255714Y-59561904D01*
X93208095Y-59371428D01*
X93208095Y-59133333D01*
X93255714Y-58942857D01*
X93303333Y-58847619D01*
X93350952Y-58800000D01*
X93446190Y-58752380D01*
X94636666Y-59085714D02*
X94636666Y-59752380D01*
X94208095Y-59085714D02*
X94208095Y-59609523D01*
X94255714Y-59704761D01*
X94350952Y-59752380D01*
X94493809Y-59752380D01*
X94589047Y-59704761D01*
X94636666Y-59657142D01*
X78847142Y-87016666D02*
X78894761Y-87064285D01*
X78942380Y-87207142D01*
X78942380Y-87302380D01*
X78894761Y-87445238D01*
X78799523Y-87540476D01*
X78704285Y-87588095D01*
X78513809Y-87635714D01*
X78370952Y-87635714D01*
X78180476Y-87588095D01*
X78085238Y-87540476D01*
X77990000Y-87445238D01*
X77942380Y-87302380D01*
X77942380Y-87207142D01*
X77990000Y-87064285D01*
X78037619Y-87016666D01*
X77942380Y-86111904D02*
X77942380Y-86588095D01*
X78418571Y-86635714D01*
X78370952Y-86588095D01*
X78323333Y-86492857D01*
X78323333Y-86254761D01*
X78370952Y-86159523D01*
X78418571Y-86111904D01*
X78513809Y-86064285D01*
X78751904Y-86064285D01*
X78847142Y-86111904D01*
X78894761Y-86159523D01*
X78942380Y-86254761D01*
X78942380Y-86492857D01*
X78894761Y-86588095D01*
X78847142Y-86635714D01*
X77062380Y-95624285D02*
X77062380Y-95529047D01*
X77110000Y-95433809D01*
X77157619Y-95386190D01*
X77252857Y-95338571D01*
X77443333Y-95290952D01*
X77681428Y-95290952D01*
X77871904Y-95338571D01*
X77967142Y-95386190D01*
X78014761Y-95433809D01*
X78062380Y-95529047D01*
X78062380Y-95624285D01*
X78014761Y-95719523D01*
X77967142Y-95767142D01*
X77871904Y-95814761D01*
X77681428Y-95862380D01*
X77443333Y-95862380D01*
X77252857Y-95814761D01*
X77157619Y-95767142D01*
X77110000Y-95719523D01*
X77062380Y-95624285D01*
X77967142Y-94862380D02*
X78014761Y-94814761D01*
X78062380Y-94862380D01*
X78014761Y-94910000D01*
X77967142Y-94862380D01*
X78062380Y-94862380D01*
X78062380Y-93862380D02*
X78062380Y-94433809D01*
X78062380Y-94148095D02*
X77062380Y-94148095D01*
X77205238Y-94243333D01*
X77300476Y-94338571D01*
X77348095Y-94433809D01*
X77395714Y-93005238D02*
X78062380Y-93005238D01*
X77395714Y-93433809D02*
X77919523Y-93433809D01*
X78014761Y-93386190D01*
X78062380Y-93290952D01*
X78062380Y-93148095D01*
X78014761Y-93052857D01*
X77967142Y-93005238D01*
X124583333Y-89057142D02*
X124535714Y-89104761D01*
X124392857Y-89152380D01*
X124297619Y-89152380D01*
X124154761Y-89104761D01*
X124059523Y-89009523D01*
X124011904Y-88914285D01*
X123964285Y-88723809D01*
X123964285Y-88580952D01*
X124011904Y-88390476D01*
X124059523Y-88295238D01*
X124154761Y-88200000D01*
X124297619Y-88152380D01*
X124392857Y-88152380D01*
X124535714Y-88200000D01*
X124583333Y-88247619D01*
X125440476Y-88152380D02*
X125250000Y-88152380D01*
X125154761Y-88200000D01*
X125107142Y-88247619D01*
X125011904Y-88390476D01*
X124964285Y-88580952D01*
X124964285Y-88961904D01*
X125011904Y-89057142D01*
X125059523Y-89104761D01*
X125154761Y-89152380D01*
X125345238Y-89152380D01*
X125440476Y-89104761D01*
X125488095Y-89057142D01*
X125535714Y-88961904D01*
X125535714Y-88723809D01*
X125488095Y-88628571D01*
X125440476Y-88580952D01*
X125345238Y-88533333D01*
X125154761Y-88533333D01*
X125059523Y-88580952D01*
X125011904Y-88628571D01*
X124964285Y-88723809D01*
X123535714Y-83152380D02*
X123630952Y-83152380D01*
X123726190Y-83200000D01*
X123773809Y-83247619D01*
X123821428Y-83342857D01*
X123869047Y-83533333D01*
X123869047Y-83771428D01*
X123821428Y-83961904D01*
X123773809Y-84057142D01*
X123726190Y-84104761D01*
X123630952Y-84152380D01*
X123535714Y-84152380D01*
X123440476Y-84104761D01*
X123392857Y-84057142D01*
X123345238Y-83961904D01*
X123297619Y-83771428D01*
X123297619Y-83533333D01*
X123345238Y-83342857D01*
X123392857Y-83247619D01*
X123440476Y-83200000D01*
X123535714Y-83152380D01*
X124297619Y-84057142D02*
X124345238Y-84104761D01*
X124297619Y-84152380D01*
X124250000Y-84104761D01*
X124297619Y-84057142D01*
X124297619Y-84152380D01*
X125297619Y-84152380D02*
X124726190Y-84152380D01*
X125011904Y-84152380D02*
X125011904Y-83152380D01*
X124916666Y-83295238D01*
X124821428Y-83390476D01*
X124726190Y-83438095D01*
X126154761Y-83485714D02*
X126154761Y-84152380D01*
X125726190Y-83485714D02*
X125726190Y-84009523D01*
X125773809Y-84104761D01*
X125869047Y-84152380D01*
X126011904Y-84152380D01*
X126107142Y-84104761D01*
X126154761Y-84057142D01*
X103207142Y-85226666D02*
X103254761Y-85274285D01*
X103302380Y-85417142D01*
X103302380Y-85512380D01*
X103254761Y-85655238D01*
X103159523Y-85750476D01*
X103064285Y-85798095D01*
X102873809Y-85845714D01*
X102730952Y-85845714D01*
X102540476Y-85798095D01*
X102445238Y-85750476D01*
X102350000Y-85655238D01*
X102302380Y-85512380D01*
X102302380Y-85417142D01*
X102350000Y-85274285D01*
X102397619Y-85226666D01*
X102302380Y-84893333D02*
X102302380Y-84226666D01*
X103302380Y-84655238D01*
X97812380Y-86164285D02*
X97812380Y-86069047D01*
X97860000Y-85973809D01*
X97907619Y-85926190D01*
X98002857Y-85878571D01*
X98193333Y-85830952D01*
X98431428Y-85830952D01*
X98621904Y-85878571D01*
X98717142Y-85926190D01*
X98764761Y-85973809D01*
X98812380Y-86069047D01*
X98812380Y-86164285D01*
X98764761Y-86259523D01*
X98717142Y-86307142D01*
X98621904Y-86354761D01*
X98431428Y-86402380D01*
X98193333Y-86402380D01*
X98002857Y-86354761D01*
X97907619Y-86307142D01*
X97860000Y-86259523D01*
X97812380Y-86164285D01*
X98717142Y-85402380D02*
X98764761Y-85354761D01*
X98812380Y-85402380D01*
X98764761Y-85450000D01*
X98717142Y-85402380D01*
X98812380Y-85402380D01*
X98812380Y-84402380D02*
X98812380Y-84973809D01*
X98812380Y-84688095D02*
X97812380Y-84688095D01*
X97955238Y-84783333D01*
X98050476Y-84878571D01*
X98098095Y-84973809D01*
X98145714Y-83545238D02*
X98812380Y-83545238D01*
X98145714Y-83973809D02*
X98669523Y-83973809D01*
X98764761Y-83926190D01*
X98812380Y-83830952D01*
X98812380Y-83688095D01*
X98764761Y-83592857D01*
X98717142Y-83545238D01*
X68813333Y-119717142D02*
X68765714Y-119764761D01*
X68622857Y-119812380D01*
X68527619Y-119812380D01*
X68384761Y-119764761D01*
X68289523Y-119669523D01*
X68241904Y-119574285D01*
X68194285Y-119383809D01*
X68194285Y-119240952D01*
X68241904Y-119050476D01*
X68289523Y-118955238D01*
X68384761Y-118860000D01*
X68527619Y-118812380D01*
X68622857Y-118812380D01*
X68765714Y-118860000D01*
X68813333Y-118907619D01*
X69289523Y-119812380D02*
X69480000Y-119812380D01*
X69575238Y-119764761D01*
X69622857Y-119717142D01*
X69718095Y-119574285D01*
X69765714Y-119383809D01*
X69765714Y-119002857D01*
X69718095Y-118907619D01*
X69670476Y-118860000D01*
X69575238Y-118812380D01*
X69384761Y-118812380D01*
X69289523Y-118860000D01*
X69241904Y-118907619D01*
X69194285Y-119002857D01*
X69194285Y-119240952D01*
X69241904Y-119336190D01*
X69289523Y-119383809D01*
X69384761Y-119431428D01*
X69575238Y-119431428D01*
X69670476Y-119383809D01*
X69718095Y-119336190D01*
X69765714Y-119240952D01*
X64945714Y-119532380D02*
X65040952Y-119532380D01*
X65136190Y-119580000D01*
X65183809Y-119627619D01*
X65231428Y-119722857D01*
X65279047Y-119913333D01*
X65279047Y-120151428D01*
X65231428Y-120341904D01*
X65183809Y-120437142D01*
X65136190Y-120484761D01*
X65040952Y-120532380D01*
X64945714Y-120532380D01*
X64850476Y-120484761D01*
X64802857Y-120437142D01*
X64755238Y-120341904D01*
X64707619Y-120151428D01*
X64707619Y-119913333D01*
X64755238Y-119722857D01*
X64802857Y-119627619D01*
X64850476Y-119580000D01*
X64945714Y-119532380D01*
X65707619Y-120437142D02*
X65755238Y-120484761D01*
X65707619Y-120532380D01*
X65660000Y-120484761D01*
X65707619Y-120437142D01*
X65707619Y-120532380D01*
X66707619Y-120532380D02*
X66136190Y-120532380D01*
X66421904Y-120532380D02*
X66421904Y-119532380D01*
X66326666Y-119675238D01*
X66231428Y-119770476D01*
X66136190Y-119818095D01*
X67564761Y-119865714D02*
X67564761Y-120532380D01*
X67136190Y-119865714D02*
X67136190Y-120389523D01*
X67183809Y-120484761D01*
X67279047Y-120532380D01*
X67421904Y-120532380D01*
X67517142Y-120484761D01*
X67564761Y-120437142D01*
X60688571Y-128343333D02*
X60688571Y-128676666D01*
X61212380Y-128676666D02*
X60212380Y-128676666D01*
X60212380Y-128200476D01*
X61212380Y-127295714D02*
X61212380Y-127867142D01*
X61212380Y-127581428D02*
X60212380Y-127581428D01*
X60355238Y-127676666D01*
X60450476Y-127771904D01*
X60498095Y-127867142D01*
X61422380Y-126362857D02*
X60422380Y-126362857D01*
X60422380Y-125981904D01*
X60470000Y-125886666D01*
X60517619Y-125839047D01*
X60612857Y-125791428D01*
X60755714Y-125791428D01*
X60850952Y-125839047D01*
X60898571Y-125886666D01*
X60946190Y-125981904D01*
X60946190Y-126362857D01*
X60422380Y-125505714D02*
X60422380Y-124934285D01*
X61422380Y-125220000D02*
X60422380Y-125220000D01*
X61327142Y-124029523D02*
X61374761Y-124077142D01*
X61422380Y-124220000D01*
X61422380Y-124315238D01*
X61374761Y-124458095D01*
X61279523Y-124553333D01*
X61184285Y-124600952D01*
X60993809Y-124648571D01*
X60850952Y-124648571D01*
X60660476Y-124600952D01*
X60565238Y-124553333D01*
X60470000Y-124458095D01*
X60422380Y-124315238D01*
X60422380Y-124220000D01*
X60470000Y-124077142D01*
X60517619Y-124029523D01*
X82958095Y-59442380D02*
X82958095Y-60251904D01*
X83005714Y-60347142D01*
X83053333Y-60394761D01*
X83148571Y-60442380D01*
X83339047Y-60442380D01*
X83434285Y-60394761D01*
X83481904Y-60347142D01*
X83529523Y-60251904D01*
X83529523Y-59442380D01*
X84529523Y-60442380D02*
X83958095Y-60442380D01*
X84243809Y-60442380D02*
X84243809Y-59442380D01*
X84148571Y-59585238D01*
X84053333Y-59680476D01*
X83958095Y-59728095D01*
X89382380Y-85446666D02*
X88382380Y-85446666D01*
X88382380Y-85065714D01*
X88430000Y-84970476D01*
X88477619Y-84922857D01*
X88572857Y-84875238D01*
X88715714Y-84875238D01*
X88810952Y-84922857D01*
X88858571Y-84970476D01*
X88906190Y-85065714D01*
X88906190Y-85446666D01*
X89382380Y-84446666D02*
X88382380Y-84446666D01*
X89287142Y-83399047D02*
X89334761Y-83446666D01*
X89382380Y-83589523D01*
X89382380Y-83684761D01*
X89334761Y-83827619D01*
X89239523Y-83922857D01*
X89144285Y-83970476D01*
X88953809Y-84018095D01*
X88810952Y-84018095D01*
X88620476Y-83970476D01*
X88525238Y-83922857D01*
X88430000Y-83827619D01*
X88382380Y-83684761D01*
X88382380Y-83589523D01*
X88430000Y-83446666D01*
X88477619Y-83399047D01*
X89382380Y-82446666D02*
X89382380Y-83018095D01*
X89382380Y-82732380D02*
X88382380Y-82732380D01*
X88525238Y-82827619D01*
X88620476Y-82922857D01*
X88668095Y-83018095D01*
X88810952Y-81875238D02*
X88763333Y-81970476D01*
X88715714Y-82018095D01*
X88620476Y-82065714D01*
X88572857Y-82065714D01*
X88477619Y-82018095D01*
X88430000Y-81970476D01*
X88382380Y-81875238D01*
X88382380Y-81684761D01*
X88430000Y-81589523D01*
X88477619Y-81541904D01*
X88572857Y-81494285D01*
X88620476Y-81494285D01*
X88715714Y-81541904D01*
X88763333Y-81589523D01*
X88810952Y-81684761D01*
X88810952Y-81875238D01*
X88858571Y-81970476D01*
X88906190Y-82018095D01*
X89001428Y-82065714D01*
X89191904Y-82065714D01*
X89287142Y-82018095D01*
X89334761Y-81970476D01*
X89382380Y-81875238D01*
X89382380Y-81684761D01*
X89334761Y-81589523D01*
X89287142Y-81541904D01*
X89191904Y-81494285D01*
X89001428Y-81494285D01*
X88906190Y-81541904D01*
X88858571Y-81589523D01*
X88810952Y-81684761D01*
X88858571Y-80732380D02*
X88858571Y-81065714D01*
X89382380Y-81065714D02*
X88382380Y-81065714D01*
X88382380Y-80589523D01*
X88715714Y-79780000D02*
X89382380Y-79780000D01*
X88334761Y-80018095D02*
X89049047Y-80256190D01*
X89049047Y-79637142D01*
X88382380Y-78780000D02*
X88382380Y-79256190D01*
X88858571Y-79303809D01*
X88810952Y-79256190D01*
X88763333Y-79160952D01*
X88763333Y-78922857D01*
X88810952Y-78827619D01*
X88858571Y-78780000D01*
X88953809Y-78732380D01*
X89191904Y-78732380D01*
X89287142Y-78780000D01*
X89334761Y-78827619D01*
X89382380Y-78922857D01*
X89382380Y-79160952D01*
X89334761Y-79256190D01*
X89287142Y-79303809D01*
X89382380Y-78303809D02*
X88382380Y-78303809D01*
X89382380Y-77732380D02*
X88810952Y-78160952D01*
X88382380Y-77732380D02*
X88953809Y-78303809D01*
X88477619Y-77351428D02*
X88430000Y-77303809D01*
X88382380Y-77208571D01*
X88382380Y-76970476D01*
X88430000Y-76875238D01*
X88477619Y-76827619D01*
X88572857Y-76780000D01*
X88668095Y-76780000D01*
X88810952Y-76827619D01*
X89382380Y-77399047D01*
X89382380Y-76780000D01*
X88477619Y-76399047D02*
X88430000Y-76351428D01*
X88382380Y-76256190D01*
X88382380Y-76018095D01*
X88430000Y-75922857D01*
X88477619Y-75875238D01*
X88572857Y-75827619D01*
X88668095Y-75827619D01*
X88810952Y-75875238D01*
X89382380Y-76446666D01*
X89382380Y-75827619D01*
X89001428Y-75399047D02*
X89001428Y-74637142D01*
X89382380Y-74160952D02*
X88382380Y-74160952D01*
X88334761Y-72970476D02*
X89620476Y-73827619D01*
X89382380Y-72637142D02*
X88382380Y-72637142D01*
X88382380Y-72256190D01*
X88430000Y-72160952D01*
X88477619Y-72113333D01*
X88572857Y-72065714D01*
X88715714Y-72065714D01*
X88810952Y-72113333D01*
X88858571Y-72160952D01*
X88906190Y-72256190D01*
X88906190Y-72637142D01*
X105013333Y-119957142D02*
X104965714Y-120004761D01*
X104822857Y-120052380D01*
X104727619Y-120052380D01*
X104584761Y-120004761D01*
X104489523Y-119909523D01*
X104441904Y-119814285D01*
X104394285Y-119623809D01*
X104394285Y-119480952D01*
X104441904Y-119290476D01*
X104489523Y-119195238D01*
X104584761Y-119100000D01*
X104727619Y-119052380D01*
X104822857Y-119052380D01*
X104965714Y-119100000D01*
X105013333Y-119147619D01*
X105870476Y-119385714D02*
X105870476Y-120052380D01*
X105632380Y-119004761D02*
X105394285Y-119719047D01*
X106013333Y-119719047D01*
X100445714Y-117542380D02*
X100540952Y-117542380D01*
X100636190Y-117590000D01*
X100683809Y-117637619D01*
X100731428Y-117732857D01*
X100779047Y-117923333D01*
X100779047Y-118161428D01*
X100731428Y-118351904D01*
X100683809Y-118447142D01*
X100636190Y-118494761D01*
X100540952Y-118542380D01*
X100445714Y-118542380D01*
X100350476Y-118494761D01*
X100302857Y-118447142D01*
X100255238Y-118351904D01*
X100207619Y-118161428D01*
X100207619Y-117923333D01*
X100255238Y-117732857D01*
X100302857Y-117637619D01*
X100350476Y-117590000D01*
X100445714Y-117542380D01*
X101207619Y-118447142D02*
X101255238Y-118494761D01*
X101207619Y-118542380D01*
X101160000Y-118494761D01*
X101207619Y-118447142D01*
X101207619Y-118542380D01*
X102207619Y-118542380D02*
X101636190Y-118542380D01*
X101921904Y-118542380D02*
X101921904Y-117542380D01*
X101826666Y-117685238D01*
X101731428Y-117780476D01*
X101636190Y-117828095D01*
X103064761Y-117875714D02*
X103064761Y-118542380D01*
X102636190Y-117875714D02*
X102636190Y-118399523D01*
X102683809Y-118494761D01*
X102779047Y-118542380D01*
X102921904Y-118542380D01*
X103017142Y-118494761D01*
X103064761Y-118447142D01*
X93893333Y-130687142D02*
X93845714Y-130734761D01*
X93702857Y-130782380D01*
X93607619Y-130782380D01*
X93464761Y-130734761D01*
X93369523Y-130639523D01*
X93321904Y-130544285D01*
X93274285Y-130353809D01*
X93274285Y-130210952D01*
X93321904Y-130020476D01*
X93369523Y-129925238D01*
X93464761Y-129830000D01*
X93607619Y-129782380D01*
X93702857Y-129782380D01*
X93845714Y-129830000D01*
X93893333Y-129877619D01*
X94464761Y-130210952D02*
X94369523Y-130163333D01*
X94321904Y-130115714D01*
X94274285Y-130020476D01*
X94274285Y-129972857D01*
X94321904Y-129877619D01*
X94369523Y-129830000D01*
X94464761Y-129782380D01*
X94655238Y-129782380D01*
X94750476Y-129830000D01*
X94798095Y-129877619D01*
X94845714Y-129972857D01*
X94845714Y-130020476D01*
X94798095Y-130115714D01*
X94750476Y-130163333D01*
X94655238Y-130210952D01*
X94464761Y-130210952D01*
X94369523Y-130258571D01*
X94321904Y-130306190D01*
X94274285Y-130401428D01*
X94274285Y-130591904D01*
X94321904Y-130687142D01*
X94369523Y-130734761D01*
X94464761Y-130782380D01*
X94655238Y-130782380D01*
X94750476Y-130734761D01*
X94798095Y-130687142D01*
X94845714Y-130591904D01*
X94845714Y-130401428D01*
X94798095Y-130306190D01*
X94750476Y-130258571D01*
X94655238Y-130210952D01*
X96285714Y-131352380D02*
X96380952Y-131352380D01*
X96476190Y-131400000D01*
X96523809Y-131447619D01*
X96571428Y-131542857D01*
X96619047Y-131733333D01*
X96619047Y-131971428D01*
X96571428Y-132161904D01*
X96523809Y-132257142D01*
X96476190Y-132304761D01*
X96380952Y-132352380D01*
X96285714Y-132352380D01*
X96190476Y-132304761D01*
X96142857Y-132257142D01*
X96095238Y-132161904D01*
X96047619Y-131971428D01*
X96047619Y-131733333D01*
X96095238Y-131542857D01*
X96142857Y-131447619D01*
X96190476Y-131400000D01*
X96285714Y-131352380D01*
X97047619Y-132257142D02*
X97095238Y-132304761D01*
X97047619Y-132352380D01*
X97000000Y-132304761D01*
X97047619Y-132257142D01*
X97047619Y-132352380D01*
X98047619Y-132352380D02*
X97476190Y-132352380D01*
X97761904Y-132352380D02*
X97761904Y-131352380D01*
X97666666Y-131495238D01*
X97571428Y-131590476D01*
X97476190Y-131638095D01*
X98904761Y-131685714D02*
X98904761Y-132352380D01*
X98476190Y-131685714D02*
X98476190Y-132209523D01*
X98523809Y-132304761D01*
X98619047Y-132352380D01*
X98761904Y-132352380D01*
X98857142Y-132304761D01*
X98904761Y-132257142D01*
X85152380Y-119166666D02*
X84676190Y-119500000D01*
X85152380Y-119738095D02*
X84152380Y-119738095D01*
X84152380Y-119357142D01*
X84200000Y-119261904D01*
X84247619Y-119214285D01*
X84342857Y-119166666D01*
X84485714Y-119166666D01*
X84580952Y-119214285D01*
X84628571Y-119261904D01*
X84676190Y-119357142D01*
X84676190Y-119738095D01*
X84247619Y-118785714D02*
X84200000Y-118738095D01*
X84152380Y-118642857D01*
X84152380Y-118404761D01*
X84200000Y-118309523D01*
X84247619Y-118261904D01*
X84342857Y-118214285D01*
X84438095Y-118214285D01*
X84580952Y-118261904D01*
X85152380Y-118833333D01*
X85152380Y-118214285D01*
X82447619Y-122261904D02*
X82400000Y-122214285D01*
X82352380Y-122119047D01*
X82352380Y-121880952D01*
X82400000Y-121785714D01*
X82447619Y-121738095D01*
X82542857Y-121690476D01*
X82638095Y-121690476D01*
X82780952Y-121738095D01*
X83352380Y-122309523D01*
X83352380Y-121690476D01*
X82352380Y-121357142D02*
X82352380Y-120690476D01*
X83352380Y-121119047D01*
X87452380Y-119266666D02*
X86976190Y-119600000D01*
X87452380Y-119838095D02*
X86452380Y-119838095D01*
X86452380Y-119457142D01*
X86500000Y-119361904D01*
X86547619Y-119314285D01*
X86642857Y-119266666D01*
X86785714Y-119266666D01*
X86880952Y-119314285D01*
X86928571Y-119361904D01*
X86976190Y-119457142D01*
X86976190Y-119838095D01*
X86452380Y-118933333D02*
X86452380Y-118314285D01*
X86833333Y-118647619D01*
X86833333Y-118504761D01*
X86880952Y-118409523D01*
X86928571Y-118361904D01*
X87023809Y-118314285D01*
X87261904Y-118314285D01*
X87357142Y-118361904D01*
X87404761Y-118409523D01*
X87452380Y-118504761D01*
X87452380Y-118790476D01*
X87404761Y-118885714D01*
X87357142Y-118933333D01*
X88047619Y-122361904D02*
X88000000Y-122314285D01*
X87952380Y-122219047D01*
X87952380Y-121980952D01*
X88000000Y-121885714D01*
X88047619Y-121838095D01*
X88142857Y-121790476D01*
X88238095Y-121790476D01*
X88380952Y-121838095D01*
X88952380Y-122409523D01*
X88952380Y-121790476D01*
X87952380Y-121457142D02*
X87952380Y-120790476D01*
X88952380Y-121219047D01*
%LPC*%
D15*
X55000000Y-64000000D03*
D16*
X55000000Y-66500000D03*
X55000000Y-69000000D03*
X55000000Y-71500000D03*
X55000000Y-74000000D03*
D17*
X68500000Y-61000000D03*
D18*
X65960000Y-61000000D03*
D17*
X68500000Y-65000000D03*
D18*
X65960000Y-65000000D03*
D17*
X68500000Y-72600000D03*
D18*
X65960000Y-72600000D03*
D17*
X68500000Y-76500000D03*
D18*
X65960000Y-76500000D03*
D17*
X68500000Y-80400000D03*
D18*
X65960000Y-80400000D03*
D17*
X68500000Y-84400000D03*
D18*
X65960000Y-84400000D03*
D17*
X68500000Y-88400000D03*
D18*
X65960000Y-88400000D03*
D17*
X113400000Y-58400000D03*
D18*
X110860000Y-58400000D03*
D17*
X113500000Y-54500000D03*
D18*
X110960000Y-54500000D03*
D17*
X68500000Y-92500000D03*
D18*
X65960000Y-92500000D03*
D17*
X68500000Y-96400000D03*
D18*
X65960000Y-96400000D03*
D17*
X68500000Y-100400000D03*
D18*
X65960000Y-100400000D03*
D17*
X68500000Y-104400000D03*
D18*
X65960000Y-104400000D03*
D17*
X113600000Y-89000000D03*
D18*
X111060000Y-89000000D03*
D17*
X113600000Y-93000000D03*
D18*
X111060000Y-93000000D03*
D17*
X113600000Y-97100000D03*
D18*
X111060000Y-97100000D03*
D17*
X113600000Y-101000000D03*
D18*
X111060000Y-101000000D03*
D17*
X113600000Y-105100000D03*
D18*
X111060000Y-105100000D03*
D17*
X113600000Y-109100000D03*
D18*
X111060000Y-109100000D03*
D17*
X113600000Y-113100000D03*
D18*
X111060000Y-113100000D03*
D17*
X113600000Y-117100000D03*
D18*
X111060000Y-117100000D03*
D17*
X68500000Y-108400000D03*
D18*
X65960000Y-108400000D03*
D17*
X113600000Y-78500000D03*
D18*
X111060000Y-78500000D03*
D17*
X113500000Y-70500000D03*
D18*
X110960000Y-70500000D03*
D17*
X68500000Y-112300000D03*
D18*
X65960000Y-112300000D03*
D17*
X119700000Y-121700000D03*
D18*
X117160000Y-121700000D03*
D17*
X113600000Y-82500000D03*
D18*
X111060000Y-82500000D03*
D17*
X113500000Y-66500000D03*
D18*
X110960000Y-66500000D03*
D17*
X113500000Y-62500000D03*
D18*
X110960000Y-62500000D03*
D17*
X113600000Y-74500000D03*
D18*
X111060000Y-74500000D03*
D17*
X68500000Y-57000000D03*
D18*
X65960000Y-57000000D03*
D19*
X101457500Y-121879000D03*
X100822500Y-121879000D03*
X100187500Y-121879000D03*
X99552500Y-121879000D03*
X98917500Y-121879000D03*
X98282500Y-121879000D03*
X97647500Y-121879000D03*
X97012500Y-121879000D03*
X96377500Y-121879000D03*
X95742500Y-121879000D03*
X95742500Y-127721000D03*
X96377500Y-127721000D03*
X96987100Y-127721000D03*
X97647500Y-127721000D03*
X98282500Y-127721000D03*
X98917500Y-127721000D03*
X99552500Y-127721000D03*
X100212900Y-127721000D03*
X100822500Y-127721000D03*
X101457500Y-127721000D03*
D20*
X58930000Y-118720000D03*
X53930000Y-118720000D03*
D21*
X106700000Y-93240000D03*
D22*
X106700000Y-95780000D03*
X106700000Y-98320000D03*
X106700000Y-100860000D03*
X106700000Y-103400000D03*
X106700000Y-105940000D03*
X106700000Y-108480000D03*
X106700000Y-111020000D03*
X106700000Y-113560000D03*
D21*
X106900000Y-80760000D03*
D22*
X106900000Y-78220000D03*
X106900000Y-75680000D03*
X106900000Y-73140000D03*
X106900000Y-70600000D03*
X106900000Y-68060000D03*
X106900000Y-65520000D03*
X106900000Y-62980000D03*
X106900000Y-60440000D03*
D23*
X54000000Y-54000000D03*
X126000000Y-54000000D03*
X126000000Y-130000000D03*
X54000000Y-130000000D03*
D21*
X73000000Y-74840000D03*
D22*
X73000000Y-77380000D03*
X73000000Y-79920000D03*
X73000000Y-82460000D03*
X73000000Y-85000000D03*
X73000000Y-87540000D03*
X73000000Y-90080000D03*
X73000000Y-92620000D03*
X73000000Y-95160000D03*
D24*
X73000000Y-97700000D03*
D21*
X73000000Y-55340000D03*
D22*
X73000000Y-57880000D03*
X73000000Y-60420000D03*
X73000000Y-62960000D03*
X73000000Y-65500000D03*
D21*
X73000000Y-103340000D03*
D22*
X73000000Y-105880000D03*
X73000000Y-108420000D03*
X73000000Y-110960000D03*
X73000000Y-113500000D03*
X73000000Y-116040000D03*
D25*
X126000000Y-76000000D03*
D26*
X123460000Y-76000000D03*
X126000000Y-73460000D03*
X123460000Y-73460000D03*
X126000000Y-70920000D03*
X123460000Y-70920000D03*
X126000000Y-68380000D03*
X123460000Y-68380000D03*
X126000000Y-65840000D03*
X123460000Y-65840000D03*
D25*
X126000000Y-107000000D03*
D26*
X123460000Y-107000000D03*
X126000000Y-104460000D03*
X123460000Y-104460000D03*
X126000000Y-101920000D03*
X123460000Y-101920000D03*
X126000000Y-99380000D03*
X123460000Y-99380000D03*
X126000000Y-96840000D03*
X123460000Y-96840000D03*
D27*
X84480000Y-125850000D03*
X85280000Y-127050000D03*
X86080000Y-125850000D03*
X86880000Y-127050000D03*
X87680000Y-125850000D03*
D28*
X82380000Y-126750000D03*
X82380000Y-131500000D03*
X89780000Y-126750000D03*
X89780000Y-131500000D03*
D29*
X95500000Y-53000000D03*
D30*
X92960000Y-53000000D03*
X90420000Y-53000000D03*
X87880000Y-53000000D03*
X85340000Y-53000000D03*
X82800000Y-53000000D03*
D21*
X67860000Y-127500000D03*
D22*
X70400000Y-127500000D03*
X72940000Y-127500000D03*
D25*
X54100000Y-89600000D03*
D26*
X56640000Y-89600000D03*
X54100000Y-92140000D03*
X56640000Y-92140000D03*
X54100000Y-94680000D03*
X56640000Y-94680000D03*
X54100000Y-97220000D03*
X56640000Y-97220000D03*
X54100000Y-99760000D03*
X56640000Y-99760000D03*
X54100000Y-102300000D03*
X56640000Y-102300000D03*
X54100000Y-104840000D03*
X56640000Y-104840000D03*
D20*
X96230000Y-57000000D03*
X98770000Y-57000000D03*
X124500000Y-116230000D03*
X124500000Y-118770000D03*
D31*
X119000000Y-131000000D03*
X113000000Y-131000000D03*
X119000000Y-127000000D03*
X112750000Y-126750000D03*
D32*
X78800000Y-118400000D03*
D20*
X78800000Y-123400000D03*
D32*
X108500000Y-129300000D03*
D20*
X108500000Y-124300000D03*
D32*
X93000000Y-57000000D03*
D20*
X88000000Y-57000000D03*
D33*
X78000000Y-89000000D03*
D34*
X78000000Y-91500000D03*
D33*
X126000000Y-86200000D03*
D34*
X123500000Y-86200000D03*
D33*
X100530000Y-83820000D03*
D34*
X100530000Y-86320000D03*
D33*
X68400000Y-116900000D03*
D34*
X65900000Y-116900000D03*
D32*
X63000000Y-128000000D03*
D20*
X63000000Y-123000000D03*
D35*
X81280000Y-63500000D03*
X81280000Y-66040000D03*
X81280000Y-68580000D03*
X81280000Y-71120000D03*
X81280000Y-73660000D03*
X81280000Y-76200000D03*
X81280000Y-78740000D03*
X81280000Y-81280000D03*
X81280000Y-83820000D03*
X81280000Y-86360000D03*
X81280000Y-88900000D03*
X81280000Y-91440000D03*
X81280000Y-93980000D03*
X81280000Y-96520000D03*
X81280000Y-99060000D03*
X81280000Y-101600000D03*
X81280000Y-104140000D03*
X81280000Y-106680000D03*
X81280000Y-109220000D03*
X81280000Y-111760000D03*
X96520000Y-111760000D03*
X96520000Y-109220000D03*
X96520000Y-106680000D03*
X96520000Y-104140000D03*
X96520000Y-101600000D03*
X96520000Y-99060000D03*
X96520000Y-96520000D03*
X96520000Y-93980000D03*
X96520000Y-91440000D03*
X96520000Y-88900000D03*
X96520000Y-86360000D03*
X96520000Y-83820000D03*
X96520000Y-81280000D03*
X96520000Y-78740000D03*
X96520000Y-76200000D03*
X96520000Y-73660000D03*
X96520000Y-71120000D03*
X96520000Y-68580000D03*
X96520000Y-66040000D03*
X96520000Y-63500000D03*
D36*
X100730000Y-119500000D03*
X102630000Y-119500000D03*
X96550000Y-130300000D03*
X98450000Y-130300000D03*
D37*
X84600000Y-121100000D03*
X84600000Y-123300000D03*
X86900000Y-121100000D03*
X86900000Y-123300000D03*
M02*
