G04 #@! TF.FileFunction,Copper,L2,Bot,Signal*
%FSLAX46Y46*%
G04 Gerber Fmt 4.6, Leading zero omitted, Abs format (unit mm)*
G04 Created by KiCad (PCBNEW 4.0.4-stable) date 01/16/17 16:34:01*
%MOMM*%
%LPD*%
G01*
G04 APERTURE LIST*
%ADD10C,0.100000*%
%ADD11C,0.150000*%
%ADD12C,0.300000*%
%ADD13C,0.400000*%
%ADD14R,1.850000X1.850000*%
%ADD15C,1.850000*%
%ADD16R,1.500000X1.500000*%
%ADD17C,1.500000*%
%ADD18C,1.300000*%
%ADD19R,1.397000X1.397000*%
%ADD20C,1.397000*%
%ADD21C,3.500000*%
%ADD22C,1.524000*%
%ADD23R,1.727200X1.727200*%
%ADD24O,1.727200X1.727200*%
%ADD25O,1.000000X1.200000*%
%ADD26O,1.300000X3.200000*%
%ADD27R,1.727200X2.032000*%
%ADD28O,1.727200X2.032000*%
%ADD29C,1.700000*%
%ADD30R,1.300000X1.300000*%
%ADD31R,1.200000X1.200000*%
%ADD32C,1.200000*%
%ADD33O,2.300000X1.600000*%
%ADD34C,1.000000*%
%ADD35C,0.800000*%
%ADD36C,0.800000*%
%ADD37C,0.254000*%
G04 APERTURE END LIST*
D10*
D11*
X177002200Y-166007200D02*
X177002200Y-198007200D01*
X285002200Y-198007200D01*
X285002200Y-166007200D01*
X177002200Y-166007200D01*
D10*
D11*
X10000000Y-10000000D02*
X10000000Y-200007200D01*
X287002200Y-200007200D01*
X287002200Y-10000000D01*
X10000000Y-10000000D01*
D10*
D11*
X12000000Y-12000000D02*
X12000000Y-198007200D01*
X285002200Y-198007200D01*
X285002200Y-12000000D01*
X12000000Y-12000000D01*
D10*
D11*
X60000000Y-12000000D02*
X60000000Y-10000000D01*
D10*
D11*
X110000000Y-12000000D02*
X110000000Y-10000000D01*
D10*
D11*
X160000000Y-12000000D02*
X160000000Y-10000000D01*
D10*
D11*
X210000000Y-12000000D02*
X210000000Y-10000000D01*
D10*
D11*
X260000000Y-12000000D02*
X260000000Y-10000000D01*
D10*
D11*
X35990476Y-11588095D02*
X35247619Y-11588095D01*
X35619048Y-11588095D02*
X35619048Y-10288095D01*
X35495238Y-10473810D01*
X35371429Y-10597619D01*
X35247619Y-10659524D01*
D10*
D11*
X85247619Y-10411905D02*
X85309524Y-10350000D01*
X85433333Y-10288095D01*
X85742857Y-10288095D01*
X85866667Y-10350000D01*
X85928571Y-10411905D01*
X85990476Y-10535714D01*
X85990476Y-10659524D01*
X85928571Y-10845238D01*
X85185714Y-11588095D01*
X85990476Y-11588095D01*
D10*
D11*
X135185714Y-10288095D02*
X135990476Y-10288095D01*
X135557143Y-10783333D01*
X135742857Y-10783333D01*
X135866667Y-10845238D01*
X135928571Y-10907143D01*
X135990476Y-11030952D01*
X135990476Y-11340476D01*
X135928571Y-11464286D01*
X135866667Y-11526190D01*
X135742857Y-11588095D01*
X135371429Y-11588095D01*
X135247619Y-11526190D01*
X135185714Y-11464286D01*
D10*
D11*
X185866667Y-10721429D02*
X185866667Y-11588095D01*
X185557143Y-10226190D02*
X185247619Y-11154762D01*
X186052381Y-11154762D01*
D10*
D11*
X235928571Y-10288095D02*
X235309524Y-10288095D01*
X235247619Y-10907143D01*
X235309524Y-10845238D01*
X235433333Y-10783333D01*
X235742857Y-10783333D01*
X235866667Y-10845238D01*
X235928571Y-10907143D01*
X235990476Y-11030952D01*
X235990476Y-11340476D01*
X235928571Y-11464286D01*
X235866667Y-11526190D01*
X235742857Y-11588095D01*
X235433333Y-11588095D01*
X235309524Y-11526190D01*
X235247619Y-11464286D01*
D10*
D11*
X285866667Y-10288095D02*
X285619048Y-10288095D01*
X285495238Y-10350000D01*
X285433333Y-10411905D01*
X285309524Y-10597619D01*
X285247619Y-10845238D01*
X285247619Y-11340476D01*
X285309524Y-11464286D01*
X285371429Y-11526190D01*
X285495238Y-11588095D01*
X285742857Y-11588095D01*
X285866667Y-11526190D01*
X285928571Y-11464286D01*
X285990476Y-11340476D01*
X285990476Y-11030952D01*
X285928571Y-10907143D01*
X285866667Y-10845238D01*
X285742857Y-10783333D01*
X285495238Y-10783333D01*
X285371429Y-10845238D01*
X285309524Y-10907143D01*
X285247619Y-11030952D01*
D10*
D11*
X60000000Y-198007200D02*
X60000000Y-200007200D01*
D10*
D11*
X110000000Y-198007200D02*
X110000000Y-200007200D01*
D10*
D11*
X160000000Y-198007200D02*
X160000000Y-200007200D01*
D10*
D11*
X210000000Y-198007200D02*
X210000000Y-200007200D01*
D10*
D11*
X260000000Y-198007200D02*
X260000000Y-200007200D01*
D10*
D11*
X35990476Y-199595295D02*
X35247619Y-199595295D01*
X35619048Y-199595295D02*
X35619048Y-198295295D01*
X35495238Y-198481010D01*
X35371429Y-198604819D01*
X35247619Y-198666724D01*
D10*
D11*
X85247619Y-198419105D02*
X85309524Y-198357200D01*
X85433333Y-198295295D01*
X85742857Y-198295295D01*
X85866667Y-198357200D01*
X85928571Y-198419105D01*
X85990476Y-198542914D01*
X85990476Y-198666724D01*
X85928571Y-198852438D01*
X85185714Y-199595295D01*
X85990476Y-199595295D01*
D10*
D11*
X135185714Y-198295295D02*
X135990476Y-198295295D01*
X135557143Y-198790533D01*
X135742857Y-198790533D01*
X135866667Y-198852438D01*
X135928571Y-198914343D01*
X135990476Y-199038152D01*
X135990476Y-199347676D01*
X135928571Y-199471486D01*
X135866667Y-199533390D01*
X135742857Y-199595295D01*
X135371429Y-199595295D01*
X135247619Y-199533390D01*
X135185714Y-199471486D01*
D10*
D11*
X185866667Y-198728629D02*
X185866667Y-199595295D01*
X185557143Y-198233390D02*
X185247619Y-199161962D01*
X186052381Y-199161962D01*
D10*
D11*
X235928571Y-198295295D02*
X235309524Y-198295295D01*
X235247619Y-198914343D01*
X235309524Y-198852438D01*
X235433333Y-198790533D01*
X235742857Y-198790533D01*
X235866667Y-198852438D01*
X235928571Y-198914343D01*
X235990476Y-199038152D01*
X235990476Y-199347676D01*
X235928571Y-199471486D01*
X235866667Y-199533390D01*
X235742857Y-199595295D01*
X235433333Y-199595295D01*
X235309524Y-199533390D01*
X235247619Y-199471486D01*
D10*
D11*
X285866667Y-198295295D02*
X285619048Y-198295295D01*
X285495238Y-198357200D01*
X285433333Y-198419105D01*
X285309524Y-198604819D01*
X285247619Y-198852438D01*
X285247619Y-199347676D01*
X285309524Y-199471486D01*
X285371429Y-199533390D01*
X285495238Y-199595295D01*
X285742857Y-199595295D01*
X285866667Y-199533390D01*
X285928571Y-199471486D01*
X285990476Y-199347676D01*
X285990476Y-199038152D01*
X285928571Y-198914343D01*
X285866667Y-198852438D01*
X285742857Y-198790533D01*
X285495238Y-198790533D01*
X285371429Y-198852438D01*
X285309524Y-198914343D01*
X285247619Y-199038152D01*
D10*
D11*
X10000000Y-60000000D02*
X12000000Y-60000000D01*
D10*
D11*
X10000000Y-110000000D02*
X12000000Y-110000000D01*
D10*
D11*
X10000000Y-160000000D02*
X12000000Y-160000000D01*
D10*
D11*
X10690476Y-35216667D02*
X11309524Y-35216667D01*
X10566667Y-35588095D02*
X11000000Y-34288095D01*
X11433333Y-35588095D01*
D10*
D11*
X11092857Y-84907143D02*
X11278571Y-84969048D01*
X11340476Y-85030952D01*
X11402381Y-85154762D01*
X11402381Y-85340476D01*
X11340476Y-85464286D01*
X11278571Y-85526190D01*
X11154762Y-85588095D01*
X10659524Y-85588095D01*
X10659524Y-84288095D01*
X11092857Y-84288095D01*
X11216667Y-84350000D01*
X11278571Y-84411905D01*
X11340476Y-84535714D01*
X11340476Y-84659524D01*
X11278571Y-84783333D01*
X11216667Y-84845238D01*
X11092857Y-84907143D01*
X10659524Y-84907143D01*
D10*
D11*
X11402381Y-135464286D02*
X11340476Y-135526190D01*
X11154762Y-135588095D01*
X11030952Y-135588095D01*
X10845238Y-135526190D01*
X10721429Y-135402381D01*
X10659524Y-135278571D01*
X10597619Y-135030952D01*
X10597619Y-134845238D01*
X10659524Y-134597619D01*
X10721429Y-134473810D01*
X10845238Y-134350000D01*
X11030952Y-134288095D01*
X11154762Y-134288095D01*
X11340476Y-134350000D01*
X11402381Y-134411905D01*
D10*
D11*
X10659524Y-185588095D02*
X10659524Y-184288095D01*
X10969048Y-184288095D01*
X11154762Y-184350000D01*
X11278571Y-184473810D01*
X11340476Y-184597619D01*
X11402381Y-184845238D01*
X11402381Y-185030952D01*
X11340476Y-185278571D01*
X11278571Y-185402381D01*
X11154762Y-185526190D01*
X10969048Y-185588095D01*
X10659524Y-185588095D01*
D10*
D11*
X287002200Y-60000000D02*
X285002200Y-60000000D01*
D10*
D11*
X287002200Y-110000000D02*
X285002200Y-110000000D01*
D10*
D11*
X287002200Y-160000000D02*
X285002200Y-160000000D01*
D10*
D11*
X285692676Y-35216667D02*
X286311724Y-35216667D01*
X285568867Y-35588095D02*
X286002200Y-34288095D01*
X286435533Y-35588095D01*
D10*
D11*
X286095057Y-84907143D02*
X286280771Y-84969048D01*
X286342676Y-85030952D01*
X286404581Y-85154762D01*
X286404581Y-85340476D01*
X286342676Y-85464286D01*
X286280771Y-85526190D01*
X286156962Y-85588095D01*
X285661724Y-85588095D01*
X285661724Y-84288095D01*
X286095057Y-84288095D01*
X286218867Y-84350000D01*
X286280771Y-84411905D01*
X286342676Y-84535714D01*
X286342676Y-84659524D01*
X286280771Y-84783333D01*
X286218867Y-84845238D01*
X286095057Y-84907143D01*
X285661724Y-84907143D01*
D10*
D11*
X286404581Y-135464286D02*
X286342676Y-135526190D01*
X286156962Y-135588095D01*
X286033152Y-135588095D01*
X285847438Y-135526190D01*
X285723629Y-135402381D01*
X285661724Y-135278571D01*
X285599819Y-135030952D01*
X285599819Y-134845238D01*
X285661724Y-134597619D01*
X285723629Y-134473810D01*
X285847438Y-134350000D01*
X286033152Y-134288095D01*
X286156962Y-134288095D01*
X286342676Y-134350000D01*
X286404581Y-134411905D01*
D10*
D11*
X285661724Y-185588095D02*
X285661724Y-184288095D01*
X285971248Y-184288095D01*
X286156962Y-184350000D01*
X286280771Y-184473810D01*
X286342676Y-184597619D01*
X286404581Y-184845238D01*
X286404581Y-185030952D01*
X286342676Y-185278571D01*
X286280771Y-185402381D01*
X286156962Y-185526190D01*
X285971248Y-185588095D01*
X285661724Y-185588095D01*
D10*
D11*
X200359343Y-193785771D02*
X200359343Y-192285771D01*
X200716486Y-192285771D01*
X200930771Y-192357200D01*
X201073629Y-192500057D01*
X201145057Y-192642914D01*
X201216486Y-192928629D01*
X201216486Y-193142914D01*
X201145057Y-193428629D01*
X201073629Y-193571486D01*
X200930771Y-193714343D01*
X200716486Y-193785771D01*
X200359343Y-193785771D01*
X202502200Y-193785771D02*
X202502200Y-193000057D01*
X202430771Y-192857200D01*
X202287914Y-192785771D01*
X202002200Y-192785771D01*
X201859343Y-192857200D01*
X202502200Y-193714343D02*
X202359343Y-193785771D01*
X202002200Y-193785771D01*
X201859343Y-193714343D01*
X201787914Y-193571486D01*
X201787914Y-193428629D01*
X201859343Y-193285771D01*
X202002200Y-193214343D01*
X202359343Y-193214343D01*
X202502200Y-193142914D01*
X203002200Y-192785771D02*
X203573629Y-192785771D01*
X203216486Y-192285771D02*
X203216486Y-193571486D01*
X203287914Y-193714343D01*
X203430772Y-193785771D01*
X203573629Y-193785771D01*
X204645057Y-193714343D02*
X204502200Y-193785771D01*
X204216486Y-193785771D01*
X204073629Y-193714343D01*
X204002200Y-193571486D01*
X204002200Y-193000057D01*
X204073629Y-192857200D01*
X204216486Y-192785771D01*
X204502200Y-192785771D01*
X204645057Y-192857200D01*
X204716486Y-193000057D01*
X204716486Y-193142914D01*
X204002200Y-193285771D01*
X205359343Y-193642914D02*
X205430771Y-193714343D01*
X205359343Y-193785771D01*
X205287914Y-193714343D01*
X205359343Y-193642914D01*
X205359343Y-193785771D01*
X205359343Y-192857200D02*
X205430771Y-192928629D01*
X205359343Y-193000057D01*
X205287914Y-192928629D01*
X205359343Y-192857200D01*
X205359343Y-193000057D01*
D10*
D11*
X177002200Y-194507200D02*
X285002200Y-194507200D01*
D10*
D11*
X178359343Y-196585771D02*
X178359343Y-195085771D01*
X179216486Y-196585771D02*
X178573629Y-195728629D01*
X179216486Y-195085771D02*
X178359343Y-195942914D01*
X179859343Y-196585771D02*
X179859343Y-195585771D01*
X179859343Y-195085771D02*
X179787914Y-195157200D01*
X179859343Y-195228629D01*
X179930771Y-195157200D01*
X179859343Y-195085771D01*
X179859343Y-195228629D01*
X181430772Y-196442914D02*
X181359343Y-196514343D01*
X181145057Y-196585771D01*
X181002200Y-196585771D01*
X180787915Y-196514343D01*
X180645057Y-196371486D01*
X180573629Y-196228629D01*
X180502200Y-195942914D01*
X180502200Y-195728629D01*
X180573629Y-195442914D01*
X180645057Y-195300057D01*
X180787915Y-195157200D01*
X181002200Y-195085771D01*
X181145057Y-195085771D01*
X181359343Y-195157200D01*
X181430772Y-195228629D01*
X182716486Y-196585771D02*
X182716486Y-195800057D01*
X182645057Y-195657200D01*
X182502200Y-195585771D01*
X182216486Y-195585771D01*
X182073629Y-195657200D01*
X182716486Y-196514343D02*
X182573629Y-196585771D01*
X182216486Y-196585771D01*
X182073629Y-196514343D01*
X182002200Y-196371486D01*
X182002200Y-196228629D01*
X182073629Y-196085771D01*
X182216486Y-196014343D01*
X182573629Y-196014343D01*
X182716486Y-195942914D01*
X184073629Y-196585771D02*
X184073629Y-195085771D01*
X184073629Y-196514343D02*
X183930772Y-196585771D01*
X183645058Y-196585771D01*
X183502200Y-196514343D01*
X183430772Y-196442914D01*
X183359343Y-196300057D01*
X183359343Y-195871486D01*
X183430772Y-195728629D01*
X183502200Y-195657200D01*
X183645058Y-195585771D01*
X183930772Y-195585771D01*
X184073629Y-195657200D01*
X185930772Y-195800057D02*
X186430772Y-195800057D01*
X186645058Y-196585771D02*
X185930772Y-196585771D01*
X185930772Y-195085771D01*
X186645058Y-195085771D01*
X187287915Y-196442914D02*
X187359343Y-196514343D01*
X187287915Y-196585771D01*
X187216486Y-196514343D01*
X187287915Y-196442914D01*
X187287915Y-196585771D01*
X188002201Y-196585771D02*
X188002201Y-195085771D01*
X188359344Y-195085771D01*
X188573629Y-195157200D01*
X188716487Y-195300057D01*
X188787915Y-195442914D01*
X188859344Y-195728629D01*
X188859344Y-195942914D01*
X188787915Y-196228629D01*
X188716487Y-196371486D01*
X188573629Y-196514343D01*
X188359344Y-196585771D01*
X188002201Y-196585771D01*
X189502201Y-196442914D02*
X189573629Y-196514343D01*
X189502201Y-196585771D01*
X189430772Y-196514343D01*
X189502201Y-196442914D01*
X189502201Y-196585771D01*
X190145058Y-196157200D02*
X190859344Y-196157200D01*
X190002201Y-196585771D02*
X190502201Y-195085771D01*
X191002201Y-196585771D01*
X191502201Y-196442914D02*
X191573629Y-196514343D01*
X191502201Y-196585771D01*
X191430772Y-196514343D01*
X191502201Y-196442914D01*
X191502201Y-196585771D01*
X194502201Y-196585771D02*
X194502201Y-195085771D01*
X194645058Y-196014343D02*
X195073629Y-196585771D01*
X195073629Y-195585771D02*
X194502201Y-196157200D01*
X195716487Y-196585771D02*
X195716487Y-195585771D01*
X195716487Y-195085771D02*
X195645058Y-195157200D01*
X195716487Y-195228629D01*
X195787915Y-195157200D01*
X195716487Y-195085771D01*
X195716487Y-195228629D01*
X197073630Y-196514343D02*
X196930773Y-196585771D01*
X196645059Y-196585771D01*
X196502201Y-196514343D01*
X196430773Y-196442914D01*
X196359344Y-196300057D01*
X196359344Y-195871486D01*
X196430773Y-195728629D01*
X196502201Y-195657200D01*
X196645059Y-195585771D01*
X196930773Y-195585771D01*
X197073630Y-195657200D01*
X198359344Y-196585771D02*
X198359344Y-195800057D01*
X198287915Y-195657200D01*
X198145058Y-195585771D01*
X197859344Y-195585771D01*
X197716487Y-195657200D01*
X198359344Y-196514343D02*
X198216487Y-196585771D01*
X197859344Y-196585771D01*
X197716487Y-196514343D01*
X197645058Y-196371486D01*
X197645058Y-196228629D01*
X197716487Y-196085771D01*
X197859344Y-196014343D01*
X198216487Y-196014343D01*
X198359344Y-195942914D01*
X199716487Y-196585771D02*
X199716487Y-195085771D01*
X199716487Y-196514343D02*
X199573630Y-196585771D01*
X199287916Y-196585771D01*
X199145058Y-196514343D01*
X199073630Y-196442914D01*
X199002201Y-196300057D01*
X199002201Y-195871486D01*
X199073630Y-195728629D01*
X199145058Y-195657200D01*
X199287916Y-195585771D01*
X199573630Y-195585771D01*
X199716487Y-195657200D01*
X202216487Y-195585771D02*
X202216487Y-196585771D01*
X201859344Y-195014343D02*
X201502201Y-196085771D01*
X202430773Y-196085771D01*
X203002201Y-196442914D02*
X203073629Y-196514343D01*
X203002201Y-196585771D01*
X202930772Y-196514343D01*
X203002201Y-196442914D01*
X203002201Y-196585771D01*
X204002201Y-195085771D02*
X204145058Y-195085771D01*
X204287915Y-195157200D01*
X204359344Y-195228629D01*
X204430773Y-195371486D01*
X204502201Y-195657200D01*
X204502201Y-196014343D01*
X204430773Y-196300057D01*
X204359344Y-196442914D01*
X204287915Y-196514343D01*
X204145058Y-196585771D01*
X204002201Y-196585771D01*
X203859344Y-196514343D01*
X203787915Y-196442914D01*
X203716487Y-196300057D01*
X203645058Y-196014343D01*
X203645058Y-195657200D01*
X203716487Y-195371486D01*
X203787915Y-195228629D01*
X203859344Y-195157200D01*
X204002201Y-195085771D01*
X205145058Y-196442914D02*
X205216486Y-196514343D01*
X205145058Y-196585771D01*
X205073629Y-196514343D01*
X205145058Y-196442914D01*
X205145058Y-196585771D01*
X206502201Y-195585771D02*
X206502201Y-196585771D01*
X206145058Y-195014343D02*
X205787915Y-196085771D01*
X206716487Y-196085771D01*
X207287915Y-196014343D02*
X208430772Y-196014343D01*
X209073629Y-196514343D02*
X209216486Y-196585771D01*
X209502201Y-196585771D01*
X209645058Y-196514343D01*
X209716486Y-196371486D01*
X209716486Y-196300057D01*
X209645058Y-196157200D01*
X209502201Y-196085771D01*
X209287915Y-196085771D01*
X209145058Y-196014343D01*
X209073629Y-195871486D01*
X209073629Y-195800057D01*
X209145058Y-195657200D01*
X209287915Y-195585771D01*
X209502201Y-195585771D01*
X209645058Y-195657200D01*
X210145058Y-195585771D02*
X210716487Y-195585771D01*
X210359344Y-195085771D02*
X210359344Y-196371486D01*
X210430772Y-196514343D01*
X210573630Y-196585771D01*
X210716487Y-196585771D01*
X211859344Y-196585771D02*
X211859344Y-195800057D01*
X211787915Y-195657200D01*
X211645058Y-195585771D01*
X211359344Y-195585771D01*
X211216487Y-195657200D01*
X211859344Y-196514343D02*
X211716487Y-196585771D01*
X211359344Y-196585771D01*
X211216487Y-196514343D01*
X211145058Y-196371486D01*
X211145058Y-196228629D01*
X211216487Y-196085771D01*
X211359344Y-196014343D01*
X211716487Y-196014343D01*
X211859344Y-195942914D01*
X212573630Y-196585771D02*
X212573630Y-195085771D01*
X212573630Y-195657200D02*
X212716487Y-195585771D01*
X213002201Y-195585771D01*
X213145058Y-195657200D01*
X213216487Y-195728629D01*
X213287916Y-195871486D01*
X213287916Y-196300057D01*
X213216487Y-196442914D01*
X213145058Y-196514343D01*
X213002201Y-196585771D01*
X212716487Y-196585771D01*
X212573630Y-196514343D01*
X214145059Y-196585771D02*
X214002201Y-196514343D01*
X213930773Y-196371486D01*
X213930773Y-195085771D01*
X215287915Y-196514343D02*
X215145058Y-196585771D01*
X214859344Y-196585771D01*
X214716487Y-196514343D01*
X214645058Y-196371486D01*
X214645058Y-195800057D01*
X214716487Y-195657200D01*
X214859344Y-195585771D01*
X215145058Y-195585771D01*
X215287915Y-195657200D01*
X215359344Y-195800057D01*
X215359344Y-195942914D01*
X214645058Y-196085771D01*
D10*
D11*
X177002200Y-191507200D02*
X285002200Y-191507200D01*
D10*
D12*
X264216486Y-193785771D02*
X263716486Y-193071486D01*
X263359343Y-193785771D02*
X263359343Y-192285771D01*
X263930771Y-192285771D01*
X264073629Y-192357200D01*
X264145057Y-192428629D01*
X264216486Y-192571486D01*
X264216486Y-192785771D01*
X264145057Y-192928629D01*
X264073629Y-193000057D01*
X263930771Y-193071486D01*
X263359343Y-193071486D01*
X265430771Y-193714343D02*
X265287914Y-193785771D01*
X265002200Y-193785771D01*
X264859343Y-193714343D01*
X264787914Y-193571486D01*
X264787914Y-193000057D01*
X264859343Y-192857200D01*
X265002200Y-192785771D01*
X265287914Y-192785771D01*
X265430771Y-192857200D01*
X265502200Y-193000057D01*
X265502200Y-193142914D01*
X264787914Y-193285771D01*
X266002200Y-192785771D02*
X266359343Y-193785771D01*
X266716485Y-192785771D01*
X267287914Y-193642914D02*
X267359342Y-193714343D01*
X267287914Y-193785771D01*
X267216485Y-193714343D01*
X267287914Y-193642914D01*
X267287914Y-193785771D01*
X267287914Y-192857200D02*
X267359342Y-192928629D01*
X267287914Y-193000057D01*
X267216485Y-192928629D01*
X267287914Y-192857200D01*
X267287914Y-193000057D01*
D10*
D11*
X178287914Y-193714343D02*
X178502200Y-193785771D01*
X178859343Y-193785771D01*
X179002200Y-193714343D01*
X179073629Y-193642914D01*
X179145057Y-193500057D01*
X179145057Y-193357200D01*
X179073629Y-193214343D01*
X179002200Y-193142914D01*
X178859343Y-193071486D01*
X178573629Y-193000057D01*
X178430771Y-192928629D01*
X178359343Y-192857200D01*
X178287914Y-192714343D01*
X178287914Y-192571486D01*
X178359343Y-192428629D01*
X178430771Y-192357200D01*
X178573629Y-192285771D01*
X178930771Y-192285771D01*
X179145057Y-192357200D01*
X179787914Y-193785771D02*
X179787914Y-192785771D01*
X179787914Y-192285771D02*
X179716485Y-192357200D01*
X179787914Y-192428629D01*
X179859342Y-192357200D01*
X179787914Y-192285771D01*
X179787914Y-192428629D01*
X180359343Y-192785771D02*
X181145057Y-192785771D01*
X180359343Y-193785771D01*
X181145057Y-193785771D01*
X182287914Y-193714343D02*
X182145057Y-193785771D01*
X181859343Y-193785771D01*
X181716486Y-193714343D01*
X181645057Y-193571486D01*
X181645057Y-193000057D01*
X181716486Y-192857200D01*
X181859343Y-192785771D01*
X182145057Y-192785771D01*
X182287914Y-192857200D01*
X182359343Y-193000057D01*
X182359343Y-193142914D01*
X181645057Y-193285771D01*
X183002200Y-193642914D02*
X183073628Y-193714343D01*
X183002200Y-193785771D01*
X182930771Y-193714343D01*
X183002200Y-193642914D01*
X183002200Y-193785771D01*
X183002200Y-192857200D02*
X183073628Y-192928629D01*
X183002200Y-193000057D01*
X182930771Y-192928629D01*
X183002200Y-192857200D01*
X183002200Y-193000057D01*
X184787914Y-193357200D02*
X185502200Y-193357200D01*
X184645057Y-193785771D02*
X185145057Y-192285771D01*
X185645057Y-193785771D01*
X186787914Y-192785771D02*
X186787914Y-193785771D01*
X186430771Y-192214343D02*
X186073628Y-193285771D01*
X187002200Y-193285771D01*
D10*
D11*
X263359343Y-196585771D02*
X263359343Y-195085771D01*
X264716486Y-196585771D02*
X264716486Y-195085771D01*
X264716486Y-196514343D02*
X264573629Y-196585771D01*
X264287915Y-196585771D01*
X264145057Y-196514343D01*
X264073629Y-196442914D01*
X264002200Y-196300057D01*
X264002200Y-195871486D01*
X264073629Y-195728629D01*
X264145057Y-195657200D01*
X264287915Y-195585771D01*
X264573629Y-195585771D01*
X264716486Y-195657200D01*
X265430772Y-196442914D02*
X265502200Y-196514343D01*
X265430772Y-196585771D01*
X265359343Y-196514343D01*
X265430772Y-196442914D01*
X265430772Y-196585771D01*
X265430772Y-195657200D02*
X265502200Y-195728629D01*
X265430772Y-195800057D01*
X265359343Y-195728629D01*
X265430772Y-195657200D01*
X265430772Y-195800057D01*
X268073629Y-196585771D02*
X267216486Y-196585771D01*
X267645058Y-196585771D02*
X267645058Y-195085771D01*
X267502201Y-195300057D01*
X267359343Y-195442914D01*
X267216486Y-195514343D01*
X269787914Y-195014343D02*
X268502200Y-196942914D01*
X271073629Y-196585771D02*
X270216486Y-196585771D01*
X270645058Y-196585771D02*
X270645058Y-195085771D01*
X270502201Y-195300057D01*
X270359343Y-195442914D01*
X270216486Y-195514343D01*
D10*
D11*
X177002200Y-187507200D02*
X285002200Y-187507200D01*
D10*
D13*
X178454581Y-188211962D02*
X179597438Y-188211962D01*
X178776010Y-190211962D02*
X179026010Y-188211962D01*
X180014105Y-190211962D02*
X180180771Y-188878629D01*
X180264105Y-188211962D02*
X180156962Y-188307200D01*
X180240295Y-188402438D01*
X180347439Y-188307200D01*
X180264105Y-188211962D01*
X180240295Y-188402438D01*
X180847438Y-188878629D02*
X181609343Y-188878629D01*
X181216486Y-188211962D02*
X181002200Y-189926248D01*
X181073630Y-190116724D01*
X181252201Y-190211962D01*
X181442677Y-190211962D01*
X182395058Y-190211962D02*
X182216487Y-190116724D01*
X182145057Y-189926248D01*
X182359343Y-188211962D01*
X183930772Y-190116724D02*
X183728391Y-190211962D01*
X183347439Y-190211962D01*
X183168867Y-190116724D01*
X183097438Y-189926248D01*
X183192676Y-189164343D01*
X183311724Y-188973867D01*
X183514105Y-188878629D01*
X183895057Y-188878629D01*
X184073629Y-188973867D01*
X184145057Y-189164343D01*
X184121248Y-189354819D01*
X183145057Y-189545295D01*
X184895057Y-190021486D02*
X184978392Y-190116724D01*
X184871248Y-190211962D01*
X184787915Y-190116724D01*
X184895057Y-190021486D01*
X184871248Y-190211962D01*
X185026010Y-188973867D02*
X185109344Y-189069105D01*
X185002200Y-189164343D01*
X184918867Y-189069105D01*
X185026010Y-188973867D01*
X185002200Y-189164343D01*
D10*
D11*
X178859343Y-185600057D02*
X178359343Y-185600057D01*
X178359343Y-186385771D02*
X178359343Y-184885771D01*
X179073629Y-184885771D01*
X179645057Y-186385771D02*
X179645057Y-185385771D01*
X179645057Y-184885771D02*
X179573628Y-184957200D01*
X179645057Y-185028629D01*
X179716485Y-184957200D01*
X179645057Y-184885771D01*
X179645057Y-185028629D01*
X180573629Y-186385771D02*
X180430771Y-186314343D01*
X180359343Y-186171486D01*
X180359343Y-184885771D01*
X181716485Y-186314343D02*
X181573628Y-186385771D01*
X181287914Y-186385771D01*
X181145057Y-186314343D01*
X181073628Y-186171486D01*
X181073628Y-185600057D01*
X181145057Y-185457200D01*
X181287914Y-185385771D01*
X181573628Y-185385771D01*
X181716485Y-185457200D01*
X181787914Y-185600057D01*
X181787914Y-185742914D01*
X181073628Y-185885771D01*
X182430771Y-186242914D02*
X182502199Y-186314343D01*
X182430771Y-186385771D01*
X182359342Y-186314343D01*
X182430771Y-186242914D01*
X182430771Y-186385771D01*
X182430771Y-185457200D02*
X182502199Y-185528629D01*
X182430771Y-185600057D01*
X182359342Y-185528629D01*
X182430771Y-185457200D01*
X182430771Y-185600057D01*
X184287914Y-186385771D02*
X184287914Y-184885771D01*
X184859342Y-184885771D01*
X185002200Y-184957200D01*
X185073628Y-185028629D01*
X185145057Y-185171486D01*
X185145057Y-185385771D01*
X185073628Y-185528629D01*
X185002200Y-185600057D01*
X184859342Y-185671486D01*
X184287914Y-185671486D01*
X185787914Y-186385771D02*
X185787914Y-184885771D01*
X187359343Y-186242914D02*
X187287914Y-186314343D01*
X187073628Y-186385771D01*
X186930771Y-186385771D01*
X186716486Y-186314343D01*
X186573628Y-186171486D01*
X186502200Y-186028629D01*
X186430771Y-185742914D01*
X186430771Y-185528629D01*
X186502200Y-185242914D01*
X186573628Y-185100057D01*
X186716486Y-184957200D01*
X186930771Y-184885771D01*
X187073628Y-184885771D01*
X187287914Y-184957200D01*
X187359343Y-185028629D01*
X188787914Y-186385771D02*
X187930771Y-186385771D01*
X188359343Y-186385771D02*
X188359343Y-184885771D01*
X188216486Y-185100057D01*
X188073628Y-185242914D01*
X187930771Y-185314343D01*
X189645057Y-185528629D02*
X189502199Y-185457200D01*
X189430771Y-185385771D01*
X189359342Y-185242914D01*
X189359342Y-185171486D01*
X189430771Y-185028629D01*
X189502199Y-184957200D01*
X189645057Y-184885771D01*
X189930771Y-184885771D01*
X190073628Y-184957200D01*
X190145057Y-185028629D01*
X190216485Y-185171486D01*
X190216485Y-185242914D01*
X190145057Y-185385771D01*
X190073628Y-185457200D01*
X189930771Y-185528629D01*
X189645057Y-185528629D01*
X189502199Y-185600057D01*
X189430771Y-185671486D01*
X189359342Y-185814343D01*
X189359342Y-186100057D01*
X189430771Y-186242914D01*
X189502199Y-186314343D01*
X189645057Y-186385771D01*
X189930771Y-186385771D01*
X190073628Y-186314343D01*
X190145057Y-186242914D01*
X190216485Y-186100057D01*
X190216485Y-185814343D01*
X190145057Y-185671486D01*
X190073628Y-185600057D01*
X189930771Y-185528629D01*
X191359342Y-185600057D02*
X190859342Y-185600057D01*
X190859342Y-186385771D02*
X190859342Y-184885771D01*
X191573628Y-184885771D01*
X192787913Y-185385771D02*
X192787913Y-186385771D01*
X192430770Y-184814343D02*
X192073627Y-185885771D01*
X193002199Y-185885771D01*
X194287913Y-184885771D02*
X193573627Y-184885771D01*
X193502198Y-185600057D01*
X193573627Y-185528629D01*
X193716484Y-185457200D01*
X194073627Y-185457200D01*
X194216484Y-185528629D01*
X194287913Y-185600057D01*
X194359341Y-185742914D01*
X194359341Y-186100057D01*
X194287913Y-186242914D01*
X194216484Y-186314343D01*
X194073627Y-186385771D01*
X193716484Y-186385771D01*
X193573627Y-186314343D01*
X193502198Y-186242914D01*
X195002198Y-186385771D02*
X195002198Y-184885771D01*
X195859341Y-186385771D02*
X195216484Y-185528629D01*
X195859341Y-184885771D02*
X195002198Y-185742914D01*
X196430769Y-185028629D02*
X196502198Y-184957200D01*
X196645055Y-184885771D01*
X197002198Y-184885771D01*
X197145055Y-184957200D01*
X197216484Y-185028629D01*
X197287912Y-185171486D01*
X197287912Y-185314343D01*
X197216484Y-185528629D01*
X196359341Y-186385771D01*
X197287912Y-186385771D01*
X197859340Y-185028629D02*
X197930769Y-184957200D01*
X198073626Y-184885771D01*
X198430769Y-184885771D01*
X198573626Y-184957200D01*
X198645055Y-185028629D01*
X198716483Y-185171486D01*
X198716483Y-185314343D01*
X198645055Y-185528629D01*
X197787912Y-186385771D01*
X198716483Y-186385771D01*
X199002197Y-186528629D02*
X200145054Y-186528629D01*
X201359340Y-186242914D02*
X201287911Y-186314343D01*
X201073625Y-186385771D01*
X200930768Y-186385771D01*
X200716483Y-186314343D01*
X200573625Y-186171486D01*
X200502197Y-186028629D01*
X200430768Y-185742914D01*
X200430768Y-185528629D01*
X200502197Y-185242914D01*
X200573625Y-185100057D01*
X200716483Y-184957200D01*
X200930768Y-184885771D01*
X201073625Y-184885771D01*
X201287911Y-184957200D01*
X201359340Y-185028629D01*
X202002197Y-186385771D02*
X202002197Y-184885771D01*
X202573625Y-184885771D01*
X202716483Y-184957200D01*
X202787911Y-185028629D01*
X202859340Y-185171486D01*
X202859340Y-185385771D01*
X202787911Y-185528629D01*
X202716483Y-185600057D01*
X202573625Y-185671486D01*
X202002197Y-185671486D01*
X203502197Y-184885771D02*
X203502197Y-186100057D01*
X203573625Y-186242914D01*
X203645054Y-186314343D01*
X203787911Y-186385771D01*
X204073625Y-186385771D01*
X204216483Y-186314343D01*
X204287911Y-186242914D01*
X204359340Y-186100057D01*
X204359340Y-184885771D01*
X205573626Y-185600057D02*
X205787912Y-185671486D01*
X205859340Y-185742914D01*
X205930769Y-185885771D01*
X205930769Y-186100057D01*
X205859340Y-186242914D01*
X205787912Y-186314343D01*
X205645054Y-186385771D01*
X205073626Y-186385771D01*
X205073626Y-184885771D01*
X205573626Y-184885771D01*
X205716483Y-184957200D01*
X205787912Y-185028629D01*
X205859340Y-185171486D01*
X205859340Y-185314343D01*
X205787912Y-185457200D01*
X205716483Y-185528629D01*
X205573626Y-185600057D01*
X205073626Y-185600057D01*
X206859340Y-184885771D02*
X207145054Y-184885771D01*
X207287912Y-184957200D01*
X207430769Y-185100057D01*
X207502197Y-185385771D01*
X207502197Y-185885771D01*
X207430769Y-186171486D01*
X207287912Y-186314343D01*
X207145054Y-186385771D01*
X206859340Y-186385771D01*
X206716483Y-186314343D01*
X206573626Y-186171486D01*
X206502197Y-185885771D01*
X206502197Y-185385771D01*
X206573626Y-185100057D01*
X206716483Y-184957200D01*
X206859340Y-184885771D01*
X208073626Y-185957200D02*
X208787912Y-185957200D01*
X207930769Y-186385771D02*
X208430769Y-184885771D01*
X208930769Y-186385771D01*
X210287912Y-186385771D02*
X209787912Y-185671486D01*
X209430769Y-186385771D02*
X209430769Y-184885771D01*
X210002197Y-184885771D01*
X210145055Y-184957200D01*
X210216483Y-185028629D01*
X210287912Y-185171486D01*
X210287912Y-185385771D01*
X210216483Y-185528629D01*
X210145055Y-185600057D01*
X210002197Y-185671486D01*
X209430769Y-185671486D01*
X210930769Y-186385771D02*
X210930769Y-184885771D01*
X211287912Y-184885771D01*
X211502197Y-184957200D01*
X211645055Y-185100057D01*
X211716483Y-185242914D01*
X211787912Y-185528629D01*
X211787912Y-185742914D01*
X211716483Y-186028629D01*
X211645055Y-186171486D01*
X211502197Y-186314343D01*
X211287912Y-186385771D01*
X210930769Y-186385771D01*
X212073626Y-186528629D02*
X213216483Y-186528629D01*
X213359340Y-184885771D02*
X213859340Y-186385771D01*
X214359340Y-184885771D01*
X214787911Y-185028629D02*
X214859340Y-184957200D01*
X215002197Y-184885771D01*
X215359340Y-184885771D01*
X215502197Y-184957200D01*
X215573626Y-185028629D01*
X215645054Y-185171486D01*
X215645054Y-185314343D01*
X215573626Y-185528629D01*
X214716483Y-186385771D01*
X215645054Y-186385771D01*
X217073625Y-186385771D02*
X216216482Y-186385771D01*
X216645054Y-186385771D02*
X216645054Y-184885771D01*
X216502197Y-185100057D01*
X216359339Y-185242914D01*
X216216482Y-185314343D01*
X217716482Y-186242914D02*
X217787910Y-186314343D01*
X217716482Y-186385771D01*
X217645053Y-186314343D01*
X217716482Y-186242914D01*
X217716482Y-186385771D01*
X218430768Y-186385771D02*
X218430768Y-184885771D01*
X218573625Y-185814343D02*
X219002196Y-186385771D01*
X219002196Y-185385771D02*
X218430768Y-185957200D01*
X219645054Y-186385771D02*
X219645054Y-185385771D01*
X219645054Y-184885771D02*
X219573625Y-184957200D01*
X219645054Y-185028629D01*
X219716482Y-184957200D01*
X219645054Y-184885771D01*
X219645054Y-185028629D01*
X221002197Y-186314343D02*
X220859340Y-186385771D01*
X220573626Y-186385771D01*
X220430768Y-186314343D01*
X220359340Y-186242914D01*
X220287911Y-186100057D01*
X220287911Y-185671486D01*
X220359340Y-185528629D01*
X220430768Y-185457200D01*
X220573626Y-185385771D01*
X220859340Y-185385771D01*
X221002197Y-185457200D01*
X222287911Y-186385771D02*
X222287911Y-185600057D01*
X222216482Y-185457200D01*
X222073625Y-185385771D01*
X221787911Y-185385771D01*
X221645054Y-185457200D01*
X222287911Y-186314343D02*
X222145054Y-186385771D01*
X221787911Y-186385771D01*
X221645054Y-186314343D01*
X221573625Y-186171486D01*
X221573625Y-186028629D01*
X221645054Y-185885771D01*
X221787911Y-185814343D01*
X222145054Y-185814343D01*
X222287911Y-185742914D01*
X223645054Y-186385771D02*
X223645054Y-184885771D01*
X223645054Y-186314343D02*
X223502197Y-186385771D01*
X223216483Y-186385771D01*
X223073625Y-186314343D01*
X223002197Y-186242914D01*
X222930768Y-186100057D01*
X222930768Y-185671486D01*
X223002197Y-185528629D01*
X223073625Y-185457200D01*
X223216483Y-185385771D01*
X223502197Y-185385771D01*
X223645054Y-185457200D01*
X224002197Y-186528629D02*
X225145054Y-186528629D01*
X225502197Y-185385771D02*
X225502197Y-186885771D01*
X225502197Y-185457200D02*
X225645054Y-185385771D01*
X225930768Y-185385771D01*
X226073625Y-185457200D01*
X226145054Y-185528629D01*
X226216483Y-185671486D01*
X226216483Y-186100057D01*
X226145054Y-186242914D01*
X226073625Y-186314343D01*
X225930768Y-186385771D01*
X225645054Y-186385771D01*
X225502197Y-186314343D01*
X227502197Y-186314343D02*
X227359340Y-186385771D01*
X227073626Y-186385771D01*
X226930768Y-186314343D01*
X226859340Y-186242914D01*
X226787911Y-186100057D01*
X226787911Y-185671486D01*
X226859340Y-185528629D01*
X226930768Y-185457200D01*
X227073626Y-185385771D01*
X227359340Y-185385771D01*
X227502197Y-185457200D01*
X228145054Y-186385771D02*
X228145054Y-184885771D01*
X228145054Y-185457200D02*
X228287911Y-185385771D01*
X228573625Y-185385771D01*
X228716482Y-185457200D01*
X228787911Y-185528629D01*
X228859340Y-185671486D01*
X228859340Y-186100057D01*
X228787911Y-186242914D01*
X228716482Y-186314343D01*
X228573625Y-186385771D01*
X228287911Y-186385771D01*
X228145054Y-186314343D01*
D10*
D11*
X177002200Y-181507200D02*
X285002200Y-181507200D01*
D10*
D11*
X178287914Y-183614343D02*
X178502200Y-183685771D01*
X178859343Y-183685771D01*
X179002200Y-183614343D01*
X179073629Y-183542914D01*
X179145057Y-183400057D01*
X179145057Y-183257200D01*
X179073629Y-183114343D01*
X179002200Y-183042914D01*
X178859343Y-182971486D01*
X178573629Y-182900057D01*
X178430771Y-182828629D01*
X178359343Y-182757200D01*
X178287914Y-182614343D01*
X178287914Y-182471486D01*
X178359343Y-182328629D01*
X178430771Y-182257200D01*
X178573629Y-182185771D01*
X178930771Y-182185771D01*
X179145057Y-182257200D01*
X179787914Y-183685771D02*
X179787914Y-182185771D01*
X180430771Y-183685771D02*
X180430771Y-182900057D01*
X180359342Y-182757200D01*
X180216485Y-182685771D01*
X180002200Y-182685771D01*
X179859342Y-182757200D01*
X179787914Y-182828629D01*
X181716485Y-183614343D02*
X181573628Y-183685771D01*
X181287914Y-183685771D01*
X181145057Y-183614343D01*
X181073628Y-183471486D01*
X181073628Y-182900057D01*
X181145057Y-182757200D01*
X181287914Y-182685771D01*
X181573628Y-182685771D01*
X181716485Y-182757200D01*
X181787914Y-182900057D01*
X181787914Y-183042914D01*
X181073628Y-183185771D01*
X183002199Y-183614343D02*
X182859342Y-183685771D01*
X182573628Y-183685771D01*
X182430771Y-183614343D01*
X182359342Y-183471486D01*
X182359342Y-182900057D01*
X182430771Y-182757200D01*
X182573628Y-182685771D01*
X182859342Y-182685771D01*
X183002199Y-182757200D01*
X183073628Y-182900057D01*
X183073628Y-183042914D01*
X182359342Y-183185771D01*
X183502199Y-182685771D02*
X184073628Y-182685771D01*
X183716485Y-182185771D02*
X183716485Y-183471486D01*
X183787913Y-183614343D01*
X183930771Y-183685771D01*
X184073628Y-183685771D01*
X184573628Y-183542914D02*
X184645056Y-183614343D01*
X184573628Y-183685771D01*
X184502199Y-183614343D01*
X184573628Y-183542914D01*
X184573628Y-183685771D01*
X184573628Y-182757200D02*
X184645056Y-182828629D01*
X184573628Y-182900057D01*
X184502199Y-182828629D01*
X184573628Y-182757200D01*
X184573628Y-182900057D01*
D10*
D11*
X197002200Y-191507200D02*
X197002200Y-194507200D01*
D10*
D11*
X261002200Y-191507200D02*
X261002200Y-198007200D01*
D14*
X55000000Y-64000000D03*
D15*
X55000000Y-66500000D03*
X55000000Y-69000000D03*
X55000000Y-71500000D03*
X55000000Y-74000000D03*
D16*
X68500000Y-61000000D03*
D17*
X65960000Y-61000000D03*
D16*
X68500000Y-65000000D03*
D17*
X65960000Y-65000000D03*
D16*
X68500000Y-72600000D03*
D17*
X65960000Y-72600000D03*
D16*
X68500000Y-76500000D03*
D17*
X65960000Y-76500000D03*
D16*
X68500000Y-80400000D03*
D17*
X65960000Y-80400000D03*
D16*
X68500000Y-84400000D03*
D17*
X65960000Y-84400000D03*
D16*
X68500000Y-88400000D03*
D17*
X65960000Y-88400000D03*
D16*
X113400000Y-58400000D03*
D17*
X110860000Y-58400000D03*
D16*
X113500000Y-54500000D03*
D17*
X110960000Y-54500000D03*
D16*
X68500000Y-92500000D03*
D17*
X65960000Y-92500000D03*
D16*
X68500000Y-96400000D03*
D17*
X65960000Y-96400000D03*
D16*
X68500000Y-100400000D03*
D17*
X65960000Y-100400000D03*
D16*
X68500000Y-104400000D03*
D17*
X65960000Y-104400000D03*
D16*
X113600000Y-89000000D03*
D17*
X111060000Y-89000000D03*
D16*
X113600000Y-93000000D03*
D17*
X111060000Y-93000000D03*
D16*
X113600000Y-97100000D03*
D17*
X111060000Y-97100000D03*
D16*
X113600000Y-101000000D03*
D17*
X111060000Y-101000000D03*
D16*
X113600000Y-105100000D03*
D17*
X111060000Y-105100000D03*
D16*
X113600000Y-109100000D03*
D17*
X111060000Y-109100000D03*
D16*
X113600000Y-113100000D03*
D17*
X111060000Y-113100000D03*
D16*
X113600000Y-117100000D03*
D17*
X111060000Y-117100000D03*
D16*
X68500000Y-108400000D03*
D17*
X65960000Y-108400000D03*
D16*
X113600000Y-78500000D03*
D17*
X111060000Y-78500000D03*
D16*
X113500000Y-70500000D03*
D17*
X110960000Y-70500000D03*
D16*
X68500000Y-112300000D03*
D17*
X65960000Y-112300000D03*
D16*
X119700000Y-121700000D03*
D17*
X117160000Y-121700000D03*
D16*
X113600000Y-82500000D03*
D17*
X111060000Y-82500000D03*
D16*
X113500000Y-66500000D03*
D17*
X110960000Y-66500000D03*
D16*
X113500000Y-62500000D03*
D17*
X110960000Y-62500000D03*
D16*
X113600000Y-74500000D03*
D17*
X111060000Y-74500000D03*
D16*
X68500000Y-57000000D03*
D17*
X65960000Y-57000000D03*
D18*
X58930000Y-118720000D03*
X53930000Y-118720000D03*
D19*
X106700000Y-93240000D03*
D20*
X106700000Y-95780000D03*
X106700000Y-98320000D03*
X106700000Y-100860000D03*
X106700000Y-103400000D03*
X106700000Y-105940000D03*
X106700000Y-108480000D03*
X106700000Y-111020000D03*
X106700000Y-113560000D03*
D19*
X106900000Y-80760000D03*
D20*
X106900000Y-78220000D03*
X106900000Y-75680000D03*
X106900000Y-73140000D03*
X106900000Y-70600000D03*
X106900000Y-68060000D03*
X106900000Y-65520000D03*
X106900000Y-62980000D03*
X106900000Y-60440000D03*
D21*
X54000000Y-54000000D03*
X126000000Y-54000000D03*
X126000000Y-130000000D03*
X54000000Y-130000000D03*
D19*
X73000000Y-74840000D03*
D20*
X73000000Y-77380000D03*
X73000000Y-79920000D03*
X73000000Y-82460000D03*
X73000000Y-85000000D03*
X73000000Y-87540000D03*
X73000000Y-90080000D03*
X73000000Y-92620000D03*
X73000000Y-95160000D03*
D22*
X73000000Y-97700000D03*
D19*
X73000000Y-55340000D03*
D20*
X73000000Y-57880000D03*
X73000000Y-60420000D03*
X73000000Y-62960000D03*
X73000000Y-65500000D03*
D19*
X73000000Y-103340000D03*
D20*
X73000000Y-105880000D03*
X73000000Y-108420000D03*
X73000000Y-110960000D03*
X73000000Y-113500000D03*
X73000000Y-116040000D03*
D23*
X126000000Y-76000000D03*
D24*
X123460000Y-76000000D03*
X126000000Y-73460000D03*
X123460000Y-73460000D03*
X126000000Y-70920000D03*
X123460000Y-70920000D03*
X126000000Y-68380000D03*
X123460000Y-68380000D03*
X126000000Y-65840000D03*
X123460000Y-65840000D03*
D23*
X126000000Y-107000000D03*
D24*
X123460000Y-107000000D03*
X126000000Y-104460000D03*
X123460000Y-104460000D03*
X126000000Y-101920000D03*
X123460000Y-101920000D03*
X126000000Y-99380000D03*
X123460000Y-99380000D03*
X126000000Y-96840000D03*
X123460000Y-96840000D03*
D25*
X84480000Y-125850000D03*
X85280000Y-127050000D03*
X86080000Y-125850000D03*
X86880000Y-127050000D03*
X87680000Y-125850000D03*
D26*
X82380000Y-126750000D03*
X82380000Y-131500000D03*
X89780000Y-126750000D03*
X89780000Y-131500000D03*
D27*
X95500000Y-53000000D03*
D28*
X92960000Y-53000000D03*
X90420000Y-53000000D03*
X87880000Y-53000000D03*
X85340000Y-53000000D03*
X82800000Y-53000000D03*
D19*
X67860000Y-127500000D03*
D20*
X70400000Y-127500000D03*
X72940000Y-127500000D03*
D23*
X54100000Y-89600000D03*
D24*
X56640000Y-89600000D03*
X54100000Y-92140000D03*
X56640000Y-92140000D03*
X54100000Y-94680000D03*
X56640000Y-94680000D03*
X54100000Y-97220000D03*
X56640000Y-97220000D03*
X54100000Y-99760000D03*
X56640000Y-99760000D03*
X54100000Y-102300000D03*
X56640000Y-102300000D03*
X54100000Y-104840000D03*
X56640000Y-104840000D03*
D18*
X96230000Y-57000000D03*
X98770000Y-57000000D03*
X124500000Y-116230000D03*
X124500000Y-118770000D03*
D29*
X119000000Y-131000000D03*
X113000000Y-131000000D03*
X119000000Y-127000000D03*
X112750000Y-126750000D03*
D30*
X78800000Y-118400000D03*
D18*
X78800000Y-123400000D03*
D30*
X108500000Y-129300000D03*
D18*
X108500000Y-124300000D03*
D30*
X93000000Y-57000000D03*
D18*
X88000000Y-57000000D03*
D31*
X78000000Y-89000000D03*
D32*
X78000000Y-91500000D03*
D31*
X126000000Y-86200000D03*
D32*
X123500000Y-86200000D03*
D31*
X100530000Y-83820000D03*
D32*
X100530000Y-86320000D03*
D31*
X68400000Y-116900000D03*
D32*
X65900000Y-116900000D03*
D30*
X63000000Y-128000000D03*
D18*
X63000000Y-123000000D03*
D33*
X81280000Y-63500000D03*
X81280000Y-66040000D03*
X81280000Y-68580000D03*
X81280000Y-71120000D03*
X81280000Y-73660000D03*
X81280000Y-76200000D03*
X81280000Y-78740000D03*
X81280000Y-81280000D03*
X81280000Y-83820000D03*
X81280000Y-86360000D03*
X81280000Y-88900000D03*
X81280000Y-91440000D03*
X81280000Y-93980000D03*
X81280000Y-96520000D03*
X81280000Y-99060000D03*
X81280000Y-101600000D03*
X81280000Y-104140000D03*
X81280000Y-106680000D03*
X81280000Y-109220000D03*
X81280000Y-111760000D03*
X96520000Y-111760000D03*
X96520000Y-109220000D03*
X96520000Y-106680000D03*
X96520000Y-104140000D03*
X96520000Y-101600000D03*
X96520000Y-99060000D03*
X96520000Y-96520000D03*
X96520000Y-93980000D03*
X96520000Y-91440000D03*
X96520000Y-88900000D03*
X96520000Y-86360000D03*
X96520000Y-83820000D03*
X96520000Y-81280000D03*
X96520000Y-78740000D03*
X96520000Y-76200000D03*
X96520000Y-73660000D03*
X96520000Y-71120000D03*
X96520000Y-68580000D03*
X96520000Y-66040000D03*
X96520000Y-63500000D03*
D34*
X67000000Y-86500000D03*
X65530000Y-98560000D03*
X125700000Y-63400000D03*
X120800000Y-52200000D03*
X121000000Y-59100000D03*
X127900000Y-59700000D03*
X100163073Y-130710000D03*
X99350000Y-53490000D03*
X103470203Y-56844590D03*
X98100000Y-118800000D03*
X102686304Y-117191929D03*
X104906893Y-117996490D03*
X114800000Y-120200000D03*
X122700000Y-113000000D03*
X122000000Y-125500000D03*
X127100000Y-122900000D03*
X127400000Y-116700000D03*
X73100000Y-120800000D03*
X52500000Y-79200000D03*
X118000000Y-72200000D03*
X116300000Y-64600000D03*
X118000000Y-68100000D03*
X99700000Y-82000000D03*
X108400000Y-89000000D03*
X117400000Y-87000000D03*
X125800000Y-92400000D03*
X76200000Y-107500000D03*
X78800000Y-107500000D03*
X78500000Y-110600000D03*
X76700000Y-112300000D03*
X78500000Y-103500000D03*
X87000000Y-101600000D03*
X89400000Y-101500000D03*
X84700000Y-109400000D03*
X89600000Y-108300000D03*
X77000000Y-80620000D03*
X76850000Y-86640000D03*
X75820000Y-90410000D03*
X78370000Y-132050000D03*
X78330000Y-127030000D03*
X75170000Y-124240000D03*
X70410000Y-132130000D03*
X58980000Y-131980000D03*
X58900000Y-125390000D03*
X102880000Y-62750000D03*
X103300000Y-74700000D03*
X102100000Y-72200000D03*
X104500000Y-65400000D03*
X106600000Y-86300000D03*
X86330000Y-77950000D03*
X92390000Y-67890000D03*
X90340000Y-71740000D03*
X86330000Y-83970000D03*
X115640000Y-76610000D03*
X116760000Y-81000000D03*
X125310000Y-78960000D03*
X125340000Y-81750000D03*
X120840000Y-81780000D03*
X103690000Y-127410000D03*
X105870000Y-129500000D03*
X86330000Y-61870000D03*
X86260000Y-91440000D03*
X60720000Y-99830000D03*
X63380000Y-102510000D03*
X110660000Y-132200000D03*
X108510000Y-132180000D03*
X92250000Y-120290000D03*
X94220000Y-132080000D03*
X89370000Y-123040000D03*
X101320000Y-123830000D03*
X100100000Y-125900000D03*
X96260000Y-124400000D03*
X98290000Y-123670000D03*
X52200000Y-125040000D03*
X52040000Y-87590000D03*
X62710000Y-78030000D03*
X60160000Y-80540000D03*
X58100000Y-87330000D03*
X76800000Y-68000000D03*
X78790000Y-69680000D03*
X51850000Y-69840000D03*
X56500000Y-79170000D03*
X78790000Y-72430000D03*
X71820000Y-69040000D03*
X64390000Y-69570000D03*
X78710000Y-59820000D03*
X98680000Y-59320000D03*
X92010000Y-61990000D03*
X79700000Y-56400000D03*
X80120000Y-51970000D03*
X70260000Y-51850000D03*
X58520000Y-51820000D03*
X58560000Y-58750000D03*
X51740000Y-58750000D03*
X54290000Y-108320000D03*
X54290000Y-112200000D03*
X58060000Y-116400000D03*
X60120000Y-112360000D03*
X63740000Y-118870000D03*
D35*
X94830000Y-95210000D03*
X83590000Y-69840000D03*
X101200000Y-110590000D03*
X67100000Y-119000000D03*
X63100000Y-110400000D03*
X92400000Y-116200000D03*
X92660000Y-114490000D03*
X94370000Y-114490000D03*
X94860000Y-113100000D03*
X59460000Y-93400000D03*
X65420000Y-94640000D03*
X93990000Y-96130000D03*
X92540000Y-98980000D03*
X91590000Y-104050000D03*
X103400000Y-83200000D03*
X102040000Y-107900000D03*
X110300000Y-86100000D03*
D36*
X65570000Y-98600000D02*
X65530000Y-98560000D01*
X101500000Y-52197145D02*
X120797145Y-52197145D01*
X120797145Y-52197145D02*
X120800000Y-52200000D01*
X127900000Y-59700000D02*
X127900000Y-61200000D01*
X127900000Y-61200000D02*
X125700000Y-63400000D01*
X121000000Y-59100000D02*
X127300000Y-59100000D01*
X127300000Y-59100000D02*
X127900000Y-59700000D01*
X100163073Y-130710000D02*
X99753073Y-130300000D01*
X101533073Y-132080000D02*
X100163073Y-130710000D01*
X108500000Y-129300000D02*
X108400000Y-129300000D01*
X108400000Y-129300000D02*
X105620000Y-132080000D01*
X105620000Y-132080000D02*
X101533073Y-132080000D01*
X99753073Y-130300000D02*
X98603655Y-130300000D01*
X98603655Y-130300000D02*
X93990000Y-125686345D01*
X93990000Y-125686345D02*
X93990000Y-119710000D01*
X72800000Y-123000000D02*
X74200000Y-123000000D01*
X74200000Y-123000000D02*
X76200000Y-121000000D01*
X126000000Y-107000000D02*
X126000000Y-114730000D01*
X126000000Y-114730000D02*
X124500000Y-116230000D01*
X78800000Y-118400000D02*
X92680000Y-118400000D01*
X92680000Y-118400000D02*
X93990000Y-119710000D01*
X76200000Y-121000000D02*
X78800000Y-118400000D01*
X81500000Y-88900000D02*
X86200000Y-88900000D01*
X91280000Y-83820000D02*
X96740000Y-83820000D01*
X86200000Y-88900000D02*
X91280000Y-83820000D01*
X100530000Y-83820000D02*
X101620000Y-83820000D01*
X123980000Y-84180000D02*
X126000000Y-86200000D01*
X119440000Y-84180000D02*
X123980000Y-84180000D01*
X118790000Y-84830000D02*
X119440000Y-84180000D01*
X118660000Y-84700000D02*
X118790000Y-84830000D01*
X102500000Y-84700000D02*
X118660000Y-84700000D01*
X101620000Y-83820000D02*
X102500000Y-84700000D01*
X63000000Y-123000000D02*
X72800000Y-123000000D01*
X72800000Y-123000000D02*
X73000000Y-123000000D01*
X63000000Y-123000000D02*
X58300000Y-123000000D01*
X56160000Y-120860000D02*
X56160000Y-117110000D01*
X58300000Y-123000000D02*
X56160000Y-120860000D01*
X51830000Y-112570000D02*
X51830000Y-91870000D01*
X51830000Y-91870000D02*
X54100000Y-89600000D01*
X55000000Y-74000000D02*
X55000000Y-80400000D01*
X54100000Y-81300000D02*
X54100000Y-89600000D01*
X55000000Y-80400000D02*
X54100000Y-81300000D01*
X78000000Y-89000000D02*
X81400000Y-89000000D01*
X81400000Y-89000000D02*
X81500000Y-88900000D01*
X96230000Y-57000000D02*
X93000000Y-57000000D01*
X93000000Y-57000000D02*
X92960000Y-56960000D01*
X92960000Y-56960000D02*
X92960000Y-53000000D01*
X126000000Y-107000000D02*
X126130000Y-107000000D01*
X126130000Y-107000000D02*
X128240000Y-104890000D01*
X126000000Y-88560000D02*
X126000000Y-86200000D01*
X128240000Y-90800000D02*
X126000000Y-88560000D01*
X128240000Y-104890000D02*
X128240000Y-90800000D01*
X126000000Y-86200000D02*
X126340000Y-86200000D01*
X126340000Y-86200000D02*
X127150000Y-85390000D01*
X127150000Y-85390000D02*
X127150000Y-77150000D01*
X127150000Y-77150000D02*
X126000000Y-76000000D01*
X51830000Y-112780000D02*
X51830000Y-112570000D01*
X56160000Y-117110000D02*
X51830000Y-112780000D01*
X93990000Y-119710000D02*
X92810000Y-118530000D01*
X108500000Y-129300000D02*
X108240000Y-129300000D01*
X96740000Y-83820000D02*
X100530000Y-83820000D01*
X100822719Y-53490000D02*
X99350000Y-53490000D01*
X103470203Y-56844590D02*
X103470203Y-56137484D01*
X103470203Y-56137484D02*
X100822719Y-53490000D01*
X103470203Y-56844590D02*
X103470203Y-56534760D01*
X89370000Y-123040000D02*
X92170000Y-125840000D01*
X92170000Y-125840000D02*
X92170000Y-130170000D01*
X92170000Y-130170000D02*
X93580001Y-131580001D01*
X93580001Y-131580001D02*
X93720001Y-131580001D01*
X93720001Y-131580001D02*
X94220000Y-132080000D01*
X102686304Y-117191929D02*
X99708071Y-117191929D01*
X99708071Y-117191929D02*
X98100000Y-118800000D01*
X103393410Y-117191929D02*
X102686304Y-117191929D01*
X104906893Y-117996490D02*
X104102332Y-117191929D01*
X104102332Y-117191929D02*
X103393410Y-117191929D01*
X122700000Y-113000000D02*
X122000000Y-113000000D01*
X122000000Y-113000000D02*
X114800000Y-120200000D01*
X122000000Y-125500000D02*
X122100000Y-125500000D01*
X122100000Y-125500000D02*
X122000000Y-125500000D01*
X127100000Y-122900000D02*
X127400000Y-122600000D01*
X127400000Y-122600000D02*
X127400000Y-116700000D01*
X52080000Y-79100000D02*
X52080000Y-79020000D01*
X116300000Y-66400000D02*
X116300000Y-64600000D01*
X118000000Y-68100000D02*
X116300000Y-66400000D01*
X106900000Y-80760000D02*
X100940000Y-80760000D01*
X100940000Y-80760000D02*
X99700000Y-82000000D01*
X125800000Y-92400000D02*
X120800000Y-87400000D01*
X117800000Y-87400000D02*
X117400000Y-87000000D01*
X120800000Y-87400000D02*
X117800000Y-87400000D01*
X125800000Y-92400000D02*
X126000000Y-92600000D01*
X78400000Y-110600000D02*
X78500000Y-110600000D01*
X76700000Y-112300000D02*
X78400000Y-110600000D01*
X76200000Y-107500000D02*
X78800000Y-107500000D01*
X87000000Y-101600000D02*
X87100000Y-101500000D01*
X87100000Y-101500000D02*
X89400000Y-101500000D01*
X88500000Y-109400000D02*
X84700000Y-109400000D01*
X89600000Y-108300000D02*
X88500000Y-109400000D01*
X112750000Y-126750000D02*
X112650000Y-126750000D01*
X112650000Y-126750000D02*
X112800000Y-126900000D01*
D12*
X77000000Y-80620000D02*
X76850000Y-80770000D01*
X76850000Y-80770000D02*
X76850000Y-86640000D01*
D36*
X78800000Y-123400000D02*
X76010000Y-123400000D01*
D12*
X78370000Y-132050000D02*
X78330000Y-132010000D01*
X58980000Y-125470000D02*
X58980000Y-131980000D01*
X58980000Y-125470000D02*
X58900000Y-125390000D01*
D36*
X76010000Y-123400000D02*
X75170000Y-124240000D01*
X82380000Y-126750000D02*
X82380000Y-125480000D01*
X82380000Y-125480000D02*
X80300000Y-123400000D01*
X80300000Y-123400000D02*
X78800000Y-123400000D01*
X99450000Y-59320000D02*
X102880000Y-62750000D01*
X98680000Y-59320000D02*
X99450000Y-59320000D01*
X103300000Y-74700000D02*
X102100000Y-73500000D01*
X102100000Y-73500000D02*
X102100000Y-72200000D01*
X102880000Y-63780000D02*
X102880000Y-62750000D01*
X104500000Y-65400000D02*
X102880000Y-63780000D01*
X103600000Y-86320000D02*
X106580000Y-86320000D01*
X106580000Y-86320000D02*
X106600000Y-86300000D01*
X90340000Y-73940000D02*
X90340000Y-71740000D01*
X90340000Y-73940000D02*
X86330000Y-77950000D01*
X86330000Y-83970000D02*
X86260000Y-83970000D01*
X118720000Y-79040000D02*
X116760000Y-81000000D01*
X125230000Y-79040000D02*
X118720000Y-79040000D01*
X125310000Y-78960000D02*
X125230000Y-79040000D01*
X120870000Y-81750000D02*
X125340000Y-81750000D01*
X120840000Y-81780000D02*
X120870000Y-81750000D01*
X82380000Y-126750000D02*
X82380000Y-127720000D01*
X86880000Y-128460000D02*
X86880000Y-127050000D01*
X88430000Y-125100000D02*
X88630000Y-125100000D01*
X88630000Y-125100000D02*
X89780000Y-126250000D01*
X89780000Y-126250000D02*
X89780000Y-126750000D01*
X92250000Y-120290000D02*
X92120000Y-120290000D01*
X88430000Y-125100000D02*
X87680000Y-125850000D01*
X88430000Y-123980000D02*
X88430000Y-125100000D01*
X92120000Y-120290000D02*
X88430000Y-123980000D01*
D12*
X103780000Y-127410000D02*
X103690000Y-127410000D01*
X105870000Y-129500000D02*
X103780000Y-127410000D01*
D36*
X112800000Y-126900000D02*
X110270000Y-126900000D01*
X108500000Y-125830000D02*
X108500000Y-124300000D01*
X110270000Y-126900000D02*
X108500000Y-125830000D01*
X112800000Y-126900000D02*
X112990000Y-126900000D01*
X103610000Y-86320000D02*
X103600000Y-86320000D01*
X103600000Y-86320000D02*
X100530000Y-86320000D01*
X79700000Y-56400000D02*
X81160000Y-56700000D01*
X81160000Y-56700000D02*
X86330000Y-61870000D01*
D12*
X108530000Y-132200000D02*
X110660000Y-132200000D01*
X108510000Y-132180000D02*
X108530000Y-132200000D01*
X89370000Y-123040000D02*
X89500000Y-123040000D01*
X89500000Y-123040000D02*
X92250000Y-120290000D01*
X101320000Y-123830000D02*
X100890000Y-124260000D01*
X100890000Y-124260000D02*
X100890000Y-125110000D01*
X100890000Y-125110000D02*
X100100000Y-125900000D01*
X97560000Y-124400000D02*
X96260000Y-124400000D01*
X98290000Y-123670000D02*
X97560000Y-124400000D01*
X53930000Y-118720000D02*
X53930000Y-123310000D01*
X53930000Y-123310000D02*
X52200000Y-125040000D01*
X52080000Y-79100000D02*
X52080000Y-87550000D01*
X52080000Y-87550000D02*
X52040000Y-87590000D01*
X60160000Y-85270000D02*
X60160000Y-80540000D01*
X58100000Y-87330000D02*
X60160000Y-85270000D01*
X76800000Y-68000000D02*
X78560000Y-69680000D01*
X78560000Y-69680000D02*
X78790000Y-69680000D01*
X51850000Y-78790000D02*
X51850000Y-69840000D01*
X52080000Y-79020000D02*
X51850000Y-78790000D01*
X78790000Y-72430000D02*
X76810000Y-72430000D01*
X76810000Y-72430000D02*
X75630000Y-71250000D01*
X75630000Y-71250000D02*
X75630000Y-70790000D01*
X75630000Y-70790000D02*
X73880000Y-69040000D01*
X73880000Y-69040000D02*
X71820000Y-69040000D01*
X64390000Y-69570000D02*
X58370000Y-75590000D01*
X58370000Y-75590000D02*
X58370000Y-77300000D01*
X58370000Y-77300000D02*
X56500000Y-79170000D01*
X79700000Y-56400000D02*
X80310000Y-57990000D01*
X78710000Y-59590000D02*
X78710000Y-59820000D01*
X80310000Y-57990000D02*
X78710000Y-59590000D01*
X98680000Y-59320000D02*
X98720000Y-59320000D01*
X88000000Y-57000000D02*
X88000000Y-57100000D01*
X88000000Y-57100000D02*
X92010000Y-61110000D01*
X92010000Y-61110000D02*
X92010000Y-61990000D01*
D36*
X55000000Y-64000000D02*
X55000000Y-62010000D01*
X70380000Y-51970000D02*
X80120000Y-51970000D01*
X70260000Y-51850000D02*
X70380000Y-51970000D01*
X58520000Y-58710000D02*
X58520000Y-51820000D01*
X58560000Y-58750000D02*
X58520000Y-58710000D01*
X51850000Y-58860000D02*
X51740000Y-58750000D01*
X55000000Y-62010000D02*
X51850000Y-58860000D01*
X90420000Y-53000000D02*
X90420000Y-54580000D01*
X90420000Y-54580000D02*
X88000000Y-57000000D01*
X81500000Y-91440000D02*
X86260000Y-91440000D01*
X86260000Y-91440000D02*
X86370000Y-91440000D01*
X86370000Y-91440000D02*
X91450000Y-86360000D01*
X91480000Y-86360000D02*
X96740000Y-86360000D01*
X91450000Y-86360000D02*
X91480000Y-86360000D01*
X78000000Y-91500000D02*
X81440000Y-91500000D01*
X81440000Y-91500000D02*
X81500000Y-91440000D01*
D12*
X86880000Y-127050000D02*
X87300000Y-127050000D01*
X87300000Y-127050000D02*
X87680000Y-126670000D01*
X87680000Y-126670000D02*
X87680000Y-125850000D01*
D36*
X96740000Y-86360000D02*
X100490000Y-86360000D01*
X100490000Y-86360000D02*
X100530000Y-86320000D01*
D12*
X54290000Y-108320000D02*
X54290000Y-112200000D01*
X58060000Y-116400000D02*
X60120000Y-114340000D01*
X60120000Y-114340000D02*
X60120000Y-112360000D01*
X67735000Y-62665000D02*
X70485000Y-62665000D01*
X79710000Y-68580000D02*
X81500000Y-68580000D01*
X77800000Y-66670000D02*
X79710000Y-68580000D01*
X77800000Y-65900000D02*
X77800000Y-66670000D01*
X73650000Y-61750000D02*
X77800000Y-65900000D01*
X71400000Y-61750000D02*
X73650000Y-61750000D01*
X70485000Y-62665000D02*
X71400000Y-61750000D01*
X55000000Y-69000000D02*
X55110000Y-69000000D01*
X55110000Y-69000000D02*
X63110000Y-61000000D01*
X63110000Y-61000000D02*
X65960000Y-61000000D01*
X65960000Y-61000000D02*
X66070000Y-61000000D01*
X66070000Y-61000000D02*
X67735000Y-62665000D01*
X67735000Y-62665000D02*
X67820000Y-62750000D01*
X71550000Y-59050000D02*
X73700000Y-59050000D01*
X73700000Y-59050000D02*
X77110000Y-62460000D01*
X65960000Y-57000000D02*
X65960000Y-57110000D01*
X65960000Y-57110000D02*
X67900000Y-59050000D01*
X67900000Y-59050000D02*
X71550000Y-59050000D01*
X81500000Y-66040000D02*
X79100000Y-66040000D01*
X77110000Y-62460000D02*
X77110000Y-64050000D01*
X79100000Y-66040000D02*
X77110000Y-64050000D01*
X65960000Y-57000000D02*
X65990000Y-57000000D01*
X55000000Y-66500000D02*
X56460000Y-66500000D01*
X56460000Y-66500000D02*
X65960000Y-57000000D01*
X55000000Y-71500000D02*
X55120000Y-71500000D01*
X55120000Y-71500000D02*
X61620000Y-65000000D01*
X61620000Y-65000000D02*
X65960000Y-65000000D01*
X65960000Y-65000000D02*
X65960000Y-65120000D01*
X65960000Y-65120000D02*
X68280000Y-67440000D01*
X78020000Y-71120000D02*
X81500000Y-71120000D01*
X74340000Y-67440000D02*
X78020000Y-71120000D01*
X68280000Y-67440000D02*
X74340000Y-67440000D01*
X113540000Y-58500000D02*
X113580000Y-58500000D01*
X113580000Y-58500000D02*
X123460000Y-68380000D01*
X124510000Y-64350000D02*
X126000000Y-65840000D01*
X120193678Y-64350000D02*
X124510000Y-64350000D01*
X115600000Y-59756322D02*
X120193678Y-64350000D01*
X115600000Y-56510000D02*
X115600000Y-59756322D01*
X113540000Y-54500000D02*
X113590000Y-54500000D01*
X113590000Y-54500000D02*
X115600000Y-56510000D01*
X77420000Y-95280000D02*
X94760000Y-95280000D01*
X94760000Y-95280000D02*
X94830000Y-95210000D01*
X77400000Y-95280000D02*
X77420000Y-95280000D01*
X76050000Y-93930000D02*
X77400000Y-95280000D01*
X54100000Y-97220000D02*
X54160000Y-97220000D01*
X54160000Y-97220000D02*
X55430000Y-95950000D01*
X55430000Y-95950000D02*
X62510000Y-95950000D01*
X54100000Y-97220000D02*
X54210000Y-97220000D01*
X67390002Y-93930000D02*
X76050000Y-93930000D01*
X65960000Y-92500000D02*
X65960002Y-92500000D01*
X65960002Y-92500000D02*
X67390002Y-93930000D01*
X62510000Y-95950000D02*
X65960000Y-92500000D01*
X103300000Y-69300000D02*
X109400000Y-69300000D01*
X111700000Y-68300000D02*
X113500000Y-66500000D01*
X110400000Y-68300000D02*
X111700000Y-68300000D01*
X109400000Y-69300000D02*
X110400000Y-68300000D01*
X100000000Y-72420000D02*
X100080000Y-72420000D01*
X109300000Y-69300000D02*
X110200000Y-68400000D01*
X103200000Y-69300000D02*
X103300000Y-69300000D01*
X103300000Y-69300000D02*
X109300000Y-69300000D01*
X100080000Y-72420000D02*
X103200000Y-69300000D01*
X94240000Y-73730000D02*
X94240000Y-76030000D01*
X95550000Y-72420000D02*
X94240000Y-73730000D01*
X100140000Y-72420000D02*
X100000000Y-72420000D01*
X100000000Y-72420000D02*
X95550000Y-72420000D01*
X81500000Y-81280000D02*
X88990000Y-81280000D01*
X88990000Y-81280000D02*
X94240000Y-76030000D01*
X121290000Y-70920000D02*
X123460000Y-70920000D01*
X120280000Y-69910000D02*
X121290000Y-70920000D01*
X116960000Y-69910000D02*
X120280000Y-69910000D01*
X113540000Y-66500000D02*
X113550000Y-66500000D01*
X113550000Y-66500000D02*
X116960000Y-69910000D01*
X105500000Y-66800000D02*
X101900000Y-66800000D01*
X101900000Y-66800000D02*
X98900000Y-69800000D01*
X110800000Y-64400000D02*
X111600000Y-64400000D01*
X111600000Y-64400000D02*
X113500000Y-62500000D01*
X98490000Y-69800000D02*
X98900000Y-69800000D01*
X83630000Y-69800000D02*
X97080000Y-69800000D01*
X83590000Y-69840000D02*
X83630000Y-69800000D01*
X97080000Y-69800000D02*
X98490000Y-69800000D01*
X110800000Y-64400000D02*
X111700000Y-64400000D01*
X108400000Y-66800000D02*
X110800000Y-64400000D01*
X105500000Y-66800000D02*
X108400000Y-66800000D01*
X124730000Y-69650000D02*
X126000000Y-68380000D01*
X122310000Y-69650000D02*
X124730000Y-69650000D01*
X121120000Y-68460000D02*
X122310000Y-69650000D01*
X121120000Y-66940000D02*
X121120000Y-68460000D01*
X116680000Y-62500000D02*
X121120000Y-66940000D01*
X113540000Y-62500000D02*
X116680000Y-62500000D01*
X111800000Y-64240000D02*
X113540000Y-62500000D01*
X113540000Y-70500000D02*
X119420000Y-70500000D01*
X119420000Y-70500000D02*
X121106379Y-72186379D01*
X121106379Y-72186379D02*
X124733621Y-72186379D01*
X124733621Y-72186379D02*
X126000000Y-70920000D01*
X100030000Y-111760000D02*
X101200000Y-110590000D01*
X96740000Y-111760000D02*
X100030000Y-111760000D01*
X75420000Y-113880000D02*
X83240000Y-113880000D01*
X70600000Y-114800000D02*
X74500000Y-114800000D01*
X74500000Y-114800000D02*
X75420000Y-113880000D01*
X96740000Y-109220000D02*
X95230000Y-109220000D01*
X84120000Y-113000000D02*
X91450000Y-113000000D01*
X91450000Y-113000000D02*
X95230000Y-109220000D01*
X70600000Y-114800000D02*
X68500000Y-116900000D01*
X83240000Y-113880000D02*
X84120000Y-113000000D01*
X68400000Y-116900000D02*
X68500000Y-116900000D01*
X68400000Y-116900000D02*
X66700000Y-115200000D01*
X66700000Y-113040000D02*
X65960000Y-112300000D01*
X66700000Y-115200000D02*
X66700000Y-113040000D01*
X65960000Y-112300000D02*
X63100000Y-112300000D01*
X61600000Y-110800000D02*
X61600000Y-110749000D01*
X63100000Y-112300000D02*
X61600000Y-110800000D01*
X55980000Y-106720000D02*
X57571000Y-106720000D01*
X57571000Y-106720000D02*
X61600000Y-110749000D01*
X55980000Y-106720000D02*
X54100000Y-104840000D01*
X54100000Y-104840000D02*
X54160000Y-104840000D01*
X54100000Y-104840000D02*
X54100000Y-104830000D01*
X65960000Y-112500000D02*
X66070000Y-112500000D01*
X117180000Y-122780660D02*
X117180000Y-126820000D01*
X117180000Y-126820000D02*
X113000000Y-131000000D01*
X117160000Y-121700000D02*
X117160000Y-122760660D01*
X117160000Y-122760660D02*
X117180000Y-122780660D01*
X69160000Y-119000000D02*
X67100000Y-119000000D01*
X75800000Y-116200000D02*
X73000000Y-119000000D01*
X73000000Y-119000000D02*
X69160000Y-119000000D01*
X92400000Y-116200000D02*
X75800000Y-116200000D01*
X104300000Y-116200000D02*
X105600000Y-116200000D01*
X111100000Y-121700000D02*
X117160000Y-121700000D01*
X105600000Y-116200000D02*
X111100000Y-121700000D01*
X56640000Y-102300000D02*
X56800000Y-102300000D01*
X56800000Y-102300000D02*
X63100000Y-108600000D01*
X63100000Y-108600000D02*
X63100000Y-110400000D01*
X102300000Y-116200000D02*
X104300000Y-116200000D01*
X104300000Y-116200000D02*
X104400000Y-116200000D01*
X92400000Y-116200000D02*
X102300000Y-116200000D01*
X100900000Y-115330000D02*
X102370000Y-115330000D01*
X111200000Y-114700000D02*
X113600000Y-117100000D01*
X103000000Y-114700000D02*
X111200000Y-114700000D01*
X102370000Y-115330000D02*
X103000000Y-114700000D01*
X93500000Y-115330000D02*
X92660000Y-114490000D01*
X123460000Y-107000000D02*
X123460000Y-107080000D01*
X93500000Y-115330000D02*
X100900000Y-115330000D01*
X100900000Y-115330000D02*
X101200000Y-115330000D01*
X111110000Y-114570000D02*
X113540000Y-117000000D01*
X113540000Y-117000000D02*
X113540000Y-116930000D01*
X123460000Y-107080000D02*
X113540000Y-117000000D01*
X100665000Y-114515000D02*
X100685000Y-114515000D01*
X109100000Y-112200000D02*
X109860000Y-111440000D01*
X103000000Y-112200000D02*
X109100000Y-112200000D01*
X100685000Y-114515000D02*
X103000000Y-112200000D01*
X100280000Y-114515000D02*
X94395000Y-114515000D01*
X94395000Y-114515000D02*
X94370000Y-114490000D01*
X100280000Y-114515000D02*
X100665000Y-114515000D01*
X109860000Y-111440000D02*
X111980000Y-111440000D01*
X126000000Y-104460000D02*
X125780000Y-104460000D01*
X125780000Y-104460000D02*
X124510000Y-105730000D01*
X124510000Y-105730000D02*
X120810000Y-105730000D01*
X111980000Y-111440000D02*
X113540000Y-113000000D01*
X113540000Y-113000000D02*
X113460000Y-113000000D01*
X120810000Y-105730000D02*
X113540000Y-113000000D01*
X103170000Y-110570000D02*
X103170000Y-110530000D01*
X108100000Y-109600000D02*
X109070000Y-110570000D01*
X104100000Y-109600000D02*
X108100000Y-109600000D01*
X103170000Y-110530000D02*
X104100000Y-109600000D01*
X95450000Y-113690000D02*
X94860000Y-113100000D01*
X123460000Y-104460000D02*
X118080000Y-104460000D01*
X100010000Y-113690000D02*
X100050000Y-113690000D01*
X100050000Y-113690000D02*
X103170000Y-110570000D01*
X100010000Y-113690000D02*
X95450000Y-113690000D01*
X109070000Y-110570000D02*
X111970000Y-110570000D01*
X111970000Y-110570000D02*
X113540000Y-109000000D01*
X118080000Y-104460000D02*
X113540000Y-109000000D01*
X126000000Y-101920000D02*
X125840000Y-101920000D01*
X125840000Y-101920000D02*
X124570691Y-103189309D01*
X124570691Y-103189309D02*
X115350691Y-103189309D01*
X115350691Y-103189309D02*
X113540000Y-105000000D01*
X113540000Y-105000000D02*
X112260000Y-106280000D01*
X96740000Y-106680000D02*
X104580000Y-106680000D01*
X111500000Y-107200000D02*
X113600000Y-105100000D01*
X105100000Y-107200000D02*
X111500000Y-107200000D01*
X104580000Y-106680000D02*
X105100000Y-107200000D01*
X99540000Y-106680000D02*
X96740000Y-106680000D01*
X121008949Y-101918915D02*
X121010034Y-101920000D01*
X121010034Y-101920000D02*
X123460000Y-101920000D01*
X121008949Y-101918915D02*
X114458915Y-101918915D01*
X114458915Y-101918915D02*
X113540000Y-101000000D01*
X113540000Y-101000000D02*
X113540000Y-101120000D01*
X98970000Y-105390000D02*
X99710000Y-105390000D01*
X112200000Y-102400000D02*
X113600000Y-101000000D01*
X109600000Y-102400000D02*
X112200000Y-102400000D01*
X109200000Y-102000000D02*
X109600000Y-102400000D01*
X103100000Y-102000000D02*
X109200000Y-102000000D01*
X99710000Y-105390000D02*
X103100000Y-102000000D01*
X85370000Y-106680000D02*
X81500000Y-106680000D01*
X86660000Y-105390000D02*
X85370000Y-106680000D01*
X98970000Y-105390000D02*
X86660000Y-105390000D01*
X111300000Y-99400000D02*
X111000000Y-99700000D01*
X102580000Y-99700000D02*
X99380000Y-102900000D01*
X111000000Y-99700000D02*
X102580000Y-99700000D01*
X111300000Y-99400000D02*
X113600000Y-97100000D01*
X85910000Y-104140000D02*
X81500000Y-104140000D01*
X99380000Y-102900000D02*
X87150000Y-102900000D01*
X87150000Y-102900000D02*
X85910000Y-104140000D01*
X124740000Y-100640000D02*
X126000000Y-99380000D01*
X121680000Y-100640000D02*
X124740000Y-100640000D01*
X118040000Y-97000000D02*
X121680000Y-100640000D01*
X113540000Y-97000000D02*
X113540000Y-97070000D01*
X113540000Y-97070000D02*
X111590000Y-99020000D01*
X113540000Y-97000000D02*
X118040000Y-97000000D01*
X103990000Y-95190000D02*
X104010000Y-95190000D01*
X112200000Y-94400000D02*
X113600000Y-93000000D01*
X104800000Y-94400000D02*
X112200000Y-94400000D01*
X104010000Y-95190000D02*
X104800000Y-94400000D01*
X112100000Y-94500000D02*
X113600000Y-93000000D01*
X84960000Y-101600000D02*
X81500000Y-101600000D01*
X86230000Y-100330000D02*
X84960000Y-101600000D01*
X98850000Y-100330000D02*
X98800000Y-100330000D01*
X98800000Y-100330000D02*
X86230000Y-100330000D01*
X104100000Y-95080000D02*
X103990000Y-95190000D01*
X103990000Y-95190000D02*
X98850000Y-100330000D01*
X117080000Y-93000000D02*
X123460000Y-99380000D01*
X113540000Y-93000000D02*
X113540000Y-93110000D01*
X113540000Y-93000000D02*
X117080000Y-93000000D01*
X98800000Y-97820000D02*
X98980000Y-97820000D01*
X105800000Y-91000000D02*
X111600000Y-91000000D01*
X98980000Y-97820000D02*
X105800000Y-91000000D01*
X85480000Y-99060000D02*
X81500000Y-99060000D01*
X86720000Y-97820000D02*
X85480000Y-99060000D01*
X98880000Y-97820000D02*
X98800000Y-97820000D01*
X98800000Y-97820000D02*
X86720000Y-97820000D01*
X118160000Y-89000000D02*
X126000000Y-96840000D01*
X113540000Y-89000000D02*
X113540000Y-89060000D01*
X113540000Y-89060000D02*
X111600000Y-91000000D01*
X113540000Y-89000000D02*
X118160000Y-89000000D01*
X65960000Y-72600000D02*
X65960000Y-72440000D01*
X65960000Y-72440000D02*
X67000000Y-71400000D01*
X67000000Y-71400000D02*
X74200000Y-71400000D01*
X74200000Y-71400000D02*
X76460000Y-73660000D01*
X76460000Y-73660000D02*
X81500000Y-73660000D01*
X56640000Y-89600000D02*
X56640000Y-81820000D01*
X56640000Y-81820000D02*
X60990000Y-77470000D01*
X65960000Y-72500000D02*
X65960000Y-72530000D01*
X60990000Y-77470000D02*
X65960000Y-72500000D01*
X65960000Y-76500000D02*
X66000000Y-76500000D01*
X66000000Y-76500000D02*
X67400000Y-75100000D01*
X71100000Y-76100000D02*
X81400000Y-76100000D01*
X70100000Y-75100000D02*
X71100000Y-76100000D01*
X67400000Y-75100000D02*
X70100000Y-75100000D01*
X81400000Y-76100000D02*
X81500000Y-76200000D01*
X61580000Y-87170000D02*
X61490000Y-87170000D01*
X61490000Y-87170000D02*
X57800000Y-90860000D01*
X57800000Y-90860000D02*
X55380000Y-90860000D01*
X55380000Y-90860000D02*
X54100000Y-92140000D01*
X54100000Y-92140000D02*
X54230000Y-92140000D01*
X54230000Y-92140000D02*
X55510000Y-90860000D01*
X55510000Y-90860000D02*
X57800000Y-90860000D01*
X54100000Y-92140000D02*
X54180000Y-92140000D01*
X61580000Y-87170000D02*
X61580000Y-80880000D01*
X65960000Y-76500000D02*
X65960000Y-76420000D01*
X61580000Y-80880000D02*
X65960000Y-76500000D01*
X78300000Y-78740000D02*
X67560000Y-78740000D01*
X56640000Y-92140000D02*
X58760000Y-92140000D01*
X58760000Y-92140000D02*
X62310000Y-88590000D01*
X78170000Y-78740000D02*
X78300000Y-78740000D01*
X78300000Y-78740000D02*
X81500000Y-78740000D01*
X62310000Y-88590000D02*
X62310000Y-84150000D01*
X67560000Y-78740000D02*
X65900000Y-80400000D01*
X65960000Y-80500000D02*
X65990000Y-80500000D01*
X65990000Y-80500000D02*
X67450000Y-79040000D01*
X62310000Y-84150000D02*
X65960000Y-80500000D01*
X54100000Y-94680000D02*
X55382182Y-93397818D01*
X55382182Y-93397818D02*
X59397818Y-93397818D01*
X59397818Y-93397818D02*
X59430000Y-93430000D01*
X65420000Y-94640000D02*
X69640000Y-94640000D01*
X77360000Y-96300000D02*
X77580000Y-96520000D01*
X71300000Y-96300000D02*
X77360000Y-96300000D01*
X69640000Y-94640000D02*
X71300000Y-96300000D01*
X59460000Y-93400000D02*
X59430000Y-93430000D01*
X59430000Y-93430000D02*
X63060000Y-89800000D01*
X81500000Y-96520000D02*
X77580000Y-96520000D01*
X54100000Y-94680000D02*
X54200000Y-94680000D01*
X63060000Y-89800000D02*
X63060000Y-87400000D01*
X63060000Y-87400000D02*
X65960000Y-84500000D01*
X70800000Y-89000000D02*
X71000000Y-88800000D01*
X65900000Y-88400000D02*
X67200000Y-89700000D01*
X67200000Y-89700000D02*
X70100000Y-89700000D01*
X70100000Y-89700000D02*
X70800000Y-89000000D01*
X74100000Y-89000000D02*
X74600000Y-89500000D01*
X74600000Y-89500000D02*
X74600000Y-91440000D01*
X74600000Y-91440000D02*
X77140000Y-93980000D01*
X77140000Y-93980000D02*
X81500000Y-93980000D01*
X73900000Y-88800000D02*
X74100000Y-89000000D01*
X71000000Y-88800000D02*
X73900000Y-88800000D01*
X56640000Y-94680000D02*
X59780000Y-94680000D01*
X59780000Y-94680000D02*
X65960000Y-88500000D01*
X65960000Y-88500000D02*
X65960000Y-88550000D01*
X67160000Y-97730000D02*
X69730000Y-97730000D01*
X75200000Y-99700000D02*
X77170000Y-97730000D01*
X71700000Y-99700000D02*
X75200000Y-99700000D01*
X69730000Y-97730000D02*
X71700000Y-99700000D01*
X86330000Y-97060000D02*
X93020000Y-97060000D01*
X94030000Y-96090000D02*
X93990000Y-96130000D01*
X94030000Y-96050000D02*
X94030000Y-96090000D01*
X93020000Y-97060000D02*
X94030000Y-96050000D01*
X86220000Y-97060000D02*
X86330000Y-97060000D01*
X85550000Y-97730000D02*
X86220000Y-97060000D01*
X56640000Y-97220000D02*
X65240000Y-97220000D01*
X77170000Y-97730000D02*
X85550000Y-97730000D01*
X65960000Y-96500000D02*
X65960000Y-96530000D01*
X65960000Y-96530000D02*
X67160000Y-97730000D01*
X65240000Y-97220000D02*
X65960000Y-96500000D01*
X86790000Y-98980000D02*
X92540000Y-98980000D01*
X86720000Y-98980000D02*
X86790000Y-98980000D01*
X85340000Y-100360000D02*
X86720000Y-98980000D01*
X79200000Y-100360000D02*
X85340000Y-100360000D01*
X77760000Y-101800000D02*
X79200000Y-100360000D01*
X54100000Y-99760000D02*
X54160000Y-99760000D01*
X54160000Y-99760000D02*
X55430000Y-98490000D01*
X55430000Y-98490000D02*
X63950000Y-98490000D01*
X54100000Y-99760000D02*
X54220000Y-99760000D01*
X54100000Y-99760000D02*
X54100000Y-99650000D01*
X67130000Y-101800000D02*
X77760000Y-101800000D01*
X65960000Y-100500000D02*
X65960000Y-100630000D01*
X65960000Y-100630000D02*
X67130000Y-101800000D01*
X65960000Y-100500000D02*
X65960000Y-100450000D01*
X63950000Y-98490000D02*
X65960000Y-100500000D01*
X56640000Y-99760000D02*
X58760000Y-99760000D01*
X63400000Y-104400000D02*
X65960000Y-104400000D01*
X58760000Y-99760000D02*
X63400000Y-104400000D01*
X77990000Y-105420000D02*
X75920000Y-105420000D01*
X78000000Y-105420000D02*
X85650000Y-105420000D01*
X77990000Y-105420000D02*
X78000000Y-105420000D01*
X85650000Y-105420000D02*
X87015000Y-104055000D01*
X87170000Y-104055000D02*
X87015000Y-104055000D01*
X67460000Y-102900000D02*
X65960000Y-104400000D01*
X70000000Y-102900000D02*
X67460000Y-102900000D01*
X71800000Y-104700000D02*
X70000000Y-102900000D01*
X75200000Y-104700000D02*
X71800000Y-104700000D01*
X75920000Y-105420000D02*
X75200000Y-104700000D01*
X87170000Y-104055000D02*
X91515000Y-104055000D01*
X91520000Y-104050000D02*
X91590000Y-104050000D01*
X91515000Y-104055000D02*
X91520000Y-104050000D01*
X87170000Y-104055000D02*
X90295000Y-104055000D01*
X90295000Y-104055000D02*
X90300000Y-104050000D01*
X65960000Y-104500000D02*
X65960000Y-104560000D01*
X65960000Y-104500000D02*
X65960000Y-104480000D01*
X54100000Y-102300000D02*
X55369310Y-101030690D01*
X55369310Y-101030690D02*
X58530690Y-101030690D01*
X58530690Y-101030690D02*
X65900000Y-108400000D01*
X65900000Y-108400000D02*
X65960000Y-108400000D01*
X65960000Y-108400000D02*
X65400000Y-108400000D01*
X81500000Y-109220000D02*
X75180000Y-109220000D01*
X67260000Y-109700000D02*
X65960000Y-108400000D01*
X74700000Y-109700000D02*
X67260000Y-109700000D01*
X75180000Y-109220000D02*
X74700000Y-109700000D01*
X81500000Y-109220000D02*
X77220000Y-109220000D01*
X113540000Y-78500000D02*
X115620000Y-78500000D01*
X115620000Y-78500000D02*
X119390691Y-74729309D01*
X119390691Y-74729309D02*
X124730691Y-74729309D01*
X124730691Y-74729309D02*
X126000000Y-73460000D01*
X113600000Y-78500000D02*
X113500000Y-78500000D01*
X113500000Y-78500000D02*
X111900000Y-80100000D01*
X111900000Y-80100000D02*
X110800000Y-80100000D01*
X110800000Y-80100000D02*
X107700000Y-83200000D01*
X107700000Y-83200000D02*
X103400000Y-83200000D01*
X81500000Y-111760000D02*
X89630000Y-111760000D01*
X93610000Y-107980000D02*
X93610000Y-108020000D01*
X93570000Y-108020000D02*
X93610000Y-107980000D01*
X93370000Y-108020000D02*
X93570000Y-108020000D01*
X89630000Y-111760000D02*
X93370000Y-108020000D01*
X93610000Y-108020000D02*
X101920000Y-108020000D01*
X101920000Y-108020000D02*
X102040000Y-107900000D01*
X102040000Y-92980000D02*
X102040000Y-92960000D01*
X101040000Y-93980000D02*
X102040000Y-92980000D01*
X96740000Y-93980000D02*
X101040000Y-93980000D01*
X108900000Y-86100000D02*
X110300000Y-86100000D01*
X102040000Y-92960000D02*
X108900000Y-86100000D01*
X120030000Y-76000000D02*
X123460000Y-76000000D01*
X113540000Y-82500000D02*
X113540000Y-82490000D01*
X113540000Y-82490000D02*
X120030000Y-76000000D01*
X100160000Y-77460000D02*
X104740000Y-77460000D01*
X111040000Y-77000000D02*
X112260000Y-75780000D01*
X105200000Y-77000000D02*
X111040000Y-77000000D01*
X104740000Y-77460000D02*
X105200000Y-77000000D01*
X81500000Y-86360000D02*
X85970000Y-86360000D01*
X85970000Y-86360000D02*
X94870000Y-77460000D01*
X118940000Y-73460000D02*
X123460000Y-73460000D01*
X94870000Y-77460000D02*
X100160000Y-77460000D01*
X117900000Y-74500000D02*
X118940000Y-73460000D01*
X112260000Y-75780000D02*
X113540000Y-74500000D01*
X113540000Y-74500000D02*
X117900000Y-74500000D01*
D36*
X67860000Y-127500000D02*
X63500000Y-127500000D01*
X63500000Y-127500000D02*
X63000000Y-128000000D01*
X83460000Y-129080000D02*
X71980000Y-129080000D01*
X71980000Y-129080000D02*
X70400000Y-127500000D01*
X83900000Y-128640000D02*
X83460000Y-129080000D01*
X83900000Y-126480000D02*
X83900000Y-128640000D01*
X84139990Y-126240010D02*
X83900000Y-126480000D01*
X84480000Y-125850000D02*
X84139990Y-126190010D01*
X84139990Y-126190010D02*
X84139990Y-126240010D01*
D12*
X98770000Y-57000000D02*
X98770000Y-56870000D01*
X98770000Y-56870000D02*
X97700000Y-55800000D01*
X97700000Y-55200000D02*
X95500000Y-53000000D01*
X97700000Y-55800000D02*
X97700000Y-55200000D01*
X87880000Y-53000000D02*
X87880000Y-54500000D01*
X91500000Y-63500000D02*
X96740000Y-63500000D01*
X86490000Y-58490000D02*
X91500000Y-63500000D01*
X86490000Y-55890000D02*
X86490000Y-58490000D01*
X87880000Y-54500000D02*
X86490000Y-55890000D01*
X85340000Y-53000000D02*
X85340000Y-58360000D01*
X93020000Y-66040000D02*
X96740000Y-66040000D01*
X85340000Y-58360000D02*
X93020000Y-66040000D01*
X119700000Y-121700000D02*
X121570000Y-121700000D01*
X121570000Y-121700000D02*
X124500000Y-118770000D01*
X58930000Y-118720000D02*
X60880000Y-118720000D01*
X62700000Y-116900000D02*
X65900000Y-116900000D01*
X60880000Y-118720000D02*
X62700000Y-116900000D01*
X58930000Y-118720000D02*
X58930000Y-118830000D01*
X65960000Y-116500000D02*
X65960000Y-116390002D01*
X65960000Y-116500000D02*
X65960000Y-116390000D01*
X65960000Y-116500000D02*
X65960000Y-116379000D01*
X106900000Y-70570000D02*
X110890000Y-70570000D01*
X110890000Y-70570000D02*
X110960000Y-70500000D01*
X106900000Y-73110000D02*
X109670000Y-73110000D01*
X109670000Y-73110000D02*
X111060000Y-74500000D01*
X68500000Y-57000000D02*
X68600000Y-57000000D01*
X68600000Y-57000000D02*
X69480000Y-57880000D01*
X69480000Y-57880000D02*
X73000000Y-57880000D01*
X72420000Y-61000000D02*
X73000000Y-60420000D01*
X68500000Y-61000000D02*
X72420000Y-61000000D01*
X72060000Y-63900000D02*
X73000000Y-62960000D01*
X68500000Y-65000000D02*
X68500000Y-64950000D01*
X68500000Y-64950000D02*
X69550000Y-63900000D01*
X69550000Y-63900000D02*
X72060000Y-63900000D01*
X68500000Y-104400000D02*
X68700000Y-104400000D01*
X68700000Y-104400000D02*
X70180000Y-105880000D01*
X70180000Y-105880000D02*
X73000000Y-105880000D01*
X68500000Y-108400000D02*
X72980000Y-108400000D01*
X72980000Y-108400000D02*
X73000000Y-108420000D01*
X73000000Y-110960000D02*
X69840000Y-110960000D01*
X69840000Y-110960000D02*
X68500000Y-112300000D01*
D37*
G36*
X55125000Y-117538711D02*
X55125000Y-118214134D01*
X55059611Y-118056271D01*
X54829016Y-118000590D01*
X54109605Y-118720000D01*
X54829016Y-119439410D01*
X55059611Y-119383729D01*
X55125000Y-119195823D01*
X55125000Y-120859995D01*
X55124999Y-120860000D01*
X55203785Y-121256077D01*
X55428144Y-121591856D01*
X57568144Y-123731856D01*
X57903923Y-123956215D01*
X58300000Y-124035001D01*
X58300005Y-124035000D01*
X62217514Y-124035000D01*
X62271155Y-124088735D01*
X62743276Y-124284777D01*
X63254481Y-124285223D01*
X63726943Y-124090005D01*
X63782044Y-124035000D01*
X74199995Y-124035000D01*
X74200000Y-124035001D01*
X74596077Y-123956215D01*
X74931856Y-123731856D01*
X75444633Y-123219078D01*
X77502378Y-123219078D01*
X77531917Y-123729428D01*
X77670389Y-124063729D01*
X77900984Y-124119410D01*
X78620395Y-123400000D01*
X78979605Y-123400000D01*
X79699016Y-124119410D01*
X79929611Y-124063729D01*
X80097622Y-123580922D01*
X80068083Y-123070572D01*
X79929611Y-122736271D01*
X79699016Y-122680590D01*
X78979605Y-123400000D01*
X78620395Y-123400000D01*
X77900984Y-122680590D01*
X77670389Y-122736271D01*
X77502378Y-123219078D01*
X75444633Y-123219078D01*
X76162727Y-122500984D01*
X78080590Y-122500984D01*
X78800000Y-123220395D01*
X79519410Y-122500984D01*
X79463729Y-122270389D01*
X78980922Y-122102378D01*
X78470572Y-122131917D01*
X78136271Y-122270389D01*
X78080590Y-122500984D01*
X76162727Y-122500984D01*
X76931853Y-121731858D01*
X76931856Y-121731856D01*
X78966271Y-119697440D01*
X79450000Y-119697440D01*
X79685317Y-119653162D01*
X79901441Y-119514090D01*
X79955481Y-119435000D01*
X92251288Y-119435000D01*
X92955000Y-120138712D01*
X92955000Y-125686340D01*
X92954999Y-125686345D01*
X93033785Y-126082422D01*
X93258144Y-126418201D01*
X97871797Y-131031853D01*
X97871799Y-131031856D01*
X98073084Y-131166349D01*
X98207577Y-131256215D01*
X98603655Y-131335000D01*
X99193246Y-131335000D01*
X99200306Y-131352086D01*
X99519308Y-131671645D01*
X99761626Y-131772265D01*
X100801215Y-132811853D01*
X100801217Y-132811856D01*
X100892726Y-132873000D01*
X90975100Y-132873000D01*
X91065000Y-132577000D01*
X91065000Y-131627000D01*
X89907000Y-131627000D01*
X89907000Y-131647000D01*
X89653000Y-131647000D01*
X89653000Y-131627000D01*
X88495000Y-131627000D01*
X88495000Y-132577000D01*
X88584900Y-132873000D01*
X83575100Y-132873000D01*
X83665000Y-132577000D01*
X83665000Y-131627000D01*
X82507000Y-131627000D01*
X82507000Y-131647000D01*
X82253000Y-131647000D01*
X82253000Y-131627000D01*
X81095000Y-131627000D01*
X81095000Y-132577000D01*
X81184900Y-132873000D01*
X58127000Y-132873000D01*
X58127000Y-127350000D01*
X61702560Y-127350000D01*
X61702560Y-128650000D01*
X61746838Y-128885317D01*
X61885910Y-129101441D01*
X62098110Y-129246431D01*
X62350000Y-129297440D01*
X63650000Y-129297440D01*
X63885317Y-129253162D01*
X64101441Y-129114090D01*
X64246431Y-128901890D01*
X64297440Y-128650000D01*
X64297440Y-128535000D01*
X66623447Y-128535000D01*
X66697410Y-128649941D01*
X66909610Y-128794931D01*
X67161500Y-128845940D01*
X68558500Y-128845940D01*
X68793817Y-128801662D01*
X69009941Y-128662590D01*
X69154931Y-128450390D01*
X69205940Y-128198500D01*
X69205940Y-128102116D01*
X69268854Y-128254380D01*
X69643647Y-128629827D01*
X70133587Y-128833268D01*
X70269675Y-128833387D01*
X71248142Y-129811853D01*
X71248144Y-129811856D01*
X71385933Y-129903923D01*
X71583922Y-130036215D01*
X71980000Y-130115000D01*
X81188545Y-130115000D01*
X81095000Y-130423000D01*
X81095000Y-131373000D01*
X82253000Y-131373000D01*
X82253000Y-131353000D01*
X82507000Y-131353000D01*
X82507000Y-131373000D01*
X83665000Y-131373000D01*
X83665000Y-130423000D01*
X88495000Y-130423000D01*
X88495000Y-131373000D01*
X89653000Y-131373000D01*
X89653000Y-129430933D01*
X89907000Y-129430933D01*
X89907000Y-131373000D01*
X91065000Y-131373000D01*
X91065000Y-130423000D01*
X90918584Y-129940919D01*
X90598829Y-129551565D01*
X90154415Y-129314214D01*
X90105471Y-129306901D01*
X89907000Y-129430933D01*
X89653000Y-129430933D01*
X89454529Y-129306901D01*
X89405585Y-129314214D01*
X88961171Y-129551565D01*
X88641416Y-129940919D01*
X88495000Y-130423000D01*
X83665000Y-130423000D01*
X83565106Y-130094094D01*
X83856077Y-130036215D01*
X84191856Y-129811856D01*
X84631853Y-129371858D01*
X84631856Y-129371856D01*
X84856215Y-129036077D01*
X84876164Y-128935786D01*
X84935001Y-128640000D01*
X84935000Y-128639995D01*
X84935000Y-128240570D01*
X85280000Y-128309195D01*
X85714346Y-128222798D01*
X86082566Y-127976761D01*
X86103021Y-127946148D01*
X86235595Y-128082884D01*
X86578126Y-128244119D01*
X86753000Y-128117954D01*
X86753000Y-127177000D01*
X87007000Y-127177000D01*
X87007000Y-128117954D01*
X87181874Y-128244119D01*
X87524405Y-128082884D01*
X87832352Y-127765269D01*
X87995312Y-127353985D01*
X87854741Y-127177000D01*
X87007000Y-127177000D01*
X86753000Y-127177000D01*
X86733000Y-127177000D01*
X86733000Y-126923000D01*
X86753000Y-126923000D01*
X86753000Y-126903000D01*
X87007000Y-126903000D01*
X87007000Y-126923000D01*
X87120818Y-126923000D01*
X87378126Y-127044119D01*
X87546006Y-126923000D01*
X87813994Y-126923000D01*
X87981874Y-127044119D01*
X88324405Y-126882884D01*
X88330109Y-126877000D01*
X88495000Y-126877000D01*
X88495000Y-127827000D01*
X88641416Y-128309081D01*
X88961171Y-128698435D01*
X89405585Y-128935786D01*
X89454529Y-128943099D01*
X89653000Y-128819067D01*
X89653000Y-126877000D01*
X89907000Y-126877000D01*
X89907000Y-128819067D01*
X90105471Y-128943099D01*
X90154415Y-128935786D01*
X90598829Y-128698435D01*
X90918584Y-128309081D01*
X91065000Y-127827000D01*
X91065000Y-126877000D01*
X89907000Y-126877000D01*
X89653000Y-126877000D01*
X88495000Y-126877000D01*
X88330109Y-126877000D01*
X88576378Y-126623000D01*
X89653000Y-126623000D01*
X89653000Y-124680933D01*
X89907000Y-124680933D01*
X89907000Y-126623000D01*
X91065000Y-126623000D01*
X91065000Y-125673000D01*
X90918584Y-125190919D01*
X90598829Y-124801565D01*
X90154415Y-124564214D01*
X90105471Y-124556901D01*
X89907000Y-124680933D01*
X89653000Y-124680933D01*
X89454529Y-124556901D01*
X89405585Y-124564214D01*
X88961171Y-124801565D01*
X88650319Y-125180078D01*
X88632352Y-125134731D01*
X88324405Y-124817116D01*
X87981874Y-124655881D01*
X87807000Y-124782046D01*
X87807000Y-125723000D01*
X87827000Y-125723000D01*
X87827000Y-125977000D01*
X87807000Y-125977000D01*
X87807000Y-126308583D01*
X87553000Y-126046609D01*
X87553000Y-125977000D01*
X87533000Y-125977000D01*
X87533000Y-125723000D01*
X87553000Y-125723000D01*
X87553000Y-124782046D01*
X87378126Y-124655881D01*
X87035595Y-124817116D01*
X86903021Y-124953852D01*
X86882566Y-124923239D01*
X86514346Y-124677202D01*
X86080000Y-124590805D01*
X85645654Y-124677202D01*
X85280000Y-124921524D01*
X84914346Y-124677202D01*
X84480000Y-124590805D01*
X84045654Y-124677202D01*
X83677434Y-124923239D01*
X83507552Y-125177485D01*
X83198829Y-124801565D01*
X82754415Y-124564214D01*
X82705471Y-124556901D01*
X82507000Y-124680933D01*
X82507000Y-126623000D01*
X82527000Y-126623000D01*
X82527000Y-126877000D01*
X82507000Y-126877000D01*
X82507000Y-126897000D01*
X82253000Y-126897000D01*
X82253000Y-126877000D01*
X81095000Y-126877000D01*
X81095000Y-127827000D01*
X81161210Y-128045000D01*
X74157588Y-128045000D01*
X74273268Y-127766413D01*
X74273731Y-127235914D01*
X74071146Y-126745620D01*
X73696353Y-126370173D01*
X73206413Y-126166732D01*
X72675914Y-126166269D01*
X72185620Y-126368854D01*
X71810173Y-126743647D01*
X71669906Y-127081446D01*
X71531146Y-126745620D01*
X71156353Y-126370173D01*
X70666413Y-126166732D01*
X70135914Y-126166269D01*
X69645620Y-126368854D01*
X69270173Y-126743647D01*
X69205940Y-126898337D01*
X69205940Y-126801500D01*
X69161662Y-126566183D01*
X69022590Y-126350059D01*
X68810390Y-126205069D01*
X68558500Y-126154060D01*
X67161500Y-126154060D01*
X66926183Y-126198338D01*
X66710059Y-126337410D01*
X66622881Y-126465000D01*
X63500005Y-126465000D01*
X63500000Y-126464999D01*
X63103923Y-126543785D01*
X62866298Y-126702560D01*
X62350000Y-126702560D01*
X62114683Y-126746838D01*
X61898559Y-126885910D01*
X61753569Y-127098110D01*
X61702560Y-127350000D01*
X58127000Y-127350000D01*
X58127000Y-126000000D01*
X58116994Y-125950590D01*
X58088553Y-125908965D01*
X58046159Y-125881685D01*
X58000000Y-125873000D01*
X51127000Y-125873000D01*
X51127000Y-125673000D01*
X81095000Y-125673000D01*
X81095000Y-126623000D01*
X82253000Y-126623000D01*
X82253000Y-124680933D01*
X82054529Y-124556901D01*
X82005585Y-124564214D01*
X81561171Y-124801565D01*
X81241416Y-125190919D01*
X81095000Y-125673000D01*
X51127000Y-125673000D01*
X51127000Y-124299016D01*
X78080590Y-124299016D01*
X78136271Y-124529611D01*
X78619078Y-124697622D01*
X79129428Y-124668083D01*
X79463729Y-124529611D01*
X79519410Y-124299016D01*
X78800000Y-123579605D01*
X78080590Y-124299016D01*
X51127000Y-124299016D01*
X51127000Y-119619016D01*
X53210590Y-119619016D01*
X53266271Y-119849611D01*
X53749078Y-120017622D01*
X54259428Y-119988083D01*
X54593729Y-119849611D01*
X54649410Y-119619016D01*
X53930000Y-118899605D01*
X53210590Y-119619016D01*
X51127000Y-119619016D01*
X51127000Y-118539078D01*
X52632378Y-118539078D01*
X52661917Y-119049428D01*
X52800389Y-119383729D01*
X53030984Y-119439410D01*
X53750395Y-118720000D01*
X53030984Y-118000590D01*
X52800389Y-118056271D01*
X52632378Y-118539078D01*
X51127000Y-118539078D01*
X51127000Y-117820984D01*
X53210590Y-117820984D01*
X53930000Y-118540395D01*
X54649410Y-117820984D01*
X54593729Y-117590389D01*
X54110922Y-117422378D01*
X53600572Y-117451917D01*
X53266271Y-117590389D01*
X53210590Y-117820984D01*
X51127000Y-117820984D01*
X51127000Y-113540712D01*
X55125000Y-117538711D01*
X55125000Y-117538711D01*
G37*
X55125000Y-117538711D02*
X55125000Y-118214134D01*
X55059611Y-118056271D01*
X54829016Y-118000590D01*
X54109605Y-118720000D01*
X54829016Y-119439410D01*
X55059611Y-119383729D01*
X55125000Y-119195823D01*
X55125000Y-120859995D01*
X55124999Y-120860000D01*
X55203785Y-121256077D01*
X55428144Y-121591856D01*
X57568144Y-123731856D01*
X57903923Y-123956215D01*
X58300000Y-124035001D01*
X58300005Y-124035000D01*
X62217514Y-124035000D01*
X62271155Y-124088735D01*
X62743276Y-124284777D01*
X63254481Y-124285223D01*
X63726943Y-124090005D01*
X63782044Y-124035000D01*
X74199995Y-124035000D01*
X74200000Y-124035001D01*
X74596077Y-123956215D01*
X74931856Y-123731856D01*
X75444633Y-123219078D01*
X77502378Y-123219078D01*
X77531917Y-123729428D01*
X77670389Y-124063729D01*
X77900984Y-124119410D01*
X78620395Y-123400000D01*
X78979605Y-123400000D01*
X79699016Y-124119410D01*
X79929611Y-124063729D01*
X80097622Y-123580922D01*
X80068083Y-123070572D01*
X79929611Y-122736271D01*
X79699016Y-122680590D01*
X78979605Y-123400000D01*
X78620395Y-123400000D01*
X77900984Y-122680590D01*
X77670389Y-122736271D01*
X77502378Y-123219078D01*
X75444633Y-123219078D01*
X76162727Y-122500984D01*
X78080590Y-122500984D01*
X78800000Y-123220395D01*
X79519410Y-122500984D01*
X79463729Y-122270389D01*
X78980922Y-122102378D01*
X78470572Y-122131917D01*
X78136271Y-122270389D01*
X78080590Y-122500984D01*
X76162727Y-122500984D01*
X76931853Y-121731858D01*
X76931856Y-121731856D01*
X78966271Y-119697440D01*
X79450000Y-119697440D01*
X79685317Y-119653162D01*
X79901441Y-119514090D01*
X79955481Y-119435000D01*
X92251288Y-119435000D01*
X92955000Y-120138712D01*
X92955000Y-125686340D01*
X92954999Y-125686345D01*
X93033785Y-126082422D01*
X93258144Y-126418201D01*
X97871797Y-131031853D01*
X97871799Y-131031856D01*
X98073084Y-131166349D01*
X98207577Y-131256215D01*
X98603655Y-131335000D01*
X99193246Y-131335000D01*
X99200306Y-131352086D01*
X99519308Y-131671645D01*
X99761626Y-131772265D01*
X100801215Y-132811853D01*
X100801217Y-132811856D01*
X100892726Y-132873000D01*
X90975100Y-132873000D01*
X91065000Y-132577000D01*
X91065000Y-131627000D01*
X89907000Y-131627000D01*
X89907000Y-131647000D01*
X89653000Y-131647000D01*
X89653000Y-131627000D01*
X88495000Y-131627000D01*
X88495000Y-132577000D01*
X88584900Y-132873000D01*
X83575100Y-132873000D01*
X83665000Y-132577000D01*
X83665000Y-131627000D01*
X82507000Y-131627000D01*
X82507000Y-131647000D01*
X82253000Y-131647000D01*
X82253000Y-131627000D01*
X81095000Y-131627000D01*
X81095000Y-132577000D01*
X81184900Y-132873000D01*
X58127000Y-132873000D01*
X58127000Y-127350000D01*
X61702560Y-127350000D01*
X61702560Y-128650000D01*
X61746838Y-128885317D01*
X61885910Y-129101441D01*
X62098110Y-129246431D01*
X62350000Y-129297440D01*
X63650000Y-129297440D01*
X63885317Y-129253162D01*
X64101441Y-129114090D01*
X64246431Y-128901890D01*
X64297440Y-128650000D01*
X64297440Y-128535000D01*
X66623447Y-128535000D01*
X66697410Y-128649941D01*
X66909610Y-128794931D01*
X67161500Y-128845940D01*
X68558500Y-128845940D01*
X68793817Y-128801662D01*
X69009941Y-128662590D01*
X69154931Y-128450390D01*
X69205940Y-128198500D01*
X69205940Y-128102116D01*
X69268854Y-128254380D01*
X69643647Y-128629827D01*
X70133587Y-128833268D01*
X70269675Y-128833387D01*
X71248142Y-129811853D01*
X71248144Y-129811856D01*
X71385933Y-129903923D01*
X71583922Y-130036215D01*
X71980000Y-130115000D01*
X81188545Y-130115000D01*
X81095000Y-130423000D01*
X81095000Y-131373000D01*
X82253000Y-131373000D01*
X82253000Y-131353000D01*
X82507000Y-131353000D01*
X82507000Y-131373000D01*
X83665000Y-131373000D01*
X83665000Y-130423000D01*
X88495000Y-130423000D01*
X88495000Y-131373000D01*
X89653000Y-131373000D01*
X89653000Y-129430933D01*
X89907000Y-129430933D01*
X89907000Y-131373000D01*
X91065000Y-131373000D01*
X91065000Y-130423000D01*
X90918584Y-129940919D01*
X90598829Y-129551565D01*
X90154415Y-129314214D01*
X90105471Y-129306901D01*
X89907000Y-129430933D01*
X89653000Y-129430933D01*
X89454529Y-129306901D01*
X89405585Y-129314214D01*
X88961171Y-129551565D01*
X88641416Y-129940919D01*
X88495000Y-130423000D01*
X83665000Y-130423000D01*
X83565106Y-130094094D01*
X83856077Y-130036215D01*
X84191856Y-129811856D01*
X84631853Y-129371858D01*
X84631856Y-129371856D01*
X84856215Y-129036077D01*
X84876164Y-128935786D01*
X84935001Y-128640000D01*
X84935000Y-128639995D01*
X84935000Y-128240570D01*
X85280000Y-128309195D01*
X85714346Y-128222798D01*
X86082566Y-127976761D01*
X86103021Y-127946148D01*
X86235595Y-128082884D01*
X86578126Y-128244119D01*
X86753000Y-128117954D01*
X86753000Y-127177000D01*
X87007000Y-127177000D01*
X87007000Y-128117954D01*
X87181874Y-128244119D01*
X87524405Y-128082884D01*
X87832352Y-127765269D01*
X87995312Y-127353985D01*
X87854741Y-127177000D01*
X87007000Y-127177000D01*
X86753000Y-127177000D01*
X86733000Y-127177000D01*
X86733000Y-126923000D01*
X86753000Y-126923000D01*
X86753000Y-126903000D01*
X87007000Y-126903000D01*
X87007000Y-126923000D01*
X87120818Y-126923000D01*
X87378126Y-127044119D01*
X87546006Y-126923000D01*
X87813994Y-126923000D01*
X87981874Y-127044119D01*
X88324405Y-126882884D01*
X88330109Y-126877000D01*
X88495000Y-126877000D01*
X88495000Y-127827000D01*
X88641416Y-128309081D01*
X88961171Y-128698435D01*
X89405585Y-128935786D01*
X89454529Y-128943099D01*
X89653000Y-128819067D01*
X89653000Y-126877000D01*
X89907000Y-126877000D01*
X89907000Y-128819067D01*
X90105471Y-128943099D01*
X90154415Y-128935786D01*
X90598829Y-128698435D01*
X90918584Y-128309081D01*
X91065000Y-127827000D01*
X91065000Y-126877000D01*
X89907000Y-126877000D01*
X89653000Y-126877000D01*
X88495000Y-126877000D01*
X88330109Y-126877000D01*
X88576378Y-126623000D01*
X89653000Y-126623000D01*
X89653000Y-124680933D01*
X89907000Y-124680933D01*
X89907000Y-126623000D01*
X91065000Y-126623000D01*
X91065000Y-125673000D01*
X90918584Y-125190919D01*
X90598829Y-124801565D01*
X90154415Y-124564214D01*
X90105471Y-124556901D01*
X89907000Y-124680933D01*
X89653000Y-124680933D01*
X89454529Y-124556901D01*
X89405585Y-124564214D01*
X88961171Y-124801565D01*
X88650319Y-125180078D01*
X88632352Y-125134731D01*
X88324405Y-124817116D01*
X87981874Y-124655881D01*
X87807000Y-124782046D01*
X87807000Y-125723000D01*
X87827000Y-125723000D01*
X87827000Y-125977000D01*
X87807000Y-125977000D01*
X87807000Y-126308583D01*
X87553000Y-126046609D01*
X87553000Y-125977000D01*
X87533000Y-125977000D01*
X87533000Y-125723000D01*
X87553000Y-125723000D01*
X87553000Y-124782046D01*
X87378126Y-124655881D01*
X87035595Y-124817116D01*
X86903021Y-124953852D01*
X86882566Y-124923239D01*
X86514346Y-124677202D01*
X86080000Y-124590805D01*
X85645654Y-124677202D01*
X85280000Y-124921524D01*
X84914346Y-124677202D01*
X84480000Y-124590805D01*
X84045654Y-124677202D01*
X83677434Y-124923239D01*
X83507552Y-125177485D01*
X83198829Y-124801565D01*
X82754415Y-124564214D01*
X82705471Y-124556901D01*
X82507000Y-124680933D01*
X82507000Y-126623000D01*
X82527000Y-126623000D01*
X82527000Y-126877000D01*
X82507000Y-126877000D01*
X82507000Y-126897000D01*
X82253000Y-126897000D01*
X82253000Y-126877000D01*
X81095000Y-126877000D01*
X81095000Y-127827000D01*
X81161210Y-128045000D01*
X74157588Y-128045000D01*
X74273268Y-127766413D01*
X74273731Y-127235914D01*
X74071146Y-126745620D01*
X73696353Y-126370173D01*
X73206413Y-126166732D01*
X72675914Y-126166269D01*
X72185620Y-126368854D01*
X71810173Y-126743647D01*
X71669906Y-127081446D01*
X71531146Y-126745620D01*
X71156353Y-126370173D01*
X70666413Y-126166732D01*
X70135914Y-126166269D01*
X69645620Y-126368854D01*
X69270173Y-126743647D01*
X69205940Y-126898337D01*
X69205940Y-126801500D01*
X69161662Y-126566183D01*
X69022590Y-126350059D01*
X68810390Y-126205069D01*
X68558500Y-126154060D01*
X67161500Y-126154060D01*
X66926183Y-126198338D01*
X66710059Y-126337410D01*
X66622881Y-126465000D01*
X63500005Y-126465000D01*
X63500000Y-126464999D01*
X63103923Y-126543785D01*
X62866298Y-126702560D01*
X62350000Y-126702560D01*
X62114683Y-126746838D01*
X61898559Y-126885910D01*
X61753569Y-127098110D01*
X61702560Y-127350000D01*
X58127000Y-127350000D01*
X58127000Y-126000000D01*
X58116994Y-125950590D01*
X58088553Y-125908965D01*
X58046159Y-125881685D01*
X58000000Y-125873000D01*
X51127000Y-125873000D01*
X51127000Y-125673000D01*
X81095000Y-125673000D01*
X81095000Y-126623000D01*
X82253000Y-126623000D01*
X82253000Y-124680933D01*
X82054529Y-124556901D01*
X82005585Y-124564214D01*
X81561171Y-124801565D01*
X81241416Y-125190919D01*
X81095000Y-125673000D01*
X51127000Y-125673000D01*
X51127000Y-124299016D01*
X78080590Y-124299016D01*
X78136271Y-124529611D01*
X78619078Y-124697622D01*
X79129428Y-124668083D01*
X79463729Y-124529611D01*
X79519410Y-124299016D01*
X78800000Y-123579605D01*
X78080590Y-124299016D01*
X51127000Y-124299016D01*
X51127000Y-119619016D01*
X53210590Y-119619016D01*
X53266271Y-119849611D01*
X53749078Y-120017622D01*
X54259428Y-119988083D01*
X54593729Y-119849611D01*
X54649410Y-119619016D01*
X53930000Y-118899605D01*
X53210590Y-119619016D01*
X51127000Y-119619016D01*
X51127000Y-118539078D01*
X52632378Y-118539078D01*
X52661917Y-119049428D01*
X52800389Y-119383729D01*
X53030984Y-119439410D01*
X53750395Y-118720000D01*
X53030984Y-118000590D01*
X52800389Y-118056271D01*
X52632378Y-118539078D01*
X51127000Y-118539078D01*
X51127000Y-117820984D01*
X53210590Y-117820984D01*
X53930000Y-118540395D01*
X54649410Y-117820984D01*
X54593729Y-117590389D01*
X54110922Y-117422378D01*
X53600572Y-117451917D01*
X53266271Y-117590389D01*
X53210590Y-117820984D01*
X51127000Y-117820984D01*
X51127000Y-113540712D01*
X55125000Y-117538711D01*
G36*
X53040330Y-105929029D02*
X53526511Y-106253885D01*
X54100000Y-106367959D01*
X54448484Y-106298641D01*
X55424919Y-107275076D01*
X55424921Y-107275079D01*
X55679594Y-107445245D01*
X55980000Y-107505000D01*
X57245842Y-107505000D01*
X60942225Y-111201383D01*
X61044921Y-111355079D01*
X62544921Y-112855079D01*
X62799593Y-113025245D01*
X63100000Y-113085000D01*
X64786651Y-113085000D01*
X65174436Y-113473461D01*
X65683298Y-113684759D01*
X65915000Y-113684961D01*
X65915000Y-115200000D01*
X65974755Y-115500407D01*
X66049139Y-115611731D01*
X65960000Y-115594000D01*
X65659594Y-115653755D01*
X65623094Y-115678143D01*
X65201343Y-115852408D01*
X64938292Y-116115000D01*
X62700000Y-116115000D01*
X62399594Y-116174755D01*
X62144921Y-116344921D01*
X60554842Y-117935000D01*
X59962049Y-117935000D01*
X59658845Y-117631265D01*
X59186724Y-117435223D01*
X58675519Y-117434777D01*
X58203057Y-117629995D01*
X57841265Y-117991155D01*
X57645223Y-118463276D01*
X57644777Y-118974481D01*
X57839995Y-119446943D01*
X58201155Y-119808735D01*
X58673276Y-120004777D01*
X59184481Y-120005223D01*
X59656943Y-119810005D01*
X59962482Y-119505000D01*
X60880000Y-119505000D01*
X61180407Y-119445245D01*
X61435079Y-119275079D01*
X63025158Y-117685000D01*
X64938600Y-117685000D01*
X65199515Y-117946371D01*
X65653266Y-118134785D01*
X66144579Y-118135214D01*
X66598657Y-117947592D01*
X66946371Y-117600485D01*
X67134785Y-117146734D01*
X67135136Y-116745294D01*
X67152560Y-116762718D01*
X67152560Y-117500000D01*
X67196838Y-117735317D01*
X67335910Y-117951441D01*
X67432300Y-118017302D01*
X67306777Y-117965180D01*
X66895029Y-117964821D01*
X66514485Y-118122058D01*
X66223081Y-118412954D01*
X66065180Y-118793223D01*
X66064821Y-119204971D01*
X66222058Y-119585515D01*
X66512954Y-119876919D01*
X66893223Y-120034820D01*
X67304971Y-120035179D01*
X67685515Y-119877942D01*
X67778619Y-119785000D01*
X73000000Y-119785000D01*
X73300407Y-119725245D01*
X73555079Y-119555079D01*
X76125158Y-116985000D01*
X91721195Y-116985000D01*
X91812954Y-117076919D01*
X92193223Y-117234820D01*
X92604971Y-117235179D01*
X92985515Y-117077942D01*
X93078619Y-116985000D01*
X105274842Y-116985000D01*
X110544921Y-122255079D01*
X110799594Y-122425245D01*
X111100000Y-122485001D01*
X111100005Y-122485000D01*
X115986651Y-122485000D01*
X116374436Y-122873461D01*
X116395000Y-122882000D01*
X116395000Y-126494842D01*
X113351727Y-129538115D01*
X113296681Y-129515258D01*
X112705911Y-129514743D01*
X112159914Y-129740344D01*
X111741812Y-130157717D01*
X111515258Y-130703319D01*
X111514743Y-131294089D01*
X111740344Y-131840086D01*
X112157717Y-132258188D01*
X112703319Y-132484742D01*
X113294089Y-132485257D01*
X113840086Y-132259656D01*
X114258188Y-131842283D01*
X114484742Y-131296681D01*
X114484744Y-131294089D01*
X117514743Y-131294089D01*
X117740344Y-131840086D01*
X118157717Y-132258188D01*
X118703319Y-132484742D01*
X119294089Y-132485257D01*
X119840086Y-132259656D01*
X120258188Y-131842283D01*
X120484742Y-131296681D01*
X120485257Y-130705911D01*
X120259656Y-130159914D01*
X119842283Y-129741812D01*
X119296681Y-129515258D01*
X118705911Y-129514743D01*
X118159914Y-129740344D01*
X117741812Y-130157717D01*
X117515258Y-130703319D01*
X117514743Y-131294089D01*
X114484744Y-131294089D01*
X114485257Y-130705911D01*
X114461571Y-130648587D01*
X117602845Y-127507313D01*
X117740344Y-127840086D01*
X118157717Y-128258188D01*
X118703319Y-128484742D01*
X119294089Y-128485257D01*
X119840086Y-128259656D01*
X120258188Y-127842283D01*
X120484742Y-127296681D01*
X120485257Y-126705911D01*
X120259656Y-126159914D01*
X119842283Y-125741812D01*
X119296681Y-125515258D01*
X118705911Y-125514743D01*
X118159914Y-125740344D01*
X117965000Y-125934918D01*
X117965000Y-122853383D01*
X118313080Y-122505909D01*
X118346838Y-122685317D01*
X118485910Y-122901441D01*
X118698110Y-123046431D01*
X118950000Y-123097440D01*
X120450000Y-123097440D01*
X120685317Y-123053162D01*
X120901441Y-122914090D01*
X121046431Y-122701890D01*
X121090352Y-122485000D01*
X121570000Y-122485000D01*
X121870407Y-122425245D01*
X122125079Y-122255079D01*
X124325309Y-120054849D01*
X124754481Y-120055223D01*
X125226943Y-119860005D01*
X125588735Y-119498845D01*
X125784777Y-119026724D01*
X125785223Y-118515519D01*
X125590005Y-118043057D01*
X125228845Y-117681265D01*
X124791818Y-117499795D01*
X125226943Y-117320005D01*
X125588735Y-116958845D01*
X125784777Y-116486724D01*
X125784845Y-116408867D01*
X126731853Y-115461858D01*
X126731856Y-115461856D01*
X126906822Y-115200000D01*
X126956215Y-115126078D01*
X127035000Y-114730000D01*
X127035000Y-108478789D01*
X127098917Y-108466762D01*
X127315041Y-108327690D01*
X127460031Y-108115490D01*
X127511040Y-107863600D01*
X127511040Y-107082672D01*
X128873000Y-105720711D01*
X128873000Y-125873000D01*
X122000000Y-125873000D01*
X121950590Y-125883006D01*
X121908965Y-125911447D01*
X121881685Y-125953841D01*
X121873000Y-126000000D01*
X121873000Y-132873000D01*
X106260347Y-132873000D01*
X106351856Y-132811856D01*
X108566271Y-130597440D01*
X109150000Y-130597440D01*
X109385317Y-130553162D01*
X109601441Y-130414090D01*
X109746431Y-130201890D01*
X109797440Y-129950000D01*
X109797440Y-128650000D01*
X109753162Y-128414683D01*
X109614090Y-128198559D01*
X109401890Y-128053569D01*
X109150000Y-128002560D01*
X107850000Y-128002560D01*
X107614683Y-128046838D01*
X107398559Y-128185910D01*
X107253569Y-128398110D01*
X107202560Y-128650000D01*
X107202560Y-129033729D01*
X105191288Y-131045000D01*
X101961784Y-131045000D01*
X101225223Y-130308438D01*
X101125840Y-130067914D01*
X100806838Y-129748355D01*
X100564520Y-129647735D01*
X100484929Y-129568144D01*
X100149150Y-129343785D01*
X99753073Y-129264999D01*
X99753068Y-129265000D01*
X99032366Y-129265000D01*
X97561325Y-127793958D01*
X111885647Y-127793958D01*
X111965920Y-128045259D01*
X112521279Y-128246718D01*
X113111458Y-128220315D01*
X113534080Y-128045259D01*
X113614353Y-127793958D01*
X112750000Y-126929605D01*
X111885647Y-127793958D01*
X97561325Y-127793958D01*
X96288646Y-126521279D01*
X111253282Y-126521279D01*
X111279685Y-127111458D01*
X111454741Y-127534080D01*
X111706042Y-127614353D01*
X112570395Y-126750000D01*
X112929605Y-126750000D01*
X113793958Y-127614353D01*
X114045259Y-127534080D01*
X114246718Y-126978721D01*
X114220315Y-126388542D01*
X114045259Y-125965920D01*
X113793958Y-125885647D01*
X112929605Y-126750000D01*
X112570395Y-126750000D01*
X111706042Y-125885647D01*
X111454741Y-125965920D01*
X111253282Y-126521279D01*
X96288646Y-126521279D01*
X95473409Y-125706042D01*
X111885647Y-125706042D01*
X112750000Y-126570395D01*
X113614353Y-125706042D01*
X113534080Y-125454741D01*
X112978721Y-125253282D01*
X112388542Y-125279685D01*
X111965920Y-125454741D01*
X111885647Y-125706042D01*
X95473409Y-125706042D01*
X95025000Y-125257633D01*
X95025000Y-125199016D01*
X107780590Y-125199016D01*
X107836271Y-125429611D01*
X108319078Y-125597622D01*
X108829428Y-125568083D01*
X109163729Y-125429611D01*
X109219410Y-125199016D01*
X108500000Y-124479605D01*
X107780590Y-125199016D01*
X95025000Y-125199016D01*
X95025000Y-124119078D01*
X107202378Y-124119078D01*
X107231917Y-124629428D01*
X107370389Y-124963729D01*
X107600984Y-125019410D01*
X108320395Y-124300000D01*
X108679605Y-124300000D01*
X109399016Y-125019410D01*
X109629611Y-124963729D01*
X109797622Y-124480922D01*
X109768083Y-123970572D01*
X109629611Y-123636271D01*
X109399016Y-123580590D01*
X108679605Y-124300000D01*
X108320395Y-124300000D01*
X107600984Y-123580590D01*
X107370389Y-123636271D01*
X107202378Y-124119078D01*
X95025000Y-124119078D01*
X95025000Y-123400984D01*
X107780590Y-123400984D01*
X108500000Y-124120395D01*
X109219410Y-123400984D01*
X109163729Y-123170389D01*
X108680922Y-123002378D01*
X108170572Y-123031917D01*
X107836271Y-123170389D01*
X107780590Y-123400984D01*
X95025000Y-123400984D01*
X95025000Y-119710005D01*
X95025001Y-119710000D01*
X94946215Y-119313923D01*
X94824562Y-119131856D01*
X94721856Y-118978144D01*
X93411856Y-117668144D01*
X93076077Y-117443785D01*
X92680000Y-117364999D01*
X92679995Y-117365000D01*
X79956844Y-117365000D01*
X79914090Y-117298559D01*
X79701890Y-117153569D01*
X79450000Y-117102560D01*
X78150000Y-117102560D01*
X77914683Y-117146838D01*
X77698559Y-117285910D01*
X77553569Y-117498110D01*
X77502560Y-117750000D01*
X77502560Y-118233729D01*
X75468144Y-120268144D01*
X75468142Y-120268147D01*
X73771288Y-121965000D01*
X63782486Y-121965000D01*
X63728845Y-121911265D01*
X63256724Y-121715223D01*
X62745519Y-121714777D01*
X62273057Y-121909995D01*
X62217956Y-121965000D01*
X58728712Y-121965000D01*
X57195000Y-120431288D01*
X57195000Y-117110005D01*
X57195001Y-117110000D01*
X57116215Y-116713923D01*
X57077125Y-116655421D01*
X56891856Y-116378144D01*
X56891853Y-116378142D01*
X52865000Y-112351288D01*
X52865000Y-105666629D01*
X53040330Y-105929029D01*
X53040330Y-105929029D01*
G37*
X53040330Y-105929029D02*
X53526511Y-106253885D01*
X54100000Y-106367959D01*
X54448484Y-106298641D01*
X55424919Y-107275076D01*
X55424921Y-107275079D01*
X55679594Y-107445245D01*
X55980000Y-107505000D01*
X57245842Y-107505000D01*
X60942225Y-111201383D01*
X61044921Y-111355079D01*
X62544921Y-112855079D01*
X62799593Y-113025245D01*
X63100000Y-113085000D01*
X64786651Y-113085000D01*
X65174436Y-113473461D01*
X65683298Y-113684759D01*
X65915000Y-113684961D01*
X65915000Y-115200000D01*
X65974755Y-115500407D01*
X66049139Y-115611731D01*
X65960000Y-115594000D01*
X65659594Y-115653755D01*
X65623094Y-115678143D01*
X65201343Y-115852408D01*
X64938292Y-116115000D01*
X62700000Y-116115000D01*
X62399594Y-116174755D01*
X62144921Y-116344921D01*
X60554842Y-117935000D01*
X59962049Y-117935000D01*
X59658845Y-117631265D01*
X59186724Y-117435223D01*
X58675519Y-117434777D01*
X58203057Y-117629995D01*
X57841265Y-117991155D01*
X57645223Y-118463276D01*
X57644777Y-118974481D01*
X57839995Y-119446943D01*
X58201155Y-119808735D01*
X58673276Y-120004777D01*
X59184481Y-120005223D01*
X59656943Y-119810005D01*
X59962482Y-119505000D01*
X60880000Y-119505000D01*
X61180407Y-119445245D01*
X61435079Y-119275079D01*
X63025158Y-117685000D01*
X64938600Y-117685000D01*
X65199515Y-117946371D01*
X65653266Y-118134785D01*
X66144579Y-118135214D01*
X66598657Y-117947592D01*
X66946371Y-117600485D01*
X67134785Y-117146734D01*
X67135136Y-116745294D01*
X67152560Y-116762718D01*
X67152560Y-117500000D01*
X67196838Y-117735317D01*
X67335910Y-117951441D01*
X67432300Y-118017302D01*
X67306777Y-117965180D01*
X66895029Y-117964821D01*
X66514485Y-118122058D01*
X66223081Y-118412954D01*
X66065180Y-118793223D01*
X66064821Y-119204971D01*
X66222058Y-119585515D01*
X66512954Y-119876919D01*
X66893223Y-120034820D01*
X67304971Y-120035179D01*
X67685515Y-119877942D01*
X67778619Y-119785000D01*
X73000000Y-119785000D01*
X73300407Y-119725245D01*
X73555079Y-119555079D01*
X76125158Y-116985000D01*
X91721195Y-116985000D01*
X91812954Y-117076919D01*
X92193223Y-117234820D01*
X92604971Y-117235179D01*
X92985515Y-117077942D01*
X93078619Y-116985000D01*
X105274842Y-116985000D01*
X110544921Y-122255079D01*
X110799594Y-122425245D01*
X111100000Y-122485001D01*
X111100005Y-122485000D01*
X115986651Y-122485000D01*
X116374436Y-122873461D01*
X116395000Y-122882000D01*
X116395000Y-126494842D01*
X113351727Y-129538115D01*
X113296681Y-129515258D01*
X112705911Y-129514743D01*
X112159914Y-129740344D01*
X111741812Y-130157717D01*
X111515258Y-130703319D01*
X111514743Y-131294089D01*
X111740344Y-131840086D01*
X112157717Y-132258188D01*
X112703319Y-132484742D01*
X113294089Y-132485257D01*
X113840086Y-132259656D01*
X114258188Y-131842283D01*
X114484742Y-131296681D01*
X114484744Y-131294089D01*
X117514743Y-131294089D01*
X117740344Y-131840086D01*
X118157717Y-132258188D01*
X118703319Y-132484742D01*
X119294089Y-132485257D01*
X119840086Y-132259656D01*
X120258188Y-131842283D01*
X120484742Y-131296681D01*
X120485257Y-130705911D01*
X120259656Y-130159914D01*
X119842283Y-129741812D01*
X119296681Y-129515258D01*
X118705911Y-129514743D01*
X118159914Y-129740344D01*
X117741812Y-130157717D01*
X117515258Y-130703319D01*
X117514743Y-131294089D01*
X114484744Y-131294089D01*
X114485257Y-130705911D01*
X114461571Y-130648587D01*
X117602845Y-127507313D01*
X117740344Y-127840086D01*
X118157717Y-128258188D01*
X118703319Y-128484742D01*
X119294089Y-128485257D01*
X119840086Y-128259656D01*
X120258188Y-127842283D01*
X120484742Y-127296681D01*
X120485257Y-126705911D01*
X120259656Y-126159914D01*
X119842283Y-125741812D01*
X119296681Y-125515258D01*
X118705911Y-125514743D01*
X118159914Y-125740344D01*
X117965000Y-125934918D01*
X117965000Y-122853383D01*
X118313080Y-122505909D01*
X118346838Y-122685317D01*
X118485910Y-122901441D01*
X118698110Y-123046431D01*
X118950000Y-123097440D01*
X120450000Y-123097440D01*
X120685317Y-123053162D01*
X120901441Y-122914090D01*
X121046431Y-122701890D01*
X121090352Y-122485000D01*
X121570000Y-122485000D01*
X121870407Y-122425245D01*
X122125079Y-122255079D01*
X124325309Y-120054849D01*
X124754481Y-120055223D01*
X125226943Y-119860005D01*
X125588735Y-119498845D01*
X125784777Y-119026724D01*
X125785223Y-118515519D01*
X125590005Y-118043057D01*
X125228845Y-117681265D01*
X124791818Y-117499795D01*
X125226943Y-117320005D01*
X125588735Y-116958845D01*
X125784777Y-116486724D01*
X125784845Y-116408867D01*
X126731853Y-115461858D01*
X126731856Y-115461856D01*
X126906822Y-115200000D01*
X126956215Y-115126078D01*
X127035000Y-114730000D01*
X127035000Y-108478789D01*
X127098917Y-108466762D01*
X127315041Y-108327690D01*
X127460031Y-108115490D01*
X127511040Y-107863600D01*
X127511040Y-107082672D01*
X128873000Y-105720711D01*
X128873000Y-125873000D01*
X122000000Y-125873000D01*
X121950590Y-125883006D01*
X121908965Y-125911447D01*
X121881685Y-125953841D01*
X121873000Y-126000000D01*
X121873000Y-132873000D01*
X106260347Y-132873000D01*
X106351856Y-132811856D01*
X108566271Y-130597440D01*
X109150000Y-130597440D01*
X109385317Y-130553162D01*
X109601441Y-130414090D01*
X109746431Y-130201890D01*
X109797440Y-129950000D01*
X109797440Y-128650000D01*
X109753162Y-128414683D01*
X109614090Y-128198559D01*
X109401890Y-128053569D01*
X109150000Y-128002560D01*
X107850000Y-128002560D01*
X107614683Y-128046838D01*
X107398559Y-128185910D01*
X107253569Y-128398110D01*
X107202560Y-128650000D01*
X107202560Y-129033729D01*
X105191288Y-131045000D01*
X101961784Y-131045000D01*
X101225223Y-130308438D01*
X101125840Y-130067914D01*
X100806838Y-129748355D01*
X100564520Y-129647735D01*
X100484929Y-129568144D01*
X100149150Y-129343785D01*
X99753073Y-129264999D01*
X99753068Y-129265000D01*
X99032366Y-129265000D01*
X97561325Y-127793958D01*
X111885647Y-127793958D01*
X111965920Y-128045259D01*
X112521279Y-128246718D01*
X113111458Y-128220315D01*
X113534080Y-128045259D01*
X113614353Y-127793958D01*
X112750000Y-126929605D01*
X111885647Y-127793958D01*
X97561325Y-127793958D01*
X96288646Y-126521279D01*
X111253282Y-126521279D01*
X111279685Y-127111458D01*
X111454741Y-127534080D01*
X111706042Y-127614353D01*
X112570395Y-126750000D01*
X112929605Y-126750000D01*
X113793958Y-127614353D01*
X114045259Y-127534080D01*
X114246718Y-126978721D01*
X114220315Y-126388542D01*
X114045259Y-125965920D01*
X113793958Y-125885647D01*
X112929605Y-126750000D01*
X112570395Y-126750000D01*
X111706042Y-125885647D01*
X111454741Y-125965920D01*
X111253282Y-126521279D01*
X96288646Y-126521279D01*
X95473409Y-125706042D01*
X111885647Y-125706042D01*
X112750000Y-126570395D01*
X113614353Y-125706042D01*
X113534080Y-125454741D01*
X112978721Y-125253282D01*
X112388542Y-125279685D01*
X111965920Y-125454741D01*
X111885647Y-125706042D01*
X95473409Y-125706042D01*
X95025000Y-125257633D01*
X95025000Y-125199016D01*
X107780590Y-125199016D01*
X107836271Y-125429611D01*
X108319078Y-125597622D01*
X108829428Y-125568083D01*
X109163729Y-125429611D01*
X109219410Y-125199016D01*
X108500000Y-124479605D01*
X107780590Y-125199016D01*
X95025000Y-125199016D01*
X95025000Y-124119078D01*
X107202378Y-124119078D01*
X107231917Y-124629428D01*
X107370389Y-124963729D01*
X107600984Y-125019410D01*
X108320395Y-124300000D01*
X108679605Y-124300000D01*
X109399016Y-125019410D01*
X109629611Y-124963729D01*
X109797622Y-124480922D01*
X109768083Y-123970572D01*
X109629611Y-123636271D01*
X109399016Y-123580590D01*
X108679605Y-124300000D01*
X108320395Y-124300000D01*
X107600984Y-123580590D01*
X107370389Y-123636271D01*
X107202378Y-124119078D01*
X95025000Y-124119078D01*
X95025000Y-123400984D01*
X107780590Y-123400984D01*
X108500000Y-124120395D01*
X109219410Y-123400984D01*
X109163729Y-123170389D01*
X108680922Y-123002378D01*
X108170572Y-123031917D01*
X107836271Y-123170389D01*
X107780590Y-123400984D01*
X95025000Y-123400984D01*
X95025000Y-119710005D01*
X95025001Y-119710000D01*
X94946215Y-119313923D01*
X94824562Y-119131856D01*
X94721856Y-118978144D01*
X93411856Y-117668144D01*
X93076077Y-117443785D01*
X92680000Y-117364999D01*
X92679995Y-117365000D01*
X79956844Y-117365000D01*
X79914090Y-117298559D01*
X79701890Y-117153569D01*
X79450000Y-117102560D01*
X78150000Y-117102560D01*
X77914683Y-117146838D01*
X77698559Y-117285910D01*
X77553569Y-117498110D01*
X77502560Y-117750000D01*
X77502560Y-118233729D01*
X75468144Y-120268144D01*
X75468142Y-120268147D01*
X73771288Y-121965000D01*
X63782486Y-121965000D01*
X63728845Y-121911265D01*
X63256724Y-121715223D01*
X62745519Y-121714777D01*
X62273057Y-121909995D01*
X62217956Y-121965000D01*
X58728712Y-121965000D01*
X57195000Y-120431288D01*
X57195000Y-117110005D01*
X57195001Y-117110000D01*
X57116215Y-116713923D01*
X57077125Y-116655421D01*
X56891856Y-116378144D01*
X56891853Y-116378142D01*
X52865000Y-112351288D01*
X52865000Y-105666629D01*
X53040330Y-105929029D01*
G36*
X124533238Y-108098917D02*
X124672310Y-108315041D01*
X124884510Y-108460031D01*
X124965000Y-108476331D01*
X124965000Y-114301289D01*
X124321445Y-114944843D01*
X124245519Y-114944777D01*
X123773057Y-115139995D01*
X123411265Y-115501155D01*
X123215223Y-115973276D01*
X123214777Y-116484481D01*
X123409995Y-116956943D01*
X123771155Y-117318735D01*
X124208182Y-117500205D01*
X123773057Y-117679995D01*
X123411265Y-118041155D01*
X123215223Y-118513276D01*
X123214846Y-118944996D01*
X121244842Y-120915000D01*
X121090854Y-120915000D01*
X121053162Y-120714683D01*
X120914090Y-120498559D01*
X120701890Y-120353569D01*
X120450000Y-120302560D01*
X118950000Y-120302560D01*
X118714683Y-120346838D01*
X118498559Y-120485910D01*
X118353569Y-120698110D01*
X118313645Y-120895262D01*
X117945564Y-120526539D01*
X117436702Y-120315241D01*
X116885715Y-120314760D01*
X116376485Y-120525169D01*
X115986539Y-120914436D01*
X115986305Y-120915000D01*
X111425158Y-120915000D01*
X106155079Y-115644921D01*
X105915740Y-115485000D01*
X110874842Y-115485000D01*
X111104881Y-115715039D01*
X110785715Y-115714760D01*
X110276485Y-115925169D01*
X109886539Y-116314436D01*
X109675241Y-116823298D01*
X109674760Y-117374285D01*
X109885169Y-117883515D01*
X110274436Y-118273461D01*
X110783298Y-118484759D01*
X111334285Y-118485240D01*
X111843515Y-118274831D01*
X112213080Y-117905909D01*
X112246838Y-118085317D01*
X112385910Y-118301441D01*
X112598110Y-118446431D01*
X112850000Y-118497440D01*
X114350000Y-118497440D01*
X114585317Y-118453162D01*
X114801441Y-118314090D01*
X114946431Y-118101890D01*
X114997440Y-117850000D01*
X114997440Y-116652718D01*
X123178243Y-108471914D01*
X123460000Y-108527959D01*
X124033489Y-108413885D01*
X124519670Y-108089029D01*
X124528805Y-108075358D01*
X124533238Y-108098917D01*
X124533238Y-108098917D01*
G37*
X124533238Y-108098917D02*
X124672310Y-108315041D01*
X124884510Y-108460031D01*
X124965000Y-108476331D01*
X124965000Y-114301289D01*
X124321445Y-114944843D01*
X124245519Y-114944777D01*
X123773057Y-115139995D01*
X123411265Y-115501155D01*
X123215223Y-115973276D01*
X123214777Y-116484481D01*
X123409995Y-116956943D01*
X123771155Y-117318735D01*
X124208182Y-117500205D01*
X123773057Y-117679995D01*
X123411265Y-118041155D01*
X123215223Y-118513276D01*
X123214846Y-118944996D01*
X121244842Y-120915000D01*
X121090854Y-120915000D01*
X121053162Y-120714683D01*
X120914090Y-120498559D01*
X120701890Y-120353569D01*
X120450000Y-120302560D01*
X118950000Y-120302560D01*
X118714683Y-120346838D01*
X118498559Y-120485910D01*
X118353569Y-120698110D01*
X118313645Y-120895262D01*
X117945564Y-120526539D01*
X117436702Y-120315241D01*
X116885715Y-120314760D01*
X116376485Y-120525169D01*
X115986539Y-120914436D01*
X115986305Y-120915000D01*
X111425158Y-120915000D01*
X106155079Y-115644921D01*
X105915740Y-115485000D01*
X110874842Y-115485000D01*
X111104881Y-115715039D01*
X110785715Y-115714760D01*
X110276485Y-115925169D01*
X109886539Y-116314436D01*
X109675241Y-116823298D01*
X109674760Y-117374285D01*
X109885169Y-117883515D01*
X110274436Y-118273461D01*
X110783298Y-118484759D01*
X111334285Y-118485240D01*
X111843515Y-118274831D01*
X112213080Y-117905909D01*
X112246838Y-118085317D01*
X112385910Y-118301441D01*
X112598110Y-118446431D01*
X112850000Y-118497440D01*
X114350000Y-118497440D01*
X114585317Y-118453162D01*
X114801441Y-118314090D01*
X114946431Y-118101890D01*
X114997440Y-117850000D01*
X114997440Y-116652718D01*
X123178243Y-108471914D01*
X123460000Y-108527959D01*
X124033489Y-108413885D01*
X124519670Y-108089029D01*
X124528805Y-108075358D01*
X124533238Y-108098917D01*
G36*
X71654073Y-115847480D02*
X71682852Y-116377199D01*
X71830200Y-116732929D01*
X72065812Y-116794583D01*
X72820395Y-116040000D01*
X72806253Y-116025858D01*
X72985858Y-115846253D01*
X73000000Y-115860395D01*
X73014143Y-115846253D01*
X73193748Y-116025858D01*
X73179605Y-116040000D01*
X73193748Y-116054143D01*
X73014143Y-116233748D01*
X73000000Y-116219605D01*
X72245417Y-116974188D01*
X72307071Y-117209800D01*
X72807480Y-117385927D01*
X73337199Y-117357148D01*
X73670930Y-117218912D01*
X72674842Y-118215000D01*
X67778805Y-118215000D01*
X67688904Y-118124943D01*
X67800000Y-118147440D01*
X69000000Y-118147440D01*
X69235317Y-118103162D01*
X69451441Y-117964090D01*
X69596431Y-117751890D01*
X69647440Y-117500000D01*
X69647440Y-116862718D01*
X70925157Y-115585000D01*
X71746457Y-115585000D01*
X71654073Y-115847480D01*
X71654073Y-115847480D01*
G37*
X71654073Y-115847480D02*
X71682852Y-116377199D01*
X71830200Y-116732929D01*
X72065812Y-116794583D01*
X72820395Y-116040000D01*
X72806253Y-116025858D01*
X72985858Y-115846253D01*
X73000000Y-115860395D01*
X73014143Y-115846253D01*
X73193748Y-116025858D01*
X73179605Y-116040000D01*
X73193748Y-116054143D01*
X73014143Y-116233748D01*
X73000000Y-116219605D01*
X72245417Y-116974188D01*
X72307071Y-117209800D01*
X72807480Y-117385927D01*
X73337199Y-117357148D01*
X73670930Y-117218912D01*
X72674842Y-118215000D01*
X67778805Y-118215000D01*
X67688904Y-118124943D01*
X67800000Y-118147440D01*
X69000000Y-118147440D01*
X69235317Y-118103162D01*
X69451441Y-117964090D01*
X69596431Y-117751890D01*
X69647440Y-117500000D01*
X69647440Y-116862718D01*
X70925157Y-115585000D01*
X71746457Y-115585000D01*
X71654073Y-115847480D01*
G36*
X79880332Y-110234698D02*
X80262418Y-110490000D01*
X79880332Y-110745302D01*
X79569263Y-111210849D01*
X79460030Y-111760000D01*
X79569263Y-112309151D01*
X79880332Y-112774698D01*
X80345879Y-113085767D01*
X80392296Y-113095000D01*
X75420000Y-113095000D01*
X75119594Y-113154755D01*
X74864921Y-113324921D01*
X74864919Y-113324924D01*
X74269245Y-113920597D01*
X74333268Y-113766413D01*
X74333731Y-113235914D01*
X74131146Y-112745620D01*
X73756353Y-112370173D01*
X73418554Y-112229906D01*
X73754380Y-112091146D01*
X74129827Y-111716353D01*
X74333268Y-111226413D01*
X74333731Y-110695914D01*
X74246583Y-110485000D01*
X74700000Y-110485000D01*
X75000407Y-110425245D01*
X75255079Y-110255079D01*
X75505157Y-110005000D01*
X79726852Y-110005000D01*
X79880332Y-110234698D01*
X79880332Y-110234698D01*
G37*
X79880332Y-110234698D02*
X80262418Y-110490000D01*
X79880332Y-110745302D01*
X79569263Y-111210849D01*
X79460030Y-111760000D01*
X79569263Y-112309151D01*
X79880332Y-112774698D01*
X80345879Y-113085767D01*
X80392296Y-113095000D01*
X75420000Y-113095000D01*
X75119594Y-113154755D01*
X74864921Y-113324921D01*
X74864919Y-113324924D01*
X74269245Y-113920597D01*
X74333268Y-113766413D01*
X74333731Y-113235914D01*
X74131146Y-112745620D01*
X73756353Y-112370173D01*
X73418554Y-112229906D01*
X73754380Y-112091146D01*
X74129827Y-111716353D01*
X74333268Y-111226413D01*
X74333731Y-110695914D01*
X74246583Y-110485000D01*
X74700000Y-110485000D01*
X75000407Y-110425245D01*
X75255079Y-110255079D01*
X75505157Y-110005000D01*
X79726852Y-110005000D01*
X79880332Y-110234698D01*
G36*
X94700030Y-106680000D02*
X94809263Y-107229151D01*
X94813171Y-107235000D01*
X93811094Y-107235000D01*
X93610000Y-107194999D01*
X93408907Y-107235000D01*
X93370000Y-107235000D01*
X93069594Y-107294755D01*
X92814921Y-107464921D01*
X89304842Y-110975000D01*
X82833148Y-110975000D01*
X82679668Y-110745302D01*
X82297582Y-110490000D01*
X82679668Y-110234698D01*
X82990737Y-109769151D01*
X83099970Y-109220000D01*
X82990737Y-108670849D01*
X82679668Y-108205302D01*
X82297582Y-107950000D01*
X82679668Y-107694698D01*
X82833148Y-107465000D01*
X85370000Y-107465000D01*
X85670407Y-107405245D01*
X85925079Y-107235079D01*
X86985157Y-106175000D01*
X94800481Y-106175000D01*
X94700030Y-106680000D01*
X94700030Y-106680000D01*
G37*
X94700030Y-106680000D02*
X94809263Y-107229151D01*
X94813171Y-107235000D01*
X93811094Y-107235000D01*
X93610000Y-107194999D01*
X93408907Y-107235000D01*
X93370000Y-107235000D01*
X93069594Y-107294755D01*
X92814921Y-107464921D01*
X89304842Y-110975000D01*
X82833148Y-110975000D01*
X82679668Y-110745302D01*
X82297582Y-110490000D01*
X82679668Y-110234698D01*
X82990737Y-109769151D01*
X83099970Y-109220000D01*
X82990737Y-108670849D01*
X82679668Y-108205302D01*
X82297582Y-107950000D01*
X82679668Y-107694698D01*
X82833148Y-107465000D01*
X85370000Y-107465000D01*
X85670407Y-107405245D01*
X85925079Y-107235079D01*
X86985157Y-106175000D01*
X94800481Y-106175000D01*
X94700030Y-106680000D01*
G36*
X62315000Y-108925158D02*
X62315000Y-109721195D01*
X62223081Y-109812954D01*
X62091352Y-110130194D01*
X58126079Y-106164921D01*
X57871407Y-105994755D01*
X57611703Y-105943096D01*
X57846821Y-105728490D01*
X58094968Y-105199027D01*
X57974469Y-104967000D01*
X56767000Y-104967000D01*
X56767000Y-104987000D01*
X56513000Y-104987000D01*
X56513000Y-104967000D01*
X56493000Y-104967000D01*
X56493000Y-104713000D01*
X56513000Y-104713000D01*
X56513000Y-104693000D01*
X56767000Y-104693000D01*
X56767000Y-104713000D01*
X57974469Y-104713000D01*
X58018349Y-104628507D01*
X62315000Y-108925158D01*
X62315000Y-108925158D01*
G37*
X62315000Y-108925158D02*
X62315000Y-109721195D01*
X62223081Y-109812954D01*
X62091352Y-110130194D01*
X58126079Y-106164921D01*
X57871407Y-105994755D01*
X57611703Y-105943096D01*
X57846821Y-105728490D01*
X58094968Y-105199027D01*
X57974469Y-104967000D01*
X56767000Y-104967000D01*
X56767000Y-104987000D01*
X56513000Y-104987000D01*
X56513000Y-104967000D01*
X56493000Y-104967000D01*
X56493000Y-104713000D01*
X56513000Y-104713000D01*
X56513000Y-104693000D01*
X56767000Y-104693000D01*
X56767000Y-104713000D01*
X57974469Y-104713000D01*
X58018349Y-104628507D01*
X62315000Y-108925158D01*
G36*
X75364921Y-105975079D02*
X75619594Y-106145245D01*
X75920000Y-106205000D01*
X79554513Y-106205000D01*
X79460030Y-106680000D01*
X79569263Y-107229151D01*
X79880332Y-107694698D01*
X80262418Y-107950000D01*
X79880332Y-108205302D01*
X79726852Y-108435000D01*
X75180005Y-108435000D01*
X75180000Y-108434999D01*
X74918349Y-108487046D01*
X74879594Y-108494755D01*
X74624921Y-108664921D01*
X74624919Y-108664924D01*
X74374842Y-108915000D01*
X74238350Y-108915000D01*
X74333268Y-108686413D01*
X74333731Y-108155914D01*
X74131146Y-107665620D01*
X73756353Y-107290173D01*
X73418554Y-107149906D01*
X73754380Y-107011146D01*
X74129827Y-106636353D01*
X74333268Y-106146413D01*
X74333731Y-105615914D01*
X74279639Y-105485000D01*
X74874842Y-105485000D01*
X75364921Y-105975079D01*
X75364921Y-105975079D01*
G37*
X75364921Y-105975079D02*
X75619594Y-106145245D01*
X75920000Y-106205000D01*
X79554513Y-106205000D01*
X79460030Y-106680000D01*
X79569263Y-107229151D01*
X79880332Y-107694698D01*
X80262418Y-107950000D01*
X79880332Y-108205302D01*
X79726852Y-108435000D01*
X75180005Y-108435000D01*
X75180000Y-108434999D01*
X74918349Y-108487046D01*
X74879594Y-108494755D01*
X74624921Y-108664921D01*
X74624919Y-108664924D01*
X74374842Y-108915000D01*
X74238350Y-108915000D01*
X74333268Y-108686413D01*
X74333731Y-108155914D01*
X74131146Y-107665620D01*
X73756353Y-107290173D01*
X73418554Y-107149906D01*
X73754380Y-107011146D01*
X74129827Y-106636353D01*
X74333268Y-106146413D01*
X74333731Y-105615914D01*
X74279639Y-105485000D01*
X74874842Y-105485000D01*
X75364921Y-105975079D01*
G36*
X79460030Y-101600000D02*
X79569263Y-102149151D01*
X79880332Y-102614698D01*
X80262418Y-102870000D01*
X79880332Y-103125302D01*
X79569263Y-103590849D01*
X79460030Y-104140000D01*
X79558492Y-104635000D01*
X76245158Y-104635000D01*
X75755079Y-104144921D01*
X75500407Y-103974755D01*
X75200000Y-103915000D01*
X74345940Y-103915000D01*
X74345940Y-102641500D01*
X74335309Y-102585000D01*
X77760000Y-102585000D01*
X78060407Y-102525245D01*
X78315079Y-102355079D01*
X79525157Y-101145000D01*
X79550535Y-101145000D01*
X79460030Y-101600000D01*
X79460030Y-101600000D01*
G37*
X79460030Y-101600000D02*
X79569263Y-102149151D01*
X79880332Y-102614698D01*
X80262418Y-102870000D01*
X79880332Y-103125302D01*
X79569263Y-103590849D01*
X79460030Y-104140000D01*
X79558492Y-104635000D01*
X76245158Y-104635000D01*
X75755079Y-104144921D01*
X75500407Y-103974755D01*
X75200000Y-103915000D01*
X74345940Y-103915000D01*
X74345940Y-102641500D01*
X74335309Y-102585000D01*
X77760000Y-102585000D01*
X78060407Y-102525245D01*
X78315079Y-102355079D01*
X79525157Y-101145000D01*
X79550535Y-101145000D01*
X79460030Y-101600000D01*
G36*
X64575152Y-100225310D02*
X64574760Y-100674285D01*
X64785169Y-101183515D01*
X65174436Y-101573461D01*
X65683298Y-101784759D01*
X66004882Y-101785040D01*
X66574921Y-102355079D01*
X66766653Y-102483189D01*
X66234603Y-103015239D01*
X65685715Y-103014760D01*
X65176485Y-103225169D01*
X64786539Y-103614436D01*
X64786305Y-103615000D01*
X63725158Y-103615000D01*
X59385158Y-99275000D01*
X63624842Y-99275000D01*
X64575152Y-100225310D01*
X64575152Y-100225310D01*
G37*
X64575152Y-100225310D02*
X64574760Y-100674285D01*
X64785169Y-101183515D01*
X65174436Y-101573461D01*
X65683298Y-101784759D01*
X66004882Y-101785040D01*
X66574921Y-102355079D01*
X66766653Y-102483189D01*
X66234603Y-103015239D01*
X65685715Y-103014760D01*
X65176485Y-103225169D01*
X64786539Y-103614436D01*
X64786305Y-103615000D01*
X63725158Y-103615000D01*
X59385158Y-99275000D01*
X63624842Y-99275000D01*
X64575152Y-100225310D01*
G36*
X94700030Y-101600000D02*
X94802470Y-102115000D01*
X87150000Y-102115000D01*
X86849594Y-102174755D01*
X86594921Y-102344921D01*
X85584842Y-103355000D01*
X82833148Y-103355000D01*
X82679668Y-103125302D01*
X82297582Y-102870000D01*
X82679668Y-102614698D01*
X82833148Y-102385000D01*
X84960000Y-102385000D01*
X85260407Y-102325245D01*
X85515079Y-102155079D01*
X86555158Y-101115000D01*
X94796503Y-101115000D01*
X94700030Y-101600000D01*
X94700030Y-101600000D01*
G37*
X94700030Y-101600000D02*
X94802470Y-102115000D01*
X87150000Y-102115000D01*
X86849594Y-102174755D01*
X86594921Y-102344921D01*
X85584842Y-103355000D01*
X82833148Y-103355000D01*
X82679668Y-103125302D01*
X82297582Y-102870000D01*
X82679668Y-102614698D01*
X82833148Y-102385000D01*
X84960000Y-102385000D01*
X85260407Y-102325245D01*
X85515079Y-102155079D01*
X86555158Y-101115000D01*
X94796503Y-101115000D01*
X94700030Y-101600000D01*
G36*
X110276485Y-91825169D02*
X109886539Y-92214436D01*
X109675241Y-92723298D01*
X109674760Y-93274285D01*
X109815540Y-93615000D01*
X108033500Y-93615000D01*
X108033500Y-93525750D01*
X107874750Y-93367000D01*
X106827000Y-93367000D01*
X106827000Y-93387000D01*
X106573000Y-93387000D01*
X106573000Y-93367000D01*
X105525250Y-93367000D01*
X105366500Y-93525750D01*
X105366500Y-93615000D01*
X104800000Y-93615000D01*
X104499594Y-93674755D01*
X104244921Y-93844921D01*
X103605191Y-94484651D01*
X103544921Y-94524922D01*
X103434921Y-94634921D01*
X98524842Y-99545000D01*
X98243497Y-99545000D01*
X98339970Y-99060000D01*
X98249465Y-98605000D01*
X98980000Y-98605000D01*
X99280407Y-98545245D01*
X99535079Y-98375079D01*
X105366500Y-92543657D01*
X105366500Y-92954250D01*
X105525250Y-93113000D01*
X106573000Y-93113000D01*
X106573000Y-92065250D01*
X106827000Y-92065250D01*
X106827000Y-93113000D01*
X107874750Y-93113000D01*
X108033500Y-92954250D01*
X108033500Y-92415191D01*
X107936827Y-92181802D01*
X107758199Y-92003173D01*
X107524810Y-91906500D01*
X106985750Y-91906500D01*
X106827000Y-92065250D01*
X106573000Y-92065250D01*
X106414250Y-91906500D01*
X106003657Y-91906500D01*
X106125157Y-91785000D01*
X110373702Y-91785000D01*
X110276485Y-91825169D01*
X110276485Y-91825169D01*
G37*
X110276485Y-91825169D02*
X109886539Y-92214436D01*
X109675241Y-92723298D01*
X109674760Y-93274285D01*
X109815540Y-93615000D01*
X108033500Y-93615000D01*
X108033500Y-93525750D01*
X107874750Y-93367000D01*
X106827000Y-93367000D01*
X106827000Y-93387000D01*
X106573000Y-93387000D01*
X106573000Y-93367000D01*
X105525250Y-93367000D01*
X105366500Y-93525750D01*
X105366500Y-93615000D01*
X104800000Y-93615000D01*
X104499594Y-93674755D01*
X104244921Y-93844921D01*
X103605191Y-94484651D01*
X103544921Y-94524922D01*
X103434921Y-94634921D01*
X98524842Y-99545000D01*
X98243497Y-99545000D01*
X98339970Y-99060000D01*
X98249465Y-98605000D01*
X98980000Y-98605000D01*
X99280407Y-98545245D01*
X99535079Y-98375079D01*
X105366500Y-92543657D01*
X105366500Y-92954250D01*
X105525250Y-93113000D01*
X106573000Y-93113000D01*
X106573000Y-92065250D01*
X106827000Y-92065250D01*
X106827000Y-93113000D01*
X107874750Y-93113000D01*
X108033500Y-92954250D01*
X108033500Y-92415191D01*
X107936827Y-92181802D01*
X107758199Y-92003173D01*
X107524810Y-91906500D01*
X106985750Y-91906500D01*
X106827000Y-92065250D01*
X106573000Y-92065250D01*
X106414250Y-91906500D01*
X106003657Y-91906500D01*
X106125157Y-91785000D01*
X110373702Y-91785000D01*
X110276485Y-91825169D01*
G36*
X70744919Y-96855076D02*
X70744921Y-96855079D01*
X70912424Y-96967000D01*
X70999594Y-97025245D01*
X71300000Y-97085001D01*
X71300005Y-97085000D01*
X71736167Y-97085000D01*
X71590856Y-97492302D01*
X71618638Y-98047368D01*
X71777603Y-98431143D01*
X72019787Y-98500608D01*
X72820395Y-97700000D01*
X72806253Y-97685858D01*
X72985858Y-97506253D01*
X73000000Y-97520395D01*
X73014143Y-97506253D01*
X73193748Y-97685858D01*
X73179605Y-97700000D01*
X73980213Y-98500608D01*
X74222397Y-98431143D01*
X74409144Y-97907698D01*
X74381362Y-97352632D01*
X74270505Y-97085000D01*
X76749498Y-97085000D01*
X76614921Y-97174921D01*
X74874842Y-98915000D01*
X73733265Y-98915000D01*
X73800608Y-98680213D01*
X73000000Y-97879605D01*
X72199392Y-98680213D01*
X72266735Y-98915000D01*
X72025158Y-98915000D01*
X70285079Y-97174921D01*
X70030407Y-97004755D01*
X69897440Y-96978306D01*
X69897440Y-96007598D01*
X70744919Y-96855076D01*
X70744919Y-96855076D01*
G37*
X70744919Y-96855076D02*
X70744921Y-96855079D01*
X70912424Y-96967000D01*
X70999594Y-97025245D01*
X71300000Y-97085001D01*
X71300005Y-97085000D01*
X71736167Y-97085000D01*
X71590856Y-97492302D01*
X71618638Y-98047368D01*
X71777603Y-98431143D01*
X72019787Y-98500608D01*
X72820395Y-97700000D01*
X72806253Y-97685858D01*
X72985858Y-97506253D01*
X73000000Y-97520395D01*
X73014143Y-97506253D01*
X73193748Y-97685858D01*
X73179605Y-97700000D01*
X73980213Y-98500608D01*
X74222397Y-98431143D01*
X74409144Y-97907698D01*
X74381362Y-97352632D01*
X74270505Y-97085000D01*
X76749498Y-97085000D01*
X76614921Y-97174921D01*
X74874842Y-98915000D01*
X73733265Y-98915000D01*
X73800608Y-98680213D01*
X73000000Y-97879605D01*
X72199392Y-98680213D01*
X72266735Y-98915000D01*
X72025158Y-98915000D01*
X70285079Y-97174921D01*
X70030407Y-97004755D01*
X69897440Y-96978306D01*
X69897440Y-96007598D01*
X70744919Y-96855076D01*
G36*
X123587000Y-96713000D02*
X123607000Y-96713000D01*
X123607000Y-96967000D01*
X123587000Y-96967000D01*
X123587000Y-96987000D01*
X123333000Y-96987000D01*
X123333000Y-96967000D01*
X123313000Y-96967000D01*
X123313000Y-96713000D01*
X123333000Y-96713000D01*
X123333000Y-96693000D01*
X123587000Y-96693000D01*
X123587000Y-96713000D01*
X123587000Y-96713000D01*
G37*
X123587000Y-96713000D02*
X123607000Y-96713000D01*
X123607000Y-96967000D01*
X123587000Y-96967000D01*
X123587000Y-96987000D01*
X123333000Y-96987000D01*
X123333000Y-96967000D01*
X123313000Y-96967000D01*
X123313000Y-96713000D01*
X123333000Y-96713000D01*
X123333000Y-96693000D01*
X123587000Y-96693000D01*
X123587000Y-96713000D01*
G36*
X122816870Y-85337265D02*
X123500000Y-86020395D01*
X123514143Y-86006253D01*
X123693748Y-86185858D01*
X123679605Y-86200000D01*
X124362735Y-86883130D01*
X124588164Y-86833617D01*
X124736925Y-86400636D01*
X124752560Y-86416271D01*
X124752560Y-86800000D01*
X124796838Y-87035317D01*
X124935910Y-87251441D01*
X124965000Y-87271317D01*
X124965000Y-88559995D01*
X124964999Y-88560000D01*
X125043785Y-88956077D01*
X125268144Y-89291856D01*
X127205000Y-91228711D01*
X127205000Y-95968473D01*
X127059670Y-95750971D01*
X126573489Y-95426115D01*
X126000000Y-95312041D01*
X125651517Y-95381359D01*
X118715079Y-88444921D01*
X118460407Y-88274755D01*
X118160000Y-88215000D01*
X114990854Y-88215000D01*
X114953162Y-88014683D01*
X114814090Y-87798559D01*
X114601890Y-87653569D01*
X114350000Y-87602560D01*
X112850000Y-87602560D01*
X112614683Y-87646838D01*
X112398559Y-87785910D01*
X112253569Y-87998110D01*
X112213645Y-88195262D01*
X111845564Y-87826539D01*
X111336702Y-87615241D01*
X110785715Y-87614760D01*
X110276485Y-87825169D01*
X109886539Y-88214436D01*
X109675241Y-88723298D01*
X109674760Y-89274285D01*
X109885169Y-89783515D01*
X110274436Y-90173461D01*
X110374473Y-90215000D01*
X105895158Y-90215000D01*
X109225158Y-86885000D01*
X109621195Y-86885000D01*
X109712954Y-86976919D01*
X110093223Y-87134820D01*
X110504971Y-87135179D01*
X110680299Y-87062735D01*
X122816870Y-87062735D01*
X122866383Y-87288164D01*
X123331036Y-87447807D01*
X123821413Y-87417482D01*
X124133617Y-87288164D01*
X124183130Y-87062735D01*
X123500000Y-86379605D01*
X122816870Y-87062735D01*
X110680299Y-87062735D01*
X110885515Y-86977942D01*
X111176919Y-86687046D01*
X111334820Y-86306777D01*
X111335060Y-86031036D01*
X122252193Y-86031036D01*
X122282518Y-86521413D01*
X122411836Y-86833617D01*
X122637265Y-86883130D01*
X123320395Y-86200000D01*
X122637265Y-85516870D01*
X122411836Y-85566383D01*
X122252193Y-86031036D01*
X111335060Y-86031036D01*
X111335179Y-85895029D01*
X111269057Y-85735000D01*
X118317274Y-85735000D01*
X118346278Y-85754380D01*
X118393923Y-85786215D01*
X118790000Y-85865001D01*
X119186078Y-85786215D01*
X119521856Y-85561856D01*
X119868711Y-85215000D01*
X122843724Y-85215000D01*
X122816870Y-85337265D01*
X122816870Y-85337265D01*
G37*
X122816870Y-85337265D02*
X123500000Y-86020395D01*
X123514143Y-86006253D01*
X123693748Y-86185858D01*
X123679605Y-86200000D01*
X124362735Y-86883130D01*
X124588164Y-86833617D01*
X124736925Y-86400636D01*
X124752560Y-86416271D01*
X124752560Y-86800000D01*
X124796838Y-87035317D01*
X124935910Y-87251441D01*
X124965000Y-87271317D01*
X124965000Y-88559995D01*
X124964999Y-88560000D01*
X125043785Y-88956077D01*
X125268144Y-89291856D01*
X127205000Y-91228711D01*
X127205000Y-95968473D01*
X127059670Y-95750971D01*
X126573489Y-95426115D01*
X126000000Y-95312041D01*
X125651517Y-95381359D01*
X118715079Y-88444921D01*
X118460407Y-88274755D01*
X118160000Y-88215000D01*
X114990854Y-88215000D01*
X114953162Y-88014683D01*
X114814090Y-87798559D01*
X114601890Y-87653569D01*
X114350000Y-87602560D01*
X112850000Y-87602560D01*
X112614683Y-87646838D01*
X112398559Y-87785910D01*
X112253569Y-87998110D01*
X112213645Y-88195262D01*
X111845564Y-87826539D01*
X111336702Y-87615241D01*
X110785715Y-87614760D01*
X110276485Y-87825169D01*
X109886539Y-88214436D01*
X109675241Y-88723298D01*
X109674760Y-89274285D01*
X109885169Y-89783515D01*
X110274436Y-90173461D01*
X110374473Y-90215000D01*
X105895158Y-90215000D01*
X109225158Y-86885000D01*
X109621195Y-86885000D01*
X109712954Y-86976919D01*
X110093223Y-87134820D01*
X110504971Y-87135179D01*
X110680299Y-87062735D01*
X122816870Y-87062735D01*
X122866383Y-87288164D01*
X123331036Y-87447807D01*
X123821413Y-87417482D01*
X124133617Y-87288164D01*
X124183130Y-87062735D01*
X123500000Y-86379605D01*
X122816870Y-87062735D01*
X110680299Y-87062735D01*
X110885515Y-86977942D01*
X111176919Y-86687046D01*
X111334820Y-86306777D01*
X111335060Y-86031036D01*
X122252193Y-86031036D01*
X122282518Y-86521413D01*
X122411836Y-86833617D01*
X122637265Y-86883130D01*
X123320395Y-86200000D01*
X122637265Y-85516870D01*
X122411836Y-85566383D01*
X122252193Y-86031036D01*
X111335060Y-86031036D01*
X111335179Y-85895029D01*
X111269057Y-85735000D01*
X118317274Y-85735000D01*
X118346278Y-85754380D01*
X118393923Y-85786215D01*
X118790000Y-85865001D01*
X119186078Y-85786215D01*
X119521856Y-85561856D01*
X119868711Y-85215000D01*
X122843724Y-85215000D01*
X122816870Y-85337265D01*
G36*
X79880332Y-79754698D02*
X80262418Y-80010000D01*
X79880332Y-80265302D01*
X79569263Y-80730849D01*
X79460030Y-81280000D01*
X79569263Y-81829151D01*
X79880332Y-82294698D01*
X80262418Y-82550000D01*
X79880332Y-82805302D01*
X79569263Y-83270849D01*
X79460030Y-83820000D01*
X79569263Y-84369151D01*
X79880332Y-84834698D01*
X80262418Y-85090000D01*
X79880332Y-85345302D01*
X79569263Y-85810849D01*
X79460030Y-86360000D01*
X79569263Y-86909151D01*
X79880332Y-87374698D01*
X80262418Y-87630000D01*
X79880332Y-87885302D01*
X79827079Y-87965000D01*
X79074669Y-87965000D01*
X79064090Y-87948559D01*
X78851890Y-87803569D01*
X78600000Y-87752560D01*
X77400000Y-87752560D01*
X77164683Y-87796838D01*
X76948559Y-87935910D01*
X76803569Y-88148110D01*
X76752560Y-88400000D01*
X76752560Y-89600000D01*
X76796838Y-89835317D01*
X76935910Y-90051441D01*
X77148110Y-90196431D01*
X77400000Y-90247440D01*
X78600000Y-90247440D01*
X78835317Y-90203162D01*
X79051441Y-90064090D01*
X79071317Y-90035000D01*
X80060376Y-90035000D01*
X80258151Y-90167149D01*
X79825500Y-90515104D01*
X79555633Y-91008181D01*
X79538096Y-91090961D01*
X79660085Y-91313000D01*
X81153000Y-91313000D01*
X81153000Y-91293000D01*
X81407000Y-91293000D01*
X81407000Y-91313000D01*
X82899915Y-91313000D01*
X83021904Y-91090961D01*
X83004367Y-91008181D01*
X82734500Y-90515104D01*
X82301849Y-90167149D01*
X82649284Y-89935000D01*
X86199995Y-89935000D01*
X86200000Y-89935001D01*
X86596077Y-89856215D01*
X86931856Y-89631856D01*
X91708711Y-84855000D01*
X95150716Y-84855000D01*
X95498151Y-85087149D01*
X95065500Y-85435104D01*
X94795633Y-85928181D01*
X94778096Y-86010961D01*
X94900085Y-86233000D01*
X96393000Y-86233000D01*
X96393000Y-86213000D01*
X96647000Y-86213000D01*
X96647000Y-86233000D01*
X98139915Y-86233000D01*
X98184946Y-86151036D01*
X99282193Y-86151036D01*
X99312518Y-86641413D01*
X99441836Y-86953617D01*
X99667265Y-87003130D01*
X100350395Y-86320000D01*
X100709605Y-86320000D01*
X101392735Y-87003130D01*
X101618164Y-86953617D01*
X101777807Y-86488964D01*
X101747482Y-85998587D01*
X101618164Y-85686383D01*
X101392735Y-85636870D01*
X100709605Y-86320000D01*
X100350395Y-86320000D01*
X99667265Y-85636870D01*
X99441836Y-85686383D01*
X99282193Y-86151036D01*
X98184946Y-86151036D01*
X98261904Y-86010961D01*
X98244367Y-85928181D01*
X97986629Y-85457265D01*
X99846870Y-85457265D01*
X100530000Y-86140395D01*
X101213130Y-85457265D01*
X101163617Y-85231836D01*
X100698964Y-85072193D01*
X100208587Y-85102518D01*
X99896383Y-85231836D01*
X99846870Y-85457265D01*
X97986629Y-85457265D01*
X97974500Y-85435104D01*
X97541849Y-85087149D01*
X97889284Y-84855000D01*
X99455331Y-84855000D01*
X99465910Y-84871441D01*
X99678110Y-85016431D01*
X99930000Y-85067440D01*
X101130000Y-85067440D01*
X101360380Y-85024091D01*
X101768142Y-85431853D01*
X101768144Y-85431856D01*
X102040878Y-85614090D01*
X102103923Y-85656215D01*
X102500000Y-85735001D01*
X102500005Y-85735000D01*
X108154842Y-85735000D01*
X101484921Y-92404921D01*
X101444648Y-92465194D01*
X100714842Y-93195000D01*
X98073148Y-93195000D01*
X97919668Y-92965302D01*
X97537582Y-92710000D01*
X97919668Y-92454698D01*
X98230737Y-91989151D01*
X98339970Y-91440000D01*
X98230737Y-90890849D01*
X97919668Y-90425302D01*
X97537582Y-90170000D01*
X97919668Y-89914698D01*
X98230737Y-89449151D01*
X98339970Y-88900000D01*
X98230737Y-88350849D01*
X97919668Y-87885302D01*
X97541849Y-87632851D01*
X97974500Y-87284896D01*
X98030413Y-87182735D01*
X99846870Y-87182735D01*
X99896383Y-87408164D01*
X100361036Y-87567807D01*
X100851413Y-87537482D01*
X101163617Y-87408164D01*
X101213130Y-87182735D01*
X100530000Y-86499605D01*
X99846870Y-87182735D01*
X98030413Y-87182735D01*
X98244367Y-86791819D01*
X98261904Y-86709039D01*
X98139915Y-86487000D01*
X96647000Y-86487000D01*
X96647000Y-86507000D01*
X96393000Y-86507000D01*
X96393000Y-86487000D01*
X94900085Y-86487000D01*
X94778096Y-86709039D01*
X94795633Y-86791819D01*
X95065500Y-87284896D01*
X95498151Y-87632851D01*
X95120332Y-87885302D01*
X94809263Y-88350849D01*
X94700030Y-88900000D01*
X94809263Y-89449151D01*
X95120332Y-89914698D01*
X95502418Y-90170000D01*
X95120332Y-90425302D01*
X94809263Y-90890849D01*
X94700030Y-91440000D01*
X94809263Y-91989151D01*
X95120332Y-92454698D01*
X95502418Y-92710000D01*
X95120332Y-92965302D01*
X94809263Y-93430849D01*
X94700030Y-93980000D01*
X94738802Y-94174920D01*
X94625029Y-94174821D01*
X94244485Y-94332058D01*
X94081258Y-94495000D01*
X82997530Y-94495000D01*
X83099970Y-93980000D01*
X82990737Y-93430849D01*
X82679668Y-92965302D01*
X82301849Y-92712851D01*
X82734500Y-92364896D01*
X83004367Y-91871819D01*
X83021904Y-91789039D01*
X82899915Y-91567000D01*
X81407000Y-91567000D01*
X81407000Y-91587000D01*
X81153000Y-91587000D01*
X81153000Y-91567000D01*
X79660085Y-91567000D01*
X79538096Y-91789039D01*
X79555633Y-91871819D01*
X79825500Y-92364896D01*
X80258151Y-92712851D01*
X79880332Y-92965302D01*
X79726852Y-93195000D01*
X77465158Y-93195000D01*
X76632893Y-92362735D01*
X77316870Y-92362735D01*
X77366383Y-92588164D01*
X77831036Y-92747807D01*
X78321413Y-92717482D01*
X78633617Y-92588164D01*
X78683130Y-92362735D01*
X78000000Y-91679605D01*
X77316870Y-92362735D01*
X76632893Y-92362735D01*
X75601194Y-91331036D01*
X76752193Y-91331036D01*
X76782518Y-91821413D01*
X76911836Y-92133617D01*
X77137265Y-92183130D01*
X77820395Y-91500000D01*
X78179605Y-91500000D01*
X78862735Y-92183130D01*
X79088164Y-92133617D01*
X79247807Y-91668964D01*
X79217482Y-91178587D01*
X79088164Y-90866383D01*
X78862735Y-90816870D01*
X78179605Y-91500000D01*
X77820395Y-91500000D01*
X77137265Y-90816870D01*
X76911836Y-90866383D01*
X76752193Y-91331036D01*
X75601194Y-91331036D01*
X75385000Y-91114842D01*
X75385000Y-90637265D01*
X77316870Y-90637265D01*
X78000000Y-91320395D01*
X78683130Y-90637265D01*
X78633617Y-90411836D01*
X78168964Y-90252193D01*
X77678587Y-90282518D01*
X77366383Y-90411836D01*
X77316870Y-90637265D01*
X75385000Y-90637265D01*
X75385000Y-89500000D01*
X75325245Y-89199594D01*
X75155079Y-88944921D01*
X74455079Y-88244921D01*
X74217187Y-88085967D01*
X74333268Y-87806413D01*
X74333731Y-87275914D01*
X74131146Y-86785620D01*
X73756353Y-86410173D01*
X73418554Y-86269906D01*
X73754380Y-86131146D01*
X74129827Y-85756353D01*
X74333268Y-85266413D01*
X74333731Y-84735914D01*
X74131146Y-84245620D01*
X73756353Y-83870173D01*
X73418554Y-83729906D01*
X73754380Y-83591146D01*
X74129827Y-83216353D01*
X74333268Y-82726413D01*
X74333731Y-82195914D01*
X74131146Y-81705620D01*
X73756353Y-81330173D01*
X73418554Y-81189906D01*
X73754380Y-81051146D01*
X74129827Y-80676353D01*
X74333268Y-80186413D01*
X74333731Y-79655914D01*
X74279639Y-79525000D01*
X79726852Y-79525000D01*
X79880332Y-79754698D01*
X79880332Y-79754698D01*
G37*
X79880332Y-79754698D02*
X80262418Y-80010000D01*
X79880332Y-80265302D01*
X79569263Y-80730849D01*
X79460030Y-81280000D01*
X79569263Y-81829151D01*
X79880332Y-82294698D01*
X80262418Y-82550000D01*
X79880332Y-82805302D01*
X79569263Y-83270849D01*
X79460030Y-83820000D01*
X79569263Y-84369151D01*
X79880332Y-84834698D01*
X80262418Y-85090000D01*
X79880332Y-85345302D01*
X79569263Y-85810849D01*
X79460030Y-86360000D01*
X79569263Y-86909151D01*
X79880332Y-87374698D01*
X80262418Y-87630000D01*
X79880332Y-87885302D01*
X79827079Y-87965000D01*
X79074669Y-87965000D01*
X79064090Y-87948559D01*
X78851890Y-87803569D01*
X78600000Y-87752560D01*
X77400000Y-87752560D01*
X77164683Y-87796838D01*
X76948559Y-87935910D01*
X76803569Y-88148110D01*
X76752560Y-88400000D01*
X76752560Y-89600000D01*
X76796838Y-89835317D01*
X76935910Y-90051441D01*
X77148110Y-90196431D01*
X77400000Y-90247440D01*
X78600000Y-90247440D01*
X78835317Y-90203162D01*
X79051441Y-90064090D01*
X79071317Y-90035000D01*
X80060376Y-90035000D01*
X80258151Y-90167149D01*
X79825500Y-90515104D01*
X79555633Y-91008181D01*
X79538096Y-91090961D01*
X79660085Y-91313000D01*
X81153000Y-91313000D01*
X81153000Y-91293000D01*
X81407000Y-91293000D01*
X81407000Y-91313000D01*
X82899915Y-91313000D01*
X83021904Y-91090961D01*
X83004367Y-91008181D01*
X82734500Y-90515104D01*
X82301849Y-90167149D01*
X82649284Y-89935000D01*
X86199995Y-89935000D01*
X86200000Y-89935001D01*
X86596077Y-89856215D01*
X86931856Y-89631856D01*
X91708711Y-84855000D01*
X95150716Y-84855000D01*
X95498151Y-85087149D01*
X95065500Y-85435104D01*
X94795633Y-85928181D01*
X94778096Y-86010961D01*
X94900085Y-86233000D01*
X96393000Y-86233000D01*
X96393000Y-86213000D01*
X96647000Y-86213000D01*
X96647000Y-86233000D01*
X98139915Y-86233000D01*
X98184946Y-86151036D01*
X99282193Y-86151036D01*
X99312518Y-86641413D01*
X99441836Y-86953617D01*
X99667265Y-87003130D01*
X100350395Y-86320000D01*
X100709605Y-86320000D01*
X101392735Y-87003130D01*
X101618164Y-86953617D01*
X101777807Y-86488964D01*
X101747482Y-85998587D01*
X101618164Y-85686383D01*
X101392735Y-85636870D01*
X100709605Y-86320000D01*
X100350395Y-86320000D01*
X99667265Y-85636870D01*
X99441836Y-85686383D01*
X99282193Y-86151036D01*
X98184946Y-86151036D01*
X98261904Y-86010961D01*
X98244367Y-85928181D01*
X97986629Y-85457265D01*
X99846870Y-85457265D01*
X100530000Y-86140395D01*
X101213130Y-85457265D01*
X101163617Y-85231836D01*
X100698964Y-85072193D01*
X100208587Y-85102518D01*
X99896383Y-85231836D01*
X99846870Y-85457265D01*
X97986629Y-85457265D01*
X97974500Y-85435104D01*
X97541849Y-85087149D01*
X97889284Y-84855000D01*
X99455331Y-84855000D01*
X99465910Y-84871441D01*
X99678110Y-85016431D01*
X99930000Y-85067440D01*
X101130000Y-85067440D01*
X101360380Y-85024091D01*
X101768142Y-85431853D01*
X101768144Y-85431856D01*
X102040878Y-85614090D01*
X102103923Y-85656215D01*
X102500000Y-85735001D01*
X102500005Y-85735000D01*
X108154842Y-85735000D01*
X101484921Y-92404921D01*
X101444648Y-92465194D01*
X100714842Y-93195000D01*
X98073148Y-93195000D01*
X97919668Y-92965302D01*
X97537582Y-92710000D01*
X97919668Y-92454698D01*
X98230737Y-91989151D01*
X98339970Y-91440000D01*
X98230737Y-90890849D01*
X97919668Y-90425302D01*
X97537582Y-90170000D01*
X97919668Y-89914698D01*
X98230737Y-89449151D01*
X98339970Y-88900000D01*
X98230737Y-88350849D01*
X97919668Y-87885302D01*
X97541849Y-87632851D01*
X97974500Y-87284896D01*
X98030413Y-87182735D01*
X99846870Y-87182735D01*
X99896383Y-87408164D01*
X100361036Y-87567807D01*
X100851413Y-87537482D01*
X101163617Y-87408164D01*
X101213130Y-87182735D01*
X100530000Y-86499605D01*
X99846870Y-87182735D01*
X98030413Y-87182735D01*
X98244367Y-86791819D01*
X98261904Y-86709039D01*
X98139915Y-86487000D01*
X96647000Y-86487000D01*
X96647000Y-86507000D01*
X96393000Y-86507000D01*
X96393000Y-86487000D01*
X94900085Y-86487000D01*
X94778096Y-86709039D01*
X94795633Y-86791819D01*
X95065500Y-87284896D01*
X95498151Y-87632851D01*
X95120332Y-87885302D01*
X94809263Y-88350849D01*
X94700030Y-88900000D01*
X94809263Y-89449151D01*
X95120332Y-89914698D01*
X95502418Y-90170000D01*
X95120332Y-90425302D01*
X94809263Y-90890849D01*
X94700030Y-91440000D01*
X94809263Y-91989151D01*
X95120332Y-92454698D01*
X95502418Y-92710000D01*
X95120332Y-92965302D01*
X94809263Y-93430849D01*
X94700030Y-93980000D01*
X94738802Y-94174920D01*
X94625029Y-94174821D01*
X94244485Y-94332058D01*
X94081258Y-94495000D01*
X82997530Y-94495000D01*
X83099970Y-93980000D01*
X82990737Y-93430849D01*
X82679668Y-92965302D01*
X82301849Y-92712851D01*
X82734500Y-92364896D01*
X83004367Y-91871819D01*
X83021904Y-91789039D01*
X82899915Y-91567000D01*
X81407000Y-91567000D01*
X81407000Y-91587000D01*
X81153000Y-91587000D01*
X81153000Y-91567000D01*
X79660085Y-91567000D01*
X79538096Y-91789039D01*
X79555633Y-91871819D01*
X79825500Y-92364896D01*
X80258151Y-92712851D01*
X79880332Y-92965302D01*
X79726852Y-93195000D01*
X77465158Y-93195000D01*
X76632893Y-92362735D01*
X77316870Y-92362735D01*
X77366383Y-92588164D01*
X77831036Y-92747807D01*
X78321413Y-92717482D01*
X78633617Y-92588164D01*
X78683130Y-92362735D01*
X78000000Y-91679605D01*
X77316870Y-92362735D01*
X76632893Y-92362735D01*
X75601194Y-91331036D01*
X76752193Y-91331036D01*
X76782518Y-91821413D01*
X76911836Y-92133617D01*
X77137265Y-92183130D01*
X77820395Y-91500000D01*
X78179605Y-91500000D01*
X78862735Y-92183130D01*
X79088164Y-92133617D01*
X79247807Y-91668964D01*
X79217482Y-91178587D01*
X79088164Y-90866383D01*
X78862735Y-90816870D01*
X78179605Y-91500000D01*
X77820395Y-91500000D01*
X77137265Y-90816870D01*
X76911836Y-90866383D01*
X76752193Y-91331036D01*
X75601194Y-91331036D01*
X75385000Y-91114842D01*
X75385000Y-90637265D01*
X77316870Y-90637265D01*
X78000000Y-91320395D01*
X78683130Y-90637265D01*
X78633617Y-90411836D01*
X78168964Y-90252193D01*
X77678587Y-90282518D01*
X77366383Y-90411836D01*
X77316870Y-90637265D01*
X75385000Y-90637265D01*
X75385000Y-89500000D01*
X75325245Y-89199594D01*
X75155079Y-88944921D01*
X74455079Y-88244921D01*
X74217187Y-88085967D01*
X74333268Y-87806413D01*
X74333731Y-87275914D01*
X74131146Y-86785620D01*
X73756353Y-86410173D01*
X73418554Y-86269906D01*
X73754380Y-86131146D01*
X74129827Y-85756353D01*
X74333268Y-85266413D01*
X74333731Y-84735914D01*
X74131146Y-84245620D01*
X73756353Y-83870173D01*
X73418554Y-83729906D01*
X73754380Y-83591146D01*
X74129827Y-83216353D01*
X74333268Y-82726413D01*
X74333731Y-82195914D01*
X74131146Y-81705620D01*
X73756353Y-81330173D01*
X73418554Y-81189906D01*
X73754380Y-81051146D01*
X74129827Y-80676353D01*
X74333268Y-80186413D01*
X74333731Y-79655914D01*
X74279639Y-79525000D01*
X79726852Y-79525000D01*
X79880332Y-79754698D01*
G36*
X120339640Y-51162145D02*
X101500000Y-51162145D01*
X101103923Y-51240930D01*
X100768144Y-51465289D01*
X100543785Y-51801068D01*
X100465000Y-52197145D01*
X100543785Y-52593222D01*
X100768144Y-52929001D01*
X101103923Y-53153360D01*
X101500000Y-53232145D01*
X110401621Y-53232145D01*
X110176485Y-53325169D01*
X109786539Y-53714436D01*
X109575241Y-54223298D01*
X109574760Y-54774285D01*
X109785169Y-55283515D01*
X110174436Y-55673461D01*
X110683298Y-55884759D01*
X111234285Y-55885240D01*
X111743515Y-55674831D01*
X112113080Y-55305909D01*
X112146838Y-55485317D01*
X112285910Y-55701441D01*
X112498110Y-55846431D01*
X112750000Y-55897440D01*
X113877282Y-55897440D01*
X114815000Y-56835158D01*
X114815000Y-58624842D01*
X114797440Y-58607282D01*
X114797440Y-57650000D01*
X114753162Y-57414683D01*
X114614090Y-57198559D01*
X114401890Y-57053569D01*
X114150000Y-57002560D01*
X112650000Y-57002560D01*
X112414683Y-57046838D01*
X112198559Y-57185910D01*
X112053569Y-57398110D01*
X112013645Y-57595262D01*
X111645564Y-57226539D01*
X111136702Y-57015241D01*
X110585715Y-57014760D01*
X110076485Y-57225169D01*
X109686539Y-57614436D01*
X109475241Y-58123298D01*
X109474760Y-58674285D01*
X109685169Y-59183515D01*
X110074436Y-59573461D01*
X110583298Y-59784759D01*
X111134285Y-59785240D01*
X111643515Y-59574831D01*
X112013080Y-59205909D01*
X112046838Y-59385317D01*
X112185910Y-59601441D01*
X112398110Y-59746431D01*
X112650000Y-59797440D01*
X113767282Y-59797440D01*
X115684842Y-61715000D01*
X114890854Y-61715000D01*
X114853162Y-61514683D01*
X114714090Y-61298559D01*
X114501890Y-61153569D01*
X114250000Y-61102560D01*
X112750000Y-61102560D01*
X112514683Y-61146838D01*
X112298559Y-61285910D01*
X112153569Y-61498110D01*
X112113645Y-61695262D01*
X111745564Y-61326539D01*
X111236702Y-61115241D01*
X110685715Y-61114760D01*
X110176485Y-61325169D01*
X109786539Y-61714436D01*
X109575241Y-62223298D01*
X109574760Y-62774285D01*
X109785169Y-63283515D01*
X110174436Y-63673461D01*
X110376166Y-63757227D01*
X110244921Y-63844921D01*
X108183447Y-65906395D01*
X108233268Y-65786413D01*
X108233731Y-65255914D01*
X108031146Y-64765620D01*
X107656353Y-64390173D01*
X107318554Y-64249906D01*
X107654380Y-64111146D01*
X108029827Y-63736353D01*
X108233268Y-63246413D01*
X108233731Y-62715914D01*
X108031146Y-62225620D01*
X107656353Y-61850173D01*
X107318554Y-61709906D01*
X107654380Y-61571146D01*
X108029827Y-61196353D01*
X108233268Y-60706413D01*
X108233731Y-60175914D01*
X108031146Y-59685620D01*
X107656353Y-59310173D01*
X107166413Y-59106732D01*
X106635914Y-59106269D01*
X106145620Y-59308854D01*
X105770173Y-59683647D01*
X105566732Y-60173587D01*
X105566269Y-60704086D01*
X105768854Y-61194380D01*
X106143647Y-61569827D01*
X106481446Y-61710094D01*
X106145620Y-61848854D01*
X105770173Y-62223647D01*
X105566732Y-62713587D01*
X105566269Y-63244086D01*
X105768854Y-63734380D01*
X106143647Y-64109827D01*
X106481446Y-64250094D01*
X106145620Y-64388854D01*
X105770173Y-64763647D01*
X105566732Y-65253587D01*
X105566269Y-65784086D01*
X105661681Y-66015000D01*
X101900000Y-66015000D01*
X101599594Y-66074755D01*
X101344921Y-66244921D01*
X98574842Y-69015000D01*
X98253443Y-69015000D01*
X98339970Y-68580000D01*
X98230737Y-68030849D01*
X97919668Y-67565302D01*
X97537582Y-67310000D01*
X97919668Y-67054698D01*
X98230737Y-66589151D01*
X98339970Y-66040000D01*
X98230737Y-65490849D01*
X97919668Y-65025302D01*
X97537582Y-64770000D01*
X97919668Y-64514698D01*
X98230737Y-64049151D01*
X98339970Y-63500000D01*
X98230737Y-62950849D01*
X97919668Y-62485302D01*
X97454121Y-62174233D01*
X96904970Y-62065000D01*
X96135030Y-62065000D01*
X95585879Y-62174233D01*
X95120332Y-62485302D01*
X94966852Y-62715000D01*
X91825158Y-62715000D01*
X87275000Y-58164842D01*
X87275000Y-57904608D01*
X87280590Y-57899018D01*
X87336271Y-58129611D01*
X87819078Y-58297622D01*
X88329428Y-58268083D01*
X88663729Y-58129611D01*
X88719410Y-57899016D01*
X88000000Y-57179605D01*
X87985858Y-57193748D01*
X87806252Y-57014142D01*
X87820395Y-57000000D01*
X88179605Y-57000000D01*
X88899016Y-57719410D01*
X89129611Y-57663729D01*
X89297622Y-57180922D01*
X89268083Y-56670572D01*
X89129611Y-56336271D01*
X88899016Y-56280590D01*
X88179605Y-57000000D01*
X87820395Y-57000000D01*
X87806252Y-56985858D01*
X87985858Y-56806252D01*
X88000000Y-56820395D01*
X88719410Y-56100984D01*
X88663729Y-55870389D01*
X88180922Y-55702378D01*
X87763627Y-55726531D01*
X88435079Y-55055079D01*
X88605245Y-54800406D01*
X88665000Y-54500000D01*
X88665000Y-54427944D01*
X88939670Y-54244415D01*
X89146461Y-53934931D01*
X89517964Y-54350732D01*
X90045209Y-54604709D01*
X90060974Y-54607358D01*
X90293000Y-54486217D01*
X90293000Y-53127000D01*
X90273000Y-53127000D01*
X90273000Y-52873000D01*
X90293000Y-52873000D01*
X90293000Y-51513783D01*
X90547000Y-51513783D01*
X90547000Y-52873000D01*
X90567000Y-52873000D01*
X90567000Y-53127000D01*
X90547000Y-53127000D01*
X90547000Y-54486217D01*
X90779026Y-54607358D01*
X90794791Y-54604709D01*
X91322036Y-54350732D01*
X91693539Y-53934931D01*
X91900330Y-54244415D01*
X91925000Y-54260899D01*
X91925000Y-55868896D01*
X91898559Y-55885910D01*
X91753569Y-56098110D01*
X91702560Y-56350000D01*
X91702560Y-57650000D01*
X91746838Y-57885317D01*
X91885910Y-58101441D01*
X92098110Y-58246431D01*
X92350000Y-58297440D01*
X93650000Y-58297440D01*
X93885317Y-58253162D01*
X94101441Y-58114090D01*
X94155481Y-58035000D01*
X95447514Y-58035000D01*
X95501155Y-58088735D01*
X95973276Y-58284777D01*
X96484481Y-58285223D01*
X96956943Y-58090005D01*
X97318735Y-57728845D01*
X97500205Y-57291818D01*
X97679995Y-57726943D01*
X98041155Y-58088735D01*
X98513276Y-58284777D01*
X99024481Y-58285223D01*
X99496943Y-58090005D01*
X99858735Y-57728845D01*
X100054777Y-57256724D01*
X100055223Y-56745519D01*
X99860005Y-56273057D01*
X99498845Y-55911265D01*
X99026724Y-55715223D01*
X98725117Y-55714960D01*
X98485000Y-55474842D01*
X98485000Y-55200000D01*
X98425245Y-54899594D01*
X98255079Y-54644921D01*
X97011040Y-53400882D01*
X97011040Y-51984000D01*
X96966762Y-51748683D01*
X96827690Y-51532559D01*
X96615490Y-51387569D01*
X96363600Y-51336560D01*
X94636400Y-51336560D01*
X94401083Y-51380838D01*
X94184959Y-51519910D01*
X94039969Y-51732110D01*
X94031600Y-51773439D01*
X94019670Y-51755585D01*
X93533489Y-51430729D01*
X92960000Y-51316655D01*
X92386511Y-51430729D01*
X91900330Y-51755585D01*
X91693539Y-52065069D01*
X91322036Y-51649268D01*
X90794791Y-51395291D01*
X90779026Y-51392642D01*
X90547000Y-51513783D01*
X90293000Y-51513783D01*
X90060974Y-51392642D01*
X90045209Y-51395291D01*
X89517964Y-51649268D01*
X89146461Y-52065069D01*
X88939670Y-51755585D01*
X88453489Y-51430729D01*
X87880000Y-51316655D01*
X87306511Y-51430729D01*
X86820330Y-51755585D01*
X86610000Y-52070366D01*
X86399670Y-51755585D01*
X85913489Y-51430729D01*
X85340000Y-51316655D01*
X84766511Y-51430729D01*
X84280330Y-51755585D01*
X84070000Y-52070366D01*
X83859670Y-51755585D01*
X83373489Y-51430729D01*
X82800000Y-51316655D01*
X82226511Y-51430729D01*
X81740330Y-51755585D01*
X81415474Y-52241766D01*
X81301400Y-52815255D01*
X81301400Y-53184745D01*
X81415474Y-53758234D01*
X81740330Y-54244415D01*
X82226511Y-54569271D01*
X82800000Y-54683345D01*
X83373489Y-54569271D01*
X83859670Y-54244415D01*
X84070000Y-53929634D01*
X84280330Y-54244415D01*
X84555000Y-54427944D01*
X84555000Y-58360000D01*
X84614755Y-58660407D01*
X84784921Y-58915079D01*
X92464921Y-66595079D01*
X92719593Y-66765245D01*
X93020000Y-66825000D01*
X94966852Y-66825000D01*
X95120332Y-67054698D01*
X95502418Y-67310000D01*
X95120332Y-67565302D01*
X94809263Y-68030849D01*
X94700030Y-68580000D01*
X94786557Y-69015000D01*
X84228874Y-69015000D01*
X84177046Y-68963081D01*
X83796777Y-68805180D01*
X83385029Y-68804821D01*
X83025719Y-68953284D01*
X83099970Y-68580000D01*
X82990737Y-68030849D01*
X82679668Y-67565302D01*
X82297582Y-67310000D01*
X82679668Y-67054698D01*
X82990737Y-66589151D01*
X83099970Y-66040000D01*
X82990737Y-65490849D01*
X82679668Y-65025302D01*
X82297582Y-64770000D01*
X82679668Y-64514698D01*
X82990737Y-64049151D01*
X83099970Y-63500000D01*
X82990737Y-62950849D01*
X82679668Y-62485302D01*
X82214121Y-62174233D01*
X81664970Y-62065000D01*
X80895030Y-62065000D01*
X80345879Y-62174233D01*
X79880332Y-62485302D01*
X79569263Y-62950849D01*
X79460030Y-63500000D01*
X79569263Y-64049151D01*
X79880332Y-64514698D01*
X80262418Y-64770000D01*
X79880332Y-65025302D01*
X79726852Y-65255000D01*
X79425158Y-65255000D01*
X77895000Y-63724842D01*
X77895000Y-62460000D01*
X77850196Y-62234755D01*
X77835245Y-62159593D01*
X77665079Y-61904921D01*
X74255079Y-58494921D01*
X74203003Y-58460125D01*
X74333268Y-58146413D01*
X74333731Y-57615914D01*
X74131146Y-57125620D01*
X73756353Y-56750173D01*
X73601663Y-56685940D01*
X73698500Y-56685940D01*
X73933817Y-56641662D01*
X74149941Y-56502590D01*
X74294931Y-56290390D01*
X74345940Y-56038500D01*
X74345940Y-54641500D01*
X74301662Y-54406183D01*
X74162590Y-54190059D01*
X73950390Y-54045069D01*
X73698500Y-53994060D01*
X72301500Y-53994060D01*
X72066183Y-54038338D01*
X71850059Y-54177410D01*
X71705069Y-54389610D01*
X71654060Y-54641500D01*
X71654060Y-56038500D01*
X71698338Y-56273817D01*
X71837410Y-56489941D01*
X72049610Y-56634931D01*
X72301500Y-56685940D01*
X72397884Y-56685940D01*
X72245620Y-56748854D01*
X71898870Y-57095000D01*
X69897440Y-57095000D01*
X69897440Y-56250000D01*
X69853162Y-56014683D01*
X69714090Y-55798559D01*
X69501890Y-55653569D01*
X69250000Y-55602560D01*
X67750000Y-55602560D01*
X67514683Y-55646838D01*
X67298559Y-55785910D01*
X67153569Y-55998110D01*
X67113645Y-56195262D01*
X66745564Y-55826539D01*
X66236702Y-55615241D01*
X65685715Y-55614760D01*
X65176485Y-55825169D01*
X64786539Y-56214436D01*
X64575241Y-56723298D01*
X64574760Y-57274285D01*
X64574993Y-57274849D01*
X56277855Y-65571987D01*
X56203118Y-65497119D01*
X56284699Y-65463327D01*
X56463327Y-65284698D01*
X56560000Y-65051309D01*
X56560000Y-64285750D01*
X56401250Y-64127000D01*
X55127000Y-64127000D01*
X55127000Y-64147000D01*
X54873000Y-64147000D01*
X54873000Y-64127000D01*
X53598750Y-64127000D01*
X53440000Y-64285750D01*
X53440000Y-65051309D01*
X53536673Y-65284698D01*
X53715301Y-65463327D01*
X53796635Y-65497017D01*
X53678268Y-65615177D01*
X53440272Y-66188336D01*
X53439730Y-66808942D01*
X53676725Y-67382514D01*
X54043826Y-67750256D01*
X53678268Y-68115177D01*
X53440272Y-68688336D01*
X53439730Y-69308942D01*
X53676725Y-69882514D01*
X54043826Y-70250256D01*
X53678268Y-70615177D01*
X53440272Y-71188336D01*
X53439730Y-71808942D01*
X53676725Y-72382514D01*
X54043826Y-72750256D01*
X53678268Y-73115177D01*
X53440272Y-73688336D01*
X53439730Y-74308942D01*
X53676725Y-74882514D01*
X53965000Y-75171293D01*
X53965000Y-79971289D01*
X53368144Y-80568144D01*
X53143785Y-80903923D01*
X53064999Y-81300000D01*
X53065000Y-81300005D01*
X53065000Y-88121211D01*
X53001083Y-88133238D01*
X52784959Y-88272310D01*
X52639969Y-88484510D01*
X52588960Y-88736400D01*
X52588960Y-89647329D01*
X51127000Y-91109288D01*
X51127000Y-62948691D01*
X53440000Y-62948691D01*
X53440000Y-63714250D01*
X53598750Y-63873000D01*
X54873000Y-63873000D01*
X54873000Y-62598750D01*
X55127000Y-62598750D01*
X55127000Y-63873000D01*
X56401250Y-63873000D01*
X56560000Y-63714250D01*
X56560000Y-62948691D01*
X56463327Y-62715302D01*
X56284699Y-62536673D01*
X56051310Y-62440000D01*
X55285750Y-62440000D01*
X55127000Y-62598750D01*
X54873000Y-62598750D01*
X54714250Y-62440000D01*
X53948690Y-62440000D01*
X53715301Y-62536673D01*
X53536673Y-62715302D01*
X53440000Y-62948691D01*
X51127000Y-62948691D01*
X51127000Y-58127000D01*
X58000000Y-58127000D01*
X58049410Y-58116994D01*
X58091035Y-58088553D01*
X58118315Y-58046159D01*
X58127000Y-58000000D01*
X58127000Y-51127000D01*
X120424697Y-51127000D01*
X120339640Y-51162145D01*
X120339640Y-51162145D01*
G37*
X120339640Y-51162145D02*
X101500000Y-51162145D01*
X101103923Y-51240930D01*
X100768144Y-51465289D01*
X100543785Y-51801068D01*
X100465000Y-52197145D01*
X100543785Y-52593222D01*
X100768144Y-52929001D01*
X101103923Y-53153360D01*
X101500000Y-53232145D01*
X110401621Y-53232145D01*
X110176485Y-53325169D01*
X109786539Y-53714436D01*
X109575241Y-54223298D01*
X109574760Y-54774285D01*
X109785169Y-55283515D01*
X110174436Y-55673461D01*
X110683298Y-55884759D01*
X111234285Y-55885240D01*
X111743515Y-55674831D01*
X112113080Y-55305909D01*
X112146838Y-55485317D01*
X112285910Y-55701441D01*
X112498110Y-55846431D01*
X112750000Y-55897440D01*
X113877282Y-55897440D01*
X114815000Y-56835158D01*
X114815000Y-58624842D01*
X114797440Y-58607282D01*
X114797440Y-57650000D01*
X114753162Y-57414683D01*
X114614090Y-57198559D01*
X114401890Y-57053569D01*
X114150000Y-57002560D01*
X112650000Y-57002560D01*
X112414683Y-57046838D01*
X112198559Y-57185910D01*
X112053569Y-57398110D01*
X112013645Y-57595262D01*
X111645564Y-57226539D01*
X111136702Y-57015241D01*
X110585715Y-57014760D01*
X110076485Y-57225169D01*
X109686539Y-57614436D01*
X109475241Y-58123298D01*
X109474760Y-58674285D01*
X109685169Y-59183515D01*
X110074436Y-59573461D01*
X110583298Y-59784759D01*
X111134285Y-59785240D01*
X111643515Y-59574831D01*
X112013080Y-59205909D01*
X112046838Y-59385317D01*
X112185910Y-59601441D01*
X112398110Y-59746431D01*
X112650000Y-59797440D01*
X113767282Y-59797440D01*
X115684842Y-61715000D01*
X114890854Y-61715000D01*
X114853162Y-61514683D01*
X114714090Y-61298559D01*
X114501890Y-61153569D01*
X114250000Y-61102560D01*
X112750000Y-61102560D01*
X112514683Y-61146838D01*
X112298559Y-61285910D01*
X112153569Y-61498110D01*
X112113645Y-61695262D01*
X111745564Y-61326539D01*
X111236702Y-61115241D01*
X110685715Y-61114760D01*
X110176485Y-61325169D01*
X109786539Y-61714436D01*
X109575241Y-62223298D01*
X109574760Y-62774285D01*
X109785169Y-63283515D01*
X110174436Y-63673461D01*
X110376166Y-63757227D01*
X110244921Y-63844921D01*
X108183447Y-65906395D01*
X108233268Y-65786413D01*
X108233731Y-65255914D01*
X108031146Y-64765620D01*
X107656353Y-64390173D01*
X107318554Y-64249906D01*
X107654380Y-64111146D01*
X108029827Y-63736353D01*
X108233268Y-63246413D01*
X108233731Y-62715914D01*
X108031146Y-62225620D01*
X107656353Y-61850173D01*
X107318554Y-61709906D01*
X107654380Y-61571146D01*
X108029827Y-61196353D01*
X108233268Y-60706413D01*
X108233731Y-60175914D01*
X108031146Y-59685620D01*
X107656353Y-59310173D01*
X107166413Y-59106732D01*
X106635914Y-59106269D01*
X106145620Y-59308854D01*
X105770173Y-59683647D01*
X105566732Y-60173587D01*
X105566269Y-60704086D01*
X105768854Y-61194380D01*
X106143647Y-61569827D01*
X106481446Y-61710094D01*
X106145620Y-61848854D01*
X105770173Y-62223647D01*
X105566732Y-62713587D01*
X105566269Y-63244086D01*
X105768854Y-63734380D01*
X106143647Y-64109827D01*
X106481446Y-64250094D01*
X106145620Y-64388854D01*
X105770173Y-64763647D01*
X105566732Y-65253587D01*
X105566269Y-65784086D01*
X105661681Y-66015000D01*
X101900000Y-66015000D01*
X101599594Y-66074755D01*
X101344921Y-66244921D01*
X98574842Y-69015000D01*
X98253443Y-69015000D01*
X98339970Y-68580000D01*
X98230737Y-68030849D01*
X97919668Y-67565302D01*
X97537582Y-67310000D01*
X97919668Y-67054698D01*
X98230737Y-66589151D01*
X98339970Y-66040000D01*
X98230737Y-65490849D01*
X97919668Y-65025302D01*
X97537582Y-64770000D01*
X97919668Y-64514698D01*
X98230737Y-64049151D01*
X98339970Y-63500000D01*
X98230737Y-62950849D01*
X97919668Y-62485302D01*
X97454121Y-62174233D01*
X96904970Y-62065000D01*
X96135030Y-62065000D01*
X95585879Y-62174233D01*
X95120332Y-62485302D01*
X94966852Y-62715000D01*
X91825158Y-62715000D01*
X87275000Y-58164842D01*
X87275000Y-57904608D01*
X87280590Y-57899018D01*
X87336271Y-58129611D01*
X87819078Y-58297622D01*
X88329428Y-58268083D01*
X88663729Y-58129611D01*
X88719410Y-57899016D01*
X88000000Y-57179605D01*
X87985858Y-57193748D01*
X87806252Y-57014142D01*
X87820395Y-57000000D01*
X88179605Y-57000000D01*
X88899016Y-57719410D01*
X89129611Y-57663729D01*
X89297622Y-57180922D01*
X89268083Y-56670572D01*
X89129611Y-56336271D01*
X88899016Y-56280590D01*
X88179605Y-57000000D01*
X87820395Y-57000000D01*
X87806252Y-56985858D01*
X87985858Y-56806252D01*
X88000000Y-56820395D01*
X88719410Y-56100984D01*
X88663729Y-55870389D01*
X88180922Y-55702378D01*
X87763627Y-55726531D01*
X88435079Y-55055079D01*
X88605245Y-54800406D01*
X88665000Y-54500000D01*
X88665000Y-54427944D01*
X88939670Y-54244415D01*
X89146461Y-53934931D01*
X89517964Y-54350732D01*
X90045209Y-54604709D01*
X90060974Y-54607358D01*
X90293000Y-54486217D01*
X90293000Y-53127000D01*
X90273000Y-53127000D01*
X90273000Y-52873000D01*
X90293000Y-52873000D01*
X90293000Y-51513783D01*
X90547000Y-51513783D01*
X90547000Y-52873000D01*
X90567000Y-52873000D01*
X90567000Y-53127000D01*
X90547000Y-53127000D01*
X90547000Y-54486217D01*
X90779026Y-54607358D01*
X90794791Y-54604709D01*
X91322036Y-54350732D01*
X91693539Y-53934931D01*
X91900330Y-54244415D01*
X91925000Y-54260899D01*
X91925000Y-55868896D01*
X91898559Y-55885910D01*
X91753569Y-56098110D01*
X91702560Y-56350000D01*
X91702560Y-57650000D01*
X91746838Y-57885317D01*
X91885910Y-58101441D01*
X92098110Y-58246431D01*
X92350000Y-58297440D01*
X93650000Y-58297440D01*
X93885317Y-58253162D01*
X94101441Y-58114090D01*
X94155481Y-58035000D01*
X95447514Y-58035000D01*
X95501155Y-58088735D01*
X95973276Y-58284777D01*
X96484481Y-58285223D01*
X96956943Y-58090005D01*
X97318735Y-57728845D01*
X97500205Y-57291818D01*
X97679995Y-57726943D01*
X98041155Y-58088735D01*
X98513276Y-58284777D01*
X99024481Y-58285223D01*
X99496943Y-58090005D01*
X99858735Y-57728845D01*
X100054777Y-57256724D01*
X100055223Y-56745519D01*
X99860005Y-56273057D01*
X99498845Y-55911265D01*
X99026724Y-55715223D01*
X98725117Y-55714960D01*
X98485000Y-55474842D01*
X98485000Y-55200000D01*
X98425245Y-54899594D01*
X98255079Y-54644921D01*
X97011040Y-53400882D01*
X97011040Y-51984000D01*
X96966762Y-51748683D01*
X96827690Y-51532559D01*
X96615490Y-51387569D01*
X96363600Y-51336560D01*
X94636400Y-51336560D01*
X94401083Y-51380838D01*
X94184959Y-51519910D01*
X94039969Y-51732110D01*
X94031600Y-51773439D01*
X94019670Y-51755585D01*
X93533489Y-51430729D01*
X92960000Y-51316655D01*
X92386511Y-51430729D01*
X91900330Y-51755585D01*
X91693539Y-52065069D01*
X91322036Y-51649268D01*
X90794791Y-51395291D01*
X90779026Y-51392642D01*
X90547000Y-51513783D01*
X90293000Y-51513783D01*
X90060974Y-51392642D01*
X90045209Y-51395291D01*
X89517964Y-51649268D01*
X89146461Y-52065069D01*
X88939670Y-51755585D01*
X88453489Y-51430729D01*
X87880000Y-51316655D01*
X87306511Y-51430729D01*
X86820330Y-51755585D01*
X86610000Y-52070366D01*
X86399670Y-51755585D01*
X85913489Y-51430729D01*
X85340000Y-51316655D01*
X84766511Y-51430729D01*
X84280330Y-51755585D01*
X84070000Y-52070366D01*
X83859670Y-51755585D01*
X83373489Y-51430729D01*
X82800000Y-51316655D01*
X82226511Y-51430729D01*
X81740330Y-51755585D01*
X81415474Y-52241766D01*
X81301400Y-52815255D01*
X81301400Y-53184745D01*
X81415474Y-53758234D01*
X81740330Y-54244415D01*
X82226511Y-54569271D01*
X82800000Y-54683345D01*
X83373489Y-54569271D01*
X83859670Y-54244415D01*
X84070000Y-53929634D01*
X84280330Y-54244415D01*
X84555000Y-54427944D01*
X84555000Y-58360000D01*
X84614755Y-58660407D01*
X84784921Y-58915079D01*
X92464921Y-66595079D01*
X92719593Y-66765245D01*
X93020000Y-66825000D01*
X94966852Y-66825000D01*
X95120332Y-67054698D01*
X95502418Y-67310000D01*
X95120332Y-67565302D01*
X94809263Y-68030849D01*
X94700030Y-68580000D01*
X94786557Y-69015000D01*
X84228874Y-69015000D01*
X84177046Y-68963081D01*
X83796777Y-68805180D01*
X83385029Y-68804821D01*
X83025719Y-68953284D01*
X83099970Y-68580000D01*
X82990737Y-68030849D01*
X82679668Y-67565302D01*
X82297582Y-67310000D01*
X82679668Y-67054698D01*
X82990737Y-66589151D01*
X83099970Y-66040000D01*
X82990737Y-65490849D01*
X82679668Y-65025302D01*
X82297582Y-64770000D01*
X82679668Y-64514698D01*
X82990737Y-64049151D01*
X83099970Y-63500000D01*
X82990737Y-62950849D01*
X82679668Y-62485302D01*
X82214121Y-62174233D01*
X81664970Y-62065000D01*
X80895030Y-62065000D01*
X80345879Y-62174233D01*
X79880332Y-62485302D01*
X79569263Y-62950849D01*
X79460030Y-63500000D01*
X79569263Y-64049151D01*
X79880332Y-64514698D01*
X80262418Y-64770000D01*
X79880332Y-65025302D01*
X79726852Y-65255000D01*
X79425158Y-65255000D01*
X77895000Y-63724842D01*
X77895000Y-62460000D01*
X77850196Y-62234755D01*
X77835245Y-62159593D01*
X77665079Y-61904921D01*
X74255079Y-58494921D01*
X74203003Y-58460125D01*
X74333268Y-58146413D01*
X74333731Y-57615914D01*
X74131146Y-57125620D01*
X73756353Y-56750173D01*
X73601663Y-56685940D01*
X73698500Y-56685940D01*
X73933817Y-56641662D01*
X74149941Y-56502590D01*
X74294931Y-56290390D01*
X74345940Y-56038500D01*
X74345940Y-54641500D01*
X74301662Y-54406183D01*
X74162590Y-54190059D01*
X73950390Y-54045069D01*
X73698500Y-53994060D01*
X72301500Y-53994060D01*
X72066183Y-54038338D01*
X71850059Y-54177410D01*
X71705069Y-54389610D01*
X71654060Y-54641500D01*
X71654060Y-56038500D01*
X71698338Y-56273817D01*
X71837410Y-56489941D01*
X72049610Y-56634931D01*
X72301500Y-56685940D01*
X72397884Y-56685940D01*
X72245620Y-56748854D01*
X71898870Y-57095000D01*
X69897440Y-57095000D01*
X69897440Y-56250000D01*
X69853162Y-56014683D01*
X69714090Y-55798559D01*
X69501890Y-55653569D01*
X69250000Y-55602560D01*
X67750000Y-55602560D01*
X67514683Y-55646838D01*
X67298559Y-55785910D01*
X67153569Y-55998110D01*
X67113645Y-56195262D01*
X66745564Y-55826539D01*
X66236702Y-55615241D01*
X65685715Y-55614760D01*
X65176485Y-55825169D01*
X64786539Y-56214436D01*
X64575241Y-56723298D01*
X64574760Y-57274285D01*
X64574993Y-57274849D01*
X56277855Y-65571987D01*
X56203118Y-65497119D01*
X56284699Y-65463327D01*
X56463327Y-65284698D01*
X56560000Y-65051309D01*
X56560000Y-64285750D01*
X56401250Y-64127000D01*
X55127000Y-64127000D01*
X55127000Y-64147000D01*
X54873000Y-64147000D01*
X54873000Y-64127000D01*
X53598750Y-64127000D01*
X53440000Y-64285750D01*
X53440000Y-65051309D01*
X53536673Y-65284698D01*
X53715301Y-65463327D01*
X53796635Y-65497017D01*
X53678268Y-65615177D01*
X53440272Y-66188336D01*
X53439730Y-66808942D01*
X53676725Y-67382514D01*
X54043826Y-67750256D01*
X53678268Y-68115177D01*
X53440272Y-68688336D01*
X53439730Y-69308942D01*
X53676725Y-69882514D01*
X54043826Y-70250256D01*
X53678268Y-70615177D01*
X53440272Y-71188336D01*
X53439730Y-71808942D01*
X53676725Y-72382514D01*
X54043826Y-72750256D01*
X53678268Y-73115177D01*
X53440272Y-73688336D01*
X53439730Y-74308942D01*
X53676725Y-74882514D01*
X53965000Y-75171293D01*
X53965000Y-79971289D01*
X53368144Y-80568144D01*
X53143785Y-80903923D01*
X53064999Y-81300000D01*
X53065000Y-81300005D01*
X53065000Y-88121211D01*
X53001083Y-88133238D01*
X52784959Y-88272310D01*
X52639969Y-88484510D01*
X52588960Y-88736400D01*
X52588960Y-89647329D01*
X51127000Y-91109288D01*
X51127000Y-62948691D01*
X53440000Y-62948691D01*
X53440000Y-63714250D01*
X53598750Y-63873000D01*
X54873000Y-63873000D01*
X54873000Y-62598750D01*
X55127000Y-62598750D01*
X55127000Y-63873000D01*
X56401250Y-63873000D01*
X56560000Y-63714250D01*
X56560000Y-62948691D01*
X56463327Y-62715302D01*
X56284699Y-62536673D01*
X56051310Y-62440000D01*
X55285750Y-62440000D01*
X55127000Y-62598750D01*
X54873000Y-62598750D01*
X54714250Y-62440000D01*
X53948690Y-62440000D01*
X53715301Y-62536673D01*
X53536673Y-62715302D01*
X53440000Y-62948691D01*
X51127000Y-62948691D01*
X51127000Y-58127000D01*
X58000000Y-58127000D01*
X58049410Y-58116994D01*
X58091035Y-58088553D01*
X58118315Y-58046159D01*
X58127000Y-58000000D01*
X58127000Y-51127000D01*
X120424697Y-51127000D01*
X120339640Y-51162145D01*
G36*
X75904921Y-74215079D02*
X76159594Y-74385245D01*
X76460000Y-74445000D01*
X79726852Y-74445000D01*
X79880332Y-74674698D01*
X80262418Y-74930000D01*
X79880332Y-75185302D01*
X79793670Y-75315000D01*
X74345940Y-75315000D01*
X74345940Y-74141500D01*
X74301662Y-73906183D01*
X74162590Y-73690059D01*
X73950390Y-73545069D01*
X73698500Y-73494060D01*
X72301500Y-73494060D01*
X72066183Y-73538338D01*
X71850059Y-73677410D01*
X71705069Y-73889610D01*
X71654060Y-74141500D01*
X71654060Y-75315000D01*
X71425158Y-75315000D01*
X70655079Y-74544921D01*
X70400407Y-74374755D01*
X70100000Y-74315000D01*
X67400000Y-74315000D01*
X67099593Y-74374755D01*
X66844921Y-74544921D01*
X66263481Y-75126361D01*
X66236702Y-75115241D01*
X65685715Y-75114760D01*
X65176485Y-75325169D01*
X64786539Y-75714436D01*
X64575241Y-76223298D01*
X64574760Y-76774285D01*
X64574993Y-76774849D01*
X61024921Y-80324921D01*
X60854755Y-80579593D01*
X60825847Y-80724921D01*
X60795000Y-80880000D01*
X60795000Y-86754842D01*
X58112154Y-89437688D01*
X58024526Y-88997152D01*
X57699670Y-88510971D01*
X57425000Y-88327442D01*
X57425000Y-82145158D01*
X65614123Y-73956035D01*
X65683298Y-73984759D01*
X66234285Y-73985240D01*
X66743515Y-73774831D01*
X67113080Y-73405909D01*
X67146838Y-73585317D01*
X67285910Y-73801441D01*
X67498110Y-73946431D01*
X67750000Y-73997440D01*
X69250000Y-73997440D01*
X69485317Y-73953162D01*
X69701441Y-73814090D01*
X69846431Y-73601890D01*
X69897440Y-73350000D01*
X69897440Y-72185000D01*
X73874842Y-72185000D01*
X75904921Y-74215079D01*
X75904921Y-74215079D01*
G37*
X75904921Y-74215079D02*
X76159594Y-74385245D01*
X76460000Y-74445000D01*
X79726852Y-74445000D01*
X79880332Y-74674698D01*
X80262418Y-74930000D01*
X79880332Y-75185302D01*
X79793670Y-75315000D01*
X74345940Y-75315000D01*
X74345940Y-74141500D01*
X74301662Y-73906183D01*
X74162590Y-73690059D01*
X73950390Y-73545069D01*
X73698500Y-73494060D01*
X72301500Y-73494060D01*
X72066183Y-73538338D01*
X71850059Y-73677410D01*
X71705069Y-73889610D01*
X71654060Y-74141500D01*
X71654060Y-75315000D01*
X71425158Y-75315000D01*
X70655079Y-74544921D01*
X70400407Y-74374755D01*
X70100000Y-74315000D01*
X67400000Y-74315000D01*
X67099593Y-74374755D01*
X66844921Y-74544921D01*
X66263481Y-75126361D01*
X66236702Y-75115241D01*
X65685715Y-75114760D01*
X65176485Y-75325169D01*
X64786539Y-75714436D01*
X64575241Y-76223298D01*
X64574760Y-76774285D01*
X64574993Y-76774849D01*
X61024921Y-80324921D01*
X60854755Y-80579593D01*
X60825847Y-80724921D01*
X60795000Y-80880000D01*
X60795000Y-86754842D01*
X58112154Y-89437688D01*
X58024526Y-88997152D01*
X57699670Y-88510971D01*
X57425000Y-88327442D01*
X57425000Y-82145158D01*
X65614123Y-73956035D01*
X65683298Y-73984759D01*
X66234285Y-73985240D01*
X66743515Y-73774831D01*
X67113080Y-73405909D01*
X67146838Y-73585317D01*
X67285910Y-73801441D01*
X67498110Y-73946431D01*
X67750000Y-73997440D01*
X69250000Y-73997440D01*
X69485317Y-73953162D01*
X69701441Y-73814090D01*
X69846431Y-73601890D01*
X69897440Y-73350000D01*
X69897440Y-72185000D01*
X73874842Y-72185000D01*
X75904921Y-74215079D01*
G36*
X65174436Y-66173461D02*
X65683298Y-66384759D01*
X66114978Y-66385136D01*
X67724919Y-67995076D01*
X67724921Y-67995079D01*
X67979594Y-68165245D01*
X68280000Y-68225000D01*
X74014842Y-68225000D01*
X77464921Y-71675079D01*
X77719594Y-71845245D01*
X78020000Y-71905000D01*
X79726852Y-71905000D01*
X79880332Y-72134698D01*
X80262418Y-72390000D01*
X79880332Y-72645302D01*
X79726852Y-72875000D01*
X76785158Y-72875000D01*
X74755079Y-70844921D01*
X74500407Y-70674755D01*
X74200000Y-70615000D01*
X67000000Y-70615000D01*
X66699593Y-70674755D01*
X66444921Y-70844921D01*
X66074742Y-71215100D01*
X65685715Y-71214760D01*
X65176485Y-71425169D01*
X64786539Y-71814436D01*
X64575241Y-72323298D01*
X64574847Y-72774995D01*
X56084921Y-81264921D01*
X55914755Y-81519593D01*
X55855358Y-81818198D01*
X55855000Y-81820000D01*
X55855000Y-88327442D01*
X55580330Y-88510971D01*
X55571195Y-88524642D01*
X55566762Y-88501083D01*
X55427690Y-88284959D01*
X55215490Y-88139969D01*
X55135000Y-88123669D01*
X55135000Y-81728712D01*
X55731853Y-81131858D01*
X55731856Y-81131856D01*
X55953322Y-80800407D01*
X55956215Y-80796078D01*
X56035001Y-80400000D01*
X56035000Y-80399995D01*
X56035000Y-75171055D01*
X56321732Y-74884823D01*
X56559728Y-74311664D01*
X56560270Y-73691058D01*
X56323275Y-73117486D01*
X55956174Y-72749744D01*
X56321732Y-72384823D01*
X56559728Y-71811664D01*
X56560270Y-71191058D01*
X56554080Y-71176078D01*
X61945158Y-65785000D01*
X64786651Y-65785000D01*
X65174436Y-66173461D01*
X65174436Y-66173461D01*
G37*
X65174436Y-66173461D02*
X65683298Y-66384759D01*
X66114978Y-66385136D01*
X67724919Y-67995076D01*
X67724921Y-67995079D01*
X67979594Y-68165245D01*
X68280000Y-68225000D01*
X74014842Y-68225000D01*
X77464921Y-71675079D01*
X77719594Y-71845245D01*
X78020000Y-71905000D01*
X79726852Y-71905000D01*
X79880332Y-72134698D01*
X80262418Y-72390000D01*
X79880332Y-72645302D01*
X79726852Y-72875000D01*
X76785158Y-72875000D01*
X74755079Y-70844921D01*
X74500407Y-70674755D01*
X74200000Y-70615000D01*
X67000000Y-70615000D01*
X66699593Y-70674755D01*
X66444921Y-70844921D01*
X66074742Y-71215100D01*
X65685715Y-71214760D01*
X65176485Y-71425169D01*
X64786539Y-71814436D01*
X64575241Y-72323298D01*
X64574847Y-72774995D01*
X56084921Y-81264921D01*
X55914755Y-81519593D01*
X55855358Y-81818198D01*
X55855000Y-81820000D01*
X55855000Y-88327442D01*
X55580330Y-88510971D01*
X55571195Y-88524642D01*
X55566762Y-88501083D01*
X55427690Y-88284959D01*
X55215490Y-88139969D01*
X55135000Y-88123669D01*
X55135000Y-81728712D01*
X55731853Y-81131858D01*
X55731856Y-81131856D01*
X55953322Y-80800407D01*
X55956215Y-80796078D01*
X56035001Y-80400000D01*
X56035000Y-80399995D01*
X56035000Y-75171055D01*
X56321732Y-74884823D01*
X56559728Y-74311664D01*
X56560270Y-73691058D01*
X56323275Y-73117486D01*
X55956174Y-72749744D01*
X56321732Y-72384823D01*
X56559728Y-71811664D01*
X56560270Y-71191058D01*
X56554080Y-71176078D01*
X61945158Y-65785000D01*
X64786651Y-65785000D01*
X65174436Y-66173461D01*
G36*
X85644842Y-85575000D02*
X82833148Y-85575000D01*
X82679668Y-85345302D01*
X82297582Y-85090000D01*
X82679668Y-84834698D01*
X82990737Y-84369151D01*
X83099970Y-83820000D01*
X82990737Y-83270849D01*
X82679668Y-82805302D01*
X82297582Y-82550000D01*
X82679668Y-82294698D01*
X82833148Y-82065000D01*
X88990000Y-82065000D01*
X89195773Y-82024069D01*
X85644842Y-85575000D01*
X85644842Y-85575000D01*
G37*
X85644842Y-85575000D02*
X82833148Y-85575000D01*
X82679668Y-85345302D01*
X82297582Y-85090000D01*
X82679668Y-84834698D01*
X82990737Y-84369151D01*
X83099970Y-83820000D01*
X82990737Y-83270849D01*
X82679668Y-82805302D01*
X82297582Y-82550000D01*
X82679668Y-82294698D01*
X82833148Y-82065000D01*
X88990000Y-82065000D01*
X89195773Y-82024069D01*
X85644842Y-85575000D01*
G36*
X122400330Y-77089029D02*
X122886511Y-77413885D01*
X123460000Y-77527959D01*
X124033489Y-77413885D01*
X124519670Y-77089029D01*
X124528805Y-77075358D01*
X124533238Y-77098917D01*
X124672310Y-77315041D01*
X124884510Y-77460031D01*
X125136400Y-77511040D01*
X126047329Y-77511040D01*
X126115000Y-77578711D01*
X126115000Y-84851289D01*
X124711856Y-83448144D01*
X124376077Y-83223785D01*
X123980000Y-83144999D01*
X123979995Y-83145000D01*
X119440005Y-83145000D01*
X119440000Y-83144999D01*
X119086856Y-83215245D01*
X119043923Y-83223785D01*
X118708144Y-83448144D01*
X118708142Y-83448147D01*
X118491289Y-83665000D01*
X114834983Y-83665000D01*
X114946431Y-83501890D01*
X114997440Y-83250000D01*
X114997440Y-82142718D01*
X120355158Y-76785000D01*
X122197184Y-76785000D01*
X122400330Y-77089029D01*
X122400330Y-77089029D01*
G37*
X122400330Y-77089029D02*
X122886511Y-77413885D01*
X123460000Y-77527959D01*
X124033489Y-77413885D01*
X124519670Y-77089029D01*
X124528805Y-77075358D01*
X124533238Y-77098917D01*
X124672310Y-77315041D01*
X124884510Y-77460031D01*
X125136400Y-77511040D01*
X126047329Y-77511040D01*
X126115000Y-77578711D01*
X126115000Y-84851289D01*
X124711856Y-83448144D01*
X124376077Y-83223785D01*
X123980000Y-83144999D01*
X123979995Y-83145000D01*
X119440005Y-83145000D01*
X119440000Y-83144999D01*
X119086856Y-83215245D01*
X119043923Y-83223785D01*
X118708144Y-83448144D01*
X118708142Y-83448147D01*
X118491289Y-83665000D01*
X114834983Y-83665000D01*
X114946431Y-83501890D01*
X114997440Y-83250000D01*
X114997440Y-82142718D01*
X120355158Y-76785000D01*
X122197184Y-76785000D01*
X122400330Y-77089029D01*
G36*
X105566732Y-77953587D02*
X105566269Y-78484086D01*
X105768854Y-78974380D01*
X106143647Y-79349827D01*
X106328296Y-79426500D01*
X106075190Y-79426500D01*
X105841801Y-79523173D01*
X105663173Y-79701802D01*
X105566500Y-79935191D01*
X105566500Y-80474250D01*
X105725250Y-80633000D01*
X106773000Y-80633000D01*
X106773000Y-80613000D01*
X107027000Y-80613000D01*
X107027000Y-80633000D01*
X108074750Y-80633000D01*
X108233500Y-80474250D01*
X108233500Y-79935191D01*
X108136827Y-79701802D01*
X107958199Y-79523173D01*
X107724810Y-79426500D01*
X107472009Y-79426500D01*
X107654380Y-79351146D01*
X108029827Y-78976353D01*
X108233268Y-78486413D01*
X108233731Y-77955914D01*
X108163111Y-77785000D01*
X109857238Y-77785000D01*
X109675241Y-78223298D01*
X109674760Y-78774285D01*
X109885169Y-79283515D01*
X110195477Y-79594365D01*
X108233500Y-81556342D01*
X108233500Y-81045750D01*
X108074750Y-80887000D01*
X107027000Y-80887000D01*
X107027000Y-81934750D01*
X107185750Y-82093500D01*
X107696342Y-82093500D01*
X107374842Y-82415000D01*
X104078805Y-82415000D01*
X103987046Y-82323081D01*
X103606777Y-82165180D01*
X103195029Y-82164821D01*
X102814485Y-82322058D01*
X102523081Y-82612954D01*
X102365180Y-82993223D01*
X102365086Y-83101374D01*
X102351856Y-83088144D01*
X102016077Y-82863785D01*
X101620000Y-82784999D01*
X101619995Y-82785000D01*
X101604669Y-82785000D01*
X101594090Y-82768559D01*
X101381890Y-82623569D01*
X101130000Y-82572560D01*
X99930000Y-82572560D01*
X99694683Y-82616838D01*
X99478559Y-82755910D01*
X99458683Y-82785000D01*
X97889284Y-82785000D01*
X97537582Y-82550000D01*
X97919668Y-82294698D01*
X98230737Y-81829151D01*
X98339970Y-81280000D01*
X98293375Y-81045750D01*
X105566500Y-81045750D01*
X105566500Y-81584809D01*
X105663173Y-81818198D01*
X105841801Y-81996827D01*
X106075190Y-82093500D01*
X106614250Y-82093500D01*
X106773000Y-81934750D01*
X106773000Y-80887000D01*
X105725250Y-80887000D01*
X105566500Y-81045750D01*
X98293375Y-81045750D01*
X98230737Y-80730849D01*
X97919668Y-80265302D01*
X97537582Y-80010000D01*
X97919668Y-79754698D01*
X98230737Y-79289151D01*
X98339970Y-78740000D01*
X98241508Y-78245000D01*
X104740000Y-78245000D01*
X105040407Y-78185245D01*
X105295079Y-78015079D01*
X105525158Y-77785000D01*
X105636735Y-77785000D01*
X105566732Y-77953587D01*
X105566732Y-77953587D01*
G37*
X105566732Y-77953587D02*
X105566269Y-78484086D01*
X105768854Y-78974380D01*
X106143647Y-79349827D01*
X106328296Y-79426500D01*
X106075190Y-79426500D01*
X105841801Y-79523173D01*
X105663173Y-79701802D01*
X105566500Y-79935191D01*
X105566500Y-80474250D01*
X105725250Y-80633000D01*
X106773000Y-80633000D01*
X106773000Y-80613000D01*
X107027000Y-80613000D01*
X107027000Y-80633000D01*
X108074750Y-80633000D01*
X108233500Y-80474250D01*
X108233500Y-79935191D01*
X108136827Y-79701802D01*
X107958199Y-79523173D01*
X107724810Y-79426500D01*
X107472009Y-79426500D01*
X107654380Y-79351146D01*
X108029827Y-78976353D01*
X108233268Y-78486413D01*
X108233731Y-77955914D01*
X108163111Y-77785000D01*
X109857238Y-77785000D01*
X109675241Y-78223298D01*
X109674760Y-78774285D01*
X109885169Y-79283515D01*
X110195477Y-79594365D01*
X108233500Y-81556342D01*
X108233500Y-81045750D01*
X108074750Y-80887000D01*
X107027000Y-80887000D01*
X107027000Y-81934750D01*
X107185750Y-82093500D01*
X107696342Y-82093500D01*
X107374842Y-82415000D01*
X104078805Y-82415000D01*
X103987046Y-82323081D01*
X103606777Y-82165180D01*
X103195029Y-82164821D01*
X102814485Y-82322058D01*
X102523081Y-82612954D01*
X102365180Y-82993223D01*
X102365086Y-83101374D01*
X102351856Y-83088144D01*
X102016077Y-82863785D01*
X101620000Y-82784999D01*
X101619995Y-82785000D01*
X101604669Y-82785000D01*
X101594090Y-82768559D01*
X101381890Y-82623569D01*
X101130000Y-82572560D01*
X99930000Y-82572560D01*
X99694683Y-82616838D01*
X99478559Y-82755910D01*
X99458683Y-82785000D01*
X97889284Y-82785000D01*
X97537582Y-82550000D01*
X97919668Y-82294698D01*
X98230737Y-81829151D01*
X98339970Y-81280000D01*
X98293375Y-81045750D01*
X105566500Y-81045750D01*
X105566500Y-81584809D01*
X105663173Y-81818198D01*
X105841801Y-81996827D01*
X106075190Y-82093500D01*
X106614250Y-82093500D01*
X106773000Y-81934750D01*
X106773000Y-80887000D01*
X105725250Y-80887000D01*
X105566500Y-81045750D01*
X98293375Y-81045750D01*
X98230737Y-80730849D01*
X97919668Y-80265302D01*
X97537582Y-80010000D01*
X97919668Y-79754698D01*
X98230737Y-79289151D01*
X98339970Y-78740000D01*
X98241508Y-78245000D01*
X104740000Y-78245000D01*
X105040407Y-78185245D01*
X105295079Y-78015079D01*
X105525158Y-77785000D01*
X105636735Y-77785000D01*
X105566732Y-77953587D01*
G36*
X94700030Y-71120000D02*
X94809263Y-71669151D01*
X94962042Y-71897800D01*
X93684921Y-73174921D01*
X93514755Y-73429593D01*
X93493124Y-73538338D01*
X93455000Y-73730000D01*
X93455000Y-75704842D01*
X88664842Y-80495000D01*
X82833148Y-80495000D01*
X82679668Y-80265302D01*
X82297582Y-80010000D01*
X82679668Y-79754698D01*
X82990737Y-79289151D01*
X83099970Y-78740000D01*
X82990737Y-78190849D01*
X82679668Y-77725302D01*
X82297582Y-77470000D01*
X82679668Y-77214698D01*
X82990737Y-76749151D01*
X83099970Y-76200000D01*
X82990737Y-75650849D01*
X82679668Y-75185302D01*
X82297582Y-74930000D01*
X82679668Y-74674698D01*
X82990737Y-74209151D01*
X83099970Y-73660000D01*
X82990737Y-73110849D01*
X82679668Y-72645302D01*
X82297582Y-72390000D01*
X82679668Y-72134698D01*
X82990737Y-71669151D01*
X83099970Y-71120000D01*
X83021308Y-70724540D01*
X83383223Y-70874820D01*
X83794971Y-70875179D01*
X84175515Y-70717942D01*
X84308689Y-70585000D01*
X94806448Y-70585000D01*
X94700030Y-71120000D01*
X94700030Y-71120000D01*
G37*
X94700030Y-71120000D02*
X94809263Y-71669151D01*
X94962042Y-71897800D01*
X93684921Y-73174921D01*
X93514755Y-73429593D01*
X93493124Y-73538338D01*
X93455000Y-73730000D01*
X93455000Y-75704842D01*
X88664842Y-80495000D01*
X82833148Y-80495000D01*
X82679668Y-80265302D01*
X82297582Y-80010000D01*
X82679668Y-79754698D01*
X82990737Y-79289151D01*
X83099970Y-78740000D01*
X82990737Y-78190849D01*
X82679668Y-77725302D01*
X82297582Y-77470000D01*
X82679668Y-77214698D01*
X82990737Y-76749151D01*
X83099970Y-76200000D01*
X82990737Y-75650849D01*
X82679668Y-75185302D01*
X82297582Y-74930000D01*
X82679668Y-74674698D01*
X82990737Y-74209151D01*
X83099970Y-73660000D01*
X82990737Y-73110849D01*
X82679668Y-72645302D01*
X82297582Y-72390000D01*
X82679668Y-72134698D01*
X82990737Y-71669151D01*
X83099970Y-71120000D01*
X83021308Y-70724540D01*
X83383223Y-70874820D01*
X83794971Y-70875179D01*
X84175515Y-70717942D01*
X84308689Y-70585000D01*
X94806448Y-70585000D01*
X94700030Y-71120000D01*
G36*
X115294842Y-77715000D02*
X114990854Y-77715000D01*
X114953162Y-77514683D01*
X114814090Y-77298559D01*
X114601890Y-77153569D01*
X114350000Y-77102560D01*
X112850000Y-77102560D01*
X112614683Y-77146838D01*
X112398559Y-77285910D01*
X112253569Y-77498110D01*
X112213645Y-77695262D01*
X111845564Y-77326539D01*
X111830058Y-77320100D01*
X113252718Y-75897440D01*
X114350000Y-75897440D01*
X114585317Y-75853162D01*
X114801441Y-75714090D01*
X114946431Y-75501890D01*
X114990352Y-75285000D01*
X117724842Y-75285000D01*
X115294842Y-77715000D01*
X115294842Y-77715000D01*
G37*
X115294842Y-77715000D02*
X114990854Y-77715000D01*
X114953162Y-77514683D01*
X114814090Y-77298559D01*
X114601890Y-77153569D01*
X114350000Y-77102560D01*
X112850000Y-77102560D01*
X112614683Y-77146838D01*
X112398559Y-77285910D01*
X112253569Y-77498110D01*
X112213645Y-77695262D01*
X111845564Y-77326539D01*
X111830058Y-77320100D01*
X113252718Y-75897440D01*
X114350000Y-75897440D01*
X114585317Y-75853162D01*
X114801441Y-75714090D01*
X114946431Y-75501890D01*
X114990352Y-75285000D01*
X117724842Y-75285000D01*
X115294842Y-77715000D01*
G36*
X105566732Y-70333587D02*
X105566269Y-70864086D01*
X105768854Y-71354380D01*
X106143647Y-71729827D01*
X106481446Y-71870094D01*
X106145620Y-72008854D01*
X105770173Y-72383647D01*
X105566732Y-72873587D01*
X105566269Y-73404086D01*
X105768854Y-73894380D01*
X106143647Y-74269827D01*
X106481446Y-74410094D01*
X106145620Y-74548854D01*
X105770173Y-74923647D01*
X105566732Y-75413587D01*
X105566269Y-75944086D01*
X105678208Y-76215000D01*
X105200000Y-76215000D01*
X104899593Y-76274755D01*
X104644921Y-76444921D01*
X104414842Y-76675000D01*
X98245487Y-76675000D01*
X98339970Y-76200000D01*
X98230737Y-75650849D01*
X97919668Y-75185302D01*
X97537582Y-74930000D01*
X97919668Y-74674698D01*
X98230737Y-74209151D01*
X98339970Y-73660000D01*
X98249465Y-73205000D01*
X100140000Y-73205000D01*
X100440406Y-73145245D01*
X100695079Y-72975079D01*
X100815897Y-72794261D01*
X103525158Y-70085000D01*
X105669954Y-70085000D01*
X105566732Y-70333587D01*
X105566732Y-70333587D01*
G37*
X105566732Y-70333587D02*
X105566269Y-70864086D01*
X105768854Y-71354380D01*
X106143647Y-71729827D01*
X106481446Y-71870094D01*
X106145620Y-72008854D01*
X105770173Y-72383647D01*
X105566732Y-72873587D01*
X105566269Y-73404086D01*
X105768854Y-73894380D01*
X106143647Y-74269827D01*
X106481446Y-74410094D01*
X106145620Y-74548854D01*
X105770173Y-74923647D01*
X105566732Y-75413587D01*
X105566269Y-75944086D01*
X105678208Y-76215000D01*
X105200000Y-76215000D01*
X104899593Y-76274755D01*
X104644921Y-76444921D01*
X104414842Y-76675000D01*
X98245487Y-76675000D01*
X98339970Y-76200000D01*
X98230737Y-75650849D01*
X97919668Y-75185302D01*
X97537582Y-74930000D01*
X97919668Y-74674698D01*
X98230737Y-74209151D01*
X98339970Y-73660000D01*
X98249465Y-73205000D01*
X100140000Y-73205000D01*
X100440406Y-73145245D01*
X100695079Y-72975079D01*
X100815897Y-72794261D01*
X103525158Y-70085000D01*
X105669954Y-70085000D01*
X105566732Y-70333587D01*
G36*
X120484842Y-72675000D02*
X118940000Y-72675000D01*
X118639593Y-72734755D01*
X118384921Y-72904921D01*
X117574842Y-73715000D01*
X114990854Y-73715000D01*
X114953162Y-73514683D01*
X114814090Y-73298559D01*
X114601890Y-73153569D01*
X114350000Y-73102560D01*
X112850000Y-73102560D01*
X112614683Y-73146838D01*
X112398559Y-73285910D01*
X112253569Y-73498110D01*
X112213645Y-73695262D01*
X111845564Y-73326539D01*
X111336702Y-73115241D01*
X110785715Y-73114760D01*
X110785151Y-73114993D01*
X110225079Y-72554921D01*
X109970407Y-72384755D01*
X109670000Y-72325000D01*
X107970632Y-72325000D01*
X107656353Y-72010173D01*
X107318554Y-71869906D01*
X107654380Y-71731146D01*
X108029827Y-71356353D01*
X108030389Y-71355000D01*
X109856530Y-71355000D01*
X110174436Y-71673461D01*
X110683298Y-71884759D01*
X111234285Y-71885240D01*
X111743515Y-71674831D01*
X112113080Y-71305909D01*
X112146838Y-71485317D01*
X112285910Y-71701441D01*
X112498110Y-71846431D01*
X112750000Y-71897440D01*
X114250000Y-71897440D01*
X114485317Y-71853162D01*
X114701441Y-71714090D01*
X114846431Y-71501890D01*
X114890352Y-71285000D01*
X119094842Y-71285000D01*
X120484842Y-72675000D01*
X120484842Y-72675000D01*
G37*
X120484842Y-72675000D02*
X118940000Y-72675000D01*
X118639593Y-72734755D01*
X118384921Y-72904921D01*
X117574842Y-73715000D01*
X114990854Y-73715000D01*
X114953162Y-73514683D01*
X114814090Y-73298559D01*
X114601890Y-73153569D01*
X114350000Y-73102560D01*
X112850000Y-73102560D01*
X112614683Y-73146838D01*
X112398559Y-73285910D01*
X112253569Y-73498110D01*
X112213645Y-73695262D01*
X111845564Y-73326539D01*
X111336702Y-73115241D01*
X110785715Y-73114760D01*
X110785151Y-73114993D01*
X110225079Y-72554921D01*
X109970407Y-72384755D01*
X109670000Y-72325000D01*
X107970632Y-72325000D01*
X107656353Y-72010173D01*
X107318554Y-71869906D01*
X107654380Y-71731146D01*
X108029827Y-71356353D01*
X108030389Y-71355000D01*
X109856530Y-71355000D01*
X110174436Y-71673461D01*
X110683298Y-71884759D01*
X111234285Y-71885240D01*
X111743515Y-71674831D01*
X112113080Y-71305909D01*
X112146838Y-71485317D01*
X112285910Y-71701441D01*
X112498110Y-71846431D01*
X112750000Y-71897440D01*
X114250000Y-71897440D01*
X114485317Y-71853162D01*
X114701441Y-71714090D01*
X114846431Y-71501890D01*
X114890352Y-71285000D01*
X119094842Y-71285000D01*
X120484842Y-72675000D01*
G36*
X77015000Y-66225158D02*
X77015000Y-66670000D01*
X77074755Y-66970407D01*
X77244921Y-67225079D01*
X79154921Y-69135079D01*
X79409594Y-69305245D01*
X79710000Y-69365000D01*
X79726852Y-69365000D01*
X79880332Y-69594698D01*
X80262418Y-69850000D01*
X79880332Y-70105302D01*
X79726852Y-70335000D01*
X78345158Y-70335000D01*
X74895079Y-66884921D01*
X74640407Y-66714755D01*
X74340000Y-66655000D01*
X73696649Y-66655000D01*
X73754380Y-66631146D01*
X74129827Y-66256353D01*
X74333268Y-65766413D01*
X74333731Y-65235914D01*
X74131146Y-64745620D01*
X73756353Y-64370173D01*
X73418554Y-64229906D01*
X73754380Y-64091146D01*
X74129827Y-63716353D01*
X74240255Y-63450413D01*
X77015000Y-66225158D01*
X77015000Y-66225158D01*
G37*
X77015000Y-66225158D02*
X77015000Y-66670000D01*
X77074755Y-66970407D01*
X77244921Y-67225079D01*
X79154921Y-69135079D01*
X79409594Y-69305245D01*
X79710000Y-69365000D01*
X79726852Y-69365000D01*
X79880332Y-69594698D01*
X80262418Y-69850000D01*
X79880332Y-70105302D01*
X79726852Y-70335000D01*
X78345158Y-70335000D01*
X74895079Y-66884921D01*
X74640407Y-66714755D01*
X74340000Y-66655000D01*
X73696649Y-66655000D01*
X73754380Y-66631146D01*
X74129827Y-66256353D01*
X74333268Y-65766413D01*
X74333731Y-65235914D01*
X74131146Y-64745620D01*
X73756353Y-64370173D01*
X73418554Y-64229906D01*
X73754380Y-64091146D01*
X74129827Y-63716353D01*
X74240255Y-63450413D01*
X77015000Y-66225158D01*
G36*
X120335000Y-67265158D02*
X120335000Y-68460000D01*
X120394755Y-68760407D01*
X120564921Y-69015079D01*
X121684842Y-70135000D01*
X121615158Y-70135000D01*
X120835079Y-69354921D01*
X120580407Y-69184755D01*
X120280000Y-69125000D01*
X117285158Y-69125000D01*
X114897440Y-66737282D01*
X114897440Y-65750000D01*
X114853162Y-65514683D01*
X114714090Y-65298559D01*
X114501890Y-65153569D01*
X114250000Y-65102560D01*
X112750000Y-65102560D01*
X112514683Y-65146838D01*
X112298559Y-65285910D01*
X112153569Y-65498110D01*
X112113645Y-65695262D01*
X111745564Y-65326539D01*
X111404700Y-65185000D01*
X111700000Y-65185000D01*
X112000406Y-65125245D01*
X112255079Y-64955079D01*
X112375897Y-64774261D01*
X113252718Y-63897440D01*
X114250000Y-63897440D01*
X114485317Y-63853162D01*
X114701441Y-63714090D01*
X114846431Y-63501890D01*
X114890352Y-63285000D01*
X116354842Y-63285000D01*
X120335000Y-67265158D01*
X120335000Y-67265158D01*
G37*
X120335000Y-67265158D02*
X120335000Y-68460000D01*
X120394755Y-68760407D01*
X120564921Y-69015079D01*
X121684842Y-70135000D01*
X121615158Y-70135000D01*
X120835079Y-69354921D01*
X120580407Y-69184755D01*
X120280000Y-69125000D01*
X117285158Y-69125000D01*
X114897440Y-66737282D01*
X114897440Y-65750000D01*
X114853162Y-65514683D01*
X114714090Y-65298559D01*
X114501890Y-65153569D01*
X114250000Y-65102560D01*
X112750000Y-65102560D01*
X112514683Y-65146838D01*
X112298559Y-65285910D01*
X112153569Y-65498110D01*
X112113645Y-65695262D01*
X111745564Y-65326539D01*
X111404700Y-65185000D01*
X111700000Y-65185000D01*
X112000406Y-65125245D01*
X112255079Y-64955079D01*
X112375897Y-64774261D01*
X113252718Y-63897440D01*
X114250000Y-63897440D01*
X114485317Y-63853162D01*
X114701441Y-63714090D01*
X114846431Y-63501890D01*
X114890352Y-63285000D01*
X116354842Y-63285000D01*
X120335000Y-67265158D01*
G36*
X123587000Y-65713000D02*
X123607000Y-65713000D01*
X123607000Y-65967000D01*
X123587000Y-65967000D01*
X123587000Y-65987000D01*
X123333000Y-65987000D01*
X123333000Y-65967000D01*
X123313000Y-65967000D01*
X123313000Y-65713000D01*
X123333000Y-65713000D01*
X123333000Y-65693000D01*
X123587000Y-65693000D01*
X123587000Y-65713000D01*
X123587000Y-65713000D01*
G37*
X123587000Y-65713000D02*
X123607000Y-65713000D01*
X123607000Y-65967000D01*
X123587000Y-65967000D01*
X123587000Y-65987000D01*
X123333000Y-65987000D01*
X123333000Y-65967000D01*
X123313000Y-65967000D01*
X123313000Y-65713000D01*
X123333000Y-65713000D01*
X123333000Y-65693000D01*
X123587000Y-65693000D01*
X123587000Y-65713000D01*
M02*
