G04 #@! TF.FileFunction,Soldermask,Top*
%FSLAX46Y46*%
G04 Gerber Fmt 4.6, Leading zero omitted, Abs format (unit mm)*
G04 Created by KiCad (PCBNEW 4.0.4-stable) date 01/16/17 16:34:01*
%MOMM*%
%LPD*%
G01*
G04 APERTURE LIST*
%ADD10C,0.100000*%
%ADD11C,0.150000*%
%ADD12C,0.300000*%
%ADD13C,0.400000*%
%ADD14R,2.250000X2.250000*%
%ADD15C,2.250000*%
%ADD16R,1.900000X1.900000*%
%ADD17C,1.900000*%
%ADD18O,0.750000X1.600000*%
%ADD19C,1.700000*%
%ADD20R,1.797000X1.797000*%
%ADD21C,1.797000*%
%ADD22C,3.900000*%
%ADD23C,1.924000*%
%ADD24R,2.127200X2.127200*%
%ADD25O,2.127200X2.127200*%
%ADD26O,1.400000X1.600000*%
%ADD27O,1.700000X3.600000*%
%ADD28R,2.127200X2.432000*%
%ADD29O,2.127200X2.432000*%
%ADD30C,2.100000*%
%ADD31R,1.700000X1.700000*%
%ADD32R,1.600000X1.600000*%
%ADD33C,1.600000*%
%ADD34O,2.700000X2.000000*%
%ADD35R,1.600000X1.150000*%
%ADD36R,1.300000X1.600000*%
G04 APERTURE END LIST*
D10*
D11*
X177002200Y-166007200D02*
X177002200Y-198007200D01*
X285002200Y-198007200D01*
X285002200Y-166007200D01*
X177002200Y-166007200D01*
D10*
D11*
X10000000Y-10000000D02*
X10000000Y-200007200D01*
X287002200Y-200007200D01*
X287002200Y-10000000D01*
X10000000Y-10000000D01*
D10*
D11*
X12000000Y-12000000D02*
X12000000Y-198007200D01*
X285002200Y-198007200D01*
X285002200Y-12000000D01*
X12000000Y-12000000D01*
D10*
D11*
X60000000Y-12000000D02*
X60000000Y-10000000D01*
D10*
D11*
X110000000Y-12000000D02*
X110000000Y-10000000D01*
D10*
D11*
X160000000Y-12000000D02*
X160000000Y-10000000D01*
D10*
D11*
X210000000Y-12000000D02*
X210000000Y-10000000D01*
D10*
D11*
X260000000Y-12000000D02*
X260000000Y-10000000D01*
D10*
D11*
X35990476Y-11588095D02*
X35247619Y-11588095D01*
X35619048Y-11588095D02*
X35619048Y-10288095D01*
X35495238Y-10473810D01*
X35371429Y-10597619D01*
X35247619Y-10659524D01*
D10*
D11*
X85247619Y-10411905D02*
X85309524Y-10350000D01*
X85433333Y-10288095D01*
X85742857Y-10288095D01*
X85866667Y-10350000D01*
X85928571Y-10411905D01*
X85990476Y-10535714D01*
X85990476Y-10659524D01*
X85928571Y-10845238D01*
X85185714Y-11588095D01*
X85990476Y-11588095D01*
D10*
D11*
X135185714Y-10288095D02*
X135990476Y-10288095D01*
X135557143Y-10783333D01*
X135742857Y-10783333D01*
X135866667Y-10845238D01*
X135928571Y-10907143D01*
X135990476Y-11030952D01*
X135990476Y-11340476D01*
X135928571Y-11464286D01*
X135866667Y-11526190D01*
X135742857Y-11588095D01*
X135371429Y-11588095D01*
X135247619Y-11526190D01*
X135185714Y-11464286D01*
D10*
D11*
X185866667Y-10721429D02*
X185866667Y-11588095D01*
X185557143Y-10226190D02*
X185247619Y-11154762D01*
X186052381Y-11154762D01*
D10*
D11*
X235928571Y-10288095D02*
X235309524Y-10288095D01*
X235247619Y-10907143D01*
X235309524Y-10845238D01*
X235433333Y-10783333D01*
X235742857Y-10783333D01*
X235866667Y-10845238D01*
X235928571Y-10907143D01*
X235990476Y-11030952D01*
X235990476Y-11340476D01*
X235928571Y-11464286D01*
X235866667Y-11526190D01*
X235742857Y-11588095D01*
X235433333Y-11588095D01*
X235309524Y-11526190D01*
X235247619Y-11464286D01*
D10*
D11*
X285866667Y-10288095D02*
X285619048Y-10288095D01*
X285495238Y-10350000D01*
X285433333Y-10411905D01*
X285309524Y-10597619D01*
X285247619Y-10845238D01*
X285247619Y-11340476D01*
X285309524Y-11464286D01*
X285371429Y-11526190D01*
X285495238Y-11588095D01*
X285742857Y-11588095D01*
X285866667Y-11526190D01*
X285928571Y-11464286D01*
X285990476Y-11340476D01*
X285990476Y-11030952D01*
X285928571Y-10907143D01*
X285866667Y-10845238D01*
X285742857Y-10783333D01*
X285495238Y-10783333D01*
X285371429Y-10845238D01*
X285309524Y-10907143D01*
X285247619Y-11030952D01*
D10*
D11*
X60000000Y-198007200D02*
X60000000Y-200007200D01*
D10*
D11*
X110000000Y-198007200D02*
X110000000Y-200007200D01*
D10*
D11*
X160000000Y-198007200D02*
X160000000Y-200007200D01*
D10*
D11*
X210000000Y-198007200D02*
X210000000Y-200007200D01*
D10*
D11*
X260000000Y-198007200D02*
X260000000Y-200007200D01*
D10*
D11*
X35990476Y-199595295D02*
X35247619Y-199595295D01*
X35619048Y-199595295D02*
X35619048Y-198295295D01*
X35495238Y-198481010D01*
X35371429Y-198604819D01*
X35247619Y-198666724D01*
D10*
D11*
X85247619Y-198419105D02*
X85309524Y-198357200D01*
X85433333Y-198295295D01*
X85742857Y-198295295D01*
X85866667Y-198357200D01*
X85928571Y-198419105D01*
X85990476Y-198542914D01*
X85990476Y-198666724D01*
X85928571Y-198852438D01*
X85185714Y-199595295D01*
X85990476Y-199595295D01*
D10*
D11*
X135185714Y-198295295D02*
X135990476Y-198295295D01*
X135557143Y-198790533D01*
X135742857Y-198790533D01*
X135866667Y-198852438D01*
X135928571Y-198914343D01*
X135990476Y-199038152D01*
X135990476Y-199347676D01*
X135928571Y-199471486D01*
X135866667Y-199533390D01*
X135742857Y-199595295D01*
X135371429Y-199595295D01*
X135247619Y-199533390D01*
X135185714Y-199471486D01*
D10*
D11*
X185866667Y-198728629D02*
X185866667Y-199595295D01*
X185557143Y-198233390D02*
X185247619Y-199161962D01*
X186052381Y-199161962D01*
D10*
D11*
X235928571Y-198295295D02*
X235309524Y-198295295D01*
X235247619Y-198914343D01*
X235309524Y-198852438D01*
X235433333Y-198790533D01*
X235742857Y-198790533D01*
X235866667Y-198852438D01*
X235928571Y-198914343D01*
X235990476Y-199038152D01*
X235990476Y-199347676D01*
X235928571Y-199471486D01*
X235866667Y-199533390D01*
X235742857Y-199595295D01*
X235433333Y-199595295D01*
X235309524Y-199533390D01*
X235247619Y-199471486D01*
D10*
D11*
X285866667Y-198295295D02*
X285619048Y-198295295D01*
X285495238Y-198357200D01*
X285433333Y-198419105D01*
X285309524Y-198604819D01*
X285247619Y-198852438D01*
X285247619Y-199347676D01*
X285309524Y-199471486D01*
X285371429Y-199533390D01*
X285495238Y-199595295D01*
X285742857Y-199595295D01*
X285866667Y-199533390D01*
X285928571Y-199471486D01*
X285990476Y-199347676D01*
X285990476Y-199038152D01*
X285928571Y-198914343D01*
X285866667Y-198852438D01*
X285742857Y-198790533D01*
X285495238Y-198790533D01*
X285371429Y-198852438D01*
X285309524Y-198914343D01*
X285247619Y-199038152D01*
D10*
D11*
X10000000Y-60000000D02*
X12000000Y-60000000D01*
D10*
D11*
X10000000Y-110000000D02*
X12000000Y-110000000D01*
D10*
D11*
X10000000Y-160000000D02*
X12000000Y-160000000D01*
D10*
D11*
X10690476Y-35216667D02*
X11309524Y-35216667D01*
X10566667Y-35588095D02*
X11000000Y-34288095D01*
X11433333Y-35588095D01*
D10*
D11*
X11092857Y-84907143D02*
X11278571Y-84969048D01*
X11340476Y-85030952D01*
X11402381Y-85154762D01*
X11402381Y-85340476D01*
X11340476Y-85464286D01*
X11278571Y-85526190D01*
X11154762Y-85588095D01*
X10659524Y-85588095D01*
X10659524Y-84288095D01*
X11092857Y-84288095D01*
X11216667Y-84350000D01*
X11278571Y-84411905D01*
X11340476Y-84535714D01*
X11340476Y-84659524D01*
X11278571Y-84783333D01*
X11216667Y-84845238D01*
X11092857Y-84907143D01*
X10659524Y-84907143D01*
D10*
D11*
X11402381Y-135464286D02*
X11340476Y-135526190D01*
X11154762Y-135588095D01*
X11030952Y-135588095D01*
X10845238Y-135526190D01*
X10721429Y-135402381D01*
X10659524Y-135278571D01*
X10597619Y-135030952D01*
X10597619Y-134845238D01*
X10659524Y-134597619D01*
X10721429Y-134473810D01*
X10845238Y-134350000D01*
X11030952Y-134288095D01*
X11154762Y-134288095D01*
X11340476Y-134350000D01*
X11402381Y-134411905D01*
D10*
D11*
X10659524Y-185588095D02*
X10659524Y-184288095D01*
X10969048Y-184288095D01*
X11154762Y-184350000D01*
X11278571Y-184473810D01*
X11340476Y-184597619D01*
X11402381Y-184845238D01*
X11402381Y-185030952D01*
X11340476Y-185278571D01*
X11278571Y-185402381D01*
X11154762Y-185526190D01*
X10969048Y-185588095D01*
X10659524Y-185588095D01*
D10*
D11*
X287002200Y-60000000D02*
X285002200Y-60000000D01*
D10*
D11*
X287002200Y-110000000D02*
X285002200Y-110000000D01*
D10*
D11*
X287002200Y-160000000D02*
X285002200Y-160000000D01*
D10*
D11*
X285692676Y-35216667D02*
X286311724Y-35216667D01*
X285568867Y-35588095D02*
X286002200Y-34288095D01*
X286435533Y-35588095D01*
D10*
D11*
X286095057Y-84907143D02*
X286280771Y-84969048D01*
X286342676Y-85030952D01*
X286404581Y-85154762D01*
X286404581Y-85340476D01*
X286342676Y-85464286D01*
X286280771Y-85526190D01*
X286156962Y-85588095D01*
X285661724Y-85588095D01*
X285661724Y-84288095D01*
X286095057Y-84288095D01*
X286218867Y-84350000D01*
X286280771Y-84411905D01*
X286342676Y-84535714D01*
X286342676Y-84659524D01*
X286280771Y-84783333D01*
X286218867Y-84845238D01*
X286095057Y-84907143D01*
X285661724Y-84907143D01*
D10*
D11*
X286404581Y-135464286D02*
X286342676Y-135526190D01*
X286156962Y-135588095D01*
X286033152Y-135588095D01*
X285847438Y-135526190D01*
X285723629Y-135402381D01*
X285661724Y-135278571D01*
X285599819Y-135030952D01*
X285599819Y-134845238D01*
X285661724Y-134597619D01*
X285723629Y-134473810D01*
X285847438Y-134350000D01*
X286033152Y-134288095D01*
X286156962Y-134288095D01*
X286342676Y-134350000D01*
X286404581Y-134411905D01*
D10*
D11*
X285661724Y-185588095D02*
X285661724Y-184288095D01*
X285971248Y-184288095D01*
X286156962Y-184350000D01*
X286280771Y-184473810D01*
X286342676Y-184597619D01*
X286404581Y-184845238D01*
X286404581Y-185030952D01*
X286342676Y-185278571D01*
X286280771Y-185402381D01*
X286156962Y-185526190D01*
X285971248Y-185588095D01*
X285661724Y-185588095D01*
D10*
D11*
X200359343Y-193785771D02*
X200359343Y-192285771D01*
X200716486Y-192285771D01*
X200930771Y-192357200D01*
X201073629Y-192500057D01*
X201145057Y-192642914D01*
X201216486Y-192928629D01*
X201216486Y-193142914D01*
X201145057Y-193428629D01*
X201073629Y-193571486D01*
X200930771Y-193714343D01*
X200716486Y-193785771D01*
X200359343Y-193785771D01*
X202502200Y-193785771D02*
X202502200Y-193000057D01*
X202430771Y-192857200D01*
X202287914Y-192785771D01*
X202002200Y-192785771D01*
X201859343Y-192857200D01*
X202502200Y-193714343D02*
X202359343Y-193785771D01*
X202002200Y-193785771D01*
X201859343Y-193714343D01*
X201787914Y-193571486D01*
X201787914Y-193428629D01*
X201859343Y-193285771D01*
X202002200Y-193214343D01*
X202359343Y-193214343D01*
X202502200Y-193142914D01*
X203002200Y-192785771D02*
X203573629Y-192785771D01*
X203216486Y-192285771D02*
X203216486Y-193571486D01*
X203287914Y-193714343D01*
X203430772Y-193785771D01*
X203573629Y-193785771D01*
X204645057Y-193714343D02*
X204502200Y-193785771D01*
X204216486Y-193785771D01*
X204073629Y-193714343D01*
X204002200Y-193571486D01*
X204002200Y-193000057D01*
X204073629Y-192857200D01*
X204216486Y-192785771D01*
X204502200Y-192785771D01*
X204645057Y-192857200D01*
X204716486Y-193000057D01*
X204716486Y-193142914D01*
X204002200Y-193285771D01*
X205359343Y-193642914D02*
X205430771Y-193714343D01*
X205359343Y-193785771D01*
X205287914Y-193714343D01*
X205359343Y-193642914D01*
X205359343Y-193785771D01*
X205359343Y-192857200D02*
X205430771Y-192928629D01*
X205359343Y-193000057D01*
X205287914Y-192928629D01*
X205359343Y-192857200D01*
X205359343Y-193000057D01*
D10*
D11*
X177002200Y-194507200D02*
X285002200Y-194507200D01*
D10*
D11*
X178359343Y-196585771D02*
X178359343Y-195085771D01*
X179216486Y-196585771D02*
X178573629Y-195728629D01*
X179216486Y-195085771D02*
X178359343Y-195942914D01*
X179859343Y-196585771D02*
X179859343Y-195585771D01*
X179859343Y-195085771D02*
X179787914Y-195157200D01*
X179859343Y-195228629D01*
X179930771Y-195157200D01*
X179859343Y-195085771D01*
X179859343Y-195228629D01*
X181430772Y-196442914D02*
X181359343Y-196514343D01*
X181145057Y-196585771D01*
X181002200Y-196585771D01*
X180787915Y-196514343D01*
X180645057Y-196371486D01*
X180573629Y-196228629D01*
X180502200Y-195942914D01*
X180502200Y-195728629D01*
X180573629Y-195442914D01*
X180645057Y-195300057D01*
X180787915Y-195157200D01*
X181002200Y-195085771D01*
X181145057Y-195085771D01*
X181359343Y-195157200D01*
X181430772Y-195228629D01*
X182716486Y-196585771D02*
X182716486Y-195800057D01*
X182645057Y-195657200D01*
X182502200Y-195585771D01*
X182216486Y-195585771D01*
X182073629Y-195657200D01*
X182716486Y-196514343D02*
X182573629Y-196585771D01*
X182216486Y-196585771D01*
X182073629Y-196514343D01*
X182002200Y-196371486D01*
X182002200Y-196228629D01*
X182073629Y-196085771D01*
X182216486Y-196014343D01*
X182573629Y-196014343D01*
X182716486Y-195942914D01*
X184073629Y-196585771D02*
X184073629Y-195085771D01*
X184073629Y-196514343D02*
X183930772Y-196585771D01*
X183645058Y-196585771D01*
X183502200Y-196514343D01*
X183430772Y-196442914D01*
X183359343Y-196300057D01*
X183359343Y-195871486D01*
X183430772Y-195728629D01*
X183502200Y-195657200D01*
X183645058Y-195585771D01*
X183930772Y-195585771D01*
X184073629Y-195657200D01*
X185930772Y-195800057D02*
X186430772Y-195800057D01*
X186645058Y-196585771D02*
X185930772Y-196585771D01*
X185930772Y-195085771D01*
X186645058Y-195085771D01*
X187287915Y-196442914D02*
X187359343Y-196514343D01*
X187287915Y-196585771D01*
X187216486Y-196514343D01*
X187287915Y-196442914D01*
X187287915Y-196585771D01*
X188002201Y-196585771D02*
X188002201Y-195085771D01*
X188359344Y-195085771D01*
X188573629Y-195157200D01*
X188716487Y-195300057D01*
X188787915Y-195442914D01*
X188859344Y-195728629D01*
X188859344Y-195942914D01*
X188787915Y-196228629D01*
X188716487Y-196371486D01*
X188573629Y-196514343D01*
X188359344Y-196585771D01*
X188002201Y-196585771D01*
X189502201Y-196442914D02*
X189573629Y-196514343D01*
X189502201Y-196585771D01*
X189430772Y-196514343D01*
X189502201Y-196442914D01*
X189502201Y-196585771D01*
X190145058Y-196157200D02*
X190859344Y-196157200D01*
X190002201Y-196585771D02*
X190502201Y-195085771D01*
X191002201Y-196585771D01*
X191502201Y-196442914D02*
X191573629Y-196514343D01*
X191502201Y-196585771D01*
X191430772Y-196514343D01*
X191502201Y-196442914D01*
X191502201Y-196585771D01*
X194502201Y-196585771D02*
X194502201Y-195085771D01*
X194645058Y-196014343D02*
X195073629Y-196585771D01*
X195073629Y-195585771D02*
X194502201Y-196157200D01*
X195716487Y-196585771D02*
X195716487Y-195585771D01*
X195716487Y-195085771D02*
X195645058Y-195157200D01*
X195716487Y-195228629D01*
X195787915Y-195157200D01*
X195716487Y-195085771D01*
X195716487Y-195228629D01*
X197073630Y-196514343D02*
X196930773Y-196585771D01*
X196645059Y-196585771D01*
X196502201Y-196514343D01*
X196430773Y-196442914D01*
X196359344Y-196300057D01*
X196359344Y-195871486D01*
X196430773Y-195728629D01*
X196502201Y-195657200D01*
X196645059Y-195585771D01*
X196930773Y-195585771D01*
X197073630Y-195657200D01*
X198359344Y-196585771D02*
X198359344Y-195800057D01*
X198287915Y-195657200D01*
X198145058Y-195585771D01*
X197859344Y-195585771D01*
X197716487Y-195657200D01*
X198359344Y-196514343D02*
X198216487Y-196585771D01*
X197859344Y-196585771D01*
X197716487Y-196514343D01*
X197645058Y-196371486D01*
X197645058Y-196228629D01*
X197716487Y-196085771D01*
X197859344Y-196014343D01*
X198216487Y-196014343D01*
X198359344Y-195942914D01*
X199716487Y-196585771D02*
X199716487Y-195085771D01*
X199716487Y-196514343D02*
X199573630Y-196585771D01*
X199287916Y-196585771D01*
X199145058Y-196514343D01*
X199073630Y-196442914D01*
X199002201Y-196300057D01*
X199002201Y-195871486D01*
X199073630Y-195728629D01*
X199145058Y-195657200D01*
X199287916Y-195585771D01*
X199573630Y-195585771D01*
X199716487Y-195657200D01*
X202216487Y-195585771D02*
X202216487Y-196585771D01*
X201859344Y-195014343D02*
X201502201Y-196085771D01*
X202430773Y-196085771D01*
X203002201Y-196442914D02*
X203073629Y-196514343D01*
X203002201Y-196585771D01*
X202930772Y-196514343D01*
X203002201Y-196442914D01*
X203002201Y-196585771D01*
X204002201Y-195085771D02*
X204145058Y-195085771D01*
X204287915Y-195157200D01*
X204359344Y-195228629D01*
X204430773Y-195371486D01*
X204502201Y-195657200D01*
X204502201Y-196014343D01*
X204430773Y-196300057D01*
X204359344Y-196442914D01*
X204287915Y-196514343D01*
X204145058Y-196585771D01*
X204002201Y-196585771D01*
X203859344Y-196514343D01*
X203787915Y-196442914D01*
X203716487Y-196300057D01*
X203645058Y-196014343D01*
X203645058Y-195657200D01*
X203716487Y-195371486D01*
X203787915Y-195228629D01*
X203859344Y-195157200D01*
X204002201Y-195085771D01*
X205145058Y-196442914D02*
X205216486Y-196514343D01*
X205145058Y-196585771D01*
X205073629Y-196514343D01*
X205145058Y-196442914D01*
X205145058Y-196585771D01*
X206502201Y-195585771D02*
X206502201Y-196585771D01*
X206145058Y-195014343D02*
X205787915Y-196085771D01*
X206716487Y-196085771D01*
X207287915Y-196014343D02*
X208430772Y-196014343D01*
X209073629Y-196514343D02*
X209216486Y-196585771D01*
X209502201Y-196585771D01*
X209645058Y-196514343D01*
X209716486Y-196371486D01*
X209716486Y-196300057D01*
X209645058Y-196157200D01*
X209502201Y-196085771D01*
X209287915Y-196085771D01*
X209145058Y-196014343D01*
X209073629Y-195871486D01*
X209073629Y-195800057D01*
X209145058Y-195657200D01*
X209287915Y-195585771D01*
X209502201Y-195585771D01*
X209645058Y-195657200D01*
X210145058Y-195585771D02*
X210716487Y-195585771D01*
X210359344Y-195085771D02*
X210359344Y-196371486D01*
X210430772Y-196514343D01*
X210573630Y-196585771D01*
X210716487Y-196585771D01*
X211859344Y-196585771D02*
X211859344Y-195800057D01*
X211787915Y-195657200D01*
X211645058Y-195585771D01*
X211359344Y-195585771D01*
X211216487Y-195657200D01*
X211859344Y-196514343D02*
X211716487Y-196585771D01*
X211359344Y-196585771D01*
X211216487Y-196514343D01*
X211145058Y-196371486D01*
X211145058Y-196228629D01*
X211216487Y-196085771D01*
X211359344Y-196014343D01*
X211716487Y-196014343D01*
X211859344Y-195942914D01*
X212573630Y-196585771D02*
X212573630Y-195085771D01*
X212573630Y-195657200D02*
X212716487Y-195585771D01*
X213002201Y-195585771D01*
X213145058Y-195657200D01*
X213216487Y-195728629D01*
X213287916Y-195871486D01*
X213287916Y-196300057D01*
X213216487Y-196442914D01*
X213145058Y-196514343D01*
X213002201Y-196585771D01*
X212716487Y-196585771D01*
X212573630Y-196514343D01*
X214145059Y-196585771D02*
X214002201Y-196514343D01*
X213930773Y-196371486D01*
X213930773Y-195085771D01*
X215287915Y-196514343D02*
X215145058Y-196585771D01*
X214859344Y-196585771D01*
X214716487Y-196514343D01*
X214645058Y-196371486D01*
X214645058Y-195800057D01*
X214716487Y-195657200D01*
X214859344Y-195585771D01*
X215145058Y-195585771D01*
X215287915Y-195657200D01*
X215359344Y-195800057D01*
X215359344Y-195942914D01*
X214645058Y-196085771D01*
D10*
D11*
X177002200Y-191507200D02*
X285002200Y-191507200D01*
D10*
D12*
X264216486Y-193785771D02*
X263716486Y-193071486D01*
X263359343Y-193785771D02*
X263359343Y-192285771D01*
X263930771Y-192285771D01*
X264073629Y-192357200D01*
X264145057Y-192428629D01*
X264216486Y-192571486D01*
X264216486Y-192785771D01*
X264145057Y-192928629D01*
X264073629Y-193000057D01*
X263930771Y-193071486D01*
X263359343Y-193071486D01*
X265430771Y-193714343D02*
X265287914Y-193785771D01*
X265002200Y-193785771D01*
X264859343Y-193714343D01*
X264787914Y-193571486D01*
X264787914Y-193000057D01*
X264859343Y-192857200D01*
X265002200Y-192785771D01*
X265287914Y-192785771D01*
X265430771Y-192857200D01*
X265502200Y-193000057D01*
X265502200Y-193142914D01*
X264787914Y-193285771D01*
X266002200Y-192785771D02*
X266359343Y-193785771D01*
X266716485Y-192785771D01*
X267287914Y-193642914D02*
X267359342Y-193714343D01*
X267287914Y-193785771D01*
X267216485Y-193714343D01*
X267287914Y-193642914D01*
X267287914Y-193785771D01*
X267287914Y-192857200D02*
X267359342Y-192928629D01*
X267287914Y-193000057D01*
X267216485Y-192928629D01*
X267287914Y-192857200D01*
X267287914Y-193000057D01*
D10*
D11*
X178287914Y-193714343D02*
X178502200Y-193785771D01*
X178859343Y-193785771D01*
X179002200Y-193714343D01*
X179073629Y-193642914D01*
X179145057Y-193500057D01*
X179145057Y-193357200D01*
X179073629Y-193214343D01*
X179002200Y-193142914D01*
X178859343Y-193071486D01*
X178573629Y-193000057D01*
X178430771Y-192928629D01*
X178359343Y-192857200D01*
X178287914Y-192714343D01*
X178287914Y-192571486D01*
X178359343Y-192428629D01*
X178430771Y-192357200D01*
X178573629Y-192285771D01*
X178930771Y-192285771D01*
X179145057Y-192357200D01*
X179787914Y-193785771D02*
X179787914Y-192785771D01*
X179787914Y-192285771D02*
X179716485Y-192357200D01*
X179787914Y-192428629D01*
X179859342Y-192357200D01*
X179787914Y-192285771D01*
X179787914Y-192428629D01*
X180359343Y-192785771D02*
X181145057Y-192785771D01*
X180359343Y-193785771D01*
X181145057Y-193785771D01*
X182287914Y-193714343D02*
X182145057Y-193785771D01*
X181859343Y-193785771D01*
X181716486Y-193714343D01*
X181645057Y-193571486D01*
X181645057Y-193000057D01*
X181716486Y-192857200D01*
X181859343Y-192785771D01*
X182145057Y-192785771D01*
X182287914Y-192857200D01*
X182359343Y-193000057D01*
X182359343Y-193142914D01*
X181645057Y-193285771D01*
X183002200Y-193642914D02*
X183073628Y-193714343D01*
X183002200Y-193785771D01*
X182930771Y-193714343D01*
X183002200Y-193642914D01*
X183002200Y-193785771D01*
X183002200Y-192857200D02*
X183073628Y-192928629D01*
X183002200Y-193000057D01*
X182930771Y-192928629D01*
X183002200Y-192857200D01*
X183002200Y-193000057D01*
X184787914Y-193357200D02*
X185502200Y-193357200D01*
X184645057Y-193785771D02*
X185145057Y-192285771D01*
X185645057Y-193785771D01*
X186787914Y-192785771D02*
X186787914Y-193785771D01*
X186430771Y-192214343D02*
X186073628Y-193285771D01*
X187002200Y-193285771D01*
D10*
D11*
X263359343Y-196585771D02*
X263359343Y-195085771D01*
X264716486Y-196585771D02*
X264716486Y-195085771D01*
X264716486Y-196514343D02*
X264573629Y-196585771D01*
X264287915Y-196585771D01*
X264145057Y-196514343D01*
X264073629Y-196442914D01*
X264002200Y-196300057D01*
X264002200Y-195871486D01*
X264073629Y-195728629D01*
X264145057Y-195657200D01*
X264287915Y-195585771D01*
X264573629Y-195585771D01*
X264716486Y-195657200D01*
X265430772Y-196442914D02*
X265502200Y-196514343D01*
X265430772Y-196585771D01*
X265359343Y-196514343D01*
X265430772Y-196442914D01*
X265430772Y-196585771D01*
X265430772Y-195657200D02*
X265502200Y-195728629D01*
X265430772Y-195800057D01*
X265359343Y-195728629D01*
X265430772Y-195657200D01*
X265430772Y-195800057D01*
X268073629Y-196585771D02*
X267216486Y-196585771D01*
X267645058Y-196585771D02*
X267645058Y-195085771D01*
X267502201Y-195300057D01*
X267359343Y-195442914D01*
X267216486Y-195514343D01*
X269787914Y-195014343D02*
X268502200Y-196942914D01*
X271073629Y-196585771D02*
X270216486Y-196585771D01*
X270645058Y-196585771D02*
X270645058Y-195085771D01*
X270502201Y-195300057D01*
X270359343Y-195442914D01*
X270216486Y-195514343D01*
D10*
D11*
X177002200Y-187507200D02*
X285002200Y-187507200D01*
D10*
D13*
X178454581Y-188211962D02*
X179597438Y-188211962D01*
X178776010Y-190211962D02*
X179026010Y-188211962D01*
X180014105Y-190211962D02*
X180180771Y-188878629D01*
X180264105Y-188211962D02*
X180156962Y-188307200D01*
X180240295Y-188402438D01*
X180347439Y-188307200D01*
X180264105Y-188211962D01*
X180240295Y-188402438D01*
X180847438Y-188878629D02*
X181609343Y-188878629D01*
X181216486Y-188211962D02*
X181002200Y-189926248D01*
X181073630Y-190116724D01*
X181252201Y-190211962D01*
X181442677Y-190211962D01*
X182395058Y-190211962D02*
X182216487Y-190116724D01*
X182145057Y-189926248D01*
X182359343Y-188211962D01*
X183930772Y-190116724D02*
X183728391Y-190211962D01*
X183347439Y-190211962D01*
X183168867Y-190116724D01*
X183097438Y-189926248D01*
X183192676Y-189164343D01*
X183311724Y-188973867D01*
X183514105Y-188878629D01*
X183895057Y-188878629D01*
X184073629Y-188973867D01*
X184145057Y-189164343D01*
X184121248Y-189354819D01*
X183145057Y-189545295D01*
X184895057Y-190021486D02*
X184978392Y-190116724D01*
X184871248Y-190211962D01*
X184787915Y-190116724D01*
X184895057Y-190021486D01*
X184871248Y-190211962D01*
X185026010Y-188973867D02*
X185109344Y-189069105D01*
X185002200Y-189164343D01*
X184918867Y-189069105D01*
X185026010Y-188973867D01*
X185002200Y-189164343D01*
D10*
D11*
X178859343Y-185600057D02*
X178359343Y-185600057D01*
X178359343Y-186385771D02*
X178359343Y-184885771D01*
X179073629Y-184885771D01*
X179645057Y-186385771D02*
X179645057Y-185385771D01*
X179645057Y-184885771D02*
X179573628Y-184957200D01*
X179645057Y-185028629D01*
X179716485Y-184957200D01*
X179645057Y-184885771D01*
X179645057Y-185028629D01*
X180573629Y-186385771D02*
X180430771Y-186314343D01*
X180359343Y-186171486D01*
X180359343Y-184885771D01*
X181716485Y-186314343D02*
X181573628Y-186385771D01*
X181287914Y-186385771D01*
X181145057Y-186314343D01*
X181073628Y-186171486D01*
X181073628Y-185600057D01*
X181145057Y-185457200D01*
X181287914Y-185385771D01*
X181573628Y-185385771D01*
X181716485Y-185457200D01*
X181787914Y-185600057D01*
X181787914Y-185742914D01*
X181073628Y-185885771D01*
X182430771Y-186242914D02*
X182502199Y-186314343D01*
X182430771Y-186385771D01*
X182359342Y-186314343D01*
X182430771Y-186242914D01*
X182430771Y-186385771D01*
X182430771Y-185457200D02*
X182502199Y-185528629D01*
X182430771Y-185600057D01*
X182359342Y-185528629D01*
X182430771Y-185457200D01*
X182430771Y-185600057D01*
X184287914Y-186385771D02*
X184287914Y-184885771D01*
X184859342Y-184885771D01*
X185002200Y-184957200D01*
X185073628Y-185028629D01*
X185145057Y-185171486D01*
X185145057Y-185385771D01*
X185073628Y-185528629D01*
X185002200Y-185600057D01*
X184859342Y-185671486D01*
X184287914Y-185671486D01*
X185787914Y-186385771D02*
X185787914Y-184885771D01*
X187359343Y-186242914D02*
X187287914Y-186314343D01*
X187073628Y-186385771D01*
X186930771Y-186385771D01*
X186716486Y-186314343D01*
X186573628Y-186171486D01*
X186502200Y-186028629D01*
X186430771Y-185742914D01*
X186430771Y-185528629D01*
X186502200Y-185242914D01*
X186573628Y-185100057D01*
X186716486Y-184957200D01*
X186930771Y-184885771D01*
X187073628Y-184885771D01*
X187287914Y-184957200D01*
X187359343Y-185028629D01*
X188787914Y-186385771D02*
X187930771Y-186385771D01*
X188359343Y-186385771D02*
X188359343Y-184885771D01*
X188216486Y-185100057D01*
X188073628Y-185242914D01*
X187930771Y-185314343D01*
X189645057Y-185528629D02*
X189502199Y-185457200D01*
X189430771Y-185385771D01*
X189359342Y-185242914D01*
X189359342Y-185171486D01*
X189430771Y-185028629D01*
X189502199Y-184957200D01*
X189645057Y-184885771D01*
X189930771Y-184885771D01*
X190073628Y-184957200D01*
X190145057Y-185028629D01*
X190216485Y-185171486D01*
X190216485Y-185242914D01*
X190145057Y-185385771D01*
X190073628Y-185457200D01*
X189930771Y-185528629D01*
X189645057Y-185528629D01*
X189502199Y-185600057D01*
X189430771Y-185671486D01*
X189359342Y-185814343D01*
X189359342Y-186100057D01*
X189430771Y-186242914D01*
X189502199Y-186314343D01*
X189645057Y-186385771D01*
X189930771Y-186385771D01*
X190073628Y-186314343D01*
X190145057Y-186242914D01*
X190216485Y-186100057D01*
X190216485Y-185814343D01*
X190145057Y-185671486D01*
X190073628Y-185600057D01*
X189930771Y-185528629D01*
X191359342Y-185600057D02*
X190859342Y-185600057D01*
X190859342Y-186385771D02*
X190859342Y-184885771D01*
X191573628Y-184885771D01*
X192787913Y-185385771D02*
X192787913Y-186385771D01*
X192430770Y-184814343D02*
X192073627Y-185885771D01*
X193002199Y-185885771D01*
X194287913Y-184885771D02*
X193573627Y-184885771D01*
X193502198Y-185600057D01*
X193573627Y-185528629D01*
X193716484Y-185457200D01*
X194073627Y-185457200D01*
X194216484Y-185528629D01*
X194287913Y-185600057D01*
X194359341Y-185742914D01*
X194359341Y-186100057D01*
X194287913Y-186242914D01*
X194216484Y-186314343D01*
X194073627Y-186385771D01*
X193716484Y-186385771D01*
X193573627Y-186314343D01*
X193502198Y-186242914D01*
X195002198Y-186385771D02*
X195002198Y-184885771D01*
X195859341Y-186385771D02*
X195216484Y-185528629D01*
X195859341Y-184885771D02*
X195002198Y-185742914D01*
X196430769Y-185028629D02*
X196502198Y-184957200D01*
X196645055Y-184885771D01*
X197002198Y-184885771D01*
X197145055Y-184957200D01*
X197216484Y-185028629D01*
X197287912Y-185171486D01*
X197287912Y-185314343D01*
X197216484Y-185528629D01*
X196359341Y-186385771D01*
X197287912Y-186385771D01*
X197859340Y-185028629D02*
X197930769Y-184957200D01*
X198073626Y-184885771D01*
X198430769Y-184885771D01*
X198573626Y-184957200D01*
X198645055Y-185028629D01*
X198716483Y-185171486D01*
X198716483Y-185314343D01*
X198645055Y-185528629D01*
X197787912Y-186385771D01*
X198716483Y-186385771D01*
X199002197Y-186528629D02*
X200145054Y-186528629D01*
X201359340Y-186242914D02*
X201287911Y-186314343D01*
X201073625Y-186385771D01*
X200930768Y-186385771D01*
X200716483Y-186314343D01*
X200573625Y-186171486D01*
X200502197Y-186028629D01*
X200430768Y-185742914D01*
X200430768Y-185528629D01*
X200502197Y-185242914D01*
X200573625Y-185100057D01*
X200716483Y-184957200D01*
X200930768Y-184885771D01*
X201073625Y-184885771D01*
X201287911Y-184957200D01*
X201359340Y-185028629D01*
X202002197Y-186385771D02*
X202002197Y-184885771D01*
X202573625Y-184885771D01*
X202716483Y-184957200D01*
X202787911Y-185028629D01*
X202859340Y-185171486D01*
X202859340Y-185385771D01*
X202787911Y-185528629D01*
X202716483Y-185600057D01*
X202573625Y-185671486D01*
X202002197Y-185671486D01*
X203502197Y-184885771D02*
X203502197Y-186100057D01*
X203573625Y-186242914D01*
X203645054Y-186314343D01*
X203787911Y-186385771D01*
X204073625Y-186385771D01*
X204216483Y-186314343D01*
X204287911Y-186242914D01*
X204359340Y-186100057D01*
X204359340Y-184885771D01*
X205573626Y-185600057D02*
X205787912Y-185671486D01*
X205859340Y-185742914D01*
X205930769Y-185885771D01*
X205930769Y-186100057D01*
X205859340Y-186242914D01*
X205787912Y-186314343D01*
X205645054Y-186385771D01*
X205073626Y-186385771D01*
X205073626Y-184885771D01*
X205573626Y-184885771D01*
X205716483Y-184957200D01*
X205787912Y-185028629D01*
X205859340Y-185171486D01*
X205859340Y-185314343D01*
X205787912Y-185457200D01*
X205716483Y-185528629D01*
X205573626Y-185600057D01*
X205073626Y-185600057D01*
X206859340Y-184885771D02*
X207145054Y-184885771D01*
X207287912Y-184957200D01*
X207430769Y-185100057D01*
X207502197Y-185385771D01*
X207502197Y-185885771D01*
X207430769Y-186171486D01*
X207287912Y-186314343D01*
X207145054Y-186385771D01*
X206859340Y-186385771D01*
X206716483Y-186314343D01*
X206573626Y-186171486D01*
X206502197Y-185885771D01*
X206502197Y-185385771D01*
X206573626Y-185100057D01*
X206716483Y-184957200D01*
X206859340Y-184885771D01*
X208073626Y-185957200D02*
X208787912Y-185957200D01*
X207930769Y-186385771D02*
X208430769Y-184885771D01*
X208930769Y-186385771D01*
X210287912Y-186385771D02*
X209787912Y-185671486D01*
X209430769Y-186385771D02*
X209430769Y-184885771D01*
X210002197Y-184885771D01*
X210145055Y-184957200D01*
X210216483Y-185028629D01*
X210287912Y-185171486D01*
X210287912Y-185385771D01*
X210216483Y-185528629D01*
X210145055Y-185600057D01*
X210002197Y-185671486D01*
X209430769Y-185671486D01*
X210930769Y-186385771D02*
X210930769Y-184885771D01*
X211287912Y-184885771D01*
X211502197Y-184957200D01*
X211645055Y-185100057D01*
X211716483Y-185242914D01*
X211787912Y-185528629D01*
X211787912Y-185742914D01*
X211716483Y-186028629D01*
X211645055Y-186171486D01*
X211502197Y-186314343D01*
X211287912Y-186385771D01*
X210930769Y-186385771D01*
X212073626Y-186528629D02*
X213216483Y-186528629D01*
X213359340Y-184885771D02*
X213859340Y-186385771D01*
X214359340Y-184885771D01*
X214787911Y-185028629D02*
X214859340Y-184957200D01*
X215002197Y-184885771D01*
X215359340Y-184885771D01*
X215502197Y-184957200D01*
X215573626Y-185028629D01*
X215645054Y-185171486D01*
X215645054Y-185314343D01*
X215573626Y-185528629D01*
X214716483Y-186385771D01*
X215645054Y-186385771D01*
X217073625Y-186385771D02*
X216216482Y-186385771D01*
X216645054Y-186385771D02*
X216645054Y-184885771D01*
X216502197Y-185100057D01*
X216359339Y-185242914D01*
X216216482Y-185314343D01*
X217716482Y-186242914D02*
X217787910Y-186314343D01*
X217716482Y-186385771D01*
X217645053Y-186314343D01*
X217716482Y-186242914D01*
X217716482Y-186385771D01*
X218430768Y-186385771D02*
X218430768Y-184885771D01*
X218573625Y-185814343D02*
X219002196Y-186385771D01*
X219002196Y-185385771D02*
X218430768Y-185957200D01*
X219645054Y-186385771D02*
X219645054Y-185385771D01*
X219645054Y-184885771D02*
X219573625Y-184957200D01*
X219645054Y-185028629D01*
X219716482Y-184957200D01*
X219645054Y-184885771D01*
X219645054Y-185028629D01*
X221002197Y-186314343D02*
X220859340Y-186385771D01*
X220573626Y-186385771D01*
X220430768Y-186314343D01*
X220359340Y-186242914D01*
X220287911Y-186100057D01*
X220287911Y-185671486D01*
X220359340Y-185528629D01*
X220430768Y-185457200D01*
X220573626Y-185385771D01*
X220859340Y-185385771D01*
X221002197Y-185457200D01*
X222287911Y-186385771D02*
X222287911Y-185600057D01*
X222216482Y-185457200D01*
X222073625Y-185385771D01*
X221787911Y-185385771D01*
X221645054Y-185457200D01*
X222287911Y-186314343D02*
X222145054Y-186385771D01*
X221787911Y-186385771D01*
X221645054Y-186314343D01*
X221573625Y-186171486D01*
X221573625Y-186028629D01*
X221645054Y-185885771D01*
X221787911Y-185814343D01*
X222145054Y-185814343D01*
X222287911Y-185742914D01*
X223645054Y-186385771D02*
X223645054Y-184885771D01*
X223645054Y-186314343D02*
X223502197Y-186385771D01*
X223216483Y-186385771D01*
X223073625Y-186314343D01*
X223002197Y-186242914D01*
X222930768Y-186100057D01*
X222930768Y-185671486D01*
X223002197Y-185528629D01*
X223073625Y-185457200D01*
X223216483Y-185385771D01*
X223502197Y-185385771D01*
X223645054Y-185457200D01*
X224002197Y-186528629D02*
X225145054Y-186528629D01*
X225502197Y-185385771D02*
X225502197Y-186885771D01*
X225502197Y-185457200D02*
X225645054Y-185385771D01*
X225930768Y-185385771D01*
X226073625Y-185457200D01*
X226145054Y-185528629D01*
X226216483Y-185671486D01*
X226216483Y-186100057D01*
X226145054Y-186242914D01*
X226073625Y-186314343D01*
X225930768Y-186385771D01*
X225645054Y-186385771D01*
X225502197Y-186314343D01*
X227502197Y-186314343D02*
X227359340Y-186385771D01*
X227073626Y-186385771D01*
X226930768Y-186314343D01*
X226859340Y-186242914D01*
X226787911Y-186100057D01*
X226787911Y-185671486D01*
X226859340Y-185528629D01*
X226930768Y-185457200D01*
X227073626Y-185385771D01*
X227359340Y-185385771D01*
X227502197Y-185457200D01*
X228145054Y-186385771D02*
X228145054Y-184885771D01*
X228145054Y-185457200D02*
X228287911Y-185385771D01*
X228573625Y-185385771D01*
X228716482Y-185457200D01*
X228787911Y-185528629D01*
X228859340Y-185671486D01*
X228859340Y-186100057D01*
X228787911Y-186242914D01*
X228716482Y-186314343D01*
X228573625Y-186385771D01*
X228287911Y-186385771D01*
X228145054Y-186314343D01*
D10*
D11*
X177002200Y-181507200D02*
X285002200Y-181507200D01*
D10*
D11*
X178287914Y-183614343D02*
X178502200Y-183685771D01*
X178859343Y-183685771D01*
X179002200Y-183614343D01*
X179073629Y-183542914D01*
X179145057Y-183400057D01*
X179145057Y-183257200D01*
X179073629Y-183114343D01*
X179002200Y-183042914D01*
X178859343Y-182971486D01*
X178573629Y-182900057D01*
X178430771Y-182828629D01*
X178359343Y-182757200D01*
X178287914Y-182614343D01*
X178287914Y-182471486D01*
X178359343Y-182328629D01*
X178430771Y-182257200D01*
X178573629Y-182185771D01*
X178930771Y-182185771D01*
X179145057Y-182257200D01*
X179787914Y-183685771D02*
X179787914Y-182185771D01*
X180430771Y-183685771D02*
X180430771Y-182900057D01*
X180359342Y-182757200D01*
X180216485Y-182685771D01*
X180002200Y-182685771D01*
X179859342Y-182757200D01*
X179787914Y-182828629D01*
X181716485Y-183614343D02*
X181573628Y-183685771D01*
X181287914Y-183685771D01*
X181145057Y-183614343D01*
X181073628Y-183471486D01*
X181073628Y-182900057D01*
X181145057Y-182757200D01*
X181287914Y-182685771D01*
X181573628Y-182685771D01*
X181716485Y-182757200D01*
X181787914Y-182900057D01*
X181787914Y-183042914D01*
X181073628Y-183185771D01*
X183002199Y-183614343D02*
X182859342Y-183685771D01*
X182573628Y-183685771D01*
X182430771Y-183614343D01*
X182359342Y-183471486D01*
X182359342Y-182900057D01*
X182430771Y-182757200D01*
X182573628Y-182685771D01*
X182859342Y-182685771D01*
X183002199Y-182757200D01*
X183073628Y-182900057D01*
X183073628Y-183042914D01*
X182359342Y-183185771D01*
X183502199Y-182685771D02*
X184073628Y-182685771D01*
X183716485Y-182185771D02*
X183716485Y-183471486D01*
X183787913Y-183614343D01*
X183930771Y-183685771D01*
X184073628Y-183685771D01*
X184573628Y-183542914D02*
X184645056Y-183614343D01*
X184573628Y-183685771D01*
X184502199Y-183614343D01*
X184573628Y-183542914D01*
X184573628Y-183685771D01*
X184573628Y-182757200D02*
X184645056Y-182828629D01*
X184573628Y-182900057D01*
X184502199Y-182828629D01*
X184573628Y-182757200D01*
X184573628Y-182900057D01*
D10*
D11*
X197002200Y-191507200D02*
X197002200Y-194507200D01*
D10*
D11*
X261002200Y-191507200D02*
X261002200Y-198007200D01*
D14*
X55000000Y-64000000D03*
D15*
X55000000Y-66500000D03*
X55000000Y-69000000D03*
X55000000Y-71500000D03*
X55000000Y-74000000D03*
D16*
X68500000Y-61000000D03*
D17*
X65960000Y-61000000D03*
D16*
X68500000Y-65000000D03*
D17*
X65960000Y-65000000D03*
D16*
X68500000Y-72600000D03*
D17*
X65960000Y-72600000D03*
D16*
X68500000Y-76500000D03*
D17*
X65960000Y-76500000D03*
D16*
X68500000Y-80400000D03*
D17*
X65960000Y-80400000D03*
D16*
X68500000Y-84400000D03*
D17*
X65960000Y-84400000D03*
D16*
X68500000Y-88400000D03*
D17*
X65960000Y-88400000D03*
D16*
X113400000Y-58400000D03*
D17*
X110860000Y-58400000D03*
D16*
X113500000Y-54500000D03*
D17*
X110960000Y-54500000D03*
D16*
X68500000Y-92500000D03*
D17*
X65960000Y-92500000D03*
D16*
X68500000Y-96400000D03*
D17*
X65960000Y-96400000D03*
D16*
X68500000Y-100400000D03*
D17*
X65960000Y-100400000D03*
D16*
X68500000Y-104400000D03*
D17*
X65960000Y-104400000D03*
D16*
X113600000Y-89000000D03*
D17*
X111060000Y-89000000D03*
D16*
X113600000Y-93000000D03*
D17*
X111060000Y-93000000D03*
D16*
X113600000Y-97100000D03*
D17*
X111060000Y-97100000D03*
D16*
X113600000Y-101000000D03*
D17*
X111060000Y-101000000D03*
D16*
X113600000Y-105100000D03*
D17*
X111060000Y-105100000D03*
D16*
X113600000Y-109100000D03*
D17*
X111060000Y-109100000D03*
D16*
X113600000Y-113100000D03*
D17*
X111060000Y-113100000D03*
D16*
X113600000Y-117100000D03*
D17*
X111060000Y-117100000D03*
D16*
X68500000Y-108400000D03*
D17*
X65960000Y-108400000D03*
D16*
X113600000Y-78500000D03*
D17*
X111060000Y-78500000D03*
D16*
X113500000Y-70500000D03*
D17*
X110960000Y-70500000D03*
D16*
X68500000Y-112300000D03*
D17*
X65960000Y-112300000D03*
D16*
X119700000Y-121700000D03*
D17*
X117160000Y-121700000D03*
D16*
X113600000Y-82500000D03*
D17*
X111060000Y-82500000D03*
D16*
X113500000Y-66500000D03*
D17*
X110960000Y-66500000D03*
D16*
X113500000Y-62500000D03*
D17*
X110960000Y-62500000D03*
D16*
X113600000Y-74500000D03*
D17*
X111060000Y-74500000D03*
D16*
X68500000Y-57000000D03*
D17*
X65960000Y-57000000D03*
D18*
X101457500Y-121879000D03*
X100822500Y-121879000D03*
X100187500Y-121879000D03*
X99552500Y-121879000D03*
X98917500Y-121879000D03*
X98282500Y-121879000D03*
X97647500Y-121879000D03*
X97012500Y-121879000D03*
X96377500Y-121879000D03*
X95742500Y-121879000D03*
X95742500Y-127721000D03*
X96377500Y-127721000D03*
X96987100Y-127721000D03*
X97647500Y-127721000D03*
X98282500Y-127721000D03*
X98917500Y-127721000D03*
X99552500Y-127721000D03*
X100212900Y-127721000D03*
X100822500Y-127721000D03*
X101457500Y-127721000D03*
D19*
X58930000Y-118720000D03*
X53930000Y-118720000D03*
D20*
X106700000Y-93240000D03*
D21*
X106700000Y-95780000D03*
X106700000Y-98320000D03*
X106700000Y-100860000D03*
X106700000Y-103400000D03*
X106700000Y-105940000D03*
X106700000Y-108480000D03*
X106700000Y-111020000D03*
X106700000Y-113560000D03*
D20*
X106900000Y-80760000D03*
D21*
X106900000Y-78220000D03*
X106900000Y-75680000D03*
X106900000Y-73140000D03*
X106900000Y-70600000D03*
X106900000Y-68060000D03*
X106900000Y-65520000D03*
X106900000Y-62980000D03*
X106900000Y-60440000D03*
D22*
X54000000Y-54000000D03*
X126000000Y-54000000D03*
X126000000Y-130000000D03*
X54000000Y-130000000D03*
D20*
X73000000Y-74840000D03*
D21*
X73000000Y-77380000D03*
X73000000Y-79920000D03*
X73000000Y-82460000D03*
X73000000Y-85000000D03*
X73000000Y-87540000D03*
X73000000Y-90080000D03*
X73000000Y-92620000D03*
X73000000Y-95160000D03*
D23*
X73000000Y-97700000D03*
D20*
X73000000Y-55340000D03*
D21*
X73000000Y-57880000D03*
X73000000Y-60420000D03*
X73000000Y-62960000D03*
X73000000Y-65500000D03*
D20*
X73000000Y-103340000D03*
D21*
X73000000Y-105880000D03*
X73000000Y-108420000D03*
X73000000Y-110960000D03*
X73000000Y-113500000D03*
X73000000Y-116040000D03*
D24*
X126000000Y-76000000D03*
D25*
X123460000Y-76000000D03*
X126000000Y-73460000D03*
X123460000Y-73460000D03*
X126000000Y-70920000D03*
X123460000Y-70920000D03*
X126000000Y-68380000D03*
X123460000Y-68380000D03*
X126000000Y-65840000D03*
X123460000Y-65840000D03*
D24*
X126000000Y-107000000D03*
D25*
X123460000Y-107000000D03*
X126000000Y-104460000D03*
X123460000Y-104460000D03*
X126000000Y-101920000D03*
X123460000Y-101920000D03*
X126000000Y-99380000D03*
X123460000Y-99380000D03*
X126000000Y-96840000D03*
X123460000Y-96840000D03*
D26*
X84480000Y-125850000D03*
X85280000Y-127050000D03*
X86080000Y-125850000D03*
X86880000Y-127050000D03*
X87680000Y-125850000D03*
D27*
X82380000Y-126750000D03*
X82380000Y-131500000D03*
X89780000Y-126750000D03*
X89780000Y-131500000D03*
D28*
X95500000Y-53000000D03*
D29*
X92960000Y-53000000D03*
X90420000Y-53000000D03*
X87880000Y-53000000D03*
X85340000Y-53000000D03*
X82800000Y-53000000D03*
D20*
X67860000Y-127500000D03*
D21*
X70400000Y-127500000D03*
X72940000Y-127500000D03*
D24*
X54100000Y-89600000D03*
D25*
X56640000Y-89600000D03*
X54100000Y-92140000D03*
X56640000Y-92140000D03*
X54100000Y-94680000D03*
X56640000Y-94680000D03*
X54100000Y-97220000D03*
X56640000Y-97220000D03*
X54100000Y-99760000D03*
X56640000Y-99760000D03*
X54100000Y-102300000D03*
X56640000Y-102300000D03*
X54100000Y-104840000D03*
X56640000Y-104840000D03*
D19*
X96230000Y-57000000D03*
X98770000Y-57000000D03*
X124500000Y-116230000D03*
X124500000Y-118770000D03*
D30*
X119000000Y-131000000D03*
X113000000Y-131000000D03*
X119000000Y-127000000D03*
X112750000Y-126750000D03*
D31*
X78800000Y-118400000D03*
D19*
X78800000Y-123400000D03*
D31*
X108500000Y-129300000D03*
D19*
X108500000Y-124300000D03*
D31*
X93000000Y-57000000D03*
D19*
X88000000Y-57000000D03*
D32*
X78000000Y-89000000D03*
D33*
X78000000Y-91500000D03*
D32*
X126000000Y-86200000D03*
D33*
X123500000Y-86200000D03*
D32*
X100530000Y-83820000D03*
D33*
X100530000Y-86320000D03*
D32*
X68400000Y-116900000D03*
D33*
X65900000Y-116900000D03*
D31*
X63000000Y-128000000D03*
D19*
X63000000Y-123000000D03*
D34*
X81280000Y-63500000D03*
X81280000Y-66040000D03*
X81280000Y-68580000D03*
X81280000Y-71120000D03*
X81280000Y-73660000D03*
X81280000Y-76200000D03*
X81280000Y-78740000D03*
X81280000Y-81280000D03*
X81280000Y-83820000D03*
X81280000Y-86360000D03*
X81280000Y-88900000D03*
X81280000Y-91440000D03*
X81280000Y-93980000D03*
X81280000Y-96520000D03*
X81280000Y-99060000D03*
X81280000Y-101600000D03*
X81280000Y-104140000D03*
X81280000Y-106680000D03*
X81280000Y-109220000D03*
X81280000Y-111760000D03*
X96520000Y-111760000D03*
X96520000Y-109220000D03*
X96520000Y-106680000D03*
X96520000Y-104140000D03*
X96520000Y-101600000D03*
X96520000Y-99060000D03*
X96520000Y-96520000D03*
X96520000Y-93980000D03*
X96520000Y-91440000D03*
X96520000Y-88900000D03*
X96520000Y-86360000D03*
X96520000Y-83820000D03*
X96520000Y-81280000D03*
X96520000Y-78740000D03*
X96520000Y-76200000D03*
X96520000Y-73660000D03*
X96520000Y-71120000D03*
X96520000Y-68580000D03*
X96520000Y-66040000D03*
X96520000Y-63500000D03*
D35*
X100730000Y-119500000D03*
X102630000Y-119500000D03*
X96550000Y-130300000D03*
X98450000Y-130300000D03*
D36*
X84600000Y-121100000D03*
X84600000Y-123300000D03*
X86900000Y-121100000D03*
X86900000Y-123300000D03*
M02*
